<?xml version="1.0"?><svg xmlns="http://www.w3.org/2000/svg"  viewBox="0 0 50 50" width="24px" height="24px">    <path d="M25,2C12.317,2,2,12.317,2,25s10.317,23,23,23s23-10.317,23-23S37.683,2,25,2z M34,37H16.682l2.968-10.599l-4.313,1.541 C15.226,27.981,15.111,28,15,28c-0.411,0-0.796-0.255-0.941-0.664c-0.187-0.52,0.085-1.092,0.605-1.277l5.646-2.016l3.727-13.312 c0.15-0.532,0.708-0.841,1.232-0.693c0.532,0.148,0.843,0.701,0.693,1.232l-3.346,11.949l6.047-2.16 c0.518-0.188,1.092,0.085,1.277,0.605c0.187,0.52-0.085,1.092-0.605,1.277l-7.379,2.635L19.318,35H34c0.553,0,1,0.447,1,1 S34.553,37,34,37z"/></svg>