<?xml version="1.0" encoding="UTF-8"?>
<svg xmlns="http://www.w3.org/2000/svg" xmlns:xlink="http://www.w3.org/1999/xlink" width="390px" height="200px" viewBox="0 0 390 200" version="1.1">
<g id="surface1">
<path style=" stroke:none;fill-rule:nonzero;fill-opacity:1;" d="M 384.777344 69.433594 L 385.894531 71.121094 L 384.941406 71.820312 L 385.566406 73.183594 L 384.6875 73.988281 L 385.609375 74.71875 L 384.726562 75.757812 L 385.839844 76.566406 L 386.902344 75.800781 L 389.363281 77.625 L 386.003906 80.394531 L 387.105469 81.171875 L 385.878906 83.078125 L 386.984375 83.777344 L 385.546875 87.613281 L 382.09375 88.140625 L 381.710938 88.871094 L 383.824219 90.433594 L 383.585938 91.191406 L 384.929688 92.664062 L 383.808594 93.839844 L 384.746094 98.789062 L 385.769531 100.222656 L 375.226562 101.726562 L 374.640625 101.613281 L 374.335938 99.273438 L 372.375 102.148438 L 368.382812 102.242188 L 366.886719 98.375 L 363.699219 97.746094 L 362.523438 96.414062 L 361.160156 96.25 L 358.152344 96.992188 L 357.792969 100.007812 L 355.574219 100.679688 L 354.410156 102.285156 L 353.03125 101.09375 L 352.820312 102.851562 L 351.808594 103.457031 L 354.773438 104.613281 L 355.128906 105.382812 L 357.175781 105.199219 L 359.742188 106.96875 L 362.199219 106.253906 L 363.414062 106.65625 L 364.40625 108.027344 L 364.621094 110 L 364.015625 110.808594 L 366.625 112.921875 L 365.289062 115.140625 L 363.414062 115.917969 L 364.296875 117.867188 L 363.890625 119.214844 L 360.1875 121.695312 L 359.609375 122.878906 L 356.28125 122.734375 L 355.582031 124.199219 L 354.996094 122.917969 L 353.003906 122.835938 L 353.78125 124.765625 L 353.296875 126.648438 L 352.34375 126.960938 L 353.863281 128.265625 L 355.160156 132.371094 L 354.035156 134.433594 L 352.207031 134.496094 L 352.578125 137.078125 L 351.40625 137.980469 L 352.035156 139.507812 L 353.335938 139.28125 L 353.824219 140.757812 L 353.375 142.6875 L 356.527344 142.261719 L 357.191406 143.867188 L 355.777344 144.09375 L 355.703125 145.128906 L 353.78125 146.304688 L 354.316406 147.820312 L 356.730469 149.019531 L 352.757812 150.484375 L 352.589844 151.082031 L 353.046875 151.597656 L 353.996094 151.019531 L 356.351562 153.132812 L 354.894531 153.726562 L 353.097656 152.90625 L 352.996094 153.699219 L 352.164062 153.835938 L 351.222656 152.917969 L 349.207031 153.421875 L 348.035156 152.566406 L 347.617188 153.625 L 345.609375 153.40625 L 345.121094 152.265625 L 344.21875 156.070312 L 343.148438 156.078125 L 341.558594 158.007812 L 340.300781 157.75 L 339.390625 160.152344 L 337.023438 162.507812 L 334.910156 163.441406 L 333.300781 165.332031 L 330.1875 165.558594 L 331.046875 161.9375 L 333.425781 159.785156 L 333.917969 158.214844 L 335.039062 158.019531 L 336.445312 154.160156 L 338.25 153.851562 L 336.84375 152.425781 L 336.054688 150.90625 L 336.46875 150.050781 L 334.828125 147.457031 L 336.183594 142.355469 L 334.242188 136.441406 L 334.746094 135.886719 L 334.210938 134.03125 L 334.386719 133.777344 L 331.996094 127.554688 L 331.996094 126.789062 L 331.902344 124.910156 L 333.613281 124.546875 L 334.535156 122.871094 L 335.113281 122.96875 L 334.464844 123.746094 L 335.023438 124.253906 L 335.839844 122.386719 L 338.894531 121.714844 L 341.640625 121.371094 L 344.554688 119.261719 L 347.53125 114.757812 L 346.042969 112.503906 L 346.246094 110.988281 L 347.082031 108.507812 L 349.15625 106.65625 L 349.25 105.09375 L 348.167969 103.042969 L 348.457031 102.402344 L 345.917969 101.828125 L 345.027344 98.785156 L 345.699219 94.523438 L 343.917969 93.890625 L 344.808594 92.523438 L 346.214844 92.886719 L 345.878906 94.089844 L 346.800781 94.203125 L 350 90.113281 L 348.085938 88.371094 L 349.988281 87.082031 L 351.25 87.210938 L 351.605469 85.867188 L 351.820312 85.433594 L 351.507812 84.972656 L 353.066406 83.171875 L 356.667969 82.507812 L 359.746094 86.769531 L 362.394531 83.554688 L 362.324219 82.304688 L 365.816406 80.777344 L 366.25 77.230469 L 368.691406 77.25 L 370.785156 75.972656 L 372.433594 76.09375 L 373.230469 74.101562 L 375.578125 72.523438 L 376.9375 73.019531 L 377.015625 74.34375 L 379.691406 75.058594 L 379.523438 76.164062 L 380.125 76.394531 L 381.902344 72.546875 L 379.566406 70.871094 L 379.847656 70.230469 L 380.449219 69.707031 L 381.410156 70.636719 L 382.246094 70.265625 L 381.347656 71.253906 L 382.925781 71.664062 L 384.558594 69.171875 Z M 384.777344 69.433594 "/>
<path style=" stroke:none;fill-rule:nonzero;fill-opacity:1;" d="M 159.875 145.714844 L 160.765625 144.179688 L 164.085938 143.492188 L 164.351562 145.585938 L 167.039062 146.304688 L 168.609375 145.972656 L 169.882812 147.203125 L 173.609375 147.222656 L 174.480469 147.558594 L 175.953125 150.371094 L 178.324219 150.011719 L 178.929688 151.160156 L 180.660156 151.949219 L 190.355469 149.714844 L 190.316406 147.242188 L 191.730469 146.242188 L 193.542969 146.917969 L 196.207031 146.019531 L 198.007812 148.121094 L 199.496094 147.273438 L 201.171875 147.386719 L 207.09375 149.414062 L 209.945312 149.121094 L 210.683594 150.351562 L 212.980469 150.335938 L 213.082031 152.847656 L 214.972656 154.089844 L 216.128906 153.917969 L 217.585938 157.433594 L 219.277344 159.371094 L 220.9375 159.96875 L 221.765625 159.199219 L 225.097656 159.132812 L 224.367188 157.839844 L 226.105469 157.585938 L 226.105469 156.371094 L 229.011719 155.3125 L 229.386719 152.949219 L 231.917969 152.675781 L 234.902344 150.121094 L 235.277344 148.707031 L 236.902344 149.402344 L 238.9375 147.757812 L 240.488281 151.300781 L 241.367188 150.648438 L 242.035156 151.40625 L 247.238281 151.515625 L 248.027344 152.191406 L 248.074219 154.699219 L 248.949219 154.808594 L 250.453125 153.3125 L 251.796875 153.714844 L 251.808594 152.496094 L 252.601562 152.714844 L 252.832031 151.585938 L 254.15625 151.335938 L 254.753906 152.546875 L 258.390625 152.371094 L 259.824219 153.515625 L 260.480469 152.191406 L 271.460938 149.613281 L 271.824219 151.039062 L 274.621094 153.324219 L 277.320312 154.082031 L 279.03125 157.917969 L 280.789062 159.96875 L 279.71875 162.535156 L 280.121094 165.597656 L 278.847656 166.386719 L 278.167969 169.128906 L 280.882812 170.402344 L 281.683594 174.496094 L 280.546875 177.527344 L 281.996094 177.808594 L 282.777344 179.09375 L 280.203125 179.917969 L 278.28125 182.71875 L 277.097656 180.816406 L 275.953125 181.769531 L 275.476562 181.375 L 275.304688 182.941406 L 273.789062 182.113281 L 272.636719 182.71875 L 270.984375 185.542969 L 270.125 189.664062 L 266.664062 190.515625 L 266.257812 189.949219 L 265.601562 191.132812 L 264.882812 190.191406 L 264.164062 192.96875 L 263.34375 192.707031 L 262.234375 194.40625 L 258.386719 195.535156 L 258.429688 198.121094 L 257.210938 199.679688 L 255.128906 195.886719 L 253.660156 196.726562 L 251.261719 196.070312 L 250.453125 194.273438 L 244.464844 195.457031 L 243.105469 194.492188 L 240.699219 195.292969 L 239.714844 194.507812 L 236.621094 195.160156 L 234.558594 192.019531 L 231.214844 190.871094 L 229.011719 191.695312 L 224.105469 188.738281 L 220.066406 188.859375 L 218.152344 189.886719 L 214.429688 188.625 L 212.332031 188.800781 L 209.167969 187.363281 L 206.796875 187.648438 L 206.203125 186.628906 L 204.015625 186.960938 L 203.25 185.535156 L 199.382812 186.230469 L 198.421875 185.917969 L 198.523438 185.128906 L 196.699219 184.613281 L 196.589844 185.515625 L 195.273438 185.371094 L 194.097656 186.644531 L 191.570312 185.929688 L 189.886719 186.628906 L 186.257812 183.898438 L 182.121094 182.886719 L 180.203125 183.421875 L 174.105469 182.242188 L 169.933594 182.515625 L 169.296875 180.726562 L 165.664062 179.421875 L 164.046875 180.335938 L 162.023438 178.6875 L 162.070312 175.785156 L 162.414062 175.230469 L 163.578125 175.441406 L 162.878906 174.535156 L 163.273438 172.707031 L 167.871094 171.230469 L 169.753906 171.851562 L 172.613281 169.972656 L 174.226562 170.851562 L 176.027344 168.664062 L 169.921875 163.734375 L 169.449219 159.636719 L 167.445312 158.949219 L 164.84375 156.183594 L 163.710938 153.597656 L 166.167969 150.230469 L 163.324219 149.941406 L 162.46875 147.707031 Z M 159.875 145.714844 "/>
<path style=" stroke:none;fill-rule:nonzero;fill-opacity:1;" d="M 281.195312 0.464844 L 282.746094 0.421875 L 282.9375 1.644531 L 284.675781 2.0625 L 286.214844 1.527344 L 287.417969 2.128906 L 287.097656 3.089844 L 288.070312 4.566406 L 287.632812 6.03125 L 289.101562 5.980469 L 290.882812 4.667969 L 292.765625 5.179688 L 293.644531 1.988281 L 294.585938 3.113281 L 298.117188 3.007812 L 301.089844 5.351562 L 302.648438 5.828125 L 303.289062 5.324219 L 304.9375 6.515625 L 305.625 8.300781 L 308.851562 9.613281 L 310.605469 9.492188 L 314.5625 12.746094 L 315.511719 12.351562 L 317.679688 13.058594 L 319.042969 11.265625 L 322.117188 11.058594 L 322.757812 11.820312 L 322.273438 12.433594 L 323.433594 12.980469 L 323.941406 12.394531 L 324.476562 13.796875 L 325.09375 13.292969 L 325.460938 14.027344 L 324.832031 13.71875 L 324.871094 14.34375 L 326.164062 14.019531 L 326.882812 15.523438 L 327.359375 14.886719 L 328.121094 15.230469 L 327.777344 16.617188 L 329.960938 18.65625 L 335.074219 21.132812 L 344.378906 21.527344 L 347.15625 22.292969 L 347.660156 21.121094 L 348.59375 22.59375 L 349.585938 22.484375 L 352.40625 19.648438 L 353.132812 17.039062 L 354.144531 16.535156 L 356.695312 17.113281 L 357.769531 15.960938 L 360.480469 18.414062 L 364.015625 18.484375 L 364.875 20.171875 L 364.964844 22.574219 L 367.148438 21.820312 L 368.273438 22.242188 L 368.808594 23.496094 L 370.976562 24.28125 L 372.667969 23.425781 L 374.375 23.835938 L 375.003906 22.941406 L 376.144531 23.363281 L 377.421875 29.140625 L 376.976562 30.667969 L 378.117188 31.148438 L 377.878906 34.628906 L 378.726562 36.542969 L 378.25 38.355469 L 376.714844 39.0625 L 376.957031 40.304688 L 375.792969 40.335938 L 375.882812 41.171875 L 373.578125 43.878906 L 373.972656 47.546875 L 373.574219 48.921875 L 372.707031 49.164062 L 373.222656 51.335938 L 374.707031 51.578125 L 374.679688 52.386719 L 376.511719 53.304688 L 375.863281 54.578125 L 377.28125 57.371094 L 378.988281 58.039062 L 378.492188 60.140625 L 379.878906 65.09375 L 382.554688 67.441406 L 383.980469 67.28125 L 384.554688 69.191406 L 382.917969 71.679688 L 381.339844 71.273438 L 382.238281 70.285156 L 381.398438 70.65625 L 380.445312 69.71875 L 379.832031 70.242188 L 379.558594 70.886719 L 381.894531 72.554688 L 380.113281 76.402344 L 379.515625 76.171875 L 379.6875 75.0625 L 377.003906 74.351562 L 376.933594 73.019531 L 375.570312 72.527344 L 373.222656 74.109375 L 372.425781 76.101562 L 370.78125 75.980469 L 368.691406 77.253906 L 366.25 77.230469 L 365.816406 80.777344 L 362.324219 82.304688 L 362.386719 83.554688 L 359.742188 86.769531 L 356.664062 82.507812 L 353.0625 83.164062 L 351.507812 84.96875 L 351.820312 85.425781 L 351.605469 85.859375 L 351.25 87.203125 L 349.988281 87.078125 L 348.078125 88.363281 L 349.996094 90.109375 L 346.792969 94.199219 L 345.871094 94.082031 L 346.210938 92.878906 L 344.804688 92.515625 L 343.914062 93.886719 L 345.695312 94.507812 L 345.019531 98.769531 L 345.917969 101.816406 L 348.457031 102.386719 L 348.164062 103.03125 L 349.242188 105.089844 L 349.148438 106.648438 L 347.074219 108.503906 L 346.246094 110.988281 L 346.042969 112.496094 L 347.527344 114.75 L 344.546875 119.253906 L 341.636719 121.363281 L 338.894531 121.707031 L 337.664062 120.746094 L 336.488281 118.132812 L 336.5 115.019531 L 336.03125 115.34375 L 335.921875 114.324219 L 335.273438 114.140625 L 333.117188 116.867188 L 331.613281 114.941406 L 327.949219 114.574219 L 326.09375 113.476562 L 324.671875 110.464844 L 322.566406 110.808594 L 323.140625 106.847656 L 322.191406 106.96875 L 321.25 105.617188 L 319.132812 105.230469 L 317.273438 106.03125 L 316.332031 104.757812 L 316.039062 100.191406 L 314.871094 99.972656 L 313.894531 100.992188 L 312.695312 99.613281 L 311.839844 99.769531 L 310.582031 97.082031 L 305.535156 97.402344 L 305.703125 96.050781 L 302.367188 95.566406 L 301.746094 93.988281 L 300.375 94.542969 L 300.058594 92.304688 L 297.023438 91.332031 L 294.707031 91.949219 L 294.136719 94.160156 L 290.507812 93.808594 L 289.785156 95.679688 L 290.125 95.679688 L 289.597656 96.917969 L 286.601562 96.3125 L 286.113281 97.371094 L 283.929688 97.871094 L 282.523438 97.90625 L 281.21875 96.890625 L 279.296875 97.789062 L 278.097656 97.554688 L 275.832031 100.027344 L 274.792969 100.101562 L 273.179688 99.625 L 272.371094 97.664062 L 271.230469 98.292969 L 270.351562 97.394531 L 267.636719 98.871094 L 266.222656 97.230469 L 266.601562 96.679688 L 264.914062 94.070312 L 265.925781 93.324219 L 264.765625 91.835938 L 265.601562 90.214844 L 264.773438 89.476562 L 267.542969 87.777344 L 267.9375 86.972656 L 267.3125 85.59375 L 265.683594 83.113281 L 264.4375 83.820312 L 260.664062 82.574219 L 256.960938 79.558594 L 254.179688 78.707031 L 251.878906 75.128906 L 251.851562 72.113281 L 252.597656 71.71875 L 251.980469 71.414062 L 253.835938 69.789062 L 252.53125 68.957031 L 253.511719 61.625 L 255.28125 60.148438 L 257.945312 61.011719 L 262.132812 65.65625 L 263.859375 66.273438 L 265.167969 64.625 L 266.371094 65.019531 L 271.046875 63.6875 L 272.171875 61.101562 L 273.554688 60.476562 L 276.320312 60.605469 L 277.441406 62.707031 L 278.320312 62.929688 L 277.242188 61.058594 L 278.941406 58.574219 L 278.667969 53.886719 L 276.492188 53.542969 L 277.605469 48.503906 L 275.195312 48.574219 L 276.605469 47.242188 L 276.402344 46.019531 L 273.253906 43.363281 L 272.65625 41.472656 L 275.488281 39.613281 L 274.386719 38.28125 L 271.5 37.714844 L 271.808594 37.199219 L 269.734375 35.71875 L 267.972656 35.898438 L 267.253906 35.070312 L 266.085938 36.089844 L 263.789062 33.527344 L 264.269531 33.757812 L 265.269531 32.304688 L 264.824219 28.515625 L 265.570312 25.699219 L 269.699219 22.109375 L 269.761719 18.628906 L 273.375 18.523438 L 273.75 19.304688 L 277.1875 20.230469 L 278.414062 19.171875 L 277.058594 17.757812 L 277.835938 14.214844 L 278.65625 13.738281 L 277.988281 11.355469 L 278.636719 11.242188 L 279.03125 9.078125 L 278.34375 3.121094 L 279.324219 2.214844 L 279.230469 0.421875 Z M 347.964844 56.183594 L 347.1875 56.648438 L 344.976562 57.625 L 343.296875 59.859375 L 342.398438 59.910156 L 341.136719 58.507812 L 340.71875 58.273438 L 340.253906 60.757812 L 339.5625 61.183594 L 340.355469 61.3125 L 340.546875 62.898438 L 339.585938 65.214844 L 340.382812 66.421875 L 341.378906 66.507812 L 340.929688 66.957031 L 341.519531 67.9375 L 342.339844 67.890625 L 341.550781 68.789062 L 344.039062 68.070312 L 346.164062 69.128906 L 346.964844 67.789062 L 352.445312 69.128906 L 352.285156 67.816406 L 356.394531 66.152344 L 359.234375 67.828125 L 359.660156 67.382812 L 359.480469 66.050781 L 358.355469 65.898438 L 358.207031 64.679688 L 357.539062 64.433594 L 358.066406 58.3125 L 356.816406 58.203125 L 356.101562 57.433594 L 356.351562 56.453125 L 355.503906 56.011719 L 354.742188 55.960938 L 354.460938 57.273438 L 352.8125 56.027344 L 352.722656 55.09375 L 352.640625 54.800781 L 351.910156 53.816406 L 350.707031 53.992188 L 350.667969 54.113281 L 350.28125 53.972656 L 349.257812 54.324219 L 349.53125 55.222656 L 349.382812 56.34375 L 348.269531 56.667969 Z M 347.964844 56.183594 "/>
<path style=" stroke:none;fill-rule:nonzero;fill-opacity:1;" d="M 220.882812 19.324219 L 222.21875 19.527344 L 226.402344 23.675781 L 228.789062 24.0625 L 230.359375 26.503906 L 231.652344 26.695312 L 231.316406 28.332031 L 229.882812 28.324219 L 229.152344 29.382812 L 230.125 30.355469 L 231.023438 30.210938 L 230.742188 31.394531 L 232.109375 31.878906 L 232.019531 32.765625 L 233.523438 32.40625 L 233.492188 32.988281 L 234.515625 33.214844 L 235.316406 32.566406 L 238.359375 32.9375 L 240.921875 34.132812 L 242.4375 33.835938 L 245.648438 36.070312 L 246.800781 34.34375 L 248.398438 34.527344 L 248.296875 32.917969 L 250.492188 33.28125 L 251.769531 30.496094 L 251.183594 29.109375 L 252.515625 28.707031 L 254.167969 31.09375 L 256.320312 31.261719 L 257.152344 32.070312 L 259.691406 30.199219 L 260.339844 31.898438 L 261.566406 31.648438 L 262.402344 33.796875 L 263.78125 33.527344 L 266.078125 36.089844 L 267.25 35.070312 L 267.972656 35.898438 L 269.734375 35.71875 L 271.808594 37.199219 L 271.5 37.714844 L 274.386719 38.28125 L 275.488281 39.613281 L 272.65625 41.472656 L 273.253906 43.363281 L 276.402344 46.019531 L 276.605469 47.242188 L 275.195312 48.566406 L 277.605469 48.503906 L 276.492188 53.542969 L 278.667969 53.886719 L 278.949219 58.574219 L 277.25 61.058594 L 278.324219 62.929688 L 277.445312 62.707031 L 276.328125 60.605469 L 273.558594 60.476562 L 272.179688 61.101562 L 271.054688 63.6875 L 266.378906 65.019531 L 265.167969 64.625 L 263.859375 66.273438 L 262.132812 65.664062 L 257.945312 61.019531 L 255.28125 60.148438 L 253.511719 61.625 L 252.527344 68.960938 L 253.832031 69.796875 L 251.964844 71.421875 L 252.582031 71.726562 L 251.847656 72.121094 L 251.871094 75.132812 L 254.167969 78.714844 L 256.953125 79.574219 L 260.652344 82.585938 L 264.421875 83.835938 L 265.671875 83.132812 L 267.292969 85.605469 L 267.917969 86.992188 L 267.523438 87.796875 L 264.753906 89.496094 L 265.582031 90.234375 L 264.75 91.851562 L 265.90625 93.34375 L 264.894531 94.089844 L 266.582031 96.699219 L 266.207031 97.253906 L 263.910156 96.019531 L 262.933594 97.789062 L 261.503906 98.59375 L 259.816406 98.503906 L 258.238281 99.714844 L 255.414062 100.113281 L 255.058594 102.351562 L 253.386719 102.394531 L 250.796875 104.464844 L 249.007812 104.382812 L 248.746094 105.648438 L 244.53125 107.90625 L 241.648438 107.472656 L 240.089844 105.402344 L 240.445312 104.59375 L 231.207031 107.09375 L 231.417969 103.265625 L 229.089844 100.765625 L 224.488281 100.453125 L 222.34375 98.851562 L 221.511719 98.796875 L 221.027344 99.765625 L 217.355469 99.578125 L 215.15625 102.011719 L 215.210938 102.808594 L 214.09375 103.234375 L 213.113281 106.242188 L 213.03125 109.628906 L 215.160156 110.140625 L 216.179688 111.949219 L 215.691406 113.019531 L 216.421875 114.425781 L 214.246094 117.96875 L 214.542969 118.765625 L 207.550781 117.9375 L 204.160156 116.234375 L 202.589844 114.867188 L 202.03125 113.222656 L 202.074219 110.796875 L 203.480469 109.75 L 204.347656 107.058594 L 204.015625 106.128906 L 202.902344 106.152344 L 202.378906 105.285156 L 205.472656 99.808594 L 200.050781 98.050781 L 200.484375 95.40625 L 201.386719 94.351562 L 204.074219 95.394531 L 205.152344 94.648438 L 204.601562 93.441406 L 202.671875 94.058594 L 201.496094 93.0625 L 197.640625 93.726562 L 192.335938 91.042969 L 192.796875 89.078125 L 191.519531 86.484375 L 192.054688 86.011719 L 191.972656 81.980469 L 193.464844 80.988281 L 195.929688 82.789062 L 196.519531 79.992188 L 194.574219 79.179688 L 192.914062 77.371094 L 192.144531 78.414062 L 185.265625 80.476562 L 185.417969 78.707031 L 183.960938 79.050781 L 181.539062 77.785156 L 180.234375 74.847656 L 176.644531 76.40625 L 174.394531 75.472656 L 172.472656 78.457031 L 170.691406 78.355469 L 169.75 76.402344 L 165.492188 72.265625 L 165.058594 69.898438 L 165.554688 68.507812 L 166.898438 68.828125 L 167.605469 67.058594 L 170.054688 65.445312 L 171.207031 62.820312 L 175.644531 62.230469 L 178.867188 58.574219 L 187.039062 55.738281 L 190.761719 55.90625 L 194.769531 53.382812 L 198.660156 49.664062 L 200.089844 45.382812 L 199.445312 43.375 L 201.039062 39.160156 L 200.089844 35.605469 L 200.6875 35.152344 L 201.984375 35.765625 L 203.523438 34.285156 L 203.644531 33.191406 L 206.941406 35.464844 L 208.609375 34.96875 L 211.03125 36.371094 L 211.625 37.453125 L 214.964844 38.957031 L 215.804688 37.597656 L 215.664062 35.960938 L 216.289062 35.132812 L 216.855469 35.90625 L 218.46875 34.363281 L 218.445312 32.714844 L 219.613281 31.320312 L 219.074219 25.402344 L 220.339844 24.859375 L 219.050781 24.617188 L 218.164062 23.558594 Z M 220.882812 19.324219 "/>
<path style=" stroke:none;fill-rule:nonzero;fill-opacity:1;" d="M 266.207031 97.253906 L 267.617188 98.898438 L 270.335938 97.421875 L 271.210938 98.3125 L 272.351562 97.679688 L 273.160156 99.644531 L 274.773438 100.113281 L 275.8125 100.042969 L 278.082031 97.566406 L 279.285156 97.800781 L 281.207031 96.90625 L 282.511719 97.917969 L 283.917969 97.886719 L 286.101562 97.382812 L 286.589844 96.324219 L 289.585938 96.929688 L 290.121094 95.6875 L 289.777344 95.6875 L 290.503906 93.816406 L 294.136719 94.164062 L 294.703125 91.949219 L 297.023438 91.332031 L 300.058594 92.304688 L 300.375 94.542969 L 301.746094 93.992188 L 302.367188 95.566406 L 305.703125 96.050781 L 305.542969 97.402344 L 310.582031 97.082031 L 311.839844 99.769531 L 312.699219 99.613281 L 313.902344 100.992188 L 314.875 99.972656 L 316.046875 100.191406 L 316.339844 104.757812 L 317.28125 106.03125 L 319.136719 105.230469 L 321.257812 105.617188 L 322.199219 106.96875 L 323.140625 106.847656 L 322.566406 110.808594 L 324.671875 110.464844 L 326.09375 113.476562 L 327.949219 114.574219 L 331.613281 114.941406 L 333.117188 116.867188 L 335.273438 114.140625 L 335.921875 114.324219 L 336.03125 115.351562 L 336.5 115.027344 L 336.488281 118.140625 L 337.671875 120.75 L 338.894531 121.714844 L 335.839844 122.386719 L 335.023438 124.253906 L 334.464844 123.746094 L 335.113281 122.96875 L 334.535156 122.871094 L 333.613281 124.546875 L 331.902344 124.910156 L 331.996094 126.789062 L 331.996094 127.554688 L 334.386719 133.777344 L 334.210938 134.03125 L 334.746094 135.886719 L 334.242188 136.441406 L 336.183594 142.355469 L 334.828125 147.457031 L 336.46875 150.050781 L 336.054688 150.90625 L 336.84375 152.425781 L 338.25 153.851562 L 336.445312 154.160156 L 335.039062 158.019531 L 333.917969 158.214844 L 333.425781 159.785156 L 331.046875 161.9375 L 330.1875 165.558594 L 329.578125 166.160156 L 330.253906 167.445312 L 329.605469 172.578125 L 330.445312 174.191406 L 331.863281 174.679688 L 332.035156 178.835938 L 329.914062 176.839844 L 327.421875 176.152344 L 324.023438 174.011719 L 322.21875 173.859375 L 317.980469 175.597656 L 312.839844 175.027344 L 312.625 176.09375 L 311.25 176.992188 L 310.429688 176.734375 L 310.21875 177.484375 L 309.570312 177.042969 L 310.320312 176.441406 L 309.765625 176.28125 L 307.210938 177.777344 L 307.398438 180.03125 L 305.007812 181.859375 L 303.046875 181.789062 L 302.621094 180.019531 L 300.511719 178.835938 L 294.324219 179.0625 L 291.355469 180.011719 L 286.851562 178.496094 L 286.046875 179.164062 L 284.816406 178.527344 L 283.546875 179.507812 L 282.777344 179.09375 L 281.996094 177.808594 L 280.546875 177.527344 L 281.683594 174.496094 L 280.882812 170.402344 L 278.167969 169.128906 L 278.847656 166.386719 L 280.121094 165.597656 L 279.71875 162.535156 L 280.789062 159.96875 L 279.03125 157.917969 L 277.320312 154.082031 L 274.621094 153.324219 L 271.824219 151.039062 L 271.460938 149.613281 L 260.480469 152.191406 L 259.824219 153.515625 L 258.390625 152.371094 L 254.753906 152.546875 L 254.15625 151.335938 L 252.832031 151.585938 L 252.601562 152.714844 L 251.808594 152.496094 L 251.796875 153.714844 L 250.453125 153.3125 L 248.949219 154.808594 L 248.074219 154.699219 L 248.027344 152.191406 L 247.238281 151.515625 L 242.035156 151.40625 L 241.367188 150.648438 L 240.488281 151.300781 L 238.9375 147.757812 L 236.902344 149.402344 L 235.277344 148.707031 L 234.902344 150.121094 L 231.917969 152.675781 L 229.386719 152.949219 L 229.011719 155.3125 L 226.105469 156.371094 L 226.105469 157.585938 L 224.367188 157.839844 L 225.097656 159.132812 L 221.765625 159.199219 L 220.9375 159.96875 L 219.277344 159.371094 L 217.585938 157.433594 L 219.1875 156.816406 L 220.742188 154.128906 L 221.773438 153.585938 L 221.785156 151.648438 L 223.910156 148.375 L 222.371094 146.101562 L 222.496094 145.214844 L 225.507812 143.164062 L 226.519531 144.070312 L 227.929688 143.941406 L 228.3125 142.820312 L 223.425781 139.644531 L 223.707031 138.820312 L 221.078125 136.164062 L 221.894531 135.363281 L 221.675781 134.441406 L 219.734375 133.40625 L 219.632812 131.363281 L 219.03125 131.171875 L 216.6875 133.273438 L 214.527344 132.59375 L 213.945312 133.960938 L 212.125 132.847656 L 208.648438 132.128906 L 208.015625 129.714844 L 208.492188 128.808594 L 206.4375 121.847656 L 207.859375 118.921875 L 207.550781 117.9375 L 214.542969 118.765625 L 214.246094 117.96875 L 216.421875 114.425781 L 215.691406 113.019531 L 216.179688 111.949219 L 215.160156 110.140625 L 213.03125 109.628906 L 213.113281 106.242188 L 214.09375 103.234375 L 215.210938 102.808594 L 215.15625 102.011719 L 217.355469 99.578125 L 221.027344 99.765625 L 221.511719 98.796875 L 222.34375 98.851562 L 224.488281 100.453125 L 229.089844 100.765625 L 231.417969 103.265625 L 231.207031 107.09375 L 240.445312 104.59375 L 240.089844 105.402344 L 241.648438 107.472656 L 244.53125 107.90625 L 248.746094 105.648438 L 249.007812 104.382812 L 250.796875 104.464844 L 253.386719 102.394531 L 255.058594 102.351562 L 255.414062 100.113281 L 258.238281 99.714844 L 259.816406 98.503906 L 261.503906 98.59375 L 262.933594 97.789062 L 263.910156 96.019531 Z M 266.207031 97.253906 "/>
<path style=" stroke:none;fill-rule:nonzero;fill-opacity:1;" d="M 170.691406 78.355469 L 172.472656 78.457031 L 174.394531 75.472656 L 176.644531 76.40625 L 180.234375 74.847656 L 181.539062 77.785156 L 183.960938 79.050781 L 185.417969 78.707031 L 185.265625 80.476562 L 192.144531 78.414062 L 192.914062 77.371094 L 194.574219 79.179688 L 196.519531 79.992188 L 195.929688 82.789062 L 193.464844 80.988281 L 191.972656 81.980469 L 192.054688 86.011719 L 191.519531 86.484375 L 192.796875 89.078125 L 192.335938 91.042969 L 197.640625 93.726562 L 201.496094 93.0625 L 202.671875 94.058594 L 204.601562 93.441406 L 205.152344 94.648438 L 204.074219 95.394531 L 201.386719 94.351562 L 200.484375 95.40625 L 200.050781 98.050781 L 205.472656 99.808594 L 202.378906 105.285156 L 202.902344 106.152344 L 204.015625 106.128906 L 204.347656 107.058594 L 203.480469 109.75 L 202.074219 110.796875 L 202.03125 113.222656 L 202.589844 114.867188 L 204.160156 116.234375 L 207.550781 117.9375 L 207.859375 118.921875 L 206.4375 121.847656 L 208.492188 128.808594 L 208.015625 129.714844 L 208.648438 132.128906 L 212.125 132.847656 L 213.945312 133.960938 L 214.527344 132.59375 L 216.6875 133.273438 L 219.03125 131.171875 L 219.632812 131.363281 L 219.734375 133.40625 L 221.675781 134.441406 L 221.894531 135.363281 L 221.078125 136.164062 L 223.707031 138.820312 L 223.425781 139.644531 L 228.3125 142.820312 L 227.929688 143.941406 L 226.519531 144.070312 L 225.507812 143.164062 L 222.496094 145.214844 L 222.371094 146.101562 L 223.910156 148.375 L 221.785156 151.648438 L 221.773438 153.585938 L 220.742188 154.128906 L 219.1875 156.816406 L 217.585938 157.433594 L 216.128906 153.917969 L 214.972656 154.089844 L 213.082031 152.847656 L 212.980469 150.335938 L 210.683594 150.351562 L 209.945312 149.121094 L 207.09375 149.414062 L 201.171875 147.386719 L 199.496094 147.273438 L 198.007812 148.121094 L 196.207031 146.019531 L 193.542969 146.917969 L 191.730469 146.242188 L 190.316406 147.242188 L 190.355469 149.714844 L 180.660156 151.949219 L 178.929688 151.160156 L 178.324219 150.011719 L 175.953125 150.371094 L 174.480469 147.558594 L 173.609375 147.222656 L 169.882812 147.203125 L 168.609375 145.972656 L 167.039062 146.304688 L 164.351562 145.585938 L 164.085938 143.492188 L 160.765625 144.179688 L 159.875 145.714844 L 158.730469 144.394531 L 156.027344 143.332031 L 154.964844 143.738281 L 152.042969 141.625 L 148.109375 142.695312 L 147.226562 141.949219 L 145.523438 142.820312 L 144.941406 145.128906 L 143.066406 145.441406 L 142.613281 146.371094 L 141.660156 146.25 L 140.222656 147.898438 L 138.980469 148.164062 L 138.339844 147.109375 L 136.320312 146.355469 L 133.808594 147.253906 L 131.058594 138.757812 L 132.480469 135.082031 L 130.785156 132.890625 L 132.503906 130.625 L 134.296875 131.605469 L 135.519531 130.613281 L 137.453125 130.796875 L 138.261719 130.007812 L 138.980469 130.839844 L 139.820312 130.332031 L 140.40625 130.757812 L 141.972656 128.535156 L 145.949219 130.078125 L 147.761719 129.921875 L 149.453125 128.816406 L 150.820312 129.132812 L 152.234375 127.617188 L 151.273438 125.628906 L 152.632812 123.917969 L 155.511719 123.433594 L 156.285156 124.007812 L 158.597656 122.152344 L 159.367188 120.527344 L 159.148438 118.441406 L 160.734375 118.546875 L 162.464844 117.59375 L 159.007812 112.382812 L 160.804688 110.152344 L 160.019531 109.292969 L 156.179688 108.230469 L 156.179688 105.949219 L 157.722656 102.90625 L 159.96875 103.089844 L 161.558594 102.148438 L 164.148438 102.3125 L 165.542969 103.554688 L 166.777344 102.847656 L 165.570312 104.527344 L 168.894531 107.441406 L 167.539062 107.96875 L 166.667969 109.769531 L 167.488281 111.707031 L 170.054688 112.386719 L 170.347656 113.613281 L 171.828125 114.253906 L 173.171875 116.109375 L 176.167969 117.816406 L 176.46875 117.007812 L 177.492188 117.476562 L 177.941406 118.628906 L 180.195312 116.457031 L 180.214844 114.179688 L 179.4375 113.253906 L 180.761719 111.230469 L 179.980469 110.164062 L 181.421875 109.3125 L 180.976562 108.234375 L 182.808594 105.75 L 181.710938 103.113281 L 181.894531 101.835938 L 178.660156 99.082031 L 176.410156 100.265625 L 174.152344 100.042969 L 173.121094 99.082031 L 174.890625 96.011719 L 174.132812 95.40625 L 177.980469 89.578125 L 174.652344 82.492188 L 173.839844 82.769531 L 173.417969 81.496094 L 171.421875 80.988281 Z M 170.691406 78.355469 "/>
<path style=" stroke:none;fill-rule:nonzero;fill-opacity:1;" d="M 138.980469 148.164062 L 140.222656 147.898438 L 141.660156 146.253906 L 142.613281 146.375 L 143.066406 145.445312 L 144.941406 145.132812 L 145.523438 142.828125 L 147.226562 141.957031 L 148.109375 142.699219 L 152.042969 141.625 L 154.964844 143.746094 L 156.019531 143.335938 L 158.722656 144.402344 L 159.875 145.71875 L 162.464844 147.707031 L 163.316406 149.949219 L 166.160156 150.230469 L 163.703125 153.597656 L 164.835938 156.183594 L 167.4375 158.949219 L 169.441406 159.628906 L 169.914062 163.726562 L 176.023438 168.65625 L 174.214844 170.847656 L 172.605469 169.96875 L 169.75 171.847656 L 167.867188 171.222656 L 163.265625 172.695312 L 162.871094 174.523438 L 163.566406 175.433594 L 162.398438 175.214844 L 162.058594 175.769531 L 162.019531 178.675781 L 159.488281 178.96875 L 158.660156 178.285156 L 155.597656 179.042969 L 153.335938 177.109375 L 151.476562 177.203125 L 148.035156 175.492188 L 146.253906 174.078125 L 144.960938 169.921875 L 141.339844 169.253906 L 141.398438 166.949219 L 142.523438 165.113281 L 140.972656 161.9375 L 139.214844 161.503906 L 137.855469 162.566406 L 136.421875 160.265625 L 134.179688 159.835938 L 135.46875 157.929688 L 133.871094 156.386719 L 133.050781 152.605469 L 134.347656 151.382812 L 137.269531 151.101562 L 137.828125 148.921875 Z M 139.472656 100.042969 L 139.179688 101.320312 L 140.121094 102.523438 L 144 101.113281 L 145.605469 102.070312 L 149.28125 101.25 L 149.238281 102.71875 L 152.265625 106.507812 L 154.28125 105.679688 L 156.179688 105.957031 L 156.171875 108.234375 L 160.019531 109.300781 L 160.796875 110.164062 L 159.007812 112.386719 L 162.457031 117.597656 L 160.726562 118.554688 L 159.144531 118.445312 L 159.359375 120.527344 L 158.589844 122.152344 L 156.28125 124.007812 L 155.503906 123.441406 L 152.628906 123.917969 L 151.273438 125.628906 L 152.226562 127.617188 L 150.820312 129.140625 L 149.453125 128.816406 L 147.761719 129.921875 L 145.949219 130.082031 L 141.972656 128.542969 L 140.40625 130.765625 L 139.816406 130.335938 L 138.976562 130.847656 L 138.257812 130.007812 L 137.449219 130.800781 L 135.515625 130.617188 L 134.292969 131.613281 L 132.5 130.628906 L 130.78125 132.898438 L 132.472656 135.089844 L 131.054688 138.765625 L 133.800781 147.265625 L 131.746094 147.40625 L 130.632812 148.828125 L 128.820312 148.636719 L 127.917969 149.707031 L 125.644531 149.535156 L 124.203125 150.679688 L 122.636719 150.75 L 118.617188 153.839844 L 115.886719 153.949219 L 114.09375 155.605469 L 113.066406 155.3125 L 112.203125 153.90625 L 109.828125 153.839844 L 107.566406 152.335938 L 103.398438 154.554688 L 100.496094 152.453125 L 98.511719 155.160156 L 96.667969 155.941406 L 94.292969 154.007812 L 93.238281 154.476562 L 92.390625 153.898438 L 86.664062 156.113281 L 85.753906 155.503906 L 84.515625 155.871094 L 84.382812 157.800781 L 83.203125 158.679688 L 81.90625 158.503906 L 81.007812 159.796875 L 81.148438 161.578125 L 79.730469 164.183594 L 80.347656 166.597656 L 78.082031 167.789062 L 77.148438 170.625 L 71.949219 170.070312 L 70.300781 170.9375 L 67.839844 169.492188 L 66.667969 169.980469 L 65.289062 168.476562 L 63.671875 169.292969 L 62.34375 169.0625 L 64.078125 166.441406 L 63.632812 165.636719 L 60.484375 164.355469 L 60.496094 163.355469 L 59.148438 162.59375 L 53.105469 165.414062 L 53.472656 164.542969 L 50.699219 164.734375 L 49.269531 164 L 48.988281 161.757812 L 50.214844 157.769531 L 47.042969 156.3125 L 47.042969 154.972656 L 45.082031 153.164062 L 42.613281 154.527344 L 41.976562 156.636719 L 40.996094 157.101562 L 41.410156 158.757812 L 40.457031 159.164062 L 37.625 158.363281 L 36.84375 160.90625 L 37.109375 163.179688 L 35.226562 163.164062 L 33.953125 164.363281 L 32.726562 164.332031 L 30.1875 158.820312 L 31.542969 157.765625 L 32.644531 154.546875 L 33.386719 154.558594 L 33.371094 153.433594 L 31.847656 151.65625 L 33.199219 149.628906 L 32.960938 148.777344 L 32.089844 148.574219 L 32.046875 147.210938 L 33.273438 144.785156 L 34.75 144.464844 L 34.558594 143.839844 L 36.027344 142.230469 L 35.257812 138.871094 L 35.953125 136.441406 L 35.335938 135.820312 L 36.511719 134.441406 L 35.175781 134.101562 L 34.457031 133.078125 L 35.550781 132.613281 L 37.191406 133.078125 L 42.125 130.472656 L 45.496094 125.171875 L 47.5 124.777344 L 47.523438 122.566406 L 49.515625 120.917969 L 49.167969 117.65625 L 47.875 117.058594 L 47.265625 115.667969 L 48.347656 111.851562 L 47.214844 110.128906 L 47.613281 109.585938 L 49.785156 109.527344 L 48.484375 111.75 L 51.941406 113.292969 L 54.410156 113.386719 L 55.738281 110.757812 L 60.402344 111.476562 L 60.632812 112.566406 L 63.863281 113.351562 L 64.824219 114.851562 L 70.371094 113.140625 L 71.890625 114.9375 L 69.621094 115.785156 L 69.429688 117.25 L 72.796875 117.363281 L 72.476562 118.089844 L 75.257812 121.152344 L 74.546875 122.300781 L 74.902344 123.542969 L 81.96875 123.675781 L 82.585938 122.492188 L 86.542969 120.871094 L 88.960938 121.304688 L 87.480469 123.769531 L 89.746094 123.617188 L 90.820312 122.828125 L 90.890625 121.355469 L 93.261719 119.699219 L 97.542969 120.042969 L 96.839844 118.304688 L 95.636719 117.960938 L 98.140625 114.890625 L 101.871094 115.507812 L 105.25 114.765625 L 106.039062 113.980469 L 106.851562 109.980469 L 108.386719 109.851562 L 108.507812 108.789062 L 109.855469 109.578125 L 115.925781 109.039062 L 119.074219 109.746094 L 119.648438 108.234375 L 122.578125 107.335938 L 125.746094 107.371094 L 127.402344 106.496094 L 128.011719 107.648438 L 130.101562 106.972656 L 133.980469 107.992188 L 135.964844 107.34375 L 135.8125 108.34375 L 137.246094 107.9375 L 137.097656 105.546875 L 135.226562 100.878906 L 137.824219 99.980469 L 139.941406 97.644531 L 140.367188 98.40625 Z M 139.472656 100.042969 "/>
<path style=" stroke:none;fill-rule:nonzero;fill-opacity:1;" d="M 15.269531 108.820312 L 16.457031 109.9375 L 15.9375 112.324219 L 18.910156 113.765625 L 19.226562 112.261719 L 21.242188 113.648438 L 23.398438 113.265625 L 23.773438 112.402344 L 23.507812 114.261719 L 25.042969 115.65625 L 24.621094 116.042969 L 25.316406 117.160156 L 27.492188 116.816406 L 28.832031 119.183594 L 29.871094 118.980469 L 30.632812 121.253906 L 28.898438 122.785156 L 30.308594 126.734375 L 31.308594 125.273438 L 33.667969 125.746094 L 34.609375 123.910156 L 36.144531 124.898438 L 36.863281 124.273438 L 37.363281 124.707031 L 35.457031 128.796875 L 35.992188 130.484375 L 34.175781 131.6875 L 34.445312 133.0625 L 35.15625 134.089844 L 36.492188 134.421875 L 35.316406 135.800781 L 35.941406 136.425781 L 35.246094 138.859375 L 36.015625 142.214844 L 34.546875 143.828125 L 34.738281 144.453125 L 33.261719 144.777344 L 32.035156 147.203125 L 32.078125 148.566406 L 32.957031 148.769531 L 33.183594 149.625 L 31.84375 151.648438 L 33.355469 153.425781 L 33.382812 154.558594 L 32.636719 154.542969 L 31.539062 157.765625 L 30.1875 158.816406 L 32.726562 164.324219 L 30.683594 165.039062 L 29.789062 163.566406 L 28.152344 163.515625 L 26.292969 160.578125 L 24.863281 160.515625 L 24.1875 159.503906 L 22.234375 159.699219 L 19.125 158.09375 L 18.804688 155.9375 L 19.886719 154.027344 L 18.832031 152.492188 L 19.214844 151.695312 L 17.058594 152.265625 L 14.320312 150.375 L 11.050781 149.972656 L 9.097656 148.558594 L 6.710938 149.394531 L 5.421875 148.695312 L 5.515625 147.476562 L 6.628906 146.839844 L 6.609375 143.523438 L 6.164062 142.191406 L 3.417969 140.320312 L 4.058594 138.0625 L 2.953125 136.472656 L 3.480469 135.261719 L 1.5 133.03125 L 4.191406 129.828125 L 5.273438 126.910156 L 6.242188 125.820312 L 8.269531 125.355469 L 8.742188 124.050781 L 7.683594 122.957031 L 7.292969 120.820312 L 7.976562 119.304688 L 5.542969 118.050781 L 4.796875 118.503906 L 0 111.34375 L 11.71875 113.382812 L 13.378906 109.261719 Z M 15.269531 108.820312 "/>
<path style=" stroke:none;fill-rule:nonzero;fill-opacity:1;" d="M 350.453125 54.042969 L 350.667969 54.09375 L 350.707031 53.972656 L 351.910156 53.796875 L 352.640625 54.785156 L 352.722656 55.070312 L 352.8125 56 L 354.460938 57.253906 L 354.742188 55.941406 L 355.496094 55.992188 L 356.351562 56.441406 L 356.101562 57.421875 L 356.816406 58.191406 L 358.066406 58.300781 L 357.539062 64.421875 L 358.207031 64.667969 L 358.355469 65.890625 L 359.488281 66.039062 L 359.664062 67.371094 L 359.238281 67.820312 L 356.402344 66.148438 L 352.285156 67.816406 L 352.445312 69.128906 L 346.964844 67.789062 L 346.164062 69.128906 L 344.039062 68.070312 L 341.550781 68.796875 L 342.339844 67.898438 L 341.515625 67.941406 L 340.921875 66.960938 L 341.375 66.507812 L 340.375 66.421875 L 339.578125 65.214844 L 340.539062 62.898438 L 340.351562 61.3125 L 339.554688 61.183594 L 340.253906 60.757812 L 340.710938 58.273438 L 341.132812 58.507812 L 342.390625 59.910156 L 343.289062 59.859375 L 344.96875 57.625 L 347.183594 56.648438 L 347.941406 56.179688 L 348.277344 56.65625 L 349.390625 56.332031 L 349.535156 55.210938 L 349.261719 54.3125 L 350.289062 53.960938 Z M 350.453125 54.042969 "/>
</g>
</svg>
