<svg xmlns="http://www.w3.org/2000/svg" xmlns:xlink="http://www.w3.org/1999/xlink" width="246px" height="200px" viewBox="0 0 246 200" version="1.1">
<g id="surface1">
<path style=" stroke:none;fill-rule:nonzero;fill-opacity:1;" d="M 153.246094 5.097656 L 152.265625 5.566406 L 152.3125 7.296875 L 150.867188 6.664062 L 151.101562 5.574219 L 151.714844 6.226562 L 152.253906 5.429688 L 151.734375 5.085938 Z M 142.640625 0.0820312 L 146.261719 2.039062 L 146.546875 4.335938 L 145.1875 5.558594 L 145.652344 8.042969 L 146.6875 7.960938 L 145.976562 8.539062 L 142.085938 7.011719 L 141.984375 8.734375 L 147.910156 9.285156 L 149.269531 8.449219 L 151.3125 10.863281 L 156.625 5.675781 L 156.832031 3.289062 L 158.234375 1.535156 L 159.296875 2.921875 L 161.394531 3.054688 L 163.066406 7.046875 L 160.992188 10.96875 L 164.820312 15.609375 L 164.996094 18.941406 L 166.785156 19.484375 L 169.160156 18.378906 L 171.722656 20.074219 L 170.789062 23.820312 L 171.519531 24.480469 L 170.1875 25.972656 L 170.050781 28.621094 L 173.007812 32.332031 L 173.09375 35.671875 L 171.324219 37.445312 L 169.523438 36.765625 L 168.742188 38.507812 L 167.050781 38.71875 L 166.535156 38.8125 L 164.730469 38.921875 L 162.507812 42.136719 L 157.214844 43.25 L 157.0625 45.027344 L 155.222656 47.332031 L 154.234375 46.234375 L 152.257812 47.109375 L 151.957031 47.109375 L 149.890625 48.636719 L 144.78125 49.707031 L 143.125 46.902344 L 141.167969 48.34375 L 139.402344 48.183594 L 137.113281 50.941406 L 137.746094 49.347656 L 136.277344 48.304688 L 131.273438 49.75 L 130.890625 51.515625 L 129.859375 51.730469 L 127.78125 50.367188 L 126.496094 51.558594 L 123.957031 49.964844 L 123.289062 51.691406 L 121.585938 50.265625 L 117.914062 51.285156 L 117.550781 49.757812 L 116.507812 49.414062 L 116.972656 47.757812 L 114.644531 49.183594 L 114.851562 48.121094 L 110.640625 46.484375 L 108.035156 47.0625 L 107.558594 46.425781 L 106.285156 47.476562 L 104.886719 46.730469 L 105.375 44.953125 L 104.628906 44.621094 L 103.882812 40.585938 L 106.21875 38.492188 L 108.542969 39.222656 L 112.730469 38.070312 L 113.824219 35.105469 L 113.78125 32.234375 L 112.976562 31.839844 L 113.441406 30.359375 L 112.054688 29.933594 L 111.144531 25.105469 L 113.1875 22.074219 L 110.535156 20.246094 L 109.878906 16.242188 L 107.824219 15.0625 L 106.492188 12.917969 L 114.042969 12.59375 L 114.535156 14.503906 L 117.125 14.839844 L 120.195312 13.933594 L 117.179688 8.199219 L 117.980469 6.121094 L 116.800781 5.550781 L 122.835938 2.359375 L 126.976562 1.941406 L 127.566406 2.867188 L 126.472656 5.265625 L 126.816406 7.914062 L 129.355469 6.964844 L 133.441406 7.953125 L 135.292969 7.578125 L 135.175781 5.734375 L 136.824219 4.984375 L 140.609375 0.136719 Z M 142.640625 0.0820312 "/>
<path style=" stroke:none;fill-rule:nonzero;fill-opacity:1;" d="M 99.101562 80.367188 L 102.59375 77.976562 L 104.152344 80.355469 L 105.953125 80.15625 L 108.480469 82.121094 L 109.429688 81.066406 L 112.25 81.066406 L 112.753906 79.003906 L 114.085938 79.351562 L 113.417969 78.179688 L 114.082031 77.558594 L 115.144531 79.304688 L 116.511719 79.332031 L 116.511719 78.078125 L 124.183594 75.402344 L 124.128906 76.714844 L 126.210938 78.191406 L 126.253906 77.054688 L 129.371094 76.253906 L 130.695312 74.558594 L 131.242188 76.84375 L 133.171875 76.695312 L 134.519531 75.386719 L 133.375 73.710938 L 133.703125 71.023438 L 136.902344 72.007812 L 138.089844 71.363281 L 138.34375 72.046875 L 138.949219 70.730469 L 141.195312 70.269531 L 143.195312 71.101562 L 144.554688 73.269531 L 146 73.363281 L 146.011719 74.644531 L 150.027344 74.074219 L 150.511719 74.074219 L 150.507812 75.980469 L 151.695312 76.644531 L 155.308594 73.945312 L 157.695312 75.933594 L 157.472656 77.691406 L 155.980469 78.539062 L 157.496094 80.65625 L 156.5 81.488281 L 156.566406 84.503906 L 155.367188 86.800781 L 153.316406 86.316406 L 151.796875 88.320312 L 149.96875 88.160156 L 150.066406 88.851562 L 142.851562 90.941406 L 143.097656 92.0625 L 141.742188 90.933594 L 140.050781 92.203125 L 139.4375 90.035156 L 138.128906 90.273438 L 137.574219 91.671875 L 135.015625 90.441406 L 134.457031 91.832031 L 135.332031 94.460938 L 133.777344 95.085938 L 130.996094 94.175781 L 129.359375 94.941406 L 129.542969 96.933594 L 125.371094 98.480469 L 124.667969 97.0625 L 123.039062 97.332031 L 122.46875 98.25 L 122.664062 95.203125 L 121.40625 95.613281 L 118.988281 94.554688 L 115.550781 94.820312 L 113.902344 96.671875 L 114.101562 94.261719 L 112.046875 94.28125 L 110.167969 91.605469 L 108.5 91.582031 L 108.890625 89.429688 L 105.515625 88.660156 L 105.792969 86.378906 L 104.300781 84.84375 L 101.84375 87.832031 L 99.496094 87.792969 L 98.535156 85.738281 L 98.710938 80.796875 L 99.914062 80.476562 Z M 99.101562 80.367188 "/>
<path style=" stroke:none;fill-rule:nonzero;fill-opacity:1;" d="M 119.890625 61.0625 L 120.144531 61.253906 L 120.597656 62.957031 L 119.660156 64.082031 L 122.035156 65.664062 L 122.996094 68.609375 L 121.445312 69.605469 L 121.691406 70.316406 L 122.703125 70.429688 L 123.910156 71.734375 L 123.007812 71.8125 L 122.179688 72.167969 L 117.203125 74.484375 L 113.972656 73.402344 L 112.195312 69.6875 L 110.714844 70.128906 L 108.558594 69.042969 L 108.398438 69.203125 L 108.359375 69.082031 L 109.003906 68.246094 L 109.1875 67.34375 L 110.824219 67.261719 L 110.660156 64.175781 L 111.726562 62.59375 L 112.820312 61.578125 L 113.171875 61.375 L 114.082031 60.730469 L 114.488281 60.640625 L 116.855469 61.074219 L 118.210938 59.5625 L 119.035156 60.167969 L 119.6875 60.609375 Z M 119.890625 61.0625 "/>
<path style=" stroke:none;fill-rule:nonzero;fill-opacity:1;" d="M 58.34375 74.234375 L 60.519531 75.25 L 63.351562 74.578125 L 63.5625 77.675781 L 67.917969 77.828125 L 68.851562 78.820312 L 69.203125 78.929688 L 72.21875 73.769531 L 74.3125 72.796875 L 74.574219 74.253906 L 77.40625 72.886719 L 77.09375 73.890625 L 78.457031 76.253906 L 80.734375 76.019531 L 82.527344 76.882812 L 85.132812 75.921875 L 86.164062 77.796875 L 85.789062 80.066406 L 87.179688 81.972656 L 89.886719 82.179688 L 90.3125 82.179688 L 95.992188 80.917969 L 96.554688 81.640625 L 98.203125 79.574219 L 98.203125 79.808594 L 99.105469 80.371094 L 99.917969 80.480469 L 98.714844 80.800781 L 98.539062 85.742188 L 99.5 87.792969 L 101.847656 87.832031 L 104.304688 84.847656 L 105.800781 86.378906 L 105.519531 88.660156 L 108.890625 89.429688 L 108.503906 91.582031 L 110.171875 91.601562 L 112.050781 94.28125 L 114.101562 94.261719 L 113.90625 96.671875 L 115.554688 94.820312 L 118.992188 94.554688 L 121.40625 95.613281 L 122.667969 95.207031 L 122.472656 98.253906 L 123.042969 97.332031 L 124.671875 97.0625 L 125.371094 98.480469 L 129.546875 96.933594 L 128.3125 100.769531 L 128.3125 101.101562 L 128.5625 102.148438 L 130.535156 101.128906 L 130.023438 101.738281 L 130.886719 103.734375 L 129.101562 106.945312 L 132.015625 108.621094 L 131.144531 110.785156 L 129.953125 111.183594 L 131.25 112.480469 L 130.214844 112.96875 L 129.65625 115.207031 L 130.527344 118.273438 L 125.761719 119.335938 L 124.8125 118.0625 L 123.472656 118.082031 L 121.976562 120.398438 L 118.421875 119.804688 L 118.109375 121.304688 L 116.320312 121.753906 L 115.628906 123.386719 L 113.71875 123.207031 L 111.078125 125.347656 L 114.738281 128.199219 L 116.117188 126.640625 L 116.738281 127 L 117.363281 127 L 118.265625 127.652344 L 118.210938 127.992188 L 118.085938 129.617188 L 117.863281 129.617188 L 118.007812 132.4375 L 115.851562 133.984375 L 118.304688 138.492188 L 117.363281 139.929688 L 117.664062 145.648438 L 118.863281 146.0625 L 119.167969 150.777344 L 121.082031 154.777344 L 120.324219 156.363281 L 115.113281 155.238281 L 112.453125 153.648438 L 105.191406 154.941406 L 105.007812 153.550781 L 101.847656 152.703125 L 103.125 150.570312 L 101.46875 148.742188 L 102.996094 145.90625 L 105.105469 145.789062 L 107.460938 143.820312 L 105.359375 140.246094 L 105.535156 137.511719 L 102.566406 137.464844 L 102.640625 138.15625 L 100.964844 137.445312 L 102.65625 134.511719 L 102.382812 129.570312 L 103.789062 129.246094 L 106.863281 125.609375 L 106.054688 123.691406 L 104.109375 123.367188 L 103.117188 121.992188 L 102.324219 123.40625 L 103.429688 125.0625 L 101.546875 125.09375 L 100.226562 120.574219 L 98.902344 119.539062 L 97.640625 119.835938 L 94.34375 115.050781 L 91.953125 116.675781 L 91.101562 116.136719 L 90.769531 116.816406 L 90.71875 116.097656 L 86.542969 118.234375 L 83.238281 115.738281 L 81.710938 115.691406 L 80.957031 116.578125 L 80.535156 115.523438 L 76.703125 115.832031 L 75.824219 116.617188 L 75.558594 119.601562 L 74.238281 118.875 L 74.800781 120.257812 L 74.179688 120.417969 L 71.984375 117.472656 L 71.011719 114 L 72.066406 110.683594 L 71.113281 105.363281 L 67.796875 101.429688 L 66.1875 101.980469 L 65.261719 100.992188 L 60.925781 102.3125 L 60.632812 101.171875 L 62.085938 98.683594 L 59.28125 97.726562 L 57.535156 100.394531 L 56.882812 100.003906 L 53 101.921875 L 52.070312 100.644531 L 47.621094 98.609375 L 46.820312 97.183594 L 46.828125 91.53125 L 44.300781 85.257812 L 45.957031 83.414062 L 45.167969 82.132812 L 45.664062 80.886719 L 41.355469 78.652344 L 41.753906 77.570312 L 40.378906 75.410156 L 43.078125 74.386719 L 45.777344 75.824219 L 48.558594 75.472656 L 49.746094 78.863281 L 51.996094 80.070312 L 54.949219 76.378906 L 56.71875 76.113281 L 56.71875 75.722656 Z M 20.347656 80.304688 L 20.792969 79.722656 L 18.953125 77.464844 L 19.621094 76.910156 L 19.015625 75.9375 L 20.714844 74.953125 L 21.273438 75.507812 L 21.292969 74.78125 L 22.394531 75.65625 L 24.082031 75.246094 L 24.042969 74.480469 L 26.59375 73.570312 L 25.085938 71.578125 L 29.136719 69.878906 L 30.054688 70.640625 L 29.660156 72.660156 L 30.988281 72.941406 L 30.324219 73.648438 L 27.636719 75.875 L 25.261719 76.546875 L 25.664062 77.871094 L 23.363281 81.703125 Z M 20.347656 80.304688 "/>
<path style=" stroke:none;fill-rule:nonzero;fill-opacity:1;" d="M 200.5 69.753906 L 201.011719 72.707031 L 199.839844 75.140625 L 201.859375 76.214844 L 202.167969 76.253906 L 203.042969 75.441406 L 203.851562 76.042969 L 203.9375 76.324219 L 206.375 76.324219 L 208.671875 79.625 L 211.199219 79.3125 L 212.578125 80.035156 L 214.363281 77.488281 L 213.195312 75.386719 L 214.777344 75.839844 L 217.605469 74.660156 L 218.835938 75.589844 L 221.363281 75.421875 L 222.734375 76.523438 L 222.609375 79.09375 L 222.996094 78.136719 L 227.523438 78.742188 L 231.75 85.867188 L 230.847656 86.699219 L 231.796875 87.769531 L 231.367188 88.359375 L 232.675781 87.699219 L 237.195312 88.351562 L 235.578125 92.09375 L 234.421875 91.984375 L 231.289062 95.246094 L 231.433594 96.773438 L 232.558594 97.289062 L 232.078125 98.320312 L 233.3125 98.890625 L 234.464844 101.449219 L 237.269531 100.457031 L 242.378906 102.105469 L 241.730469 104.75 L 243.726562 105.535156 L 244.007812 107.371094 L 241.769531 112.984375 L 245.96875 117.441406 L 245.777344 118.714844 L 243.105469 119.519531 L 243.027344 120.542969 L 241.1875 118.683594 L 239.59375 119.0625 L 237.863281 124.191406 L 233.742188 125.171875 L 232.585938 127.109375 L 231.277344 127.339844 L 230.671875 128.765625 L 232.199219 132.546875 L 229.355469 133.269531 L 228.527344 135.421875 L 229.859375 136.578125 L 228.941406 137.800781 L 227.234375 137.207031 L 228.035156 135.917969 L 227.285156 134.195312 L 225.242188 133.707031 L 225.148438 135.195312 L 223.945312 135.488281 L 222.050781 134.429688 L 221.628906 132.5 L 222.230469 130.257812 L 220.898438 130.285156 L 220.707031 119.488281 L 219 118.851562 L 218.746094 117.910156 L 211.320312 116.207031 L 210.597656 118.207031 L 211.742188 119.507812 L 210.214844 122.808594 L 210.550781 122.808594 L 212.496094 122.960938 L 209.996094 124.816406 L 208.054688 124.46875 L 207.820312 125.449219 L 207.292969 124.417969 L 205.238281 124.113281 L 202.492188 124.746094 L 204.078125 120.820312 L 202.59375 120.792969 L 201.214844 118.015625 L 202.359375 115.210938 L 199.191406 115.328125 L 199.476562 114.136719 L 196.703125 113.867188 L 194.164062 111.121094 L 190.574219 111.773438 L 189.007812 108.539062 L 186.214844 110.292969 L 183.191406 108.078125 L 182.296875 109.773438 L 183.300781 109.773438 L 183.792969 110.910156 L 181.480469 113.128906 L 178.824219 112.234375 L 175.375 114.542969 L 174.34375 113.261719 L 174.710938 111.6875 L 171.398438 110.710938 L 170.542969 109.40625 L 171.429688 107.242188 L 169.023438 103.144531 L 166.792969 104.179688 L 165.992188 102.753906 L 166.644531 102.234375 L 164.90625 101.933594 L 164.597656 100.707031 L 165.398438 99.789062 L 163.816406 100.625 L 162.421875 99.589844 L 162.289062 98 L 158.660156 97.742188 L 159.769531 96.964844 L 159.414062 94.972656 L 158.109375 92.195312 L 155.035156 89.210938 L 155.367188 86.800781 L 156.566406 84.503906 L 156.5 81.488281 L 157.496094 80.65625 L 155.980469 78.539062 L 157.472656 77.691406 L 157.695312 75.933594 L 159.382812 76.964844 L 159.222656 78.550781 L 160.847656 80.265625 L 162.824219 80.066406 L 166.953125 81.398438 L 167.929688 80.519531 L 167.113281 79.484375 L 167.539062 78.539062 L 171.078125 79.191406 L 171.613281 78.25 L 172.886719 79.414062 L 174.015625 78.097656 L 175.804688 79.3125 L 178.640625 76.355469 L 181.054688 76.164062 L 183.015625 79.070312 L 184.878906 78.972656 L 185.769531 77.117188 L 186.757812 78.589844 L 189.75 76.765625 L 189.910156 75.078125 L 190.269531 75.261719 L 195.1875 73.421875 L 197.957031 70.367188 L 200 70.507812 L 200.144531 69.746094 Z M 200.5 69.753906 "/>
<path style=" stroke:none;fill-rule:nonzero;fill-opacity:1;" d="M 206.28125 74.085938 L 207.871094 75.320312 L 210.1875 74.464844 L 210.503906 75.480469 L 212.757812 73.992188 L 213.195312 75.386719 L 214.363281 77.488281 L 212.578125 80.035156 L 211.199219 79.308594 L 208.671875 79.621094 L 206.375 76.320312 L 203.9375 76.320312 L 203.851562 76.039062 L 203.042969 75.4375 L 202.167969 76.25 L 201.859375 76.210938 L 199.839844 75.136719 L 203.460938 74.894531 L 205.285156 72.683594 Z M 190.449219 22.714844 L 191.863281 24.042969 L 192.117188 28.347656 L 197.875 30.789062 L 198.285156 32.074219 L 205.085938 32.214844 L 205.828125 35.457031 L 208.808594 33.828125 L 210.734375 36.234375 L 207.851562 38.917969 L 209.269531 40.941406 L 206.976562 41.597656 L 207.25 44.640625 L 205.589844 44.519531 L 204.589844 47.398438 L 205.742188 48.476562 L 205.109375 51.042969 L 202.226562 54.621094 L 202.71875 55.367188 L 204.160156 54.882812 L 204.5625 55.863281 L 202.367188 59.972656 L 200.890625 59.863281 L 199.542969 62.8125 L 197.402344 63.769531 L 197.683594 68.203125 L 200.15625 69.742188 L 200.007812 70.503906 L 197.964844 70.363281 L 195.199219 73.417969 L 190.277344 75.253906 L 189.914062 75.074219 L 189.753906 76.761719 L 186.765625 78.585938 L 185.777344 77.109375 L 184.886719 78.964844 L 183.023438 79.066406 L 181.0625 76.15625 L 178.644531 76.347656 L 175.8125 79.304688 L 174.023438 78.09375 L 172.890625 79.40625 L 171.617188 78.242188 L 171.085938 79.183594 L 167.539062 78.539062 L 167.113281 79.484375 L 167.929688 80.519531 L 166.953125 81.402344 L 162.824219 80.070312 L 164.050781 77.410156 L 162.898438 76.820312 L 163.292969 75.246094 L 163.824219 74.558594 L 163.398438 72.3125 L 166.109375 70.039062 L 165.660156 70.019531 L 164.683594 69.488281 L 165.074219 66.109375 L 166.238281 63.039062 L 167.652344 63.226562 L 168.242188 60.550781 L 167.039062 59.550781 L 165.039062 59.601562 L 164.84375 58.765625 L 163.546875 59.261719 L 162.226562 60.007812 L 161.359375 58.757812 L 160.539062 59.230469 L 159.140625 56.632812 L 161.292969 54.878906 L 161.5 52.285156 L 164.402344 51.136719 L 163.828125 48.761719 L 164.53125 48.410156 L 164.664062 49.277344 L 166.464844 48.398438 L 163.898438 45.8125 L 161.480469 46.117188 L 161.691406 48.453125 L 160.085938 49.363281 L 159.191406 48.363281 L 157.886719 48.828125 L 157.039062 46.871094 L 155.214844 47.335938 L 157.050781 45.03125 L 157.207031 43.253906 L 162.5 42.140625 L 164.71875 38.925781 L 166.527344 38.816406 L 167.042969 38.722656 L 168.734375 38.511719 L 169.515625 36.769531 L 171.316406 37.449219 L 173.085938 35.675781 L 172.996094 32.335938 L 170.042969 28.625 L 170.175781 25.976562 L 171.511719 24.484375 L 177.757812 24.320312 L 178.390625 23.085938 L 182.941406 24.300781 L 187.304688 20.433594 L 189.246094 20.941406 Z M 190.449219 22.714844 "/>
<path style=" stroke:none;fill-rule:nonzero;fill-opacity:1;" d="M 181.480469 113.128906 L 183.792969 110.910156 L 183.300781 109.773438 L 182.296875 109.773438 L 183.191406 108.078125 L 186.214844 110.292969 L 189.007812 108.539062 L 190.574219 111.773438 L 194.164062 111.121094 L 196.703125 113.867188 L 199.476562 114.136719 L 199.191406 115.328125 L 202.359375 115.210938 L 201.214844 118.015625 L 202.59375 120.792969 L 204.078125 120.820312 L 202.492188 124.746094 L 205.238281 124.113281 L 207.292969 124.417969 L 207.820312 125.449219 L 208.054688 124.46875 L 209.996094 124.816406 L 212.496094 122.960938 L 210.550781 122.808594 L 210.214844 122.808594 L 211.742188 119.507812 L 210.597656 118.207031 L 211.320312 116.207031 L 218.746094 117.910156 L 219 118.851562 L 220.707031 119.488281 L 220.898438 130.285156 L 222.230469 130.257812 L 221.628906 132.5 L 217.9375 133.519531 L 217.578125 137.609375 L 213.519531 139.550781 L 212.914062 142.925781 L 210.804688 144.785156 L 211.769531 146.003906 L 211.148438 147.773438 L 208.558594 149.386719 L 209.667969 152.523438 L 207.742188 154.261719 L 205.777344 154.511719 L 204.949219 158.902344 L 203.207031 160.597656 L 206.308594 162.605469 L 205.703125 163.75 L 204.464844 163.246094 L 204.804688 164.773438 L 203.9375 165.121094 L 204.660156 165.730469 L 203.53125 166.820312 L 204.410156 171.269531 L 206.566406 170.847656 L 209.21875 175.574219 L 208.96875 178.003906 L 211.402344 177.691406 L 212.710938 179.328125 L 211.402344 182.519531 L 214.292969 183.765625 L 214.003906 186.375 L 212.792969 186.578125 L 212.007812 189.214844 L 210.339844 190.4375 L 210.589844 191.292969 L 211.742188 191.234375 L 211.746094 192.574219 L 209.875 194.609375 L 208.316406 195.367188 L 204.6875 193.738281 L 203.835938 195.972656 L 197.714844 194.746094 L 195.546875 196.980469 L 195.269531 199.0625 L 194.035156 197.554688 L 191.78125 196.84375 L 190.824219 198.132812 L 187.253906 198.902344 L 186.445312 199.980469 L 185.019531 197.96875 L 186.101562 197.078125 L 186.019531 195.890625 L 184.519531 194.628906 L 185.34375 193.152344 L 184.269531 192.886719 L 183.695312 190.378906 L 178.574219 186.960938 L 177.925781 188.324219 L 176.347656 188.890625 L 175.855469 187.097656 L 177.460938 184.695312 L 173.929688 180.917969 L 173.335938 180.503906 L 171.820312 181.625 L 169.4375 180.601562 L 166.941406 180.839844 L 166.679688 178.640625 L 164.460938 178.867188 L 162.347656 174.011719 L 160.4375 174.132812 L 156.867188 172.09375 L 156.0625 170.34375 L 154.359375 170.195312 L 155.582031 168.003906 L 155.679688 165.128906 L 160.019531 162.164062 L 159.121094 161.21875 L 160.972656 159.332031 L 164.007812 158.289062 L 162.621094 156.90625 L 162.867188 154.597656 L 160.214844 152.230469 L 156.964844 152.625 L 157.078125 150.984375 L 154.671875 147.84375 L 155.652344 147.992188 L 156.195312 146.300781 L 157.105469 146.941406 L 159.0625 145.421875 L 159.347656 143.183594 L 160.207031 143.136719 L 159.710938 142.035156 L 160.585938 138.5625 L 161.238281 141.511719 L 169.175781 141.164062 L 173.546875 139.503906 L 173.546875 139.105469 L 171.839844 137.492188 L 174.515625 136.027344 L 174.296875 134.945312 L 171.96875 132.160156 L 172.394531 131.59375 L 171.289062 131.328125 L 172.078125 130.394531 L 169.613281 129.324219 L 172.796875 128.253906 L 172.386719 127.148438 L 174.195312 126.246094 L 175.160156 126.929688 L 176.308594 126.34375 L 181.5 122.175781 L 181.152344 119.417969 L 179.636719 119.230469 L 178.601562 120.453125 L 178.222656 119.550781 L 181.515625 117.429688 L 180.667969 115.910156 L 181.925781 114.304688 Z M 181.480469 113.128906 "/>
<path style=" stroke:none;fill-rule:nonzero;fill-opacity:1;" d="M 129.542969 96.933594 L 129.359375 94.941406 L 130.996094 94.175781 L 133.777344 95.085938 L 135.332031 94.460938 L 134.457031 91.832031 L 135.015625 90.441406 L 137.574219 91.671875 L 138.128906 90.273438 L 139.4375 90.035156 L 140.050781 92.203125 L 141.742188 90.933594 L 143.097656 92.0625 L 142.851562 90.941406 L 150.066406 88.851562 L 149.96875 88.160156 L 151.796875 88.320312 L 153.316406 86.316406 L 155.367188 86.800781 L 155.035156 89.210938 L 158.109375 92.195312 L 159.414062 94.972656 L 159.769531 96.964844 L 158.660156 97.742188 L 162.289062 98 L 162.421875 99.589844 L 163.816406 100.625 L 165.398438 99.789062 L 164.597656 100.707031 L 164.90625 101.933594 L 166.644531 102.234375 L 165.992188 102.753906 L 166.792969 104.179688 L 169.023438 103.144531 L 171.429688 107.242188 L 170.542969 109.40625 L 171.398438 110.710938 L 174.710938 111.6875 L 174.34375 113.261719 L 175.375 114.542969 L 178.824219 112.234375 L 181.480469 113.128906 L 181.925781 114.304688 L 180.667969 115.910156 L 181.515625 117.429688 L 178.222656 119.550781 L 178.601562 120.453125 L 179.636719 119.230469 L 181.152344 119.417969 L 181.5 122.175781 L 176.308594 126.34375 L 175.160156 126.929688 L 174.195312 126.246094 L 172.386719 127.148438 L 172.796875 128.253906 L 169.613281 129.324219 L 172.078125 130.394531 L 171.289062 131.328125 L 172.394531 131.59375 L 171.96875 132.160156 L 174.296875 134.945312 L 174.515625 136.027344 L 171.839844 137.492188 L 173.546875 139.105469 L 173.546875 139.503906 L 169.175781 141.164062 L 161.238281 141.511719 L 160.585938 138.5625 L 159.710938 142.035156 L 160.207031 143.136719 L 159.347656 143.183594 L 159.0625 145.421875 L 157.105469 146.941406 L 156.195312 146.300781 L 155.652344 147.992188 L 154.671875 147.84375 L 157.078125 150.984375 L 156.964844 152.625 L 160.214844 152.230469 L 162.867188 154.597656 L 162.621094 156.90625 L 164.007812 158.289062 L 160.972656 159.332031 L 159.121094 161.21875 L 160.019531 162.164062 L 155.679688 165.128906 L 155.582031 168.003906 L 154.359375 170.195312 L 151.828125 171.613281 L 146.890625 171.023438 L 148.375 168.417969 L 146.609375 163.777344 L 147.476562 163.75 L 149.226562 159.5625 L 146.625 155.746094 L 143.035156 154.765625 L 142.945312 153.71875 L 143.15625 152.367188 L 144.765625 151.203125 L 144.859375 148.097656 L 146.226562 146.875 L 144.886719 144.214844 L 146.03125 143.996094 L 146.859375 140.59375 L 148.191406 141.9375 L 147.914062 138.800781 L 149.734375 137.117188 L 148.496094 135.507812 L 145.871094 135.382812 L 145.3125 133.972656 L 141.25 137.125 L 140.449219 139.589844 L 136.84375 142.226562 L 135.976562 144.054688 L 137.21875 145.578125 L 136.234375 148.078125 L 136.785156 151.042969 L 130.765625 151.914062 L 127.160156 153.640625 L 126.101562 155.476562 L 120.316406 156.355469 L 121.074219 154.765625 L 119.15625 150.765625 L 118.851562 146.054688 L 117.65625 145.636719 L 117.351562 139.917969 L 118.292969 138.484375 L 115.84375 133.972656 L 118 132.429688 L 117.855469 129.609375 L 118.078125 129.609375 L 118.207031 127.984375 L 118.253906 127.648438 L 117.351562 126.988281 L 116.726562 126.988281 L 116.113281 126.632812 L 114.730469 128.191406 L 111.070312 125.34375 L 113.710938 123.195312 L 115.621094 123.375 L 116.316406 121.746094 L 118.101562 121.300781 L 118.414062 119.796875 L 121.972656 120.394531 L 123.464844 118.074219 L 124.808594 118.054688 L 125.757812 119.328125 L 130.523438 118.265625 L 129.652344 115.203125 L 130.210938 112.964844 L 131.25 112.472656 L 129.953125 111.179688 L 131.140625 110.78125 L 132.011719 108.617188 L 129.097656 106.941406 L 130.882812 103.730469 L 130.019531 101.734375 L 130.53125 101.125 L 128.558594 102.144531 L 128.308594 101.097656 L 128.308594 100.765625 Z M 129.542969 96.933594 "/>
<path style=" stroke:none;fill-rule:nonzero;fill-opacity:1;" d="M 107.8125 15.054688 L 109.867188 16.234375 L 110.523438 20.234375 L 113.175781 22.066406 L 111.132812 25.101562 L 112.046875 29.929688 L 113.433594 30.355469 L 112.96875 31.832031 L 113.769531 32.230469 L 113.8125 35.09375 L 112.71875 38.058594 L 108.53125 39.214844 L 106.210938 38.484375 L 103.875 40.578125 L 104.621094 44.613281 L 105.363281 44.945312 L 104.871094 46.722656 L 106.273438 47.46875 L 107.542969 46.421875 L 108.023438 47.058594 L 107.785156 48.9375 L 106.863281 49.328125 L 107.558594 50.652344 L 105.355469 52.488281 L 104.667969 52.507812 L 102.957031 51.882812 L 101.957031 54.011719 L 102.804688 56.894531 L 103.128906 57.640625 L 101.613281 59.082031 L 98.808594 57.597656 L 99.121094 59.96875 L 97.605469 60.902344 L 98.496094 61.953125 L 98.132812 63.277344 L 95.398438 67.082031 L 97.160156 67.464844 L 96.734375 71.996094 L 93.769531 74.003906 L 92.6875 73.183594 L 91.890625 74.425781 L 89.542969 73.390625 L 88.449219 75.140625 L 89.722656 77.796875 L 87.878906 78.109375 L 87.316406 78.078125 L 86.15625 77.796875 L 85.125 75.921875 L 82.527344 76.882812 L 80.730469 76.023438 L 78.453125 76.253906 L 77.089844 73.890625 L 77.402344 72.890625 L 74.570312 74.257812 L 74.308594 72.800781 L 72.214844 73.773438 L 69.199219 78.933594 L 68.847656 78.820312 L 67.914062 77.828125 L 63.5625 77.675781 L 63.351562 74.578125 L 60.519531 75.25 L 58.34375 74.234375 L 62.289062 70.386719 L 60.890625 68.527344 L 61.683594 67.402344 L 57.90625 64.144531 L 59.558594 61.132812 L 58.359375 60.109375 L 56.636719 61.113281 L 55.585938 60.410156 L 56.714844 59.070312 L 56.226562 57.851562 L 57.867188 57.839844 L 57.066406 56.753906 L 58.425781 56.53125 L 55.460938 55.128906 L 57.375 54.222656 L 56.269531 52.6875 L 57.898438 50.175781 L 56.238281 46.84375 L 56.621094 46.84375 L 57.523438 46.007812 L 56.835938 45.339844 L 50.210938 40.792969 L 52.941406 38.972656 L 55.257812 34.566406 L 53.652344 31.953125 L 52.03125 31.398438 L 53.566406 30.273438 L 52.445312 27.777344 L 54.414062 26.816406 L 53.386719 23.007812 L 56.378906 26.042969 L 62.660156 25.921875 L 61.921875 21.742188 L 63.332031 22.054688 L 64.902344 20.960938 L 66.164062 21.761719 L 66.738281 19.820312 L 73.378906 22.878906 L 78.601562 24.15625 L 79.753906 24.949219 L 79.46875 29.078125 L 83.746094 29.410156 L 85.589844 28.203125 L 85.5625 30.503906 L 88.15625 28.507812 L 88.652344 29.300781 L 90.09375 28.882812 L 93.699219 25.953125 L 96.636719 26.074219 L 103.421875 20.980469 Z M 107.8125 15.054688 "/>
<path style=" stroke:none;fill-rule:nonzero;fill-opacity:1;" d="M 155.214844 47.328125 L 157.039062 46.863281 L 157.886719 48.820312 L 159.191406 48.355469 L 160.085938 49.355469 L 161.691406 48.445312 L 161.480469 46.113281 L 163.898438 45.808594 L 166.464844 48.394531 L 164.664062 49.269531 L 164.53125 48.402344 L 163.828125 48.757812 L 164.402344 51.128906 L 161.5 52.277344 L 161.292969 54.871094 L 159.140625 56.625 L 160.539062 59.226562 L 161.359375 58.75 L 162.226562 60 L 163.546875 59.253906 L 164.84375 58.761719 L 165.039062 59.59375 L 167.039062 59.546875 L 168.242188 60.542969 L 167.652344 63.222656 L 166.238281 63.03125 L 165.074219 66.101562 L 164.683594 69.480469 L 165.660156 70.011719 L 166.109375 70.035156 L 163.398438 72.304688 L 163.824219 74.554688 L 163.292969 75.238281 L 162.898438 76.8125 L 164.050781 77.40625 L 162.824219 80.0625 L 160.84375 80.261719 L 159.222656 78.546875 L 159.382812 76.964844 L 157.691406 75.929688 L 155.308594 73.941406 L 151.695312 76.640625 L 150.503906 75.980469 L 150.507812 74.074219 L 150.023438 74.074219 L 146.011719 74.644531 L 146 73.359375 L 144.550781 73.265625 L 143.191406 71.097656 L 141.191406 70.261719 L 138.945312 70.722656 L 138.339844 72.039062 L 138.085938 71.355469 L 136.894531 71.996094 L 133.703125 71.011719 L 133.371094 73.703125 L 134.515625 75.378906 L 133.167969 76.683594 L 131.242188 76.835938 L 130.695312 74.546875 L 129.371094 76.242188 L 126.253906 77.042969 L 126.207031 78.175781 L 124.125 76.699219 L 124.183594 75.386719 L 116.511719 78.066406 L 116.511719 79.320312 L 115.144531 79.289062 L 114.082031 77.546875 L 113.417969 78.167969 L 114.085938 79.34375 L 112.753906 78.992188 L 112.246094 81.058594 L 109.425781 81.058594 L 108.476562 82.113281 L 105.953125 80.148438 L 104.148438 80.347656 L 102.589844 77.972656 L 99.09375 80.355469 L 98.191406 79.792969 L 98.191406 79.5625 L 96.542969 81.628906 L 95.984375 80.902344 L 90.300781 82.167969 L 89.875 82.167969 L 87.171875 81.957031 L 85.777344 80.054688 L 86.152344 77.785156 L 87.3125 78.066406 L 87.871094 78.09375 L 89.714844 77.785156 L 88.445312 75.125 L 89.539062 73.378906 L 91.886719 74.414062 L 92.683594 73.167969 L 93.765625 73.992188 L 96.730469 71.984375 L 97.15625 67.449219 L 95.390625 67.066406 L 98.125 63.265625 L 98.488281 61.933594 L 97.601562 60.886719 L 99.113281 59.953125 L 98.804688 57.585938 L 101.609375 59.0625 L 103.125 57.625 L 102.800781 56.878906 L 101.953125 53.992188 L 102.953125 51.867188 L 104.664062 52.492188 L 105.347656 52.472656 L 107.550781 50.636719 L 106.859375 49.3125 L 107.78125 48.921875 L 108.015625 47.042969 L 110.621094 46.464844 L 114.832031 48.101562 L 114.625 49.164062 L 116.953125 47.738281 L 116.488281 49.394531 L 117.53125 49.738281 L 117.894531 51.265625 L 121.566406 50.246094 L 123.269531 51.671875 L 123.9375 49.945312 L 126.476562 51.539062 L 127.761719 50.347656 L 129.839844 51.710938 L 130.871094 51.496094 L 131.253906 49.730469 L 136.257812 48.285156 L 137.726562 49.328125 L 137.09375 50.921875 L 139.382812 48.164062 L 141.148438 48.324219 L 143.105469 46.882812 L 144.761719 49.6875 L 149.871094 48.617188 L 151.9375 47.089844 L 152.238281 47.089844 L 154.214844 46.214844 Z M 114.488281 60.640625 L 114.082031 60.734375 L 113.171875 61.378906 L 112.820312 61.582031 L 111.726562 62.597656 L 110.65625 64.179688 L 110.824219 67.265625 L 109.1875 67.347656 L 109.003906 68.253906 L 108.363281 69.085938 L 108.402344 69.207031 L 108.5625 69.046875 L 110.71875 70.136719 L 112.199219 69.691406 L 113.976562 73.410156 L 117.207031 74.496094 L 122.183594 72.175781 L 123.011719 71.824219 L 123.914062 71.742188 L 122.703125 70.4375 L 121.691406 70.324219 L 121.445312 69.609375 L 122.996094 68.617188 L 122.035156 65.671875 L 119.660156 64.089844 L 120.597656 62.964844 L 120.144531 61.261719 L 119.6875 60.617188 L 119.039062 60.175781 L 118.210938 59.570312 L 116.859375 61.078125 Z M 114.488281 60.640625 "/>
<path style=" stroke:none;fill-rule:nonzero;fill-opacity:1;" d="M 52.5625 13.527344 L 53.578125 16.996094 L 51.976562 18.9375 L 53.0625 20.257812 L 52.496094 20.65625 L 53.386719 23.007812 L 54.414062 26.816406 L 52.445312 27.777344 L 53.566406 30.273438 L 52.03125 31.398438 L 53.652344 31.953125 L 55.257812 34.566406 L 52.941406 38.972656 L 50.210938 40.792969 L 56.835938 45.339844 L 57.523438 46.007812 L 56.621094 46.84375 L 56.238281 46.84375 L 57.898438 50.175781 L 56.269531 52.6875 L 57.375 54.222656 L 55.460938 55.128906 L 58.425781 56.53125 L 57.066406 56.753906 L 57.867188 57.839844 L 56.226562 57.851562 L 56.714844 59.070312 L 55.585938 60.410156 L 56.636719 61.113281 L 58.359375 60.109375 L 59.558594 61.132812 L 57.90625 64.144531 L 61.683594 67.402344 L 60.890625 68.527344 L 62.289062 70.386719 L 58.34375 74.234375 L 56.707031 75.703125 L 56.707031 76.09375 L 54.9375 76.355469 L 51.984375 80.046875 L 49.742188 78.84375 L 48.550781 75.449219 L 45.769531 75.800781 L 43.070312 74.367188 L 40.371094 75.386719 L 38.640625 71.988281 L 37.078125 72.347656 L 36.191406 71.59375 L 34.386719 73.773438 L 32.898438 72.980469 L 31.234375 74.085938 L 30.324219 73.652344 L 30.992188 72.949219 L 29.664062 72.667969 L 30.058594 70.648438 L 29.140625 69.886719 L 25.089844 71.585938 L 26.597656 73.570312 L 24.046875 74.484375 L 24.085938 75.25 L 22.394531 75.660156 L 21.296875 74.785156 L 21.277344 75.507812 L 20.71875 74.960938 L 19.015625 75.941406 L 19.621094 76.917969 L 18.953125 77.46875 L 20.792969 79.726562 L 20.347656 80.304688 L 19.347656 78.75 L 17.503906 79.453125 L 15.710938 78.359375 L 15.125 75.902344 L 11.566406 71.714844 L 11.488281 69.945312 L 8.621094 69.613281 L 8.035156 68.769531 L 5.914062 69.734375 L 4.683594 66.144531 L 3.640625 65.992188 L 4.445312 64.4375 L 4.234375 61.113281 L 4.089844 59.574219 L 3.054688 58.941406 L 5.699219 56.148438 L 4.125 51.820312 L 2.003906 50.578125 L 0.09375 41.832031 L 14.117188 33.980469 L 33.894531 20.226562 L 40.742188 17.269531 L 39.84375 15.125 L 40.910156 13.945312 L 40.148438 14.78125 L 41.144531 16.019531 L 42.046875 15.441406 L 40.933594 16.84375 L 41.574219 16.316406 L 41.675781 17.425781 L 42.117188 16.175781 L 42.742188 16.589844 L 42.316406 15.898438 L 43.382812 16.175781 L 42.921875 14.628906 L 42.4375 14.941406 L 43.199219 14.230469 L 41.695312 13.863281 L 43.273438 14.253906 L 43.59375 16.222656 Z M 52.5625 13.527344 "/>
</g>
</svg>
