<?xml version="1.0" encoding="UTF-8"?>
<svg xmlns="http://www.w3.org/2000/svg" xmlns:xlink="http://www.w3.org/1999/xlink" width="204px" height="200px" viewBox="0 0 203 200" version="1.1">
<g id="surface1">
<path style=" stroke:none;fill-rule:nonzero;fill-opacity:1;" d="M 164.558594 71.28125 L 165.734375 70.695312 L 165.410156 69.832031 L 165.871094 69.429688 L 165.628906 69.230469 L 166.082031 67.53125 L 166.878906 67.066406 L 167.964844 65.203125 L 167.71875 64.441406 L 169.695312 60.933594 L 169.421875 60.308594 L 168.527344 60.445312 L 167.949219 60.039062 L 168.40625 59.503906 L 168.074219 59.0625 L 168.53125 57.4375 L 168.144531 56.816406 L 168.769531 56.9375 L 167.796875 56.371094 L 169.214844 56.300781 L 169.964844 55.773438 L 171.1875 53.46875 L 170.632812 53.417969 L 170.308594 52.78125 L 171.328125 51.167969 L 170.398438 50.296875 L 170.550781 49.988281 L 169.042969 49.492188 L 168.660156 50.421875 L 167.980469 50.796875 L 168.132812 50.21875 L 167.609375 50.125 L 167.597656 49.519531 L 168.21875 49.121094 L 167.589844 49.199219 L 167.5625 48.863281 L 166.234375 48.457031 L 166.082031 47.597656 L 166.570312 47.601562 L 166.738281 46.996094 L 167.332031 47.105469 L 167.828125 44.75 L 168.261719 44.488281 L 168.660156 46.03125 L 171.039062 46.722656 L 170.992188 47.117188 L 171.488281 47.378906 L 173.273438 46.839844 L 174.472656 47.613281 L 175.0625 47.085938 L 175.886719 45.003906 L 177.234375 44.9375 L 177.277344 45.21875 L 178.105469 44.738281 L 179.128906 45.433594 L 180.082031 44.90625 L 182.332031 46.375 L 184.304688 46.890625 L 183.128906 48.214844 L 182.285156 50.410156 L 180.625 51.382812 L 180.511719 52.136719 L 178.746094 53.871094 L 178.195312 55.09375 L 178.28125 56.574219 L 177.75 57.097656 L 177.242188 59.144531 L 177.414062 60.574219 L 176.6875 61.117188 L 176.308594 62.820312 L 175.042969 64.964844 L 174.9375 66.796875 L 175.683594 68.113281 L 174.753906 70.078125 L 174.375 72.183594 L 174.632812 73.140625 L 174.117188 73.90625 L 175.246094 75.859375 L 175.128906 76.460938 L 173.9375 77.21875 L 174.382812 77.460938 L 173.917969 77.613281 L 174.109375 78.082031 L 173.789062 78.410156 L 172.980469 78.140625 L 172.832031 78.453125 L 173.320312 78.648438 L 172.34375 79.460938 L 171.527344 79.269531 L 170.320312 79.6875 L 170.164062 79.3125 L 169.285156 79.214844 L 169.734375 78.164062 L 168.753906 77.976562 L 168.902344 77.523438 L 168.097656 76.09375 L 166.957031 75.898438 L 167.527344 74.4375 L 167.394531 73.367188 L 166.027344 72.351562 L 164.984375 72.109375 Z M 164.558594 71.28125 "/>
<path style=" stroke:none;fill-rule:nonzero;fill-opacity:1;" d="M 76.808594 114.910156 L 77.136719 115.351562 L 78.09375 115.203125 L 78.859375 115.777344 L 78.527344 116.78125 L 79.382812 117.644531 L 80.1875 116.679688 L 80.589844 117.117188 L 82.296875 116.921875 L 83.25 118.53125 L 83.679688 118.191406 L 84.398438 118.636719 L 83.753906 119.644531 L 86.195312 120.5 L 85.671875 121.125 L 86.632812 121.59375 L 85.792969 122.71875 L 85.390625 122.738281 L 85.257812 123.734375 L 85.972656 124.101562 L 85.265625 125.101562 L 86.128906 125.417969 L 85.722656 125.867188 L 85.648438 125.875 L 86.398438 126.53125 L 87.863281 126.695312 L 87.382812 127.09375 L 88.375 128.804688 L 87.839844 129.113281 L 87.898438 129.347656 L 88.296875 130.882812 L 87.886719 131.003906 L 88.28125 131.640625 L 87.175781 132.351562 L 87.234375 133 L 86.277344 133.300781 L 86.523438 134.410156 L 85.226562 135.53125 L 84.160156 135.804688 L 84.246094 136.421875 L 83.414062 137.324219 L 83.546875 137.722656 L 82.292969 138.445312 L 81.816406 138.304688 L 82.316406 139.042969 L 82.324219 140.257812 L 82.855469 140.613281 L 82.9375 141.820312 L 81.390625 141.898438 L 81.238281 142.222656 L 80.941406 141.453125 L 80.601562 141.511719 L 80.222656 142.914062 L 81.371094 143.617188 L 80.75 145.265625 L 79.996094 145.394531 L 80.449219 145.574219 L 80.570312 146.304688 L 80.117188 146.527344 L 79.085938 146.191406 L 79.210938 146.832031 L 78.625 146.902344 L 78.378906 147.804688 L 77.296875 148.539062 L 76.296875 147.4375 L 75.773438 147.933594 L 74.429688 147.914062 L 74.164062 148.453125 L 72.355469 148.839844 L 72.15625 149.207031 L 71.171875 148.59375 L 70.617188 148.730469 L 70.117188 149.558594 L 69.699219 148.992188 L 68.691406 149.785156 L 68.980469 150.664062 L 68.738281 151.066406 L 67.609375 150.421875 L 68 149.933594 L 67.390625 149.339844 L 66.550781 150.433594 L 65.367188 150.222656 L 64.519531 151.039062 L 65.273438 151.613281 L 64.957031 151.824219 L 65.171875 152.761719 L 64.707031 152.792969 L 65.15625 154.183594 L 64.375 154.769531 L 64.484375 155.796875 L 63.921875 156.023438 L 63.953125 156.507812 L 64.410156 156.558594 L 64.53125 157.203125 L 65.402344 156.9375 L 66.542969 157.21875 L 66.582031 157.96875 L 66.96875 157.878906 L 67.644531 159.359375 L 66.976562 159.53125 L 66.953125 160.546875 L 67.894531 159.878906 L 67.851562 161.300781 L 68.324219 161.804688 L 67.25 162.679688 L 67.660156 163.28125 L 67.207031 164.289062 L 66.867188 164.207031 L 66.945312 165.097656 L 66.242188 165.039062 L 65.835938 166.03125 L 65.171875 166.316406 L 65.355469 167.523438 L 64.214844 167.804688 L 63.832031 168.421875 L 63.925781 169.800781 L 63.273438 170.121094 L 63.472656 171.429688 L 62.320312 172.40625 L 61.640625 172.472656 L 60.742188 171.859375 L 60.09375 172.8125 L 58.304688 170.746094 L 57.546875 170.519531 L 57.234375 169.136719 L 54.554688 169.421875 L 52.136719 168.050781 L 51.742188 168.363281 L 51.441406 167.835938 L 50.519531 167.449219 L 50.042969 167.675781 L 49.386719 167.195312 L 49.925781 166.226562 L 48.890625 166.6875 L 48.753906 167.96875 L 47.539062 167.625 L 47.074219 166.8125 L 47.902344 166.050781 L 48.363281 164.855469 L 48.273438 163.523438 L 46.203125 162.824219 L 45.808594 162.933594 L 45.617188 163.683594 L 45.164062 163.640625 L 44.941406 162.570312 L 43.457031 162.773438 L 43.339844 162.109375 L 42.640625 161.714844 L 42.617188 161.257812 L 44.332031 160.96875 L 45.28125 160.097656 L 47.453125 155.914062 L 49.570312 144.863281 L 50.136719 138.285156 L 51.027344 136.003906 L 53.707031 136.460938 L 53.515625 135.609375 L 52.785156 135.261719 L 53.289062 135.257812 L 51.402344 133.675781 L 50.480469 135.320312 L 50.277344 136.875 L 50.0625 136.519531 L 51.542969 119.636719 L 52.425781 118.003906 L 52.898438 117.65625 L 53.195312 118.410156 L 52.652344 118.507812 L 53.011719 118.53125 L 52.820312 118.90625 L 56.527344 122.242188 L 58.144531 127.6875 L 59.488281 129.003906 L 58.449219 126.585938 L 57.789062 122.617188 L 59.480469 122.761719 L 59.597656 122.242188 L 59.914062 123.25 L 61.894531 123.613281 L 62.21875 125.460938 L 62.238281 125.550781 L 62.488281 126.320312 L 62.777344 125.789062 L 63.136719 125.859375 L 63.472656 126.429688 L 63.953125 126.332031 L 64.257812 126.890625 L 65.21875 127.300781 L 65.882812 127.394531 L 66.671875 126.753906 L 67.292969 127.214844 L 67.394531 126.382812 L 67.972656 126.128906 L 67.644531 125.886719 L 68.03125 125.128906 L 68.703125 124.636719 L 69.820312 125.058594 L 70.394531 123.957031 L 71.679688 123.226562 L 71.414062 121.769531 L 71.816406 120.601562 L 72.398438 120.40625 L 72.1875 119.953125 L 72.585938 120.300781 L 73.296875 119.421875 L 74.019531 119.417969 L 74.261719 118.65625 L 75.046875 118.09375 L 75.140625 116.453125 L 75.910156 116.441406 Z M 66.832031 162.574219 L 66.75 161.355469 L 66.617188 161.289062 L 66.671875 162.023438 L 66.257812 162.191406 L 66.601562 162.519531 Z M 66.289062 162.53125 L 66.191406 162.605469 L 65.914062 163.265625 L 66.179688 163.863281 L 66.769531 163.441406 L 66.417969 162.578125 L 66.335938 162.523438 Z M 66.289062 162.53125 "/>
<path style=" stroke:none;fill-rule:nonzero;fill-opacity:1;" d="M 100.144531 100.433594 L 100.394531 99.398438 L 100.746094 99.394531 L 101.277344 98.449219 L 103.0625 98.121094 L 103.761719 98.398438 L 104.867188 97.695312 L 104.714844 96.847656 L 104.1875 96.550781 L 104.601562 95.921875 L 104.238281 95.515625 L 104.730469 95.257812 L 105.054688 95.523438 L 105.003906 94.871094 L 106.097656 94.285156 L 106.296875 93.734375 L 106.9375 94.320312 L 107.46875 93.949219 L 108.144531 94.136719 L 109.195312 92.75 L 110.757812 92.710938 L 111.136719 93.613281 L 113.140625 95.152344 L 114.121094 94.316406 L 115.222656 94.996094 L 115.675781 94.40625 L 116.261719 94.378906 L 116.773438 95.667969 L 118.246094 94.894531 L 118.058594 94.195312 L 118.757812 94.164062 L 118.640625 93.394531 L 119.15625 93.535156 L 119.347656 94.523438 L 120.734375 96.6875 L 120.8125 97.996094 L 121.714844 98.40625 L 122.1875 98.144531 L 122.613281 99.035156 L 123.757812 98.933594 L 124.457031 99.574219 L 124.125 100.875 L 124.246094 102.300781 L 124.527344 102.328125 L 123.707031 102.449219 L 123.035156 103.386719 L 122.941406 103.410156 L 122.820312 103.425781 L 121.179688 104.136719 L 121.753906 105.695312 L 121.53125 106.738281 L 121.933594 107.214844 L 121.707031 107.933594 L 122.070312 109.039062 L 121.457031 109.5625 L 120.238281 109.640625 L 120.125 110.441406 L 120.996094 111.339844 L 120.445312 111.660156 L 120.542969 112.808594 L 120.070312 113.261719 L 121.367188 114.601562 L 121.316406 115.285156 L 121.980469 116.492188 L 123.535156 117.574219 L 124.257812 119.234375 L 123.953125 120.441406 L 122.90625 121.265625 L 123.121094 122.492188 L 123.734375 121.648438 L 124.269531 121.730469 L 124.726562 122.617188 L 124.761719 122.1875 L 125.476562 122.457031 L 125.621094 122.003906 L 126.644531 121.871094 L 126.519531 121.488281 L 126.996094 121.3125 L 127.765625 121.382812 L 128.316406 122.007812 L 129.199219 121.804688 L 129.664062 122.445312 L 129.15625 122.820312 L 129.710938 123.148438 L 129.402344 123.6875 L 129.917969 124.058594 L 130.625 123.6875 L 131.398438 124.730469 L 130.789062 125.980469 L 130.929688 126.820312 L 130.625 127 L 130.441406 126.46875 L 129.746094 126.320312 L 130.101562 126.917969 L 130.101562 127.097656 L 129.714844 127.070312 L 129.367188 127.667969 L 129.832031 128.46875 L 128.65625 128.816406 L 128.898438 129.742188 L 127.644531 129.941406 L 126.675781 131.742188 L 124.953125 131.753906 L 124.863281 132.527344 L 124.464844 132.800781 L 124.214844 132.542969 L 124.296875 132.96875 L 123.746094 132.660156 L 123.382812 133.824219 L 122.503906 134.308594 L 122.140625 134.238281 L 122.242188 133.75 L 121.769531 133.902344 L 121.082031 133.179688 L 120.832031 132.433594 L 119.746094 132.625 L 119.839844 132.066406 L 119.226562 131.574219 L 118.710938 131.683594 L 118.640625 132.675781 L 117.078125 133.007812 L 116.210938 131.230469 L 116.1875 130.363281 L 115.566406 129.695312 L 114.355469 130.660156 L 113.734375 130.488281 L 113.65625 131.445312 L 113.03125 131.945312 L 112.175781 131.125 L 111.863281 131.882812 L 111.78125 131.882812 L 111.714844 132.519531 L 111.339844 132.441406 L 110.96875 133.191406 L 110.871094 134.875 L 110.0625 136.292969 L 109.425781 135.585938 L 109.070312 133.964844 L 109.429688 133.710938 L 109.195312 133.320312 L 108.738281 133.40625 L 108.335938 131.710938 L 107.109375 132.078125 L 107.128906 130.957031 L 106.601562 130.375 L 104.730469 132.28125 L 104.667969 133.355469 L 103.953125 134.125 L 104.101562 134.789062 L 103.242188 135.40625 L 103.019531 136.167969 L 101.160156 136.371094 L 100.796875 135.777344 L 100.351562 135.816406 L 99.242188 136.179688 L 99.066406 136.820312 L 98.589844 136.40625 L 98.421875 135.273438 L 98.011719 135.253906 L 98.601562 133.421875 L 97.464844 131.730469 L 97.632812 130.792969 L 97.046875 129.691406 L 97.609375 129.542969 L 97.726562 129.574219 L 98.199219 129.179688 L 97.570312 128.007812 L 98.625 127.5625 L 98.714844 126.460938 L 99.460938 125.890625 L 99.015625 125.574219 L 98.917969 124.765625 L 101.261719 122.445312 L 101.105469 120.929688 L 102.972656 121.777344 L 103.648438 121.332031 L 103.070312 120.785156 L 103.5 118.054688 L 102.703125 117.210938 L 103.054688 116.304688 L 103.558594 116.277344 L 103.585938 114.902344 L 101.671875 112.566406 L 102.636719 111.734375 L 102.695312 111.722656 L 103.148438 111.78125 L 104.054688 110.769531 L 104.160156 109.894531 L 104.828125 109.585938 L 104.691406 108.300781 L 103.960938 107.257812 L 104.183594 105.847656 L 103 103.296875 L 102.28125 102.96875 L 102.136719 103.234375 L 101.660156 102.242188 L 101.339844 102.679688 L 100.453125 102.003906 L 100.898438 101.410156 L 100.242188 101.222656 Z M 100.144531 100.433594 "/>
<path style=" stroke:none;fill-rule:nonzero;fill-opacity:1;" d="M 137.761719 70.328125 L 137.234375 69.175781 L 136.757812 69.25 L 136.632812 69.699219 L 136.222656 69.4375 L 136.699219 68.769531 L 136.421875 68.34375 L 135.558594 68.304688 L 135.90625 67.75 L 135.679688 67.386719 L 134.363281 67.007812 L 132.648438 66.898438 L 132.042969 67.375 L 132.304688 68.1875 L 128.910156 68.332031 L 128.605469 69.101562 L 127.921875 68.992188 L 127.664062 68.105469 L 127.21875 68.207031 L 127.324219 68.753906 L 126.824219 68.371094 L 126.648438 68.464844 L 126.019531 69.082031 L 125.308594 68.664062 L 125.09375 69.097656 L 124.523438 68.734375 L 122.972656 69.011719 L 123.234375 67.945312 L 122.96875 67.484375 L 122.765625 67.96875 L 122.363281 67.878906 L 122.1875 67.4375 L 122.648438 67.203125 L 121.949219 66.585938 L 121.507812 65.023438 L 120.78125 64.710938 L 120.902344 64.003906 L 120.421875 63.828125 L 120.542969 64.210938 L 119.753906 64.550781 L 119.234375 63.492188 L 118.503906 63.605469 L 119.105469 62.734375 L 118.8125 62.585938 L 119.070312 61.816406 L 118.480469 61.492188 L 118.621094 61.140625 L 117.4375 59.734375 L 116.910156 59.527344 L 116.367188 59.902344 L 116.171875 59.230469 L 115.625 59.019531 L 115.46875 59.609375 L 115.0625 59.664062 L 112.300781 59.601562 L 111.777344 60.105469 L 110.984375 59.886719 L 110.53125 61.039062 L 110.984375 62.214844 L 110.378906 63.125 L 109.429688 63.625 L 109.425781 64.054688 L 110.734375 64.6875 L 110.542969 65.054688 L 110.824219 65.035156 L 111.023438 65.960938 L 112.082031 66.878906 L 111.722656 67.097656 L 112.128906 68.085938 L 111.660156 68.636719 L 111.574219 68.710938 L 110.449219 69.496094 L 110.257812 70.316406 L 110.78125 70.683594 L 110.675781 72.011719 L 108.222656 72.632812 L 108.167969 73.484375 L 108.601562 73.414062 L 109.273438 74.222656 L 109.660156 74.996094 L 109.421875 75.96875 L 109.984375 76.585938 L 108.347656 77.054688 L 108.347656 76.980469 L 108.171875 77.242188 L 109.339844 79.335938 L 108.445312 81.417969 L 110.058594 83.015625 L 110.75 85.941406 L 110.570312 87.125 L 111.417969 87.96875 L 111.441406 89.378906 L 111.015625 90.378906 L 111.292969 91.53125 L 110.757812 92.710938 L 111.136719 93.613281 L 113.140625 95.152344 L 114.121094 94.316406 L 115.222656 94.996094 L 115.675781 94.40625 L 116.261719 94.378906 L 116.773438 95.667969 L 118.246094 94.894531 L 118.058594 94.195312 L 118.757812 94.164062 L 118.640625 93.394531 L 119.15625 93.535156 L 119.347656 94.523438 L 120.734375 96.6875 L 120.8125 97.996094 L 121.714844 98.40625 L 122.1875 98.144531 L 122.613281 99.035156 L 123.757812 98.933594 L 124.457031 99.574219 L 124.125 100.875 L 124.246094 102.300781 L 124.527344 102.328125 L 123.707031 102.449219 L 123.035156 103.386719 L 122.910156 104.644531 L 124.078125 104.882812 L 124.3125 105.566406 L 125.917969 104.960938 L 126.980469 105.472656 L 127.398438 105.050781 L 127.652344 105.394531 L 128.058594 105.191406 L 127.992188 105.785156 L 128.355469 105.832031 L 129.730469 105.226562 L 130.199219 102.980469 L 130.945312 102.953125 L 131.585938 103.558594 L 132.5 103.015625 L 133.207031 103.597656 L 133.472656 102.875 L 134.078125 102.765625 L 134.507812 103.332031 L 134.070312 103.734375 L 134.871094 104.257812 L 134.636719 105.046875 L 135.183594 105.503906 L 135.492188 105.421875 L 137.769531 98.40625 L 137.90625 98.773438 L 138.378906 98.488281 L 139.40625 99.117188 L 140.960938 98.710938 L 140.976562 98.398438 L 141.515625 98.675781 L 141.933594 99.652344 L 143.046875 99.890625 L 143.179688 99.546875 L 144.496094 99.261719 L 144.550781 98.738281 L 143.679688 98.382812 L 143.660156 97.507812 L 144.3125 97.109375 L 144.191406 96.519531 L 144.835938 95.957031 L 144.183594 94.984375 L 144.144531 94.085938 L 143.691406 94.058594 L 144.125 93.222656 L 143.222656 92.292969 L 145.179688 91.773438 L 144.289062 91.195312 L 144.242188 90.699219 L 143.253906 90.800781 L 142.753906 89.722656 L 142.332031 89.945312 L 142.195312 88.921875 L 143.101562 88.199219 L 142.492188 87.914062 L 142.613281 87.449219 L 144.042969 86.761719 L 144.808594 85.464844 L 144.800781 85.359375 L 145.496094 82.46875 L 145.941406 82.164062 L 145.28125 81.886719 L 145.234375 81.886719 L 145.605469 81.375 L 145.441406 80.285156 L 145.386719 80.25 L 144.800781 80.292969 L 144.714844 80.292969 L 144.804688 79.082031 L 143.792969 78.789062 L 144.375 78.519531 L 144.085938 78.4375 L 144.246094 78.066406 L 144.945312 78.09375 L 145.632812 76.882812 L 144.84375 75.316406 L 144.1875 76.058594 L 143.871094 75.839844 L 143.628906 76.132812 L 142.941406 75.75 L 142.167969 76.433594 L 142.277344 75.480469 L 141.0625 74.851562 L 141.132812 74.261719 L 140.273438 74.972656 L 139.371094 74.515625 L 139.472656 73.945312 L 139.023438 74.007812 L 139.011719 73.625 L 138.160156 74.136719 L 138.023438 72.539062 L 137.410156 72.429688 L 138.496094 71.566406 L 137.949219 70.328125 Z M 137.761719 70.328125 "/>
<path style=" stroke:none;fill-rule:nonzero;fill-opacity:1;" d="M 21.972656 80.398438 L 22.394531 80.90625 L 23.253906 80.886719 L 23.503906 81.613281 L 24.605469 81.929688 L 24.417969 82.511719 L 22.105469 82.167969 L 21.757812 81.136719 Z M 22.300781 49.007812 L 22.371094 49.769531 L 24.269531 48.996094 L 24.269531 50.035156 L 25.3125 49.96875 L 25.421875 50.472656 L 24.863281 50.894531 L 26.488281 51.421875 L 26.253906 52.164062 L 28.0625 53.710938 L 27.996094 54.855469 L 29.523438 55.699219 L 29.148438 56.367188 L 29.546875 56.199219 L 30.09375 57.15625 L 29.972656 56.199219 L 30.75 56.425781 L 31.78125 54.761719 L 32.925781 54.269531 L 32.714844 53.789062 L 33.4375 53.625 L 33.683594 54.128906 L 35.117188 52.855469 L 35.613281 53.289062 L 34.855469 54.324219 L 35.183594 54.542969 L 36.179688 53.804688 L 36.644531 55.035156 L 36.449219 55.824219 L 36.847656 54.523438 L 37.085938 55.265625 L 37.492188 54.371094 L 37.859375 54.742188 L 37.472656 54.042969 L 38.949219 53.925781 L 39.101562 54.765625 L 39.664062 55.132812 L 39.410156 55.367188 L 40.003906 55.960938 L 39.828125 57 L 40.117188 56.34375 L 40.488281 56.46875 L 39.808594 55.105469 L 40.363281 55.402344 L 40.171875 54.949219 L 39.441406 54.792969 L 39.65625 54.433594 L 39.152344 54.019531 L 39.738281 52.972656 L 41.835938 52.351562 L 41.945312 53.058594 L 41.480469 53.941406 L 42.757812 54.671875 L 45.667969 54.023438 L 46.84375 57.128906 L 47.796875 57.730469 L 48.75 57.558594 L 50.164062 55.957031 L 52.765625 56.71875 L 52.609375 58.71875 L 53.117188 60.546875 L 52.324219 61.882812 L 52.640625 63.21875 L 52.699219 63.273438 L 53.519531 67.464844 L 51.5625 68.273438 L 50.269531 72.246094 L 48.621094 71.773438 L 48.269531 71.160156 L 46.988281 71.011719 L 47.070312 71.691406 L 44.960938 72.519531 L 44.425781 73.65625 L 41.597656 73.675781 L 40.253906 74.460938 L 39.996094 73.988281 L 38.460938 74.910156 L 38.226562 77.367188 L 37.390625 77.601562 L 37.300781 78.269531 L 37 77.789062 L 36.148438 78.167969 L 35.390625 77.714844 L 35.125 78.871094 L 33.933594 78.96875 L 33.625 78.535156 L 33.140625 79.140625 L 32.609375 79.097656 L 32.519531 78.214844 L 33.378906 78.085938 L 32.40625 77.542969 L 28.082031 78.339844 L 26.726562 76.9375 L 25.992188 76.933594 L 25.617188 76.382812 L 25.402344 76.660156 L 25.117188 76.121094 L 25.1875 76.644531 L 23.726562 76.601562 L 23.660156 77.769531 L 24.339844 78.710938 L 23.613281 78.621094 L 23.167969 77.445312 L 23.558594 77.121094 L 23.351562 76.050781 L 21.421875 74.164062 L 20.371094 74.152344 L 20.292969 73.628906 L 19.054688 73.941406 L 18.011719 72.515625 L 15.867188 72.253906 L 15.179688 71.644531 L 13.378906 71.945312 L 12.714844 71.023438 L 13.003906 70.515625 L 12.59375 70.695312 L 12.089844 69.589844 L 11.484375 69.996094 L 11.6875 70.601562 L 10.746094 70.847656 L 9.835938 70.246094 L 9.257812 70.558594 L 8.625 71.832031 L 6.136719 71.832031 L 6.269531 69.902344 L 5.378906 68.324219 L 4.113281 67.421875 L 3.289062 67.53125 L 2.394531 66.925781 L 0.914062 66.707031 L 1.339844 66.609375 L 1.230469 66.164062 L 5.445312 65.265625 L 7.023438 65.640625 L 7.554688 64.78125 L 6.871094 63.207031 L 4.78125 62.460938 L 4.28125 62.605469 L 3.433594 63.917969 L 3.246094 62.554688 L 3.65625 62.242188 L 2.550781 62.132812 L 2.453125 61.59375 L 3.28125 61.539062 L 3.257812 60.507812 L 3.8125 60.289062 L 3.484375 61.09375 L 3.773438 61.492188 L 4.28125 60.910156 L 4.234375 61.558594 L 4.953125 61.226562 L 5.710938 61.691406 L 6.996094 61.199219 L 7.65625 61.574219 L 8.207031 60.859375 L 7.839844 61.167969 L 6.570312 60.832031 L 7.058594 60.5 L 6.648438 60.304688 L 6.839844 59.824219 L 6.0625 60.59375 L 5.449219 60.628906 L 5.726562 60.25 L 4.867188 60.585938 L 5.6875 59.378906 L 5.351562 59.113281 L 2.753906 60.335938 L 1.710938 59.972656 L 1.335938 60.484375 L 0.414062 60.527344 L 0.164062 59.847656 L 0.570312 59.398438 L 0.0976562 58.738281 L 0.582031 57.589844 L 0.355469 56.5625 L 1.019531 55.695312 L 2.710938 55.257812 L 2.773438 54.667969 L 3.371094 54.800781 L 3.671875 53.96875 L 4.28125 54.304688 L 5.664062 53.960938 L 5.164062 53.589844 L 6.445312 53.105469 L 7.15625 53.375 L 7.15625 54.039062 L 8.582031 53.648438 L 8.195312 53.503906 L 8.707031 52.898438 L 9.929688 52.714844 L 10.507812 53.125 L 10.589844 52.488281 L 11.234375 52.027344 L 11.324219 52.367188 L 11.757812 52.03125 L 11.734375 53.175781 L 12.304688 53.417969 L 12.390625 52.644531 L 12.417969 53.175781 L 13.511719 53.464844 L 13.382812 52.84375 L 13.71875 52.304688 L 13.871094 52.601562 L 13.832031 52.203125 L 15.859375 52.914062 L 16.367188 52.707031 L 16.160156 53.503906 L 16.660156 52.914062 L 17.242188 53.257812 L 17.21875 52.089844 L 17.714844 51.644531 L 17.207031 51.386719 L 17.453125 50.570312 L 17.171875 50.332031 L 17.628906 50.644531 L 18.339844 49.617188 L 18.523438 50.023438 L 18.675781 49.65625 L 18.976562 50.128906 L 19.417969 50.015625 L 19.234375 50.503906 L 19.839844 50.460938 L 20.941406 49.640625 L 21.746094 49.722656 Z M 22.300781 49.007812 "/>
<path style=" stroke:none;fill-rule:nonzero;fill-opacity:1;" d="M 89.132812 47.449219 L 90.007812 48.527344 L 89.761719 48.960938 L 90.503906 49.625 L 90.265625 51.3125 L 90.90625 51.617188 L 90.199219 52.5625 L 90.699219 52.863281 L 90.554688 53.371094 L 91.457031 54.460938 L 92.148438 54.457031 L 92.0625 55.257812 L 93.167969 55.757812 L 93.007812 56.621094 L 93.371094 57.613281 L 94.335938 58.175781 L 95.191406 57.820312 L 95.15625 58.90625 L 95.859375 59.003906 L 96.007812 59.8125 L 95.578125 60.941406 L 95.785156 61.40625 L 98.488281 61.183594 L 98.320312 60.8125 L 98.738281 60.910156 L 99.046875 60.214844 L 99.648438 60.472656 L 99.640625 61.183594 L 100.398438 60.890625 L 100.472656 60.75 L 100.808594 60.449219 L 101.253906 60.984375 L 101.894531 60.820312 L 102.167969 62.007812 L 103.492188 62.726562 L 103.496094 63.96875 L 103.011719 64.023438 L 102.453125 64.886719 L 104.085938 64.523438 L 106.15625 64.898438 L 106.84375 64.433594 L 106.589844 63.976562 L 106.964844 64.261719 L 107.476562 63.9375 L 107.765625 64.761719 L 108.425781 64.203125 L 109.425781 64.054688 L 110.734375 64.6875 L 110.542969 65.054688 L 110.824219 65.035156 L 111.023438 65.960938 L 112.082031 66.878906 L 111.722656 67.097656 L 112.128906 68.085938 L 111.660156 68.636719 L 111.574219 68.710938 L 110.449219 69.496094 L 110.257812 70.316406 L 110.78125 70.683594 L 110.675781 72.011719 L 108.222656 72.632812 L 108.167969 73.484375 L 108.601562 73.414062 L 109.273438 74.222656 L 109.660156 74.996094 L 109.421875 75.96875 L 109.984375 76.585938 L 108.347656 77.054688 L 108.347656 76.980469 L 108.171875 77.242188 L 109.339844 79.335938 L 108.445312 81.417969 L 110.058594 83.015625 L 110.75 85.941406 L 110.570312 87.125 L 111.417969 87.96875 L 111.441406 89.378906 L 111.015625 90.378906 L 111.292969 91.53125 L 110.757812 92.710938 L 109.195312 92.75 L 108.144531 94.136719 L 107.46875 93.949219 L 106.9375 94.320312 L 106.296875 93.734375 L 106.097656 94.285156 L 105.003906 94.871094 L 105.054688 95.523438 L 104.730469 95.257812 L 104.238281 95.515625 L 104.601562 95.921875 L 104.1875 96.550781 L 104.714844 96.847656 L 104.867188 97.695312 L 103.761719 98.398438 L 103.0625 98.121094 L 101.277344 98.449219 L 100.746094 99.394531 L 100.394531 99.398438 L 100.144531 100.433594 L 98.957031 100.257812 L 97.429688 100.636719 L 95.878906 99.957031 L 93.902344 100.3125 L 93.109375 99.679688 L 92.609375 99.808594 L 92.785156 100.320312 L 92.347656 101.039062 L 91.734375 100.460938 L 90.925781 101.085938 L 90.65625 100.402344 L 89.742188 100.992188 L 89.476562 100.292969 L 87.910156 101.945312 L 87.042969 100.847656 L 86.46875 100.945312 L 86.332031 101.425781 L 85.128906 101.542969 L 84.996094 101.042969 L 84.558594 101.148438 L 84.816406 100.804688 L 85.035156 100.148438 L 84.167969 99.84375 L 84.078125 98.640625 L 83.351562 98.035156 L 82.316406 98.046875 L 82.242188 97.414062 L 80.773438 96.710938 L 80.515625 96.128906 L 81.015625 94.792969 L 80.804688 94.117188 L 79.425781 92.832031 L 79.160156 91.582031 L 77.863281 90.472656 L 77.683594 89.011719 L 76.636719 88.308594 L 75.933594 88.339844 L 76.363281 89.355469 L 75.054688 89.320312 L 74.105469 89.929688 L 73.070312 89.515625 L 72.480469 89.90625 L 72.027344 88.660156 L 72.328125 88.496094 L 72.191406 87.398438 L 71.703125 87.578125 L 71.375 86.976562 L 70.433594 87.234375 L 70.738281 86.558594 L 70.480469 86.066406 L 70.199219 86.359375 L 69.816406 86.230469 L 69.890625 85.859375 L 69.042969 85.984375 L 68.671875 85.050781 L 68.996094 82.601562 L 70.480469 80.515625 L 70.0625 80.144531 L 71.035156 78.035156 L 71.097656 77.46875 L 70.644531 77.21875 L 71.207031 76.015625 L 71.191406 75.835938 L 73.332031 76.570312 L 73.605469 76.394531 L 73.0625 75.53125 L 73.328125 75.03125 L 74.261719 75.542969 L 74.46875 75.003906 L 76.335938 74.433594 L 76.65625 73.992188 L 76.332031 74.089844 L 76.1875 73.472656 L 76.765625 72.757812 L 77.828125 72.4375 L 77.695312 72.097656 L 78.773438 71.066406 L 78.65625 69.625 L 79.070312 69.390625 L 79.371094 69.886719 L 79.429688 68.960938 L 79.902344 68.792969 L 79.476562 67.824219 L 79.808594 66.902344 L 79.171875 66.742188 L 79.121094 66.035156 L 79.820312 65.984375 L 79.847656 65.515625 L 79.398438 65.417969 L 79.792969 65.324219 L 79.929688 64.699219 L 80.847656 64.582031 L 79.179688 63.40625 L 79.636719 62.996094 L 79.042969 61.992188 L 79.296875 61.394531 L 78.578125 61.167969 L 78.785156 60.683594 L 80.824219 59.609375 L 81.699219 58.164062 L 81.132812 57.394531 L 81.566406 56.386719 L 79.480469 54.496094 L 79.433594 53.257812 L 80.113281 52.875 L 80.296875 52.28125 L 81.886719 52.070312 L 82.179688 52.070312 L 82.9375 51.363281 L 83.675781 51.613281 L 83.761719 50.695312 L 85.191406 51.367188 L 86.742188 51.300781 L 87.308594 50.875 L 87.164062 49.726562 L 88.550781 48.921875 L 88.378906 47.808594 Z M 89.132812 47.449219 "/>
<path style=" stroke:none;fill-rule:nonzero;fill-opacity:1;" d="M 136.269531 20.964844 L 137.128906 21.351562 L 136.722656 21.726562 L 136.785156 22.429688 L 136.488281 22.128906 L 136.050781 22.933594 L 136.347656 23.53125 L 135.621094 25.054688 L 137.015625 26.355469 L 136.433594 27.296875 L 136.824219 28.328125 L 136.5 28.914062 L 138.53125 28.761719 L 139.933594 29.578125 L 140.949219 31.097656 L 142.425781 31.042969 L 143.289062 31.960938 L 143.042969 32.894531 L 143.523438 32.460938 L 144.199219 32.777344 L 142.3125 34.40625 L 141.925781 33.804688 L 140.917969 33.945312 L 140.628906 33.339844 L 140.195312 33.308594 L 139.878906 34.394531 L 139.855469 34.523438 L 139.4375 35.304688 L 140.175781 36.234375 L 140.230469 37.070312 L 139.691406 37.4375 L 140.03125 37.96875 L 139.363281 38.203125 L 138.953125 39.449219 L 139.398438 39.800781 L 139.316406 40.226562 L 137.910156 41.03125 L 138.488281 41.640625 L 137.742188 42.160156 L 138.660156 44.675781 L 138.109375 45.695312 L 138.722656 45.390625 L 139.113281 45.648438 L 139.082031 46.304688 L 138.523438 46.507812 L 139.160156 46.722656 L 138.832031 47.46875 L 137.726562 47.925781 L 137.667969 47.988281 L 137.363281 48.996094 L 137.71875 49.550781 L 137.058594 50.492188 L 138.746094 51.710938 L 138.59375 54.421875 L 139.417969 54.058594 L 139.617188 54.839844 L 140.292969 54.847656 L 141.605469 56.285156 L 143.246094 56.683594 L 145.230469 58.527344 L 144.164062 59.207031 L 144.847656 59.460938 L 144.632812 60.484375 L 145.375 59.953125 L 146.015625 60.132812 L 146.925781 61.703125 L 147.246094 61.324219 L 147.839844 61.832031 L 147.667969 62.390625 L 148.316406 62.554688 L 148.917969 63.324219 L 148.222656 63.722656 L 148.082031 65.230469 L 147.480469 65.714844 L 148.449219 65.898438 L 148.8125 66.59375 L 149.585938 66.8125 L 149.738281 68.519531 L 150.578125 68.03125 L 151.113281 69.082031 L 151.105469 69.625 L 150.628906 69.492188 L 150.226562 70.238281 L 150.308594 70.632812 L 149.359375 70.480469 L 149.089844 71.3125 L 148.375 71.292969 L 148.164062 72.171875 L 148.628906 72.851562 L 148.371094 74.160156 L 147.042969 74.421875 L 146.628906 73.679688 L 146.035156 74.40625 L 144.40625 74.375 L 143.871094 75.839844 L 143.628906 76.132812 L 142.941406 75.75 L 142.167969 76.433594 L 142.277344 75.480469 L 141.0625 74.851562 L 141.132812 74.261719 L 140.273438 74.972656 L 139.371094 74.515625 L 139.472656 73.945312 L 139.023438 74.007812 L 139.011719 73.625 L 138.160156 74.136719 L 138.023438 72.539062 L 137.410156 72.429688 L 138.496094 71.566406 L 137.949219 70.328125 L 137.761719 70.328125 L 137.234375 69.175781 L 136.757812 69.25 L 136.632812 69.699219 L 136.222656 69.4375 L 136.699219 68.769531 L 136.421875 68.34375 L 135.558594 68.304688 L 135.90625 67.75 L 135.679688 67.386719 L 134.363281 67.007812 L 132.648438 66.898438 L 132.042969 67.375 L 132.304688 68.1875 L 128.910156 68.332031 L 128.605469 69.101562 L 127.921875 68.992188 L 127.664062 68.105469 L 127.21875 68.207031 L 127.324219 68.753906 L 126.824219 68.371094 L 126.648438 68.464844 L 126.019531 69.082031 L 125.308594 68.664062 L 125.09375 69.097656 L 124.523438 68.734375 L 122.972656 69.011719 L 123.234375 67.945312 L 122.96875 67.484375 L 122.765625 67.96875 L 122.363281 67.878906 L 122.1875 67.4375 L 122.648438 67.203125 L 121.949219 66.585938 L 121.507812 65.023438 L 120.78125 64.710938 L 120.902344 64.003906 L 120.421875 63.828125 L 120.542969 64.210938 L 119.753906 64.550781 L 119.234375 63.492188 L 118.503906 63.605469 L 119.105469 62.734375 L 118.8125 62.585938 L 119.070312 61.816406 L 118.480469 61.492188 L 118.621094 61.140625 L 117.4375 59.734375 L 116.910156 59.527344 L 116.367188 59.902344 L 116.171875 59.230469 L 115.726562 57.3125 L 116.496094 57.082031 L 116.050781 56.28125 L 117.105469 55.988281 L 116.875 55.371094 L 117.570312 54.957031 L 117.398438 54.640625 L 118.21875 54.386719 L 117.664062 54.039062 L 117.859375 53.75 L 116.6875 53.992188 L 116.925781 51.789062 L 115.886719 51.355469 L 116.578125 50.671875 L 116.011719 50.277344 L 117.195312 50.164062 L 117.167969 49.34375 L 117.777344 48.054688 L 118.375 48 L 118.421875 47.46875 L 118.839844 47.394531 L 118.65625 47.019531 L 119.894531 45.859375 L 119.511719 45.230469 L 118.585938 45.367188 L 118.609375 44.863281 L 119.335938 44.496094 L 118.808594 43.582031 L 119.109375 42.914062 L 120.28125 43.09375 L 120.894531 42.734375 L 120.90625 42.25 L 120.421875 42.34375 L 120.199219 41.695312 L 119.960938 41.90625 L 119.558594 41.5625 L 119.90625 41.089844 L 119.4375 39.378906 L 121.316406 38.449219 L 122.351562 38.699219 L 122.414062 37.929688 L 123.378906 37.351562 L 123.886719 37.992188 L 124.976562 38.363281 L 124.996094 36.664062 L 125.429688 36.507812 L 125.042969 35.171875 L 125.582031 34.785156 L 125.164062 34.339844 L 125.5625 33.765625 L 124.792969 32.65625 L 125.039062 32.308594 L 126.085938 32.410156 L 126.246094 31.425781 L 127.078125 30.96875 L 127.992188 29.695312 L 127.375 29.195312 L 128.042969 27.257812 L 128.074219 26.472656 L 127.539062 26.257812 L 127.742188 25.265625 L 128.84375 25.039062 L 130.769531 25.734375 L 132.914062 24.652344 L 134.25 24.457031 L 134.070312 22.902344 L 134.382812 22.265625 L 136.109375 20.648438 Z M 136.269531 20.964844 "/>
<path style=" stroke:none;fill-rule:nonzero;fill-opacity:1;" d="M 191.984375 195.4375 L 192.394531 194.519531 L 193.359375 194.421875 L 193.96875 193.648438 L 192.5 193.148438 L 192.066406 193.421875 L 191.972656 192.636719 L 191.011719 193.011719 L 190.976562 192.675781 L 190.332031 192.652344 L 191.347656 191.96875 L 191.082031 191.476562 L 191.929688 191.300781 L 192.09375 190.902344 L 191.632812 190.664062 L 192.164062 190.5625 L 192.023438 189.945312 L 192.371094 189.707031 L 191.59375 188.984375 L 191.183594 189.464844 L 189.609375 189.734375 L 189.828125 188.953125 L 189.394531 188.378906 L 190.183594 188.3125 L 190.351562 187.476562 L 191.585938 186.769531 L 190.914062 185.578125 L 190.339844 185.804688 L 189.671875 185.148438 L 189.226562 185.277344 L 189.289062 184.828125 L 188.898438 184.941406 L 189.40625 184.511719 L 188.945312 184.449219 L 189.226562 183.796875 L 188.648438 183.1875 L 190.839844 182.628906 L 190.351562 181.941406 L 189.5625 181.882812 L 189.710938 181.039062 L 188.832031 181.339844 L 188.714844 180.550781 L 189.625 180.335938 L 189.578125 179.765625 L 190.28125 179.785156 L 190.183594 179.265625 L 190.632812 178.757812 L 190.191406 178.574219 L 190.445312 177.859375 L 191.203125 177.675781 L 191.003906 176.828125 L 191.28125 176.539062 L 191.304688 176.984375 L 191.695312 176.792969 L 192.175781 177.132812 L 192.359375 176.195312 L 193.277344 176.082031 L 194.199219 175.347656 L 195.371094 175.449219 L 196.011719 175.066406 L 195.976562 174.386719 L 196.921875 173.710938 L 198.292969 173.640625 L 199.382812 174.765625 L 200.03125 173.625 L 199.996094 172.488281 L 199.53125 171.753906 L 199.96875 171.125 L 199.707031 170.464844 L 200.261719 170 L 199.964844 168.652344 L 201.136719 168.316406 L 201.710938 168.796875 L 202.125 172.265625 L 201.460938 174.800781 L 202.6875 177.242188 L 203.054688 183.996094 L 202.921875 185.75 L 200.980469 188.601562 L 200.625 194.433594 L 200 194.6875 L 200.179688 194.980469 L 199.519531 194.757812 L 199.105469 195.367188 L 199.230469 195.769531 L 199.664062 195.203125 L 200.386719 195.402344 L 200.019531 196.070312 L 199.035156 196.609375 L 199.105469 197.859375 L 198.320312 198.269531 L 198.125 198.820312 L 198.921875 198.542969 L 198.835938 198.820312 L 198.292969 199.710938 L 197.707031 199.753906 L 197.386719 199.226562 L 196.484375 199.191406 L 196.871094 198.371094 L 196.15625 198.246094 L 196.289062 197.554688 L 195.722656 198.015625 L 195.144531 197.386719 L 194.929688 197.691406 L 194.035156 197.402344 L 193.414062 196.738281 L 192.941406 196.863281 L 193.097656 196.3125 L 192.15625 196.144531 L 192.398438 195.78125 Z M 191.984375 195.4375 "/>
<path style=" stroke:none;fill-rule:nonzero;fill-opacity:1;" d="M 151.113281 69.082031 L 151.796875 67.996094 L 152.183594 68.1875 L 151.726562 68.824219 L 152.035156 68.875 L 152.785156 68.4375 L 153.3125 67.445312 L 154.660156 67.109375 L 154.695312 67.132812 L 154.851562 68.226562 L 155.632812 68.847656 L 155.632812 68.957031 L 158.25 68.351562 L 158.898438 68.75 L 159.507812 69.9375 L 161.273438 68.660156 L 161.878906 69.550781 L 164.558594 71.28125 L 164.984375 72.109375 L 166.027344 72.351562 L 167.394531 73.367188 L 167.527344 74.4375 L 166.957031 75.898438 L 168.097656 76.09375 L 168.902344 77.523438 L 168.753906 77.976562 L 166.640625 78.164062 L 166.90625 79.011719 L 166.03125 79.449219 L 165.167969 81.121094 L 167.109375 80.703125 L 167.570312 80.925781 L 167.664062 81.519531 L 167.023438 81.710938 L 166.828125 82.335938 L 166.074219 82.492188 L 166.246094 83.421875 L 164.636719 84.902344 L 164.882812 85.046875 L 164.601562 85.375 L 162.675781 86.765625 L 162.910156 87.414062 L 161.523438 88.617188 L 159.761719 89.003906 L 158.84375 89.960938 L 159.296875 90.769531 L 158.828125 92.355469 L 159.132812 93.125 L 154.296875 97.214844 L 154.953125 97.859375 L 153.765625 99.558594 L 153.652344 100.515625 L 150.894531 103.613281 L 148.851562 103.695312 L 148.6875 102.703125 L 147.738281 102.398438 L 147.6875 101.976562 L 146.214844 103.535156 L 145.292969 103.621094 L 145.316406 102.574219 L 144.777344 102.574219 L 144.59375 101.910156 L 144.304688 102.675781 L 143.707031 101.449219 L 143.925781 101.203125 L 142.828125 100.574219 L 143.046875 99.890625 L 143.179688 99.546875 L 144.496094 99.261719 L 144.550781 98.738281 L 143.679688 98.382812 L 143.660156 97.507812 L 144.3125 97.109375 L 144.191406 96.519531 L 144.835938 95.957031 L 144.183594 94.984375 L 144.144531 94.085938 L 143.691406 94.058594 L 144.125 93.222656 L 143.222656 92.292969 L 145.179688 91.773438 L 144.289062 91.195312 L 144.242188 90.699219 L 143.253906 90.800781 L 142.753906 89.722656 L 142.332031 89.945312 L 142.195312 88.921875 L 143.101562 88.199219 L 142.492188 87.914062 L 142.613281 87.449219 L 144.042969 86.761719 L 144.808594 85.464844 L 144.800781 85.359375 L 145.496094 82.46875 L 145.941406 82.164062 L 145.28125 81.886719 L 145.234375 81.886719 L 145.605469 81.375 L 145.441406 80.285156 L 145.386719 80.25 L 144.800781 80.292969 L 144.714844 80.292969 L 144.804688 79.082031 L 143.792969 78.789062 L 144.375 78.519531 L 144.085938 78.4375 L 144.246094 78.066406 L 144.945312 78.09375 L 145.632812 76.882812 L 144.84375 75.316406 L 144.1875 76.058594 L 143.871094 75.839844 L 144.40625 74.375 L 146.035156 74.40625 L 146.628906 73.679688 L 147.042969 74.421875 L 148.371094 74.160156 L 148.628906 72.851562 L 148.164062 72.171875 L 148.375 71.292969 L 149.089844 71.3125 L 149.359375 70.480469 L 150.308594 70.632812 L 150.226562 70.238281 L 150.628906 69.492188 L 151.105469 69.625 Z M 151.113281 69.082031 "/>
<path style=" stroke:none;fill-rule:nonzero;fill-opacity:1;" d="M 91.988281 41.164062 L 92.5 41.328125 L 92.324219 41.964844 L 92.453125 41.960938 L 92.707031 42.378906 L 93.398438 42.167969 L 94.527344 42.65625 L 96.207031 42.375 L 97.324219 41.628906 L 98.589844 42.640625 L 99.265625 42.296875 L 99.472656 42.90625 L 100.214844 42.722656 L 100.613281 42.144531 L 101.234375 42.976562 L 101.476562 42.722656 L 102.398438 43.007812 L 102.316406 43.285156 L 102.679688 43.125 L 103.300781 43.625 L 103.109375 43.871094 L 103.703125 44.011719 L 103.988281 43.476562 L 104.425781 44.441406 L 105.125 43.824219 L 106.554688 44.847656 L 107.605469 44.074219 L 108.222656 44.644531 L 109.878906 44.1875 L 110.144531 44.628906 L 110.445312 44.1875 L 111.261719 44.324219 L 111.308594 43.636719 L 112.273438 43.871094 L 113.011719 45.082031 L 112.679688 45.898438 L 113.867188 46.757812 L 114.054688 47.480469 L 114.621094 47.269531 L 114.960938 48.144531 L 115.507812 47.707031 L 115.726562 48.921875 L 116.609375 49.171875 L 116.828125 49.660156 L 117.167969 49.34375 L 117.195312 50.164062 L 116.011719 50.277344 L 116.578125 50.671875 L 115.886719 51.355469 L 116.925781 51.789062 L 116.6875 53.992188 L 117.859375 53.75 L 117.664062 54.039062 L 118.21875 54.386719 L 117.398438 54.640625 L 117.570312 54.957031 L 116.875 55.371094 L 117.105469 55.988281 L 116.050781 56.28125 L 116.496094 57.082031 L 115.726562 57.3125 L 116.171875 59.230469 L 115.625 59.019531 L 115.46875 59.609375 L 115.0625 59.664062 L 112.300781 59.601562 L 111.777344 60.105469 L 110.984375 59.886719 L 110.53125 61.039062 L 110.984375 62.214844 L 110.378906 63.125 L 109.429688 63.625 L 109.425781 64.054688 L 108.425781 64.203125 L 107.765625 64.761719 L 107.476562 63.9375 L 106.964844 64.261719 L 106.589844 63.976562 L 106.84375 64.433594 L 106.15625 64.898438 L 104.085938 64.523438 L 102.453125 64.886719 L 103.011719 64.023438 L 103.496094 63.96875 L 103.492188 62.726562 L 102.167969 62.007812 L 101.894531 60.820312 L 101.253906 60.984375 L 100.808594 60.449219 L 100.472656 60.75 L 100.398438 60.890625 L 99.640625 61.183594 L 99.648438 60.472656 L 99.046875 60.214844 L 98.738281 60.910156 L 98.320312 60.8125 L 98.488281 61.183594 L 95.785156 61.40625 L 95.578125 60.941406 L 96.007812 59.8125 L 95.859375 59.003906 L 95.15625 58.90625 L 95.191406 57.820312 L 94.335938 58.175781 L 93.371094 57.613281 L 93.007812 56.621094 L 93.167969 55.757812 L 92.0625 55.257812 L 92.148438 54.457031 L 91.457031 54.460938 L 90.554688 53.371094 L 90.699219 52.863281 L 90.199219 52.5625 L 90.90625 51.617188 L 90.265625 51.3125 L 90.503906 49.625 L 89.761719 48.960938 L 90.007812 48.527344 L 89.132812 47.449219 L 89.007812 46.875 L 89.382812 46.628906 L 88.695312 46.683594 L 88.8125 45.859375 L 88.382812 45.011719 L 88.949219 45.070312 L 89.25 44.320312 L 89.402344 44.667969 L 89.476562 44.667969 L 90.839844 44.320312 Z M 91.988281 41.164062 "/>
<path style=" stroke:none;fill-rule:nonzero;fill-opacity:1;" d="M 110.0625 136.292969 L 110.871094 134.875 L 110.96875 133.195312 L 111.339844 132.445312 L 111.714844 132.523438 L 111.78125 131.886719 L 111.863281 131.886719 L 112.175781 131.128906 L 113.027344 131.949219 L 113.65625 131.449219 L 113.734375 130.492188 L 114.355469 130.667969 L 115.5625 129.703125 L 116.183594 130.371094 L 116.207031 131.242188 L 117.074219 133.011719 L 118.636719 132.683594 L 118.707031 131.695312 L 119.21875 131.585938 L 119.832031 132.078125 L 119.742188 132.628906 L 120.828125 132.445312 L 121.078125 133.191406 L 121.761719 133.914062 L 122.234375 133.761719 L 122.132812 134.246094 L 122.496094 134.320312 L 123.085938 137.296875 L 123.789062 137.765625 L 124.292969 139.722656 L 125.433594 141.042969 L 125.03125 141.320312 L 125.140625 142.75 L 126.296875 142.402344 L 128.097656 143.816406 L 129.078125 142.367188 L 130.007812 142.207031 L 130.058594 143.3125 L 130.65625 143.457031 L 130.871094 142.367188 L 131.609375 142.261719 L 133.644531 143.707031 L 133.976562 144.792969 L 134.460938 144.820312 L 134.664062 145.347656 L 134.648438 147.433594 L 135.582031 147.746094 L 136.402344 149.253906 L 135.972656 149.273438 L 135.972656 149.765625 L 133.535156 151.660156 L 133.898438 152.085938 L 133.125 154.421875 L 133.339844 155.203125 L 132.097656 154.78125 L 131.324219 154.976562 L 130.484375 156.40625 L 131.128906 156.632812 L 130.984375 157.085938 L 129.171875 158.136719 L 128.890625 157.757812 L 129.03125 158.289062 L 127.871094 158.851562 L 127.722656 159.621094 L 126.371094 159.121094 L 126.148438 158.664062 L 126.429688 158.222656 L 125.976562 157.816406 L 124.070312 157.960938 L 120.570312 160.792969 L 119.425781 161.121094 L 117.484375 163.378906 L 117.554688 163.039062 L 117.460938 163.355469 L 115.027344 162.957031 L 115.152344 163.367188 L 112.882812 165.21875 L 111.492188 167.472656 L 110.957031 169.238281 L 111.195312 170.136719 L 110.746094 174.265625 L 111.003906 177.410156 L 112.328125 177.871094 L 112.171875 178.519531 L 112.796875 179.425781 L 111.546875 179.605469 L 110.902344 178.691406 L 109.859375 178.839844 L 109.578125 178.519531 L 109.160156 179.011719 L 108.054688 178.964844 L 107.191406 179.863281 L 106.554688 179.632812 L 105.726562 180.003906 L 105.402344 180.355469 L 105.683594 181.234375 L 104.339844 180.898438 L 103.679688 181.386719 L 103 181.246094 L 102.304688 180.226562 L 99.816406 179.371094 L 99.03125 179.800781 L 98.382812 179.648438 L 97.390625 180.820312 L 96.417969 181.09375 L 95.667969 180.4375 L 95.25 179.085938 L 94.496094 179.15625 L 93.679688 178.429688 L 92.34375 178.273438 L 92.476562 177.109375 L 93.15625 176.753906 L 94.324219 176.632812 L 94.769531 175.960938 L 95.804688 175.925781 L 96.148438 175.074219 L 98.496094 175.039062 L 98.679688 174.691406 L 97.378906 173.339844 L 96.238281 173.683594 L 94.957031 173.210938 L 95.132812 172.875 L 94.183594 171.953125 L 94.414062 171.394531 L 95.988281 171.042969 L 95.898438 169.902344 L 95.25 169.65625 L 95.582031 169.230469 L 96.273438 169.261719 L 95.75 168.378906 L 95.972656 167.902344 L 95.355469 167.554688 L 95.660156 167.214844 L 95.503906 166.359375 L 94.980469 165.964844 L 94.621094 166.308594 L 94.074219 165.449219 L 94.070312 165.722656 L 93.121094 165.613281 L 92.050781 164.855469 L 92.273438 164.199219 L 91.773438 163.257812 L 92.429688 162.460938 L 92.242188 161.929688 L 93.53125 161.9375 L 93.359375 160.9375 L 94.078125 159.964844 L 94.675781 160.871094 L 95.003906 160.382812 L 95.085938 160.390625 L 96.003906 160.621094 L 96.691406 160.09375 L 97.191406 160.871094 L 98.574219 160.464844 L 99.199219 161.101562 L 99.292969 160.171875 L 99.8125 159.621094 L 101.765625 160.46875 L 102.269531 160.089844 L 104.75 160.183594 L 105.605469 159.421875 L 105.695312 158.523438 L 104.863281 157.535156 L 105.289062 155.707031 L 106.339844 156.003906 L 106.839844 156.601562 L 108.972656 155.808594 L 109.203125 155.125 L 110.089844 154.753906 L 111.160156 155.066406 L 111.203125 152.289062 L 113.320312 152.699219 L 113.828125 152.386719 L 113.628906 151.738281 L 114.046875 151.117188 L 115.164062 151.125 L 115.367188 150.042969 L 116.542969 149.066406 L 116.636719 148.546875 L 115.796875 147.914062 L 115.269531 148.074219 L 114.960938 147.519531 L 114.457031 147.71875 L 114.011719 147.226562 L 114.851562 146.929688 L 115.039062 145.941406 L 115.570312 145.71875 L 115.429688 145.101562 L 113.199219 145.304688 L 113.566406 144.503906 L 112.585938 144.21875 L 112.457031 143.617188 L 112.015625 143.871094 L 112.484375 142.96875 L 111.996094 141.878906 L 112.351562 140.394531 L 111.246094 139.117188 L 111.515625 137.996094 Z M 95.4375 178.953125 L 96.195312 179.152344 L 95.855469 178.390625 Z M 95.4375 178.953125 "/>
<path style=" stroke:none;fill-rule:nonzero;fill-opacity:1;" d="M 84.558594 101.148438 L 84.996094 101.042969 L 85.128906 101.542969 L 86.332031 101.425781 L 86.46875 100.945312 L 87.042969 100.847656 L 87.910156 101.945312 L 89.476562 100.292969 L 89.742188 100.992188 L 90.65625 100.402344 L 90.925781 101.085938 L 91.734375 100.460938 L 92.347656 101.039062 L 92.785156 100.320312 L 92.609375 99.808594 L 93.109375 99.679688 L 93.902344 100.3125 L 95.878906 99.957031 L 97.429688 100.636719 L 98.957031 100.257812 L 100.144531 100.433594 L 100.242188 101.222656 L 100.898438 101.410156 L 100.453125 102.003906 L 101.339844 102.679688 L 101.660156 102.242188 L 102.136719 103.234375 L 102.28125 102.96875 L 103 103.296875 L 104.183594 105.847656 L 103.960938 107.257812 L 104.691406 108.300781 L 104.828125 109.585938 L 104.160156 109.894531 L 104.054688 110.769531 L 103.148438 111.78125 L 102.695312 111.722656 L 102.636719 111.734375 L 101.671875 112.566406 L 103.585938 114.902344 L 103.558594 116.277344 L 103.054688 116.304688 L 102.703125 117.210938 L 103.5 118.054688 L 103.070312 120.785156 L 103.648438 121.332031 L 102.972656 121.777344 L 101.105469 120.929688 L 101.261719 122.445312 L 98.917969 124.765625 L 99.015625 125.574219 L 99.460938 125.890625 L 98.714844 126.460938 L 98.625 127.5625 L 97.570312 128.007812 L 98.199219 129.179688 L 97.726562 129.574219 L 97.609375 129.542969 L 97.046875 129.691406 L 95.980469 129.722656 L 95.445312 130.160156 L 94.882812 129.65625 L 93.386719 130.753906 L 92.65625 130.460938 L 91.183594 128.636719 L 89.761719 128.613281 L 89.652344 128.265625 L 88.378906 128.804688 L 87.386719 127.09375 L 87.867188 126.695312 L 86.402344 126.53125 L 85.648438 125.878906 L 85.722656 125.867188 L 86.132812 125.417969 L 85.265625 125.101562 L 85.972656 124.105469 L 85.257812 123.734375 L 85.390625 122.738281 L 85.792969 122.71875 L 86.632812 121.59375 L 85.671875 121.125 L 86.191406 120.5 L 83.75 119.644531 L 84.394531 118.636719 L 83.679688 118.191406 L 83.25 118.53125 L 82.296875 116.921875 L 80.585938 117.117188 L 80.183594 116.679688 L 79.382812 117.644531 L 78.523438 116.78125 L 78.855469 115.777344 L 78.09375 115.203125 L 77.136719 115.351562 L 76.808594 114.910156 L 78.003906 113.855469 L 77.960938 113.003906 L 78.960938 113.257812 L 79.582031 111.40625 L 79.371094 110.414062 L 80.359375 110.597656 L 81.28125 109.628906 L 80.964844 108.804688 L 80.394531 108.351562 L 80.027344 108.632812 L 79.40625 107.980469 L 79.695312 107.046875 L 79.347656 106.496094 L 79.875 106.210938 L 79.109375 104.679688 L 79.929688 104.296875 L 80.660156 103.121094 L 82.117188 103.292969 L 82.722656 101.605469 L 83.875 101.914062 L 84.265625 101.050781 Z M 84.558594 101.148438 "/>
<path style=" stroke:none;fill-rule:nonzero;fill-opacity:1;" d="M 144.519531 33.121094 L 145.042969 33.84375 L 145.285156 35.367188 L 146.472656 34.664062 L 147.25 35.160156 L 147.683594 34.226562 L 149.148438 34.472656 L 149.535156 33.941406 L 150.441406 34.390625 L 150.886719 35.347656 L 152.265625 35.464844 L 152.484375 36.390625 L 153.332031 36.464844 L 153.773438 36.042969 L 154.15625 36.335938 L 154.539062 35.476562 L 156.117188 35.019531 L 157.894531 36.195312 L 158.800781 35.835938 L 160.609375 37.035156 L 160.371094 37.449219 L 161.238281 38.242188 L 160.761719 38.648438 L 162.214844 40.105469 L 162.085938 40.5625 L 162.492188 40.761719 L 162.582031 41.492188 L 162.980469 41.441406 L 162.808594 42.109375 L 163.191406 42.609375 L 164.5625 42.847656 L 164.9375 42.25 L 164.597656 41.558594 L 166.015625 41.339844 L 167.359375 42.039062 L 167.605469 43.699219 L 168.28125 42.800781 L 169.097656 43.566406 L 170.355469 43.363281 L 171.03125 43.6875 L 171.488281 43.066406 L 172.003906 43.074219 L 172.039062 42.464844 L 173.164062 42.203125 L 173.039062 42.613281 L 173.863281 42.519531 L 174.347656 44.0625 L 175.808594 44.585938 L 175.886719 45.003906 L 175.0625 47.085938 L 174.472656 47.613281 L 173.273438 46.839844 L 171.488281 47.378906 L 170.992188 47.117188 L 171.039062 46.722656 L 168.660156 46.03125 L 168.261719 44.488281 L 167.828125 44.75 L 167.332031 47.105469 L 166.738281 46.996094 L 166.570312 47.601562 L 166.082031 47.597656 L 166.234375 48.457031 L 167.5625 48.863281 L 167.589844 49.199219 L 168.21875 49.121094 L 167.597656 49.519531 L 167.609375 50.125 L 168.132812 50.21875 L 167.980469 50.796875 L 168.660156 50.421875 L 169.042969 49.492188 L 170.550781 49.988281 L 170.398438 50.296875 L 171.328125 51.167969 L 170.308594 52.78125 L 170.632812 53.417969 L 171.1875 53.46875 L 169.964844 55.773438 L 169.214844 56.300781 L 167.796875 56.371094 L 168.769531 56.9375 L 168.144531 56.816406 L 168.53125 57.4375 L 168.074219 59.0625 L 168.40625 59.503906 L 167.949219 60.039062 L 168.527344 60.445312 L 169.421875 60.308594 L 169.695312 60.933594 L 167.71875 64.441406 L 167.964844 65.203125 L 166.878906 67.066406 L 166.082031 67.53125 L 165.628906 69.230469 L 165.871094 69.429688 L 165.410156 69.832031 L 165.734375 70.695312 L 164.558594 71.28125 L 161.878906 69.550781 L 161.273438 68.660156 L 159.507812 69.9375 L 158.898438 68.75 L 158.25 68.351562 L 155.632812 68.957031 L 155.632812 68.847656 L 154.851562 68.226562 L 154.695312 67.132812 L 154.660156 67.109375 L 153.3125 67.445312 L 152.785156 68.4375 L 152.035156 68.875 L 151.726562 68.824219 L 152.183594 68.1875 L 151.796875 67.996094 L 151.113281 69.082031 L 150.578125 68.03125 L 149.738281 68.519531 L 149.585938 66.8125 L 148.8125 66.59375 L 148.449219 65.898438 L 147.480469 65.714844 L 148.082031 65.230469 L 148.222656 63.722656 L 148.917969 63.324219 L 148.316406 62.554688 L 147.667969 62.390625 L 147.839844 61.832031 L 147.246094 61.324219 L 146.925781 61.703125 L 146.015625 60.132812 L 145.375 59.953125 L 144.632812 60.484375 L 144.847656 59.460938 L 144.164062 59.207031 L 145.230469 58.527344 L 143.246094 56.683594 L 141.605469 56.285156 L 140.292969 54.847656 L 139.617188 54.839844 L 139.417969 54.058594 L 138.59375 54.421875 L 138.746094 51.710938 L 137.058594 50.492188 L 137.71875 49.550781 L 137.363281 48.996094 L 137.667969 47.988281 L 137.726562 47.925781 L 138.832031 47.46875 L 139.160156 46.722656 L 138.523438 46.507812 L 139.082031 46.304688 L 139.113281 45.648438 L 138.722656 45.390625 L 138.109375 45.695312 L 138.660156 44.675781 L 137.742188 42.160156 L 138.488281 41.640625 L 137.910156 41.03125 L 139.316406 40.226562 L 139.398438 39.800781 L 138.953125 39.449219 L 139.363281 38.203125 L 140.03125 37.96875 L 139.691406 37.4375 L 140.230469 37.070312 L 140.175781 36.234375 L 139.4375 35.304688 L 139.855469 34.523438 L 139.878906 34.394531 L 140.195312 33.308594 L 140.628906 33.339844 L 140.917969 33.945312 L 141.925781 33.804688 L 142.3125 34.40625 L 144.199219 32.777344 Z M 144.519531 33.121094 "/>
<path style=" stroke:none;fill-rule:nonzero;fill-opacity:1;" d="M 66.335938 162.523438 L 66.417969 162.578125 L 66.765625 163.441406 L 66.175781 163.863281 L 65.910156 163.265625 L 66.1875 162.605469 L 66.285156 162.53125 Z M 66.75 161.355469 L 66.832031 162.574219 L 66.597656 162.519531 L 66.257812 162.1875 L 66.667969 162.023438 L 66.613281 161.285156 Z M 88.378906 128.804688 L 89.652344 128.265625 L 89.761719 128.613281 L 91.183594 128.636719 L 92.65625 130.464844 L 93.386719 130.757812 L 94.882812 129.660156 L 95.445312 130.164062 L 95.984375 129.726562 L 97.046875 129.695312 L 97.632812 130.796875 L 97.464844 131.734375 L 98.601562 133.421875 L 98.011719 135.257812 L 98.425781 135.273438 L 98.59375 136.40625 L 99.066406 136.820312 L 99.246094 136.179688 L 100.355469 135.816406 L 100.804688 135.777344 L 101.164062 136.371094 L 103.023438 136.167969 L 103.246094 135.410156 L 104.105469 134.792969 L 103.960938 134.128906 L 104.675781 133.355469 L 104.734375 132.285156 L 106.605469 130.378906 L 107.136719 130.960938 L 107.113281 132.082031 L 108.339844 131.714844 L 108.746094 133.410156 L 109.203125 133.320312 L 109.4375 133.710938 L 109.078125 133.964844 L 109.433594 135.585938 L 110.066406 136.289062 L 111.535156 137.980469 L 111.265625 139.097656 L 112.371094 140.378906 L 112.015625 141.859375 L 112.507812 142.953125 L 112.035156 143.855469 L 112.480469 143.601562 L 112.605469 144.203125 L 113.585938 144.488281 L 113.21875 145.285156 L 115.449219 145.085938 L 115.59375 145.699219 L 115.058594 145.921875 L 114.875 146.910156 L 114.03125 147.207031 L 114.480469 147.699219 L 114.984375 147.503906 L 115.289062 148.054688 L 115.816406 147.894531 L 116.660156 148.53125 L 116.5625 149.050781 L 115.386719 150.023438 L 115.183594 151.109375 L 114.066406 151.097656 L 113.652344 151.722656 L 113.847656 152.371094 L 113.339844 152.683594 L 111.222656 152.269531 L 111.183594 155.050781 L 110.109375 154.738281 L 109.222656 155.109375 L 108.996094 155.792969 L 106.859375 156.585938 L 106.363281 155.988281 L 105.308594 155.691406 L 104.882812 157.519531 L 105.714844 158.507812 L 105.625 159.402344 L 104.773438 160.164062 L 102.289062 160.074219 L 101.789062 160.453125 L 99.832031 159.605469 L 99.316406 160.15625 L 99.21875 161.085938 L 98.59375 160.449219 L 97.210938 160.851562 L 96.710938 160.078125 L 96.023438 160.601562 L 95.105469 160.375 L 95.023438 160.367188 L 94.695312 160.851562 L 94.097656 159.945312 L 93.382812 160.921875 L 93.550781 161.917969 L 92.261719 161.914062 L 92.453125 162.445312 L 91.792969 163.238281 L 92.296875 164.183594 L 92.070312 164.839844 L 93.140625 165.59375 L 94.089844 165.703125 L 94.09375 165.433594 L 94.640625 166.292969 L 95 165.945312 L 95.523438 166.34375 L 95.679688 167.199219 L 95.375 167.535156 L 95.992188 167.886719 L 95.769531 168.359375 L 96.292969 169.246094 L 95.601562 169.214844 L 95.269531 169.640625 L 95.917969 169.886719 L 96.007812 171.027344 L 94.433594 171.375 L 94.207031 171.9375 L 95.152344 172.855469 L 94.976562 173.195312 L 96.261719 173.667969 L 97.402344 173.320312 L 98.699219 174.675781 L 98.515625 175.019531 L 96.167969 175.058594 L 95.824219 175.910156 L 94.792969 175.941406 L 94.34375 176.617188 L 93.175781 176.738281 L 93.257812 176.472656 L 92.316406 176.429688 L 92.457031 175.914062 L 90.523438 175.726562 L 89.835938 175.167969 L 88.839844 175.246094 L 88.808594 175.964844 L 88.238281 176.183594 L 87.097656 173.945312 L 85.324219 173.78125 L 84.457031 174.152344 L 83.183594 172.617188 L 81.835938 172.652344 L 81.5 172.28125 L 81.019531 172.601562 L 77.933594 171.203125 L 77.238281 171.632812 L 77.394531 172.289062 L 77.035156 172.710938 L 77.34375 172.855469 L 76.996094 173.25 L 77.503906 173.796875 L 77.46875 174.476562 L 76.359375 174.195312 L 73.886719 174.484375 L 73.003906 173.84375 L 72.074219 174.820312 L 71.582031 174.003906 L 70.40625 173.597656 L 67.882812 174.601562 L 67.109375 174.460938 L 66.945312 173.972656 L 66.328125 173.8125 L 65.648438 172.425781 L 65.261719 172.636719 L 63.492188 171.433594 L 63.292969 170.125 L 63.945312 169.804688 L 63.851562 168.425781 L 64.234375 167.808594 L 65.378906 167.527344 L 65.191406 166.320312 L 65.859375 166.035156 L 66.261719 165.042969 L 66.964844 165.101562 L 66.890625 164.210938 L 67.226562 164.292969 L 67.679688 163.285156 L 67.269531 162.683594 L 68.34375 161.808594 L 67.875 161.304688 L 67.914062 159.882812 L 66.976562 160.550781 L 66.996094 159.535156 L 67.667969 159.363281 L 66.988281 157.882812 L 66.601562 157.972656 L 66.5625 157.222656 L 65.421875 156.941406 L 64.554688 157.207031 L 64.429688 156.5625 L 63.972656 156.511719 L 63.941406 156.027344 L 64.503906 155.800781 L 64.394531 154.773438 L 65.175781 154.1875 L 64.726562 152.796875 L 65.191406 152.765625 L 64.980469 151.828125 L 65.292969 151.617188 L 64.539062 151.042969 L 65.386719 150.226562 L 66.570312 150.4375 L 67.410156 149.339844 L 68.019531 149.9375 L 67.628906 150.425781 L 68.757812 151.070312 L 69 150.667969 L 68.710938 149.789062 L 69.71875 148.996094 L 70.140625 149.5625 L 70.636719 148.734375 L 71.191406 148.597656 L 72.175781 149.210938 L 72.375 148.84375 L 74.183594 148.457031 L 74.449219 147.917969 L 75.792969 147.9375 L 76.316406 147.441406 L 77.320312 148.542969 L 78.398438 147.804688 L 78.648438 146.90625 L 79.234375 146.835938 L 79.105469 146.195312 L 80.140625 146.53125 L 80.59375 146.308594 L 80.46875 145.578125 L 80.015625 145.398438 L 80.769531 145.269531 L 81.390625 143.621094 L 80.242188 142.917969 L 80.621094 141.515625 L 80.964844 141.457031 L 81.257812 142.226562 L 81.410156 141.902344 L 82.960938 141.824219 L 82.878906 140.617188 L 82.34375 140.261719 L 82.335938 139.046875 L 81.835938 138.308594 L 82.3125 138.449219 L 83.570312 137.726562 L 83.433594 137.328125 L 84.265625 136.425781 L 84.183594 135.808594 L 85.25 135.535156 L 86.550781 134.410156 L 86.300781 133.300781 L 87.257812 133 L 87.199219 132.351562 L 88.308594 131.640625 L 87.910156 131.003906 L 88.320312 130.882812 L 87.921875 129.347656 L 87.863281 129.113281 Z M 88.378906 128.804688 "/>
<path style=" stroke:none;fill-rule:nonzero;fill-opacity:1;" d="M 104.121094 0.878906 L 104.300781 2.0625 L 105.121094 3.304688 L 104.53125 3.925781 L 104.664062 5.5 L 105.171875 6.332031 L 106.410156 6.378906 L 107.417969 8.308594 L 108.15625 8.34375 L 109 9.03125 L 109.652344 7.695312 L 112.457031 6.84375 L 113.023438 8.292969 L 114.003906 8.820312 L 113.703125 9.792969 L 114.441406 12.769531 L 115.636719 13.507812 L 116.644531 13.167969 L 117.035156 12.574219 L 117.65625 12.789062 L 117.398438 13.59375 L 118.921875 13.398438 L 119.660156 14.273438 L 119.636719 16.199219 L 120.339844 17.628906 L 120.898438 16.605469 L 122.351562 16.585938 L 123.082031 17.144531 L 124.816406 16.433594 L 125.546875 17.5 L 126.125 17.664062 L 126.417969 18.671875 L 126.835938 18.664062 L 126.769531 17.980469 L 127.421875 18.359375 L 127.601562 18.789062 L 126.609375 19.667969 L 126.667969 20.769531 L 126.292969 21.421875 L 127.308594 21.4375 L 127.734375 22.84375 L 126.742188 23.308594 L 126.484375 24.816406 L 125.695312 25.046875 L 124.1875 24.515625 L 124.210938 23.394531 L 122.871094 24.160156 L 122.652344 23.539062 L 120.425781 22.828125 L 119.707031 23.179688 L 119.644531 23.710938 L 119 23.808594 L 118.011719 23.15625 L 117.261719 23.964844 L 115.464844 23.554688 L 114.980469 24.011719 L 114.25 24.046875 L 113.980469 23.644531 L 112.761719 24.105469 L 111.65625 23.199219 L 110.523438 23.058594 L 109.910156 23.445312 L 109.191406 23.28125 L 108.394531 23.910156 L 108.308594 22.65625 L 106.742188 23.394531 L 107.214844 21.910156 L 106.492188 21.585938 L 106.175781 21.5625 L 106.125 22.574219 L 104.316406 21.867188 L 104.34375 21.277344 L 103.984375 21.21875 L 103.710938 21.855469 L 103.449219 21.257812 L 102.976562 21.3125 L 102.09375 22.4375 L 101.492188 21.949219 L 101.660156 20.980469 L 103.171875 20.078125 L 102.554688 19.285156 L 101.917969 19.191406 L 101.242188 19.8125 L 100.871094 19.09375 L 100.796875 19.667969 L 99.988281 19.320312 L 98.28125 20.171875 L 98 19.746094 L 97.375 19.941406 L 97.246094 18.804688 L 95.40625 18.015625 L 95.199219 17.757812 L 95.675781 17.269531 L 95.417969 17.058594 L 94.871094 17.492188 L 93.40625 16.402344 L 91.429688 17.085938 L 91.101562 16.59375 L 89.859375 15.519531 L 90.316406 12.457031 L 91 13.011719 L 90.167969 11.765625 L 89.976562 8.269531 L 90.035156 7.941406 L 90.164062 8.476562 L 90.417969 8.125 L 90.699219 6.527344 L 90.238281 5.015625 L 91.371094 4.683594 L 92.554688 3.371094 L 94.335938 2.792969 L 93.917969 2.710938 L 97.511719 1.78125 L 97.691406 2.015625 L 98.441406 1.242188 L 98.28125 1.644531 L 98.71875 2.0625 L 98.953125 1.242188 L 99.070312 1.503906 L 101.167969 0.785156 L 101.558594 1.066406 L 103.875 0.113281 Z M 104.121094 0.878906 "/>
<path style=" stroke:none;fill-rule:nonzero;fill-opacity:1;" d="M 40.554688 30.375 L 41.226562 30.828125 L 41.726562 30.570312 L 42.113281 31.167969 L 45.03125 31.859375 L 44.964844 32.367188 L 45.140625 31.886719 L 46.855469 31.640625 L 47.050781 31.011719 L 49.996094 31.03125 L 50.507812 32.984375 L 50.136719 32.851562 L 49.890625 33.761719 L 49.898438 33.457031 L 49.53125 33.527344 L 49.367188 34.28125 L 51.386719 37.34375 L 50.894531 38.925781 L 51.558594 38.316406 L 52.109375 38.722656 L 52.691406 37.722656 L 54.238281 37.558594 L 57.210938 38.613281 L 62.320312 38.957031 L 63.941406 39.835938 L 64.449219 39.65625 L 64.742188 40.097656 L 67.875 39.140625 L 69.6875 37.476562 L 71.054688 36.902344 L 69.460938 36.832031 L 71.925781 36.792969 L 72.503906 38.8125 L 72.085938 39.335938 L 72.480469 39.753906 L 72.285156 40.039062 L 73.039062 39.742188 L 73.332031 39.996094 L 73.332031 40.457031 L 72.441406 40.800781 L 73.488281 41.617188 L 73.355469 42.84375 L 74.03125 43.121094 L 73.570312 43.863281 L 73.839844 44.53125 L 73.101562 45.019531 L 74.238281 45.820312 L 73.335938 48.054688 L 74.316406 48.773438 L 75.699219 48.871094 L 76.121094 48.46875 L 76.246094 48.921875 L 76.613281 48.792969 L 76.539062 49.289062 L 76.910156 49.296875 L 76.527344 49.777344 L 78.613281 51.171875 L 78.839844 51.804688 L 78.1875 52.464844 L 78.777344 52.714844 L 78.804688 53.269531 L 79.4375 53.257812 L 79.488281 54.5 L 81.574219 56.390625 L 81.140625 57.394531 L 81.707031 58.164062 L 80.832031 59.613281 L 78.792969 60.683594 L 78.585938 61.171875 L 79.304688 61.394531 L 79.050781 61.992188 L 79.644531 62.996094 L 79.183594 63.40625 L 78.339844 63.53125 L 77.148438 61.925781 L 76.941406 62.578125 L 75.480469 62.242188 L 74.828125 60.9375 L 74.6875 61.183594 L 73.453125 60.6875 L 73.3125 58.492188 L 72.160156 57.296875 L 69.953125 57.792969 L 70.128906 58.132812 L 68.917969 58.835938 L 68.730469 59.496094 L 67.894531 59.074219 L 67.1875 59.558594 L 67.1875 57.925781 L 65.832031 57.804688 L 65.449219 56.65625 L 65.847656 56.285156 L 64.972656 55.523438 L 64.378906 55.507812 L 64.488281 56.105469 L 64.0625 56.726562 L 63.359375 56.40625 L 62.90625 57.222656 L 62.289062 56.671875 L 60.6875 56.691406 L 60.105469 57.457031 L 58.6875 58.078125 L 58.515625 57.199219 L 58.160156 57.558594 L 57.574219 57.449219 L 57.8125 57.953125 L 57.160156 58.25 L 56.894531 57.625 L 56.398438 57.839844 L 55.953125 56.902344 L 55.054688 56.957031 L 54.394531 56.519531 L 53.707031 57.117188 L 52.78125 56.710938 L 50.183594 55.949219 L 48.765625 57.554688 L 47.8125 57.722656 L 46.863281 57.121094 L 45.683594 54.015625 L 46.523438 54.324219 L 46.542969 53.945312 L 46.832031 54.265625 L 47.746094 53.832031 L 48.765625 54.058594 L 47.945312 53.484375 L 48.304688 53.132812 L 47.4375 53.570312 L 45.71875 51.601562 L 45.65625 49.996094 L 45.089844 49.707031 L 46.128906 47.625 L 45.820312 47.421875 L 45.890625 45.585938 L 46.640625 45.71875 L 45.851562 45.335938 L 45.597656 46.15625 L 45.292969 45.332031 L 45.082031 41.445312 L 45.742188 41.378906 L 45.078125 41.097656 L 44.902344 41.636719 L 43.765625 39.046875 L 42.316406 38.089844 L 41.773438 35.230469 L 41.210938 34.574219 L 41.878906 33.769531 L 41.765625 32.453125 L 41.386719 31.84375 L 40.371094 31.496094 Z M 40.554688 30.375 "/>
<path style=" stroke:none;fill-rule:nonzero;fill-opacity:1;" d="M 87.382812 22.957031 L 88.390625 22.828125 L 88.441406 23.503906 L 92.113281 26.863281 L 92.429688 28.4375 L 93.160156 29.589844 L 92.644531 29.570312 L 91.792969 31.070312 L 92.03125 31.378906 L 92.671875 31.070312 L 91.90625 32.179688 L 92.242188 32.636719 L 91.953125 33.53125 L 91.894531 33.53125 L 92.632812 34.496094 L 92.191406 35.246094 L 92.582031 35.558594 L 92.789062 35.074219 L 93.226562 35.246094 L 92.964844 35.984375 L 92.828125 36.074219 L 92.144531 37.34375 L 92.507812 37.382812 L 92.25 37.648438 L 92.808594 38.242188 L 92.96875 39.863281 L 93.414062 40.238281 L 93.203125 40.855469 L 92.765625 40.285156 L 92.078125 40.453125 L 92 41.167969 L 90.847656 44.324219 L 89.484375 44.671875 L 89.410156 44.675781 L 89.257812 44.324219 L 88.957031 45.082031 L 88.386719 45.019531 L 88.816406 45.871094 L 88.703125 46.691406 L 89.390625 46.636719 L 89.011719 46.882812 L 89.136719 47.460938 L 88.386719 47.820312 L 88.558594 48.933594 L 87.167969 49.738281 L 87.316406 50.882812 L 86.75 51.3125 L 85.195312 51.382812 L 83.765625 50.710938 L 83.679688 51.628906 L 82.945312 51.375 L 82.1875 52.082031 L 81.894531 52.082031 L 80.300781 52.292969 L 80.121094 52.886719 L 79.441406 53.269531 L 78.808594 53.28125 L 78.78125 52.726562 L 78.191406 52.476562 L 78.839844 51.816406 L 78.617188 51.179688 L 76.53125 49.785156 L 76.914062 49.308594 L 76.542969 49.300781 L 76.617188 48.804688 L 76.25 48.929688 L 76.125 48.480469 L 75.699219 48.878906 L 74.316406 48.785156 L 73.339844 48.066406 L 74.242188 45.832031 L 73.105469 45.03125 L 73.84375 44.542969 L 73.574219 43.875 L 74.035156 43.128906 L 73.359375 42.851562 L 73.492188 41.628906 L 72.445312 40.8125 L 73.335938 40.464844 L 73.335938 40.003906 L 73.039062 39.75 L 72.289062 40.050781 L 72.484375 39.765625 L 72.089844 39.34375 L 72.507812 38.820312 L 71.929688 36.804688 L 72.070312 36.417969 L 71.734375 36.679688 L 69.511719 35.992188 L 68.835938 35.121094 L 70.058594 32.160156 L 69.648438 31.613281 L 70.09375 31.816406 L 70.828125 30.671875 L 72.664062 29.933594 L 76.195312 27.527344 L 78.824219 27.121094 L 81.472656 25.996094 L 82.304688 26.242188 L 83.226562 25.824219 L 83.371094 26.214844 L 83.28125 25.78125 L 84.796875 25.058594 Z M 87.382812 22.957031 "/>
<path style=" stroke:none;fill-rule:nonzero;fill-opacity:1;" d="M 35.988281 87.875 L 36.546875 88.269531 L 36.347656 88.96875 L 37.40625 89.503906 L 37.507812 90.636719 L 36.679688 89.320312 L 35.929688 89.289062 L 35.378906 88.628906 L 35.285156 87.9375 Z M 52.769531 56.714844 L 53.695312 57.121094 L 54.378906 56.519531 L 55.039062 56.960938 L 55.9375 56.902344 L 56.386719 57.84375 L 56.878906 57.628906 L 57.144531 58.253906 L 57.796875 57.957031 L 57.558594 57.453125 L 58.144531 57.5625 L 58.503906 57.203125 L 58.675781 58.078125 L 60.089844 57.460938 L 60.671875 56.695312 L 62.273438 56.675781 L 62.890625 57.226562 L 63.34375 56.40625 L 64.050781 56.730469 L 64.476562 56.109375 L 64.367188 55.511719 L 64.957031 55.527344 L 65.832031 56.289062 L 65.433594 56.660156 L 65.816406 57.804688 L 67.175781 57.929688 L 67.171875 59.5625 L 67.878906 59.078125 L 68.714844 59.5 L 68.902344 58.839844 L 70.113281 58.136719 L 69.9375 57.796875 L 72.148438 57.300781 L 73.300781 58.496094 L 73.4375 60.691406 L 74.671875 61.1875 L 74.816406 60.941406 L 75.464844 62.246094 L 76.925781 62.582031 L 77.136719 61.929688 L 78.328125 63.535156 L 79.171875 63.410156 L 80.839844 64.585938 L 79.925781 64.703125 L 79.789062 65.328125 L 79.394531 65.421875 L 79.84375 65.519531 L 79.8125 65.992188 L 79.113281 66.042969 L 79.164062 66.75 L 79.796875 66.90625 L 79.464844 67.832031 L 79.894531 68.800781 L 79.421875 68.96875 L 79.363281 69.890625 L 79.058594 69.394531 L 78.652344 69.632812 L 78.761719 71.078125 L 77.6875 72.105469 L 77.820312 72.449219 L 76.761719 72.765625 L 76.179688 73.480469 L 76.324219 74.101562 L 76.652344 74 L 76.332031 74.445312 L 74.460938 75.011719 L 74.253906 75.550781 L 73.320312 75.039062 L 73.054688 75.539062 L 73.597656 76.402344 L 73.324219 76.578125 L 71.183594 75.847656 L 71.203125 76.023438 L 70.640625 77.230469 L 71.09375 77.476562 L 71.027344 78.046875 L 70.058594 80.152344 L 70.472656 80.523438 L 68.988281 82.613281 L 68.664062 85.0625 L 68.160156 84.832031 L 67.785156 85.144531 L 67.375 86.675781 L 66.664062 86.378906 L 66.054688 87.347656 L 65.351562 87.011719 L 65.867188 86.324219 L 65.28125 86.21875 L 64.992188 86.515625 L 64.128906 86.273438 L 62.277344 86.574219 L 62.121094 87.085938 L 61.078125 87.363281 L 61.386719 86.777344 L 60.886719 86.738281 L 60.015625 87.140625 L 60.195312 87.796875 L 59.417969 88.535156 L 58.410156 88.40625 L 57.785156 88.804688 L 56.757812 88.359375 L 55.835938 89.097656 L 55.21875 89.003906 L 55.679688 89.261719 L 55.472656 89.597656 L 55.902344 89.613281 L 55.738281 89.835938 L 56.46875 90.113281 L 56.144531 90.863281 L 56.929688 91.792969 L 56.988281 91.792969 L 57.550781 92.171875 L 57.648438 92.171875 L 58.019531 92.414062 L 57.738281 92.679688 L 57.75 92.765625 L 57.71875 93.53125 L 58.617188 94.671875 L 58.285156 94.957031 L 58.890625 95.429688 L 58.582031 95.988281 L 59.1875 96.289062 L 59.003906 97.238281 L 59.335938 98.125 L 58.71875 98.371094 L 59.273438 99.71875 L 58.808594 100.898438 L 59.105469 101.027344 L 59.316406 100.570312 L 60.253906 101.164062 L 58.726562 102.5625 L 58.011719 102.386719 L 57.671875 102.867188 L 56.179688 102.140625 L 56.121094 102.050781 L 55.855469 102.558594 L 55.335938 102.367188 L 54.703125 102.707031 L 54.285156 102.453125 L 54.730469 101.457031 L 52.980469 101.890625 L 52.679688 102.558594 L 52.101562 102.574219 L 50.886719 102.605469 L 50.828125 103.53125 L 49.28125 102.214844 L 49.566406 103.09375 L 48.886719 102.050781 L 47.132812 102.046875 L 46.46875 100.785156 L 44.570312 100.453125 L 42.242188 98.917969 L 41.628906 96.523438 L 40.34375 94.71875 L 37.597656 92.152344 L 37.457031 90.757812 L 38.042969 90.707031 L 37.917969 90.351562 L 39.136719 89.113281 L 39.207031 88.273438 L 39.921875 87.859375 L 38.210938 86.074219 L 36.125 85.699219 L 37.269531 84.957031 L 37.199219 82.964844 L 36.628906 82.84375 L 35.390625 83.621094 L 34.3125 82.675781 L 33.519531 83.09375 L 31.917969 82.429688 L 32.429688 82.046875 L 32.472656 81.425781 L 31.710938 80.675781 L 33.136719 79.644531 L 33.140625 79.136719 L 33.628906 78.53125 L 33.9375 78.964844 L 35.128906 78.867188 L 35.394531 77.710938 L 36.152344 78.164062 L 37 77.785156 L 37.304688 78.265625 L 37.394531 77.597656 L 38.230469 77.363281 L 38.460938 74.90625 L 40 73.984375 L 40.257812 74.457031 L 41.601562 73.671875 L 44.429688 73.652344 L 44.964844 72.519531 L 47.074219 71.6875 L 46.992188 71.007812 L 48.273438 71.15625 L 48.621094 71.769531 L 50.269531 72.242188 L 51.566406 68.269531 L 53.523438 67.460938 L 52.703125 63.269531 L 52.644531 63.214844 L 52.328125 61.878906 L 53.117188 60.546875 L 52.613281 58.714844 Z M 52.769531 56.714844 "/>
<path style=" stroke:none;fill-rule:nonzero;fill-opacity:1;" d="M 90.914062 16.433594 L 91.113281 16.59375 L 91.445312 17.085938 L 93.417969 16.402344 L 94.882812 17.492188 L 95.433594 17.058594 L 95.6875 17.269531 L 95.214844 17.757812 L 95.417969 18.015625 L 97.261719 18.804688 L 97.386719 19.941406 L 98.015625 19.746094 L 98.296875 20.171875 L 100.003906 19.320312 L 100.808594 19.667969 L 100.886719 19.09375 L 101.257812 19.8125 L 101.929688 19.191406 L 102.566406 19.285156 L 103.183594 20.078125 L 101.671875 20.980469 L 101.503906 21.949219 L 102.109375 22.4375 L 102.988281 21.3125 L 103.464844 21.257812 L 103.726562 21.855469 L 104 21.21875 L 104.355469 21.277344 L 104.328125 21.867188 L 106.136719 22.574219 L 106.1875 21.5625 L 106.503906 21.585938 L 107.226562 21.910156 L 106.757812 23.394531 L 108.320312 22.65625 L 108.410156 23.910156 L 109.207031 23.28125 L 109.925781 23.445312 L 110.539062 23.058594 L 111.667969 23.199219 L 112.777344 24.105469 L 113.996094 23.644531 L 114.265625 24.046875 L 114.992188 24.011719 L 115.476562 23.554688 L 117.273438 23.964844 L 118.023438 23.15625 L 119.015625 23.808594 L 119.660156 23.710938 L 119.71875 23.179688 L 120.4375 22.828125 L 122.667969 23.539062 L 122.886719 24.160156 L 124.222656 23.394531 L 124.199219 24.515625 L 125.707031 25.046875 L 126.5 24.816406 L 127.757812 25.265625 L 127.554688 26.253906 L 128.09375 26.472656 L 128.058594 27.257812 L 127.390625 29.195312 L 128.011719 29.695312 L 127.09375 30.964844 L 126.261719 31.421875 L 126.105469 32.40625 L 125.054688 32.304688 L 124.804688 32.652344 L 125.574219 33.761719 L 125.175781 34.335938 L 125.59375 34.78125 L 125.058594 35.167969 L 125.441406 36.503906 L 125.011719 36.660156 L 124.988281 38.359375 L 123.894531 37.988281 L 123.390625 37.351562 L 122.429688 37.929688 L 122.367188 38.699219 L 121.328125 38.449219 L 119.453125 39.378906 L 119.917969 41.089844 L 119.578125 41.5625 L 119.976562 41.90625 L 120.210938 41.691406 L 120.4375 42.34375 L 120.921875 42.25 L 120.914062 42.734375 L 120.296875 43.09375 L 119.125 42.917969 L 118.820312 43.585938 L 119.347656 44.5 L 118.625 44.867188 L 118.601562 45.367188 L 119.527344 45.234375 L 119.910156 45.859375 L 118.671875 47.023438 L 118.855469 47.394531 L 118.441406 47.472656 L 118.390625 48.003906 L 117.792969 48.058594 L 117.191406 49.34375 L 116.847656 49.660156 L 116.628906 49.171875 L 115.742188 48.921875 L 115.523438 47.707031 L 114.976562 48.140625 L 114.636719 47.265625 L 114.066406 47.476562 L 113.878906 46.753906 L 112.691406 45.894531 L 113.019531 45.078125 L 112.285156 43.867188 L 111.316406 43.632812 L 111.269531 44.320312 L 110.457031 44.183594 L 110.152344 44.628906 L 109.886719 44.183594 L 108.234375 44.644531 L 107.617188 44.074219 L 106.566406 44.847656 L 105.140625 43.820312 L 104.441406 44.4375 L 104 43.476562 L 103.714844 44.007812 L 103.121094 43.867188 L 103.3125 43.621094 L 102.695312 43.121094 L 102.328125 43.285156 L 102.414062 43.003906 L 101.496094 42.71875 L 101.25 42.96875 L 100.628906 42.140625 L 100.230469 42.71875 L 99.488281 42.902344 L 99.285156 42.296875 L 98.605469 42.636719 L 97.339844 41.625 L 96.222656 42.375 L 94.542969 42.65625 L 93.417969 42.167969 L 92.726562 42.378906 L 92.472656 41.960938 L 92.34375 41.964844 L 92.519531 41.328125 L 92.007812 41.164062 L 92.085938 40.449219 L 92.777344 40.28125 L 93.214844 40.851562 L 93.425781 40.234375 L 92.980469 39.859375 L 92.820312 38.242188 L 92.261719 37.644531 L 92.519531 37.378906 L 92.15625 37.339844 L 92.839844 36.070312 L 92.976562 35.980469 L 93.234375 35.242188 L 92.800781 35.070312 L 92.589844 35.558594 L 92.203125 35.242188 L 92.644531 34.492188 L 91.902344 33.527344 L 91.964844 33.527344 L 92.253906 32.632812 L 91.917969 32.175781 L 92.683594 31.066406 L 92.042969 31.375 L 91.800781 31.066406 L 92.652344 29.566406 L 93.171875 29.585938 L 92.4375 28.433594 L 92.125 26.859375 L 88.453125 23.5 L 88.402344 22.824219 L 87.394531 22.953125 L 88.441406 21.976562 L 89.441406 19.804688 L 90.089844 19.585938 L 90.363281 20.242188 L 91.371094 20.515625 L 91.785156 20.214844 L 89.671875 18.3125 L 89.902344 16.378906 Z M 90.914062 16.433594 "/>
<path style=" stroke:none;fill-rule:nonzero;fill-opacity:1;" d="M 48 108.046875 L 49.300781 109.144531 L 50.398438 109.351562 L 50.421875 110.472656 L 51.125 111.878906 L 50.496094 113.101562 L 49.957031 111.449219 L 48.292969 109.96875 Z M 46.539062 103.765625 L 47.054688 104.242188 L 46.394531 104.339844 L 46.667969 104.855469 L 47.914062 104.324219 L 47.539062 104.660156 L 47.742188 104.914062 L 48.589844 104.761719 L 50.207031 105.703125 L 49.390625 106.109375 L 47.234375 104.902344 L 46.21875 104.902344 L 45.820312 104.050781 Z M 52.113281 102.554688 L 52.691406 102.542969 L 52.992188 101.875 L 54.742188 101.441406 L 54.296875 102.433594 L 54.714844 102.6875 L 55.351562 102.351562 L 55.867188 102.542969 L 56.132812 102.035156 L 56.195312 102.125 L 57.6875 102.847656 L 58.027344 102.371094 L 58.738281 102.546875 L 60.269531 101.148438 L 59.328125 100.550781 L 59.121094 101.011719 L 58.824219 100.878906 L 59.289062 99.699219 L 58.730469 98.351562 L 59.347656 98.105469 L 59.019531 97.222656 L 59.203125 96.269531 L 58.597656 95.96875 L 58.902344 95.414062 L 58.300781 94.941406 L 58.628906 94.65625 L 57.730469 93.515625 L 57.765625 92.746094 L 57.75 92.660156 L 58.035156 92.398438 L 57.664062 92.15625 L 57.5625 92.15625 L 57 91.777344 L 56.945312 91.777344 L 56.15625 90.847656 L 56.484375 90.097656 L 55.75 89.820312 L 55.914062 89.59375 L 55.484375 89.582031 L 55.695312 89.246094 L 55.234375 88.984375 L 55.851562 89.082031 L 56.769531 88.34375 L 57.796875 88.789062 L 58.421875 88.386719 L 59.429688 88.519531 L 60.210938 87.777344 L 60.03125 87.121094 L 60.902344 86.71875 L 61.398438 86.761719 L 61.09375 87.34375 L 62.132812 87.066406 L 62.292969 86.558594 L 64.140625 86.257812 L 65.007812 86.496094 L 65.296875 86.203125 L 65.882812 86.304688 L 65.363281 86.996094 L 66.070312 87.332031 L 66.679688 86.363281 L 67.386719 86.65625 L 67.800781 85.125 L 68.171875 84.816406 L 68.675781 85.042969 L 69.050781 85.976562 L 69.898438 85.855469 L 69.820312 86.222656 L 70.207031 86.351562 L 70.484375 86.058594 L 70.746094 86.550781 L 70.4375 87.230469 L 71.382812 86.972656 L 71.710938 87.574219 L 72.199219 87.394531 L 72.332031 88.492188 L 72.03125 88.660156 L 72.488281 89.902344 L 73.078125 89.511719 L 74.113281 89.925781 L 75.0625 89.316406 L 76.371094 89.351562 L 75.941406 88.335938 L 76.648438 88.308594 L 77.695312 89.011719 L 77.875 90.46875 L 79.171875 91.578125 L 79.4375 92.828125 L 80.816406 94.113281 L 81.019531 94.792969 L 80.523438 96.125 L 80.78125 96.707031 L 82.246094 97.40625 L 82.324219 98.039062 L 83.359375 98.03125 L 84.085938 98.632812 L 84.179688 99.835938 L 85.042969 100.144531 L 84.824219 100.796875 L 84.566406 101.144531 L 84.273438 101.042969 L 83.886719 101.90625 L 82.738281 101.601562 L 82.132812 103.289062 L 80.671875 103.121094 L 79.945312 104.292969 L 79.125 104.675781 L 79.886719 106.207031 L 79.363281 106.492188 L 79.714844 107.042969 L 79.421875 107.976562 L 80.042969 108.628906 L 80.410156 108.347656 L 80.984375 108.800781 L 81.292969 109.625 L 80.375 110.59375 L 79.382812 110.40625 L 79.59375 111.398438 L 78.972656 113.253906 L 77.972656 112.996094 L 78.011719 113.851562 L 76.816406 114.90625 L 75.902344 116.457031 L 75.132812 116.464844 L 75.039062 118.105469 L 74.257812 118.667969 L 74.011719 119.429688 L 73.289062 119.433594 L 72.582031 120.316406 L 72.183594 119.96875 L 72.390625 120.421875 L 71.8125 120.617188 L 71.40625 121.78125 L 71.671875 123.238281 L 70.386719 123.96875 L 69.816406 125.070312 L 68.699219 124.652344 L 68.023438 125.144531 L 67.640625 125.902344 L 67.964844 126.140625 L 67.386719 126.398438 L 67.285156 127.230469 L 66.664062 126.765625 L 65.878906 127.410156 L 65.210938 127.3125 L 64.25 126.902344 L 63.945312 126.347656 L 63.464844 126.441406 L 63.128906 125.871094 L 62.773438 125.804688 L 62.480469 126.332031 L 62.230469 125.5625 L 62.214844 125.476562 L 61.886719 123.625 L 59.90625 123.261719 L 59.589844 122.253906 L 59.472656 122.773438 L 57.78125 122.628906 L 57.21875 120.65625 L 56.308594 119.316406 L 54.179688 117.941406 L 53.425781 116.683594 L 50.851562 115.183594 L 50.464844 115.265625 L 50.628906 115.679688 L 50.421875 115.269531 L 50.402344 113.375 L 51.867188 113.035156 L 51.226562 112.011719 L 52.125 111.894531 L 52.691406 110.902344 L 52.332031 110.140625 L 52.640625 110.054688 L 52.566406 109.449219 L 52.054688 108.964844 L 53.011719 108.972656 L 52.320312 107.09375 L 51.734375 106.855469 L 51.933594 106.4375 L 51.296875 106.214844 L 51.628906 105.824219 L 50.828125 106.066406 L 50.386719 105.691406 L 50.914062 104.710938 L 52.1875 103.722656 L 51.863281 102.851562 Z M 52.113281 102.554688 "/>
<path style=" stroke:none;fill-rule:nonzero;fill-opacity:1;" d="M 138.46875 140.714844 L 138.605469 140.875 L 139.597656 141.476562 L 139.609375 141.59375 L 138.933594 141.914062 L 138.417969 143.253906 L 137.039062 143.019531 L 136.820312 142.128906 L 137.332031 141.195312 L 137.457031 140.976562 L 137.566406 140.917969 L 137.800781 140.863281 L 138.234375 140.511719 L 138.292969 140.660156 L 138.441406 140.679688 Z M 143.425781 164.375 L 143.90625 163.5625 L 143.488281 163.074219 L 143.878906 162.816406 L 142.964844 161.53125 L 141.824219 162.164062 L 139.296875 162.242188 L 138.167969 160.289062 L 137.460938 160.15625 L 137.089844 160.683594 L 137.261719 160.207031 L 136.921875 160.40625 L 136.628906 159.714844 L 136.863281 160.574219 L 136.164062 160.203125 L 136.632812 160.75 L 135.847656 161.058594 L 136.5 161.011719 L 136.269531 161.246094 L 136.875 161.636719 L 137.421875 161.160156 L 136.285156 162.1875 L 132.6875 161.558594 L 132.347656 161.160156 L 132.804688 160.351562 L 131.996094 159.769531 L 127.710938 159.613281 L 127.859375 158.84375 L 129.019531 158.277344 L 128.878906 157.75 L 129.164062 158.128906 L 130.972656 157.074219 L 131.121094 156.625 L 130.472656 156.398438 L 131.316406 154.964844 L 132.089844 154.769531 L 133.332031 155.195312 L 133.117188 154.410156 L 133.890625 152.078125 L 133.523438 151.648438 L 135.964844 149.753906 L 135.960938 149.261719 L 136.394531 149.242188 L 135.574219 147.734375 L 134.640625 147.421875 L 134.652344 145.339844 L 134.453125 144.808594 L 133.96875 144.785156 L 133.632812 143.695312 L 133.652344 142.519531 L 135.601562 142.851562 L 136.03125 144.546875 L 139.4375 142.964844 L 140.125 143.558594 L 140.726562 142.929688 L 140.949219 142.820312 L 140.742188 144.460938 L 141.839844 144.875 L 142.117188 144.476562 L 142.808594 144.957031 L 143.613281 144.8125 L 144.03125 145.089844 L 144.003906 145.976562 L 144.75 146.046875 L 145.023438 146.683594 L 146.246094 146.421875 L 147.097656 145.261719 L 147.632812 145.726562 L 147.515625 146.070312 L 148.179688 146.152344 L 148.238281 145.8125 L 147.679688 145.65625 L 148.289062 145.171875 L 148.292969 143.773438 L 147.734375 143.773438 L 147.585938 143.105469 L 147.179688 142.996094 L 147.480469 142.457031 L 146.328125 142.519531 L 145.953125 142.113281 L 145.554688 142.375 L 144.667969 141.640625 L 144.507812 140.644531 L 145.324219 140.761719 L 145.621094 140.40625 L 145.148438 140.199219 L 145.054688 139.179688 L 147.261719 139.730469 L 147.464844 139.164062 L 147.96875 139.121094 L 147.019531 138.296875 L 147.738281 136.949219 L 147.671875 136.15625 L 148.886719 136.40625 L 149.171875 135.949219 L 149.742188 136.121094 L 150.320312 135.386719 L 149.875 135.066406 L 150.273438 134.011719 L 151.0625 134.269531 L 152.03125 133.992188 L 152.441406 133.570312 L 152.007812 133.105469 L 152.96875 132.488281 L 153.519531 132.878906 L 154.617188 131.914062 L 156.21875 132.160156 L 156.84375 131.722656 L 157.753906 132.105469 L 157.785156 130.414062 L 157.285156 130.125 L 157.304688 129.226562 L 155.613281 128.875 L 156.195312 126.785156 L 156.878906 127.035156 L 157.4375 126.730469 L 157.882812 127.792969 L 159.101562 128.160156 L 159.605469 128.097656 L 159.515625 127.339844 L 159.941406 127.011719 L 160.386719 127.203125 L 160.898438 126.71875 L 161.644531 127.015625 L 162.246094 128.828125 L 163.246094 128.941406 L 163.339844 131.121094 L 164.933594 132.21875 L 165.59375 132.347656 L 165.949219 131.984375 L 167.175781 132.757812 L 166.855469 133.441406 L 167.933594 135.546875 L 166.320312 135.667969 L 166.398438 136.8125 L 164.808594 138.601562 L 165.128906 139.558594 L 166.125 140.554688 L 165.335938 140.71875 L 165.261719 141.886719 L 166.777344 143.515625 L 166.949219 144.390625 L 169.5 145.070312 L 170.796875 146.265625 L 171.695312 146.160156 L 171.902344 146.765625 L 172.851562 146.828125 L 172.9375 146.46875 L 175.59375 146.089844 L 175.851562 145.554688 L 176.519531 145.59375 L 176.269531 146.453125 L 176.953125 147.382812 L 176.824219 148.203125 L 176.21875 148.472656 L 176.070312 149.542969 L 174.863281 150.179688 L 174.742188 151.078125 L 173.875 151.535156 L 174.367188 153.308594 L 172.609375 154.554688 L 171.660156 154.683594 L 171.578125 155.394531 L 171.324219 154.796875 L 171.171875 155.210938 L 170.292969 155.136719 L 169.824219 155.886719 L 169.085938 155.839844 L 168.589844 157.132812 L 168.921875 157.8125 L 168.582031 158.011719 L 168.257812 157.445312 L 167.410156 158.140625 L 167.09375 157.832031 L 166.34375 158.003906 L 165.976562 158.550781 L 166.257812 158.882812 L 165.335938 160.210938 L 163.894531 160.601562 L 163.269531 160.324219 L 162.863281 161.78125 L 160.863281 163.253906 L 162.597656 163.363281 L 162.144531 163.824219 L 162.367188 164.664062 L 161.8125 164.917969 L 161.882812 165.285156 L 161.515625 165.472656 L 160.675781 164.867188 L 159.757812 165.609375 L 158.175781 165.734375 L 157.886719 166.859375 L 156.613281 166.1875 L 155.382812 166.304688 L 154.863281 167.265625 L 154.9375 168.011719 L 154.085938 167.96875 L 154.570312 167.671875 L 154.5 166.996094 L 153.042969 167.015625 L 152.761719 166.480469 L 151.71875 166.550781 L 151.652344 166.117188 L 151.085938 166.546875 L 152.027344 167.214844 L 151.226562 167.003906 L 150.777344 167.628906 L 150.335938 167.566406 L 149.835938 167.203125 L 150.050781 166.300781 L 149.460938 166.285156 L 149.539062 165.84375 L 148.449219 165.75 L 148.320312 165.050781 L 147.410156 164.921875 L 147.15625 165.4375 L 146.1875 164.378906 L 145.671875 164.722656 Z M 143.425781 164.375 "/>
<path style=" stroke:none;fill-rule:nonzero;fill-opacity:1;" d="M 123.035156 103.386719 L 122.910156 104.644531 L 124.078125 104.882812 L 124.3125 105.566406 L 125.917969 104.964844 L 126.980469 105.476562 L 127.398438 105.054688 L 127.652344 105.394531 L 128.054688 105.195312 L 127.992188 105.785156 L 128.351562 105.832031 L 129.726562 105.230469 L 130.195312 102.980469 L 130.945312 102.953125 L 131.582031 103.558594 L 132.492188 103.019531 L 133.199219 103.601562 L 133.46875 102.875 L 134.070312 102.765625 L 134.507812 103.332031 L 134.066406 103.734375 L 134.867188 104.257812 L 134.632812 105.046875 L 135.183594 105.503906 L 135.488281 105.421875 L 137.765625 98.40625 L 137.902344 98.769531 L 138.375 98.484375 L 139.402344 99.117188 L 140.953125 98.707031 L 140.972656 98.394531 L 141.511719 98.671875 L 141.929688 99.648438 L 143.039062 99.886719 L 142.820312 100.570312 L 143.921875 101.203125 L 143.695312 101.449219 L 144.296875 102.671875 L 144.585938 101.90625 L 144.765625 102.574219 L 145.308594 102.570312 L 145.285156 103.617188 L 146.210938 103.53125 L 147.679688 101.972656 L 147.730469 102.394531 L 148.683594 102.699219 L 148.84375 103.691406 L 150.886719 103.613281 L 153.648438 100.515625 L 155.136719 101.523438 L 154.179688 103.203125 L 154.496094 103.898438 L 152.457031 104.601562 L 152.238281 105.011719 L 152.664062 105.320312 L 152.140625 106.40625 L 153.472656 105.925781 L 154.554688 106.171875 L 156.914062 104.429688 L 157.117188 103.796875 L 156.425781 103.890625 L 156.242188 102.824219 L 155.855469 102.65625 L 156.308594 101.667969 L 160.078125 99.675781 L 162.382812 99.722656 L 164.335938 100.289062 L 163.636719 101.757812 L 164.964844 103.285156 L 164.109375 104.847656 L 164.007812 106.199219 L 165.441406 106.464844 L 165.121094 108.023438 L 165.953125 107.691406 L 167.40625 109.941406 L 167.496094 110.574219 L 166.824219 111.617188 L 165.644531 112.253906 L 164.332031 112.332031 L 164.144531 114.59375 L 165.675781 116.089844 L 166.871094 116.328125 L 166.546875 117.378906 L 166.875 119.054688 L 167.644531 119.261719 L 167.570312 119.714844 L 168.285156 119.765625 L 168.492188 120.5 L 169.519531 121.050781 L 168.429688 122.628906 L 168.78125 124.070312 L 167.859375 124.957031 L 166.890625 124.792969 L 166.097656 125.804688 L 165.355469 125.832031 L 165.351562 126.46875 L 164.726562 126.660156 L 163.582031 126.011719 L 161.648438 127.007812 L 160.902344 126.710938 L 160.390625 127.191406 L 159.945312 127 L 159.519531 127.328125 L 159.609375 128.085938 L 159.105469 128.148438 L 157.886719 127.78125 L 157.4375 126.71875 L 156.882812 127.023438 L 156.199219 126.773438 L 155.617188 128.867188 L 157.304688 129.214844 L 157.289062 130.113281 L 157.789062 130.40625 L 157.753906 132.09375 L 156.847656 131.714844 L 156.222656 132.152344 L 154.617188 131.90625 L 153.523438 132.871094 L 152.972656 132.480469 L 152.011719 133.09375 L 152.445312 133.558594 L 152.035156 133.980469 L 151.066406 134.261719 L 150.277344 134 L 149.878906 135.058594 L 150.324219 135.375 L 149.746094 136.109375 L 149.175781 135.941406 L 148.890625 136.398438 L 147.675781 136.144531 L 147.742188 136.9375 L 147.023438 138.285156 L 147.96875 139.109375 L 147.46875 139.152344 L 147.265625 139.722656 L 145.058594 139.171875 L 145.148438 140.1875 L 145.625 140.398438 L 145.328125 140.75 L 144.507812 140.632812 L 144.667969 141.628906 L 145.558594 142.363281 L 145.957031 142.105469 L 146.332031 142.511719 L 147.484375 142.445312 L 147.183594 142.984375 L 147.589844 143.09375 L 147.738281 143.761719 L 148.296875 143.761719 L 148.292969 145.160156 L 147.683594 145.644531 L 148.242188 145.804688 L 148.183594 146.140625 L 147.515625 146.058594 L 147.636719 145.71875 L 147.101562 145.253906 L 146.25 146.410156 L 145.027344 146.675781 L 144.75 146.035156 L 144.007812 145.96875 L 144.035156 145.078125 L 143.617188 144.800781 L 142.808594 144.945312 L 142.117188 144.464844 L 141.84375 144.863281 L 140.746094 144.453125 L 140.953125 142.8125 L 140.730469 142.917969 L 140.128906 143.550781 L 139.441406 142.957031 L 136.035156 144.539062 L 135.605469 142.84375 L 133.65625 142.511719 L 133.636719 143.6875 L 131.601562 142.242188 L 130.863281 142.347656 L 130.652344 143.4375 L 130.050781 143.292969 L 130 142.1875 L 129.070312 142.347656 L 128.09375 143.796875 L 126.289062 142.378906 L 125.132812 142.730469 L 125.023438 141.300781 L 125.425781 141.023438 L 124.285156 139.699219 L 123.78125 137.746094 L 123.078125 137.277344 L 122.488281 134.296875 L 123.367188 133.8125 L 123.734375 132.652344 L 124.285156 132.957031 L 124.203125 132.53125 L 124.453125 132.792969 L 124.851562 132.519531 L 124.941406 131.746094 L 126.664062 131.726562 L 127.628906 129.925781 L 128.886719 129.726562 L 128.640625 128.800781 L 129.820312 128.457031 L 129.351562 127.65625 L 129.699219 127.058594 L 130.089844 127.085938 L 130.089844 126.902344 L 129.734375 126.304688 L 130.425781 126.457031 L 130.605469 126.984375 L 130.914062 126.804688 L 130.773438 125.96875 L 131.382812 124.71875 L 130.609375 123.671875 L 129.929688 124.046875 L 129.382812 123.671875 L 129.691406 123.132812 L 129.136719 122.804688 L 129.640625 122.433594 L 129.179688 121.789062 L 128.296875 121.996094 L 127.746094 121.367188 L 126.972656 121.296875 L 126.5 121.472656 L 126.625 121.859375 L 125.597656 121.992188 L 125.457031 122.441406 L 124.746094 122.175781 L 124.710938 122.601562 L 124.246094 121.722656 L 123.714844 121.636719 L 123.101562 122.480469 L 122.886719 121.253906 L 123.9375 120.433594 L 124.242188 119.226562 L 123.519531 117.558594 L 121.960938 116.480469 L 121.296875 115.273438 L 121.347656 114.59375 L 120.050781 113.25 L 120.523438 112.792969 L 120.425781 111.644531 L 120.980469 111.320312 L 120.109375 110.425781 L 120.21875 109.625 L 121.441406 109.550781 L 122.054688 109.023438 L 121.6875 107.917969 L 121.917969 107.203125 L 121.515625 106.726562 L 121.738281 105.683594 L 121.160156 104.125 L 122.804688 103.414062 L 122.925781 103.394531 Z M 137.558594 140.910156 L 137.449219 140.96875 L 137.328125 141.1875 L 136.8125 142.121094 L 137.035156 143.011719 L 138.414062 143.246094 L 138.925781 141.90625 L 139.601562 141.585938 L 139.589844 141.472656 L 138.601562 140.867188 L 138.429688 140.667969 L 138.285156 140.652344 L 138.226562 140.5 L 137.789062 140.851562 Z M 137.558594 140.910156 "/>
</g>
</svg>
