<?xml version="1.0" encoding="UTF-8"?>
<svg xmlns="http://www.w3.org/2000/svg" xmlns:xlink="http://www.w3.org/1999/xlink" width="154px" height="200px" viewBox="0 0 154 200" version="1.1">
<g id="surface1">
<path style=" stroke:none;fill-rule:nonzero;fill-opacity:1;" d="M 75.5625 93.855469 L 75.535156 93.828125 L 75.507812 93.835938 L 75.464844 93.847656 L 75.425781 93.910156 L 75.417969 93.925781 L 75.433594 93.945312 L 75.449219 93.941406 L 75.511719 93.957031 L 75.5625 93.9375 L 75.570312 93.921875 L 75.558594 93.902344 Z M 75.5625 93.855469 "/>
<path style=" stroke:none;fill-rule:nonzero;fill-opacity:1;" d="M 74.945312 58.722656 L 75.910156 58.828125 L 76.011719 58.492188 L 76.296875 58.097656 L 76.21875 57.152344 L 75.285156 57.777344 L 74.863281 57.785156 L 74.933594 58.695312 Z M 74.945312 58.722656 "/>
<path style=" stroke:none;fill-rule:nonzero;fill-opacity:1;" d="M 36.285156 74.566406 L 36.8125 75.007812 L 36.65625 75.425781 L 36.886719 75.886719 L 37.195312 78.1875 L 36.839844 79.035156 L 36.59375 80.542969 L 37.546875 82.1875 L 37.734375 82.882812 L 37.851562 84.816406 L 37.703125 85.796875 L 38.0625 87.335938 L 37.992188 90.097656 L 37.925781 90.445312 L 36.148438 93.042969 L 36.167969 93.703125 L 35.957031 94.351562 L 36.074219 95.34375 L 35.917969 95.710938 L 36.097656 96.265625 L 36.078125 97.183594 L 36.003906 97.523438 L 35.640625 97.777344 L 35.851562 98.15625 L 35.613281 98.503906 L 35.414062 98.851562 L 34.808594 98.648438 L 34.808594 98.851562 L 34.460938 99.042969 L 34.546875 99.574219 L 34.941406 99.054688 L 35.585938 99.285156 L 35.269531 99.84375 L 34.371094 100.335938 L 34.511719 100.5625 L 34.308594 100.867188 L 34.558594 100.957031 L 34.511719 101.238281 L 34.277344 101.367188 L 34.429688 101.472656 L 33.714844 101.847656 L 33.765625 102.28125 L 33.628906 102.417969 L 33.707031 102.507812 L 34.265625 102.09375 L 34.1875 102.34375 L 33.6875 103.15625 L 33.15625 103.195312 L 32.859375 102.714844 L 32.035156 102.683594 L 32.367188 101.851562 L 31.730469 101.824219 L 31.335938 101.613281 L 31.152344 101.535156 L 30.609375 101.316406 L 30.316406 100.996094 L 29.792969 101.054688 L 29.410156 100.585938 L 29.222656 100.449219 L 28.789062 100.558594 L 28.933594 100.058594 L 28.519531 100.109375 L 28.070312 99.902344 L 28.007812 99.722656 L 27.90625 99.28125 L 28.105469 99.199219 L 28.117188 98.648438 L 28.300781 98.425781 L 28.488281 98.636719 L 28.90625 98.3125 L 29.175781 98.339844 L 29.296875 97.921875 L 29.730469 97.75 L 29.703125 97.574219 L 28.78125 97.472656 L 28.390625 97.179688 L 27.996094 97.425781 L 27.910156 96.714844 L 27.03125 97.050781 L 27 96.75 L 26.40625 96.730469 L 26.429688 96.5625 L 26.742188 96.621094 L 27.335938 96.109375 L 27.40625 95.753906 L 27.574219 95.5 L 27.867188 95.5 L 28.023438 95.140625 L 28.082031 94.828125 L 27.953125 94.269531 L 28.273438 94.054688 L 28.003906 93.578125 L 27.769531 93.621094 L 27.503906 93.65625 L 27.183594 93.832031 L 26.183594 93.796875 L 25.742188 94.082031 L 25.941406 93.367188 L 25.550781 92.84375 L 26.269531 92.785156 L 26.539062 92.539062 L 26.351562 92.253906 L 26.425781 92.023438 L 27.554688 91.378906 L 27.429688 91.105469 L 27.191406 91.140625 L 26.941406 90.289062 L 26.414062 90.496094 L 26.25 90.132812 L 25.804688 89.898438 L 25.398438 90.015625 L 25.5625 89.746094 L 25.453125 89.605469 L 25.097656 89.710938 L 25.136719 89.261719 L 25.449219 89.128906 L 25.398438 88.664062 L 25.207031 88.679688 L 25.015625 88.296875 L 24.871094 88.113281 L 26.875 87.605469 L 26.425781 86.984375 L 26.164062 87.039062 L 25.976562 86.808594 L 25.703125 86.929688 L 25.617188 86.695312 L 26.007812 86.464844 L 25.855469 86.171875 L 25.539062 86.105469 L 25.109375 86.46875 L 25.097656 85.980469 L 24.910156 85.84375 L 24.964844 85.644531 L 25.25 85.824219 L 25.34375 85.578125 L 25.765625 85.519531 L 25.722656 85 L 26.367188 85.015625 L 26.535156 84.503906 L 26.6875 84.082031 L 26.285156 83.910156 L 26.515625 83.265625 L 27.082031 82.910156 L 27.242188 82.546875 L 27.183594 82.308594 L 27.03125 82.324219 L 27.285156 82.058594 L 27.304688 82.464844 L 27.664062 82.289062 L 27.71875 82.507812 L 28.101562 82.601562 L 28.382812 81.976562 L 28.273438 81.75 L 29.113281 81.648438 L 29.269531 81.285156 L 29.6875 81.289062 L 29.835938 81.101562 L 31.03125 81.074219 L 31.617188 80.722656 L 31.746094 80.1875 L 31.949219 79.785156 L 32.449219 79.492188 L 33 79.402344 L 33.398438 79.613281 L 33.707031 79.425781 L 33.84375 79.6875 L 34.171875 79.734375 L 34.320312 80.019531 L 34.519531 80.472656 L 34.699219 80.453125 L 35.296875 79.414062 L 35.265625 78.378906 L 34.835938 77.707031 L 35.234375 77.132812 L 35 76.53125 L 35.507812 76.109375 L 35.347656 76.015625 L 35.476562 75.742188 L 35.238281 74.878906 L 35.460938 74.648438 Z M 36.285156 74.566406 "/>
<path style=" stroke:none;fill-rule:nonzero;fill-opacity:1;" d="M 100.3125 191.8125 L 100.386719 191.945312 L 100.050781 192.210938 L 100.652344 192.265625 L 100.496094 192.621094 L 101.078125 192.378906 L 101.023438 192.574219 L 101.1875 192.464844 L 101.941406 192.898438 L 101.871094 193.019531 L 102.191406 193.210938 L 101.984375 193.207031 L 101.964844 193.433594 L 102.261719 193.277344 L 102.007812 193.65625 L 102.351562 193.367188 L 102.90625 193.753906 L 102.800781 194.597656 L 102.617188 194.285156 L 102.363281 194.515625 L 102.640625 194.621094 L 102.390625 194.808594 L 100.984375 194.503906 L 99.871094 193.664062 L 99.765625 193.261719 L 99.929688 193.242188 L 99.828125 193.007812 L 99.980469 192.816406 L 99.769531 192.671875 L 99.9375 192.480469 L 99.871094 192.238281 L 99.644531 192.203125 L 99.785156 191.960938 Z M 99.90625 191.410156 L 100.074219 191.589844 L 99.730469 191.667969 L 99.707031 191.441406 Z M 98.558594 190.4375 L 99.542969 190.792969 L 99.878906 191.21875 L 98.910156 191.546875 L 97.96875 191.1875 L 97.925781 190.546875 Z M 98.558594 190.4375 "/>
<path style=" stroke:none;fill-rule:nonzero;fill-opacity:1;" d="M 94.488281 76.679688 L 94.832031 78.277344 L 95.398438 79.667969 L 96.980469 82.488281 L 98.75 84.429688 L 100.828125 85.984375 L 101.050781 86.570312 L 101.976562 87.460938 L 102.058594 87.800781 L 103.460938 88.734375 L 104.765625 89.195312 L 104.820312 90.417969 L 105.683594 91.03125 L 105.390625 91.5 L 105.617188 91.710938 L 104.902344 92.203125 L 104.320312 92.921875 L 104.113281 93.703125 L 103.519531 94.121094 L 103.085938 95.0625 L 101.882812 96.355469 L 101.367188 96.261719 L 101.566406 96.101562 L 101.296875 95.019531 L 101.019531 94.75 L 100.402344 94.339844 L 100.136719 94.671875 L 99.992188 94.617188 L 99.746094 94.066406 L 99.433594 94.097656 L 99.195312 93.78125 L 98.460938 94.382812 L 98.101562 94.941406 L 97.539062 94.980469 L 97.433594 95.207031 L 97.75 96.101562 L 98.132812 96.324219 L 98.027344 96.585938 L 97.8125 96.550781 L 97.75 96.296875 L 97.582031 96.609375 L 97.078125 96.625 L 96.917969 97.289062 L 96.71875 96.765625 L 96.425781 96.789062 L 96.207031 97.394531 L 95.871094 97.40625 L 95.800781 97.777344 L 95.328125 97.527344 L 94.796875 97.660156 L 94.167969 96.835938 L 93.675781 96.882812 L 93.070312 96.527344 L 92.808594 96.691406 L 92.472656 96.589844 L 92.03125 95.753906 L 91.699219 95.941406 L 91.429688 95.640625 L 90.980469 95.519531 L 90.710938 96.046875 L 89.6875 96.386719 L 89.316406 96.152344 L 89.128906 95.695312 L 88.667969 95.585938 L 88.292969 95.226562 L 87.855469 95.050781 L 87.503906 95.390625 L 87.25 94.476562 L 87.574219 93.898438 L 87.320312 93.542969 L 87.066406 93.589844 L 86.566406 93.015625 L 86.339844 93.105469 L 84.40625 91.976562 L 83.894531 91.792969 L 83.890625 92.105469 L 83.289062 91.945312 L 82.933594 91.378906 L 82.972656 90.136719 L 83.167969 90.226562 L 83.691406 89.777344 L 83.707031 89.175781 L 84.140625 89.144531 L 85.796875 90.03125 L 86.109375 89.839844 L 86.539062 89.996094 L 86.808594 89.433594 L 87.1875 89.359375 L 87.054688 89.179688 L 87.515625 89.097656 L 87.027344 88.789062 L 86.953125 88.378906 L 86.339844 88.167969 L 85.6875 87.527344 L 85.523438 86.699219 L 84.578125 86.074219 L 85.105469 85.484375 L 84.097656 84.542969 L 84.898438 83.933594 L 84.875 83.332031 L 84.621094 82.863281 L 84.882812 82.714844 L 85.074219 82.019531 L 85.769531 82.28125 L 85.921875 82.097656 L 86.261719 82.097656 L 86.410156 82.34375 L 86.789062 82.152344 L 87.359375 82.230469 L 87.699219 81.933594 L 87.890625 81.070312 L 87.390625 80.910156 L 87.097656 80.566406 L 87.234375 80.140625 L 87.652344 80.261719 L 88.128906 79.925781 L 88.273438 80.042969 L 88.421875 79.445312 L 89.023438 79.347656 L 89.097656 78.71875 L 89.4375 78.34375 L 89.496094 77.980469 L 90.023438 78.265625 L 90.621094 77.984375 L 90.789062 78.222656 L 91.128906 78.179688 L 91.636719 77.941406 L 91.753906 77.382812 L 91.925781 77.289062 L 92.628906 77.242188 L 93.160156 76.886719 L 94.417969 76.617188 Z M 94.488281 76.679688 "/>
<path style=" stroke:none;fill-rule:nonzero;fill-opacity:1;" d="M 115.480469 108.484375 L 115.398438 108.175781 L 115.738281 107.863281 L 116.230469 107.769531 L 117.402344 107.964844 L 118.039062 107.738281 L 118.402344 108.003906 L 118.828125 107.773438 L 118.789062 107.535156 L 119.210938 107.425781 L 119.164062 107.234375 L 119.371094 107.304688 L 119.730469 107.09375 L 120.3125 107.507812 L 120.75 107.585938 L 120.8125 107.84375 L 121.128906 107.917969 L 121.285156 108.511719 L 121.441406 108.40625 L 121.90625 108.785156 L 121.742188 109.046875 L 121.820312 109.4375 L 121.367188 109.953125 L 120.984375 109.886719 L 121.140625 110.171875 L 122.550781 110.773438 L 122.953125 111.152344 L 123.492188 110.660156 L 123.996094 110.824219 L 124.738281 112.453125 L 126.394531 113.976562 L 126.59375 114.417969 L 126.980469 114.523438 L 127.859375 113.503906 L 128.371094 114.125 L 128.359375 113.648438 L 128.601562 113.585938 L 128.816406 113.917969 L 128.84375 113.480469 L 129.273438 113.664062 L 129.527344 113.503906 L 129.570312 113.753906 L 129.863281 113.929688 L 130 113.742188 L 130.738281 114.304688 L 130.476562 114.429688 L 130.785156 114.785156 L 130.558594 115.699219 L 130.792969 116.21875 L 130.632812 116.332031 L 130.523438 117.0625 L 130.765625 117.316406 L 130.65625 117.519531 L 130.949219 117.742188 L 130.707031 118.265625 L 130.921875 118.503906 L 131.351562 118.394531 L 131.796875 118.664062 L 131.890625 119.074219 L 132.332031 119.445312 L 132.527344 119.914062 L 131.535156 121.335938 L 130.320312 123.949219 L 129.742188 124.371094 L 129.054688 124.132812 L 128.265625 124.375 L 127.488281 124.117188 L 127.007812 124.210938 L 126.839844 123.933594 L 126.679688 124.304688 L 126.738281 125.019531 L 126.476562 125.578125 L 126.542969 126.082031 L 125.773438 127.457031 L 126.054688 127.742188 L 125.941406 128.074219 L 125.402344 127.472656 L 124.898438 127.425781 L 124.15625 127.59375 L 124.152344 128.035156 L 123.449219 127.714844 L 123.1875 127.988281 L 121.976562 128.054688 L 121.585938 127.613281 L 121.675781 127.457031 L 121.464844 127.054688 L 121.777344 126.492188 L 121.484375 126.410156 L 121.105469 126.625 L 120.933594 126.382812 L 120.464844 126.308594 L 120.105469 126.617188 L 119.949219 126.398438 L 119.714844 126.523438 L 119.488281 126.285156 L 119.0625 126.332031 L 118.46875 126.96875 L 118.230469 127.625 L 117.777344 126.730469 L 117.246094 126.246094 L 117.210938 125.871094 L 116.789062 125.625 L 117.214844 125.371094 L 116.894531 125.023438 L 117.199219 124.9375 L 117.59375 124.402344 L 117.511719 123.667969 L 117.921875 123.25 L 117.886719 123 L 118.761719 122.625 L 118.628906 122.316406 L 118.867188 122.105469 L 118.855469 121.746094 L 118.703125 121.457031 L 117.960938 121.242188 L 117.925781 120.910156 L 117.511719 120.53125 L 117.5 119.882812 L 116.96875 119.691406 L 116.566406 119.152344 L 116.046875 118.894531 L 115.925781 118.457031 L 115.375 118.023438 L 115.558594 117.753906 L 115.21875 116.945312 L 115.394531 116.738281 L 114.296875 116.074219 L 114.480469 115.5625 L 114.898438 115.308594 L 114.910156 115.105469 L 113.414062 114.132812 L 113.457031 112.910156 L 113.25 112.894531 L 113.304688 112.59375 L 112.785156 112.273438 L 113.316406 112.238281 L 113.347656 111.699219 L 113.089844 111.566406 L 113.199219 111.398438 L 114.40625 111.671875 L 114.570312 111.585938 L 114.511719 111.292969 L 115.257812 110.964844 L 115.828125 109.484375 Z M 115.480469 108.484375 "/>
<path style=" stroke:none;fill-rule:nonzero;fill-opacity:1;" d="M 118.230469 127.625 L 118.46875 126.96875 L 119.0625 126.332031 L 119.488281 126.289062 L 119.714844 126.523438 L 119.949219 126.398438 L 120.105469 126.617188 L 120.464844 126.308594 L 120.933594 126.382812 L 121.109375 126.625 L 121.484375 126.410156 L 121.777344 126.488281 L 121.464844 127.050781 L 121.679688 127.457031 L 121.585938 127.613281 L 121.976562 128.050781 L 123.191406 127.984375 L 123.453125 127.710938 L 124.15625 128.03125 L 124.160156 127.589844 L 124.898438 127.425781 L 125.402344 127.46875 L 125.945312 128.070312 L 126.054688 127.738281 L 125.777344 127.449219 L 126.546875 126.078125 L 126.480469 125.570312 L 126.738281 125.015625 L 126.6875 124.296875 L 126.84375 123.929688 L 127.011719 124.207031 L 127.496094 124.113281 L 128.273438 124.371094 L 129.0625 124.125 L 129.75 124.367188 L 129.265625 124.980469 L 129.179688 125.644531 L 129.523438 127.105469 L 128.363281 128.574219 L 127.730469 129.742188 L 127.742188 130.480469 L 128.25 131.0625 L 128.109375 131.9375 L 129.394531 132.695312 L 131.421875 132.726562 L 132.613281 134.070312 L 133.796875 134.792969 L 134.675781 135.019531 L 134.871094 135.539062 L 135.410156 136.058594 L 136.402344 136.398438 L 135.804688 137.882812 L 135.742188 138.8125 L 136.289062 139.613281 L 135.796875 141.265625 L 136.160156 141.742188 L 136.082031 141.980469 L 136.261719 142.265625 L 137.035156 142.632812 L 136.488281 143.128906 L 136.550781 143.832031 L 135.589844 144.84375 L 135.519531 144.566406 L 135.164062 144.4375 L 134.632812 144.628906 L 134.089844 144.082031 L 132.90625 144.265625 L 131.464844 144.804688 L 129.253906 146.171875 L 128.332031 147.824219 L 128.621094 148.339844 L 128.953125 151.785156 L 128.835938 152.496094 L 127.410156 153.976562 L 125.582031 154.75 L 123.5625 157.300781 L 123.308594 159.011719 L 122.667969 160.230469 L 122.242188 160.757812 L 121.398438 160.894531 L 120.378906 160.660156 L 118.3125 160.851562 L 117.242188 160.246094 L 116.695312 159.21875 L 116.964844 158.835938 L 116.644531 157.980469 L 116.960938 157.25 L 116.679688 156.402344 L 116.691406 155.714844 L 117.726562 155.292969 L 118.203125 155.277344 L 118.855469 154.90625 L 119.171875 154.359375 L 119.285156 153.558594 L 119.578125 153.296875 L 119.777344 152.605469 L 120.148438 152.265625 L 120.335938 151.777344 L 120.523438 150.550781 L 119.179688 149.347656 L 119.300781 148.890625 L 119.757812 148.457031 L 120.824219 148.105469 L 121.265625 147.640625 L 121.882812 147.566406 L 122.75 147.824219 L 123.183594 147.699219 L 123.796875 147.21875 L 124.296875 145.585938 L 124.222656 144.292969 L 123.441406 143.914062 L 122.679688 142.507812 L 122.269531 140.671875 L 122.074219 138.035156 L 121.378906 135.746094 L 120.457031 134.308594 L 119.792969 133.832031 L 119.257812 131.980469 L 119.027344 131.789062 L 118.671875 129.574219 L 118.429688 129.148438 L 118.722656 128.660156 Z M 118.230469 127.625 "/>
<path style=" stroke:none;fill-rule:nonzero;fill-opacity:1;" d="M 98.445312 116.914062 L 98.953125 116.976562 L 98.777344 117.207031 L 98.039062 117.3125 L 98.070312 116.902344 Z M 93.820312 113.519531 L 94.933594 113.820312 L 95.070312 114.015625 L 94.894531 114.539062 L 94.183594 114.542969 L 94.105469 114.695312 L 93.605469 114.433594 L 93.59375 113.960938 Z M 95.234375 101.496094 L 95.617188 101.691406 L 95.546875 102.074219 L 96.066406 102.691406 L 96.609375 102.570312 L 96.9375 102.785156 L 96.871094 102.175781 L 96.523438 101.753906 L 97.082031 100.738281 L 97.660156 101.222656 L 97.757812 100.871094 L 98.628906 100.886719 L 98.679688 101.101562 L 99.128906 101.105469 L 99.195312 101.363281 L 99.707031 101.636719 L 101.730469 102.226562 L 101.828125 102.628906 L 102.128906 102.859375 L 102.96875 102.726562 L 103.277344 103.171875 L 103.832031 102.679688 L 104.097656 102.664062 L 104.085938 102.425781 L 104.582031 102.367188 L 104.820312 102.550781 L 105.296875 102.40625 L 105.730469 101.675781 L 106.742188 102.105469 L 107.136719 101.703125 L 107.808594 101.648438 L 108.558594 101.121094 L 109.015625 101.835938 L 109.738281 102.039062 L 109.785156 102.238281 L 109.578125 102.4375 L 109.714844 102.738281 L 109.449219 102.785156 L 109.238281 103.078125 L 109.394531 103.742188 L 110.144531 104.007812 L 110.195312 104.554688 L 111.058594 104.519531 L 111.320312 104.894531 L 111.730469 104.8125 L 112.050781 105.171875 L 111.640625 105.429688 L 111.855469 106.03125 L 111.347656 106.332031 L 111.144531 106.835938 L 111.539062 107.027344 L 111.722656 107.503906 L 112.230469 107.867188 L 112.507812 107.640625 L 113.222656 107.941406 L 113.652344 107.617188 L 114.183594 108.070312 L 114.578125 108.035156 L 115.488281 108.488281 L 115.832031 109.492188 L 115.261719 110.972656 L 114.515625 111.296875 L 114.574219 111.589844 L 114.410156 111.675781 L 113.203125 111.402344 L 113.089844 111.570312 L 113.347656 111.699219 L 113.320312 112.242188 L 112.789062 112.28125 L 113.308594 112.601562 L 113.253906 112.894531 L 113.460938 112.914062 L 113.417969 114.136719 L 114.917969 115.105469 L 114.902344 115.3125 L 114.484375 115.5625 L 114.296875 116.074219 L 115.398438 116.738281 L 115.222656 116.945312 L 115.5625 117.753906 L 115.382812 118.023438 L 115.925781 118.457031 L 116.050781 118.894531 L 116.570312 119.152344 L 116.972656 119.691406 L 117.503906 119.882812 L 117.515625 120.53125 L 117.933594 120.910156 L 117.96875 121.242188 L 118.707031 121.457031 L 118.863281 121.746094 L 118.871094 122.109375 L 118.636719 122.316406 L 118.769531 122.628906 L 117.894531 123 L 117.929688 123.25 L 117.523438 123.667969 L 117.601562 124.402344 L 117.210938 124.9375 L 116.90625 125.023438 L 117.226562 125.367188 L 116.796875 125.621094 L 116.582031 125.128906 L 115.878906 125.03125 L 114.976562 125.269531 L 113.90625 126.496094 L 113.046875 126.351562 L 112.535156 125.855469 L 111.976562 125.992188 L 111.929688 125.832031 L 112.148438 125.667969 L 111.972656 125.105469 L 111.136719 124.304688 L 110.765625 124.25 L 110.128906 123.484375 L 108.949219 123.5 L 108.28125 122.667969 L 107.351562 122.382812 L 107.195312 122.113281 L 107.695312 121.734375 L 107.71875 120.722656 L 108.378906 120.34375 L 108.378906 119.605469 L 106.851562 116.4375 L 105.507812 115.023438 L 104.820312 115.128906 L 104.476562 115.667969 L 103.632812 115.421875 L 102.949219 116.027344 L 102.355469 116.132812 L 101.742188 115.796875 L 99.707031 116.773438 L 99.902344 115.738281 L 100.699219 115.578125 L 100.808594 115.207031 L 101.714844 114.585938 L 101.441406 113.789062 L 100.65625 113.542969 L 99.765625 112.558594 L 99.066406 112.097656 L 98.398438 112.375 L 97.933594 112.976562 L 97.5625 112.921875 L 97.757812 112.824219 L 97.582031 112.566406 L 96.734375 112.324219 L 96.457031 112.523438 L 96.671875 113.199219 L 96.105469 113.007812 L 96.101562 111.867188 L 95.816406 110.878906 L 95.148438 109.8125 L 95.132812 109.773438 L 94.527344 109.117188 L 94.171875 107.898438 L 93.273438 106.429688 L 92.46875 105.621094 L 92.605469 105.289062 L 93.363281 105.144531 L 93.492188 104.949219 L 93.328125 104.886719 L 93.351562 104.628906 L 94.136719 104.347656 L 93.875 103.222656 L 94.082031 102.84375 L 93.75 102.28125 L 94.292969 102.1875 L 95.0625 101.492188 Z M 95.234375 101.496094 "/>
<path style=" stroke:none;fill-rule:nonzero;fill-opacity:1;" d="M 79.351562 57.546875 L 79.054688 58.328125 L 79.113281 59.371094 L 78.476562 59.621094 L 78.339844 60.148438 L 77.601562 60.058594 L 77.652344 59.796875 L 77.449219 59.71875 L 77.273438 59.085938 L 76.589844 59.371094 L 76.589844 58.828125 L 76.015625 58.496094 L 76.300781 58.105469 L 76.21875 57.15625 L 75.285156 57.785156 L 74.867188 57.792969 L 74.9375 58.703125 L 75.242188 59.261719 L 74.832031 59.257812 L 74.75 59.050781 L 74.246094 59.25 L 73.992188 60.125 L 73.335938 60.652344 L 73.285156 61.199219 L 73.273438 61.191406 L 72.859375 61.417969 L 72.347656 61.324219 L 72.136719 61.820312 L 71.746094 61.238281 L 71.382812 61.441406 L 71.027344 61.398438 L 70.59375 61.625 L 70.3125 61.304688 L 70.082031 61.371094 L 69.710938 61.144531 L 69.445312 61.25 L 69.03125 60.984375 L 68.980469 60.738281 L 68.636719 60.695312 L 68.507812 60.367188 L 67.332031 60.316406 L 66.824219 59.707031 L 65.921875 59.203125 L 65.992188 58.429688 L 65.53125 58.125 L 65.613281 57.710938 L 65.066406 57.1875 L 65.128906 56.898438 L 65.296875 56.921875 L 65.25 56.644531 L 65.671875 56.484375 L 65.78125 55.984375 L 66.292969 55.429688 L 66.378906 54.75 L 65 55.027344 L 64.328125 54.9375 L 64.695312 54.410156 L 64.648438 54.144531 L 63.992188 54.011719 L 63.730469 54.265625 L 63.429688 54.199219 L 62.992188 53.703125 L 62.640625 53.605469 L 62.554688 53.066406 L 62.21875 52.765625 L 61.597656 53.367188 L 60.96875 53.433594 L 60.917969 53.703125 L 60.34375 54.222656 L 59.335938 54.261719 L 59.308594 54.496094 L 60.046875 54.925781 L 60.109375 55.199219 L 59.46875 55.238281 L 58.6875 55.015625 L 57.847656 55.378906 L 57.148438 55.300781 L 56.757812 55.007812 L 56.914062 54.746094 L 56.8125 54.515625 L 55.585938 55.894531 L 55.417969 55.820312 L 55.5 55.578125 L 55.328125 55.347656 L 54.753906 55.222656 L 53.5 54.207031 L 52.09375 54.175781 L 51.839844 54.484375 L 51.859375 54.824219 L 51.4375 54.929688 L 50.574219 54.160156 L 50.511719 53.769531 L 50.074219 53.367188 L 50.085938 53.019531 L 49.777344 52.851562 L 49.355469 52.921875 L 48.609375 52.15625 L 48.207031 52.148438 L 47.652344 51.839844 L 47.054688 52.140625 L 45.632812 50.636719 L 45.015625 50.765625 L 43.933594 50.023438 L 43.648438 49.707031 L 43.785156 49.046875 L 43.519531 48.992188 L 43.394531 48.679688 L 42.78125 48.460938 L 41.429688 48.609375 L 40.570312 49.964844 L 39.660156 50.492188 L 39.304688 49.65625 L 38.621094 49.152344 L 38.355469 49.316406 L 38 49.097656 L 37.910156 49.339844 L 37.210938 49.40625 L 36.972656 49.691406 L 36.90625 49.398438 L 36.492188 49.496094 L 36.878906 48.359375 L 37.210938 48.304688 L 37.332031 47.441406 L 37.117188 46.914062 L 36.300781 46.636719 L 36.101562 46.199219 L 35.484375 46.652344 L 34.691406 46.007812 L 34.578125 46.273438 L 34.050781 46.183594 L 34.136719 45.972656 L 33.984375 45.8125 L 33.414062 45.925781 L 33.40625 44.644531 L 33.53125 44.691406 L 33.972656 44.664062 L 33.894531 44.152344 L 34.222656 44.785156 L 35.039062 44.574219 L 34.859375 44.222656 L 35.085938 43.960938 L 35.046875 43.652344 L 34.605469 43.417969 L 34.53125 43.140625 L 35.503906 42.160156 L 35.234375 41.34375 L 34.988281 41.136719 L 34.804688 41.234375 L 34.363281 40.828125 L 34.679688 40.417969 L 34.527344 40.160156 L 34.945312 40.054688 L 35.292969 39.03125 L 35.707031 38.589844 L 35.675781 38.039062 L 36.191406 37.578125 L 36.164062 37.40625 L 36.476562 37.453125 L 36.554688 37.25 L 37.273438 37.066406 L 37.667969 37.535156 L 37.953125 37.277344 L 37.796875 36.585938 L 37.980469 36.558594 L 38.382812 37.097656 L 38.707031 36.960938 L 38.871094 36.480469 L 39.101562 36.792969 L 39.066406 37.425781 L 40.121094 37.875 L 40.53125 37.519531 L 40.65625 37.265625 L 40.464844 36.988281 L 40.6875 36.921875 L 40.894531 37.308594 L 41.363281 37.546875 L 41.457031 38.019531 L 41.691406 37.207031 L 41.945312 37.214844 L 42.199219 37.589844 L 42.421875 37.492188 L 42.472656 37.199219 L 42.1875 36.796875 L 42.640625 36.429688 L 42.824219 36.582031 L 42.730469 37.136719 L 43.457031 36.578125 L 43.679688 36.601562 L 44.15625 37.21875 L 44.042969 37.59375 L 44.429688 37.902344 L 44.445312 38.210938 L 44.820312 38.125 L 45.023438 38.5625 L 45.863281 38.167969 L 46 38.402344 L 46.558594 38.386719 L 47.316406 38.984375 L 47.71875 38.996094 L 48.433594 39.570312 L 49.054688 39.230469 L 49.425781 39.96875 L 50.578125 40.53125 L 51.574219 40.488281 L 51.9375 40.273438 L 52.660156 39.234375 L 52.773438 39.644531 L 53.226562 39.121094 L 53.472656 39.910156 L 54.585938 40.089844 L 54.777344 40.289062 L 55 40.25 L 55.019531 40.4375 L 55.355469 40.394531 L 55.304688 40.542969 L 55.675781 40.316406 L 56.015625 40.371094 L 56.074219 40.082031 L 56.660156 39.78125 L 57.445312 39.847656 L 57.683594 39.648438 L 58.351562 39.808594 L 58.660156 40.199219 L 58.796875 40.035156 L 59.78125 39.957031 L 59.871094 39.789062 L 60.246094 40.054688 L 60.664062 39.65625 L 62.238281 39.886719 L 62.277344 40.261719 L 63.71875 40.167969 L 64.25 40.523438 L 64.355469 40.933594 L 64.535156 40.996094 L 64.847656 40.964844 L 65.359375 40.488281 L 66.164062 40.261719 L 66.351562 39.703125 L 67.089844 39.359375 L 68.671875 39.378906 L 69.230469 39.183594 L 70.921875 39.453125 L 71.5 40.230469 L 71.871094 39.984375 L 72.078125 40.25 L 72.621094 40.292969 L 72.988281 39.96875 L 73.261719 39.964844 L 73.46875 40.238281 L 73.3125 40.550781 L 73.394531 41.277344 L 73.554688 41.519531 L 74.058594 41.648438 L 74.210938 42.195312 L 74.046875 42.238281 L 73.746094 41.777344 L 73.445312 41.683594 L 73.007812 42.261719 L 73.328125 42.132812 L 72.90625 43.234375 L 72.757812 44.492188 L 72.878906 45.328125 L 73.375 46.292969 L 73.347656 48.523438 L 73.792969 49.722656 L 73.847656 50.578125 L 74.363281 52.382812 L 74.808594 53.269531 L 76.503906 55.242188 L 77.140625 55.667969 L 78.644531 57.292969 Z M 71.921875 60.402344 L 71.855469 60.6875 L 72.199219 61.085938 L 72.75 60.804688 L 72.675781 60.527344 L 72.621094 60.410156 Z M 71.921875 60.402344 "/>
<path style=" stroke:none;fill-rule:nonzero;fill-opacity:1;" d="M 79.9375 8.644531 L 80.425781 8.808594 L 80.425781 9.167969 L 80.601562 9.261719 L 81.640625 9.183594 L 83.191406 9.484375 L 83.683594 9.347656 L 84.734375 9.605469 L 85.660156 10.304688 L 86.089844 10.125 L 86.730469 10.304688 L 87.03125 9.980469 L 87.367188 10.019531 L 87.394531 9.789062 L 87.859375 9.917969 L 87.832031 10.121094 L 88.074219 10.199219 L 89.058594 10.023438 L 89.253906 10.386719 L 89.8125 10.304688 L 89.964844 10.558594 L 90.570312 10.488281 L 91.828125 10.882812 L 91.449219 12.421875 L 90.96875 12.257812 L 90.230469 12.445312 L 89.886719 13.164062 L 88.652344 13.859375 L 88.257812 13.875 L 88.261719 14.550781 L 87.414062 15.074219 L 88.039062 16.226562 L 87.890625 16.660156 L 88.351562 16.613281 L 88.335938 16.382812 L 88.792969 16.394531 L 89.042969 16.574219 L 89.402344 16.515625 L 89.804688 16.78125 L 89.964844 17.152344 L 90.773438 17.027344 L 91.132812 17.230469 L 90.871094 18.042969 L 89.972656 18.914062 L 89.019531 19.515625 L 89.09375 20.089844 L 88.699219 20.496094 L 89.46875 21.214844 L 89.882812 21.15625 L 90.21875 20.78125 L 90.871094 20.863281 L 90.800781 21.742188 L 90.007812 23.269531 L 90.269531 24.09375 L 90.605469 24.316406 L 91.207031 24.222656 L 92.210938 25.070312 L 92.847656 25.242188 L 93.753906 26.828125 L 94.460938 27.339844 L 93.421875 28.265625 L 92.875 28.304688 L 92.25 27.976562 L 91.871094 28.066406 L 91.851562 27.832031 L 92.046875 27.726562 L 92.730469 27.941406 L 93.035156 27.699219 L 92.675781 27.710938 L 92.558594 27.320312 L 92.304688 27.375 L 92.15625 27.207031 L 92.464844 26.972656 L 92.285156 26.453125 L 90.730469 24.789062 L 90.101562 24.605469 L 89.816406 24.699219 L 89.671875 24.496094 L 89.328125 24.871094 L 89.28125 25.289062 L 89.722656 25.648438 L 88.875 26.054688 L 88.671875 25.988281 L 88.136719 26.507812 L 87.527344 26.566406 L 86.234375 25.867188 L 85.769531 25.792969 L 85.691406 25.792969 L 85.667969 25.777344 L 84.597656 26.058594 L 83.871094 27.171875 L 83.601562 27.023438 L 83.632812 26.867188 L 83.382812 26.898438 L 83.425781 26.566406 L 83.171875 26.363281 L 83.265625 26.160156 L 83.066406 26.109375 L 82.921875 25.4375 L 82.679688 25.617188 L 82.765625 25.320312 L 82.601562 24.992188 L 82.726562 24.929688 L 82.214844 24.441406 L 82.488281 24.28125 L 82.28125 24.195312 L 82.328125 23.988281 L 82.226562 23.894531 L 82.238281 23.816406 L 82.09375 23.417969 L 81.941406 23.476562 L 82.058594 23.835938 L 81.664062 23.960938 L 81.542969 23.6875 L 81.15625 23.925781 L 80.84375 23.636719 L 80.945312 23.359375 L 80.78125 23.34375 L 80.234375 23.617188 L 80.09375 23.878906 L 79.9375 23.695312 L 80.042969 23.441406 L 79.757812 23.230469 L 79.257812 23.761719 L 79.089844 23.589844 L 78.109375 24.496094 L 78.097656 24.089844 L 77.816406 23.957031 L 77.785156 23.734375 L 77.472656 23.566406 L 77.300781 23.972656 L 76.796875 23.707031 L 76.851562 23.40625 L 76.5 23.085938 L 76.183594 21.945312 L 75.808594 21.941406 L 75.546875 21.5625 L 75.183594 21.550781 L 75.179688 20.675781 L 75 20.019531 L 74.769531 19.820312 L 75.214844 19.109375 L 75.949219 18.617188 L 76.0625 17.710938 L 75.449219 17.222656 L 75.375 16.683594 L 74.914062 16.707031 L 74.847656 16.308594 L 74.320312 16.316406 L 73.785156 15.597656 L 74.242188 15.121094 L 74.230469 14.621094 L 74.492188 14.410156 L 74.976562 14.476562 L 75.058594 13.96875 L 75.519531 13.734375 L 75.476562 13.582031 L 75.625 13.648438 L 75.546875 13.300781 L 76.050781 12.859375 L 76.121094 12.417969 L 76.496094 11.902344 L 76.597656 12.011719 L 76.996094 11.695312 L 77.460938 11.894531 L 77.726562 11.695312 L 78.183594 11.890625 L 78.085938 11.453125 L 77.773438 11.25 L 77.804688 11.015625 L 78.679688 10.464844 L 79.324219 10.449219 L 79.101562 10.15625 L 79.277344 9.585938 L 79.03125 9.164062 L 79.082031 8.710938 L 79.496094 8.480469 Z M 79.9375 8.644531 "/>
<path style=" stroke:none;fill-rule:nonzero;fill-opacity:1;" d="M 82.144531 110.878906 L 82.078125 111.210938 L 82.222656 111.257812 L 81.972656 111.546875 L 81.925781 110.835938 L 82.492188 110.582031 Z M 95.171875 100.957031 L 95.425781 101.171875 L 95.234375 101.5 L 95.046875 101.492188 L 94.277344 102.1875 L 93.734375 102.28125 L 94.070312 102.84375 L 93.863281 103.222656 L 94.125 104.347656 L 93.339844 104.628906 L 93.3125 104.890625 L 93.476562 104.949219 L 93.351562 105.144531 L 92.59375 105.292969 L 92.457031 105.625 L 91.746094 105.113281 L 91.4375 105.265625 L 90.730469 104.976562 L 89.984375 105.394531 L 90.011719 105.761719 L 90.238281 105.914062 L 89.722656 105.933594 L 87.46875 104.617188 L 86.371094 104.355469 L 85.957031 104.609375 L 85.371094 104.578125 L 84.632812 104.8125 L 83.796875 105.605469 L 83.191406 105.558594 L 82.449219 103.863281 L 81.527344 102.878906 L 80.617188 102.378906 L 79.765625 102.292969 L 79.5625 102.453125 L 78.34375 101.636719 L 77.917969 101.707031 L 77.882812 101.886719 L 77.660156 101.792969 L 76.824219 100.316406 L 75.035156 98.183594 L 74.105469 97.398438 L 72.539062 96.683594 L 72.304688 95.195312 L 71.515625 93.746094 L 70.292969 93.03125 L 69.964844 92.542969 L 69.320312 92.296875 L 69.175781 91.988281 L 68.585938 91.617188 L 67.507812 91.777344 L 67.085938 90.792969 L 66.320312 89.785156 L 66.273438 89.308594 L 65.738281 88.230469 L 65.167969 87.433594 L 63.796875 86.316406 L 62.5 85.699219 L 62.972656 84.652344 L 64.6875 84.632812 L 64.664062 83.769531 L 63.960938 83.285156 L 64.304688 82.796875 L 64.191406 82.351562 L 64.347656 82.269531 L 64.636719 82.535156 L 64.804688 82.308594 L 65.011719 82.367188 L 65.449219 82.144531 L 65.503906 81.875 L 65.882812 81.59375 L 66.207031 81.65625 L 66.4375 81.117188 L 66.78125 81.164062 L 67.136719 80.933594 L 67.117188 80.660156 L 66.851562 80.539062 L 66.746094 79.878906 L 67.058594 79.882812 L 67.320312 79.285156 L 66.367188 78.539062 L 66.660156 77.925781 L 66.964844 78.042969 L 67.140625 78.375 L 67.269531 77.867188 L 67.683594 77.597656 L 68.308594 77.632812 L 68.71875 78.617188 L 69.417969 79.070312 L 69.164062 79.570312 L 68.695312 79.832031 L 69.023438 80.363281 L 70.066406 81.007812 L 70.996094 80.679688 L 71.25 80.949219 L 71.28125 80.757812 L 71.449219 80.816406 L 71.800781 80.515625 L 72.210938 80.6875 L 72.632812 81.207031 L 72.769531 82.332031 L 73.191406 82.53125 L 73.140625 83.023438 L 73.402344 83.238281 L 73.214844 83.40625 L 73.597656 83.609375 L 73.421875 83.726562 L 73.894531 83.671875 L 74.207031 83.988281 L 74.710938 83.582031 L 75.082031 83.621094 L 75.019531 84.089844 L 75.203125 84.261719 L 75.035156 84.320312 L 75.03125 84.839844 L 75.609375 85.042969 L 75.363281 85.398438 L 76.28125 85.269531 L 76.269531 85.691406 L 76.488281 85.945312 L 77.582031 85.097656 L 77.640625 84.117188 L 77.9375 84.097656 L 78.164062 84.566406 L 78.46875 84.554688 L 79.222656 84.058594 L 78.878906 83.542969 L 79.652344 83.320312 L 79.695312 82.984375 L 80.210938 83.011719 L 80.679688 82.601562 L 81.207031 82.429688 L 81.050781 81.789062 L 81.195312 81.492188 L 81.707031 81.742188 L 81.90625 81.5 L 82.726562 81.507812 L 82.90625 81.121094 L 83.425781 81.394531 L 84.132812 80.960938 L 84.148438 80.765625 L 84.554688 80.925781 L 84.890625 80.601562 L 85.082031 79.480469 L 85.910156 79.679688 L 86.046875 79.382812 L 86.320312 79.359375 L 87.25 80.15625 L 87.113281 80.582031 L 87.402344 80.925781 L 87.90625 81.085938 L 87.714844 81.953125 L 87.375 82.246094 L 86.804688 82.167969 L 86.425781 82.359375 L 86.277344 82.117188 L 85.9375 82.113281 L 85.78125 82.296875 L 85.089844 82.039062 L 84.898438 82.734375 L 84.636719 82.878906 L 84.890625 83.347656 L 84.914062 83.945312 L 84.113281 84.558594 L 85.117188 85.5 L 84.589844 86.089844 L 85.535156 86.714844 L 85.699219 87.542969 L 86.351562 88.183594 L 86.960938 88.394531 L 87.039062 88.804688 L 87.527344 89.113281 L 87.066406 89.195312 L 87.195312 89.371094 L 86.820312 89.445312 L 86.550781 90.007812 L 86.125 89.851562 L 85.8125 90.046875 L 84.15625 89.15625 L 83.71875 89.1875 L 83.707031 89.792969 L 83.179688 90.242188 L 82.984375 90.152344 L 82.949219 91.390625 L 83.300781 91.960938 L 83.90625 92.121094 L 83.910156 91.808594 L 84.421875 91.988281 L 86.355469 93.121094 L 86.578125 93.027344 L 87.078125 93.605469 L 87.335938 93.554688 L 87.589844 93.910156 L 87.265625 94.488281 L 87.515625 95.40625 L 87.871094 95.0625 L 88.308594 95.238281 L 88.679688 95.597656 L 89.144531 95.707031 L 89.332031 96.164062 L 89.707031 96.398438 L 90.730469 96.054688 L 91 95.527344 L 91.445312 95.652344 L 91.714844 95.949219 L 92.050781 95.765625 L 92.492188 96.601562 L 92.828125 96.703125 L 93.085938 96.535156 L 93.691406 96.894531 L 94.1875 96.84375 L 94.820312 97.667969 L 95.320312 98.105469 L 95.675781 99.007812 L 95.699219 99.355469 L 95.527344 99.515625 L 95.875 99.898438 L 95.816406 100.136719 L 95.605469 100.183594 L 95.910156 100.449219 Z M 75.570312 93.921875 L 75.558594 93.902344 L 75.5625 93.855469 L 75.535156 93.828125 L 75.511719 93.835938 L 75.46875 93.847656 L 75.425781 93.910156 L 75.417969 93.925781 L 75.4375 93.945312 L 75.453125 93.941406 L 75.519531 93.957031 L 75.570312 93.9375 Z M 75.570312 93.921875 "/>
<path style=" stroke:none;fill-rule:nonzero;fill-opacity:1;" d="M 41.859375 56.140625 L 41.757812 56.390625 L 41.601562 56.140625 Z M 14.132812 55.847656 L 14.332031 55.914062 L 14.722656 55.492188 L 14.394531 55.5 L 14.164062 55.136719 L 14.28125 54.746094 L 14.769531 54.476562 L 17.042969 55.203125 L 17.457031 54.984375 L 17.953125 55.15625 L 18.0625 54.972656 L 17.921875 54.753906 L 17.589844 54.601562 L 18.054688 54.21875 L 18.441406 54.472656 L 18.800781 54.351562 L 19.097656 53.960938 L 19.085938 53.472656 L 18.71875 53.148438 L 18.902344 52.722656 L 18.683594 52.445312 L 19 52.132812 L 18.679688 51.804688 L 18.679688 51.550781 L 18.789062 51.414062 L 19.15625 51.578125 L 19.230469 51.03125 L 19.558594 51.070312 L 19.804688 50.664062 L 19.746094 50.164062 L 20.550781 49.71875 L 20.738281 49.234375 L 20.394531 48.40625 L 20.742188 48.292969 L 20.730469 47.8125 L 21.125 47.5 L 21.371094 47.886719 L 21.835938 47.933594 L 22.617188 48.59375 L 22.945312 48.414062 L 23.085938 47.859375 L 23.292969 47.761719 L 23.664062 48.027344 L 23.949219 47.597656 L 24.039062 47.8125 L 24.847656 47.785156 L 25.097656 47.972656 L 25.792969 47.207031 L 25.59375 46.980469 L 25.902344 46.492188 L 26.800781 46.542969 L 27.210938 46.601562 L 27.660156 47.34375 L 27.585938 47.570312 L 27.804688 47.5625 L 27.898438 48.117188 L 28.21875 48 L 28.128906 47.625 L 28.566406 47.257812 L 28.5625 46.886719 L 29.140625 46.816406 L 29.359375 47.113281 L 29.722656 46.917969 L 29.648438 45.980469 L 29.285156 45.585938 L 29.679688 45.269531 L 29.839844 44.851562 L 30.246094 44.789062 L 30.429688 45.046875 L 31.003906 44.984375 L 31.410156 45.847656 L 31.773438 45.777344 L 32.140625 45.988281 L 32.128906 46.363281 L 32.539062 46.667969 L 33.429688 46.300781 L 33.414062 45.933594 L 33.984375 45.820312 L 34.136719 45.980469 L 34.050781 46.191406 L 34.578125 46.28125 L 34.691406 46.015625 L 35.484375 46.660156 L 36.101562 46.207031 L 36.300781 46.644531 L 37.117188 46.921875 L 37.332031 47.449219 L 37.210938 48.3125 L 36.878906 48.367188 L 36.492188 49.503906 L 36.90625 49.40625 L 36.972656 49.699219 L 37.210938 49.414062 L 37.910156 49.347656 L 38 49.105469 L 38.359375 49.324219 L 38.625 49.160156 L 39.304688 49.664062 L 39.664062 50.5 L 39.996094 50.453125 L 40.253906 51.101562 L 41.269531 51.890625 L 41.921875 52.160156 L 41.945312 52.808594 L 42.152344 52.984375 L 42.042969 53.671875 L 42.566406 53.230469 L 42.9375 53.488281 L 42.75 53.503906 L 42.4375 54.003906 L 43.429688 53.96875 L 43.480469 54.566406 L 43.714844 54.914062 L 43.59375 55.226562 L 44.042969 54.847656 L 44.640625 55.21875 L 44.570312 55.566406 L 44.011719 56.210938 L 43.613281 56.140625 L 43.3125 56.359375 L 42.566406 55.804688 L 42.578125 55.574219 L 42.238281 55.570312 L 41.738281 55.066406 L 41.410156 55.265625 L 41.738281 55.675781 L 41.679688 55.824219 L 41.867188 55.789062 L 41.601562 56.144531 L 40.402344 55.359375 L 39.921875 54.738281 L 39.304688 54.417969 L 39.023438 54.625 L 38.683594 53.976562 L 38.167969 53.75 L 37.9375 53.324219 L 37.402344 53.121094 L 37.167969 52.765625 L 36.570312 52.742188 L 36.21875 52.378906 L 36.050781 52.496094 L 35.640625 51.792969 L 33.867188 50.792969 L 33.59375 51.058594 L 33.621094 51.664062 L 32.703125 51.238281 L 32.835938 50.789062 L 32.660156 50.546875 L 29.96875 49.867188 L 29.804688 49.597656 L 29.652344 49.710938 L 29.757812 49.878906 L 28.609375 49.570312 L 28.90625 49.515625 L 28.675781 49.421875 L 28.074219 49.394531 L 28.140625 49.527344 L 27.621094 49.40625 L 27.097656 49.605469 L 26.710938 49.976562 L 26.25 50.066406 L 25.878906 50.453125 L 24.378906 51.214844 L 24.1875 51.46875 L 24.363281 51.433594 L 23.605469 52.128906 L 23.796875 52.382812 L 23.3125 53.027344 L 23.40625 53.542969 L 21.386719 54.550781 L 20.886719 55.421875 L 20.816406 56.265625 L 20.023438 57.15625 L 19.96875 57.511719 L 20.15625 57.855469 L 19.074219 58.582031 L 18.84375 59.003906 L 18.261719 59.128906 L 17.199219 59.824219 L 16.078125 60.050781 L 15.714844 60.355469 L 15.328125 60.238281 L 14.484375 60.734375 L 14.027344 60.660156 L 13.644531 61.058594 L 12.457031 60.789062 L 12.144531 61.042969 L 11.886719 60.988281 L 11.34375 59.683594 L 11.367188 59.296875 L 11.558594 59.058594 L 12.175781 58.871094 L 12.273438 58.070312 L 13.375 57.492188 L 13.574219 57.050781 L 13.511719 56.515625 L 14.058594 56.28125 Z M 14.132812 55.847656 "/>
<path style=" stroke:none;fill-rule:nonzero;fill-opacity:1;" d="M 46.984375 8.992188 L 47.113281 9.136719 L 46.882812 9.5 L 46.949219 9.785156 L 47.472656 9.878906 L 47.59375 10.269531 L 48.160156 10.417969 L 48.324219 10.164062 L 48.890625 10.386719 L 49.167969 10.265625 L 49.648438 10.636719 L 49.9375 11.320312 L 50.890625 11.394531 L 51.558594 11.839844 L 51.816406 12.183594 L 51.757812 12.738281 L 51.972656 13.085938 L 51.59375 13.480469 L 51.097656 13.507812 L 50.445312 14.152344 L 51.113281 14.472656 L 51.265625 14.980469 L 51.039062 15.300781 L 51.246094 15.421875 L 51.375 15.960938 L 50.800781 17.007812 L 51.070312 17.410156 L 50.832031 18.527344 L 49.992188 19.554688 L 50.082031 20.03125 L 49.78125 20.269531 L 49.636719 20.730469 L 49.652344 20.984375 L 50.089844 21.0625 L 50.050781 21.578125 L 50.378906 22.078125 L 50.148438 22.609375 L 50.28125 23.695312 L 50.847656 23.933594 L 50.667969 24.28125 L 50.773438 24.5 L 51.109375 24.53125 L 51.648438 24.195312 L 52.148438 24.179688 L 52.265625 23.636719 L 53.277344 23.433594 L 53.601562 23.679688 L 53.699219 23.464844 L 54.699219 23.65625 L 51.902344 27.820312 L 52.1875 30.78125 L 52.085938 31.28125 L 52.296875 31.328125 L 52.472656 31.121094 L 53.09375 31.40625 L 52.851562 32.054688 L 53.09375 32.246094 L 52.765625 32.492188 L 53.019531 32.867188 L 52.847656 33.347656 L 53.222656 33.449219 L 53.351562 33.699219 L 53.960938 33.191406 L 54.457031 33.679688 L 54.738281 34.273438 L 55.40625 34.421875 L 55.433594 34.59375 L 55.894531 34.714844 L 55.871094 35.042969 L 56.59375 35.371094 L 56.796875 35.675781 L 56.699219 36.109375 L 57.105469 36.027344 L 57.324219 36.167969 L 57.082031 36.640625 L 57.667969 37.132812 L 57.972656 37.1875 L 58.03125 36.867188 L 58.375 37.050781 L 58.609375 36.628906 L 59.367188 36.910156 L 59.046875 37.167969 L 59.152344 37.421875 L 59.003906 37.832031 L 59.792969 38.125 L 60.152344 37.910156 L 60.15625 38.53125 L 62.171875 39.609375 L 62.230469 39.867188 L 60.65625 39.636719 L 60.234375 40.039062 L 59.859375 39.773438 L 59.769531 39.941406 L 58.789062 40.019531 L 58.648438 40.183594 L 58.339844 39.792969 L 57.671875 39.632812 L 57.4375 39.832031 L 56.648438 39.765625 L 56.0625 40.066406 L 56.003906 40.359375 L 55.664062 40.304688 L 55.296875 40.53125 L 55.347656 40.382812 L 55.007812 40.425781 L 54.988281 40.238281 L 54.765625 40.277344 L 54.578125 40.078125 L 53.464844 39.898438 L 53.21875 39.113281 L 52.765625 39.632812 L 52.648438 39.226562 L 51.929688 40.265625 L 51.566406 40.476562 L 50.570312 40.519531 L 49.417969 39.957031 L 49.046875 39.222656 L 48.425781 39.558594 L 47.710938 38.984375 L 47.308594 38.976562 L 46.550781 38.378906 L 45.992188 38.394531 L 45.855469 38.164062 L 45.015625 38.558594 L 44.816406 38.121094 L 44.441406 38.210938 L 44.421875 37.902344 L 44.039062 37.589844 L 44.148438 37.214844 L 43.675781 36.597656 L 43.449219 36.574219 L 42.722656 37.136719 L 42.820312 36.582031 L 42.636719 36.429688 L 42.179688 36.796875 L 42.464844 37.199219 L 42.417969 37.492188 L 42.195312 37.589844 L 41.941406 37.214844 L 41.6875 37.207031 L 41.453125 38.019531 L 41.359375 37.546875 L 40.894531 37.308594 L 40.6875 36.921875 L 40.464844 36.988281 L 40.65625 37.265625 L 40.53125 37.519531 L 40.121094 37.875 L 39.066406 37.425781 L 39.101562 36.792969 L 38.871094 36.480469 L 38.707031 36.960938 L 38.382812 37.097656 L 37.980469 36.558594 L 37.796875 36.585938 L 37.953125 37.277344 L 37.667969 37.535156 L 37.273438 37.066406 L 36.558594 37.25 L 36.476562 37.453125 L 36.167969 37.40625 L 36.195312 37.578125 L 35.679688 38.039062 L 35.710938 38.589844 L 35.300781 39.03125 L 34.953125 40.054688 L 34.535156 40.160156 L 34.683594 40.417969 L 34.371094 40.828125 L 34.8125 41.234375 L 34.996094 41.136719 L 35.242188 41.34375 L 35.511719 42.160156 L 34.539062 43.140625 L 34.613281 43.417969 L 35.054688 43.652344 L 35.09375 43.960938 L 34.867188 44.222656 L 35.046875 44.574219 L 34.230469 44.792969 L 33.898438 44.160156 L 33.980469 44.667969 L 33.539062 44.695312 L 33.445312 43.976562 L 33.605469 43.472656 L 33.03125 43.050781 L 32.914062 42.308594 L 32.226562 42.5 L 32.113281 42.304688 L 31.746094 42.273438 L 31.773438 42.035156 L 31.480469 41.742188 L 31.71875 41.484375 L 31.535156 40.984375 L 31.277344 41.015625 L 30.851562 40.640625 L 30.460938 39.996094 L 30.523438 39.5625 L 30.339844 39.234375 L 30.21875 39.125 L 29.886719 39.28125 L 29.558594 38.839844 L 29.488281 38.03125 L 28.753906 38.089844 L 28.34375 38.496094 L 27.929688 38.542969 L 27.867188 38.800781 L 27.542969 38.757812 L 27.5 38.507812 L 27.21875 38.546875 L 27.121094 38.253906 L 27.003906 38.699219 L 26.164062 38.214844 L 26.089844 37.328125 L 25.734375 37 L 25.820312 36.671875 L 25.539062 36.59375 L 25.390625 36.21875 L 25.027344 36.109375 L 24.890625 35.863281 L 25.34375 35.214844 L 24.792969 35.457031 L 24.667969 35.355469 L 24.96875 35.25 L 24.652344 34.953125 L 24.890625 34.738281 L 24.746094 34.636719 L 25.0625 34.59375 L 24.65625 34.460938 L 24.652344 34.339844 L 24.898438 34.371094 L 24.820312 33.925781 L 24.3125 33.664062 L 24.496094 33.285156 L 24.835938 33.171875 L 24.683594 32.71875 L 25.0625 32.371094 L 25.363281 32.625 L 26.0625 32.59375 L 26.0625 32.824219 L 26.347656 33.011719 L 26.472656 33.65625 L 26.84375 33.625 L 27.121094 33.476562 L 27.261719 32.949219 L 27.738281 32.644531 L 27.191406 32.0625 L 27.570312 32.132812 L 27.867188 31.929688 L 28.261719 32.039062 L 28.800781 31.769531 L 28.566406 31.0625 L 28.339844 31.078125 L 28.050781 30.097656 L 27.164062 29.640625 L 26.839844 28.398438 L 26.949219 27.96875 L 26.460938 27.554688 L 26.382812 27.234375 L 26.765625 27.3125 L 26.5625 26.851562 L 26.65625 26.597656 L 26.140625 26.496094 L 26.28125 25.824219 L 25.511719 25.597656 L 25 24.632812 L 25.015625 24.257812 L 25.542969 23.664062 L 25.21875 22.417969 L 27.25 20.207031 L 26.996094 19.058594 L 27.15625 18.652344 L 27.460938 18.316406 L 27.675781 18.671875 L 27.992188 18.835938 L 28.300781 18.703125 L 28.898438 19.191406 L 28.902344 19.46875 L 28.640625 19.628906 L 28.011719 20.75 L 28.605469 20.757812 L 29.097656 21.269531 L 29.453125 21.355469 L 29.464844 21.777344 L 30.089844 23.007812 L 29.644531 23.671875 L 30.230469 23.453125 L 30.761719 23.648438 L 30.675781 23.902344 L 31.265625 23.921875 L 31.453125 23 L 31.964844 22.453125 L 31.78125 22.425781 L 31.574219 22.023438 L 31.050781 21.886719 L 30.988281 21.316406 L 30.679688 21.140625 L 31.15625 20.703125 L 30.871094 19.878906 L 31.007812 19.617188 L 31.773438 19.34375 L 31.921875 18.929688 L 31.722656 18.320312 L 32.335938 18.019531 L 32.875 17.40625 L 33.144531 17.386719 L 33.65625 16.203125 L 34.023438 16.167969 L 34.066406 15.5625 L 34.65625 14.460938 L 34.628906 13.945312 L 34.355469 13.640625 L 34.425781 12.824219 L 34.007812 12.300781 L 34.34375 12.011719 L 34.390625 11.285156 L 35.5 11.035156 L 35.65625 11.484375 L 36.132812 11.816406 L 36.449219 11.210938 L 36.816406 11.03125 L 36.753906 11.398438 L 36.582031 11.464844 L 36.828125 11.613281 L 36.796875 13.542969 L 37.277344 13.703125 L 37.527344 14.460938 L 37.910156 14.921875 L 38.027344 14.824219 L 39.003906 15.21875 L 39.546875 14.914062 L 40 15.105469 L 40.355469 14.023438 L 40.886719 14.304688 L 42.558594 13.449219 L 42.800781 13.726562 L 43.152344 13.476562 L 43.722656 13.992188 L 43.527344 14.535156 L 43.792969 14.703125 L 43.761719 15.257812 L 44.5 15.632812 L 44.363281 16.277344 L 44.671875 16.492188 L 44.949219 16.296875 L 45.363281 16.371094 L 46.058594 15.777344 L 45.785156 15.113281 L 45.136719 14.359375 L 45.171875 13.984375 L 45.441406 13.808594 L 45.574219 13.363281 L 45.875 13.300781 L 45.925781 12.917969 L 45.699219 12.867188 L 45.609375 12.554688 L 44.820312 12.695312 L 44.292969 12.257812 L 44.46875 11.875 L 44.324219 11.613281 L 44.476562 10.851562 L 44.347656 10.476562 L 45.078125 9.691406 L 45.101562 9.144531 L 45.457031 9.242188 L 46.222656 8.851562 L 46.554688 9.011719 L 46.863281 8.699219 Z M 46.984375 8.992188 "/>
<path style=" stroke:none;fill-rule:nonzero;fill-opacity:1;" d="M 90.6875 65.042969 L 89.988281 64.636719 L 89.691406 64.054688 L 89.167969 63.617188 L 88.953125 64 L 88.433594 63.9375 L 86.523438 62.875 L 81.351562 58.34375 L 79.964844 57.613281 L 79.351562 57.550781 L 79.058594 58.332031 L 79.117188 59.371094 L 78.480469 59.621094 L 78.34375 60.152344 L 77.605469 60.0625 L 77.652344 59.796875 L 77.453125 59.71875 L 77.277344 59.085938 L 76.589844 59.371094 L 76.589844 58.832031 L 76.019531 58.5 L 75.917969 58.839844 L 74.953125 58.730469 L 74.941406 58.707031 L 75.246094 59.265625 L 74.839844 59.265625 L 74.753906 59.058594 L 74.25 59.257812 L 73.996094 60.132812 L 73.339844 60.660156 L 73.289062 61.207031 L 73.320312 61.230469 L 73.863281 61.449219 L 74.441406 62.222656 L 73.914062 62.230469 L 73.988281 62.78125 L 73.757812 62.765625 L 73.601562 61.824219 L 73.492188 62.613281 L 73.179688 62.78125 L 72.8125 62.707031 L 72.863281 62.914062 L 72.625 63.179688 L 72.042969 63.386719 L 72.40625 63.949219 L 72.585938 64.246094 L 73.367188 64.234375 L 73.457031 64.375 L 73.980469 63.953125 L 74.457031 63.921875 L 74.328125 64.117188 L 74.449219 64.480469 L 73.710938 65.164062 L 74.054688 65.519531 L 74.414062 65.335938 L 74.734375 65.773438 L 75.09375 65.246094 L 75.34375 65.277344 L 75.554688 65.636719 L 75.785156 65.648438 L 75.859375 65.433594 L 76.089844 65.539062 L 77.695312 67.378906 L 78.230469 67.050781 L 78.796875 67.257812 L 79.128906 66.582031 L 79.652344 66.722656 L 79.558594 67.226562 L 79.789062 67.441406 L 79.332031 67.867188 L 79.34375 68.078125 L 79.917969 68.824219 L 80.015625 69.558594 L 79.859375 69.734375 L 80.332031 70.074219 L 80.5 70.9375 L 80.851562 71.109375 L 80.816406 71.839844 L 80.410156 72.230469 L 80.578125 72.621094 L 81.101562 72.726562 L 81.242188 73.15625 L 81.183594 73.855469 L 81.371094 74.386719 L 81.152344 74.554688 L 81.390625 75.046875 L 81.25 75.421875 L 81.929688 75.828125 L 81.980469 76.046875 L 82.257812 76.082031 L 82.289062 77.101562 L 82.59375 76.757812 L 82.597656 76.324219 L 82.929688 76.519531 L 83.28125 76.167969 L 84.042969 76.75 L 84.671875 77.742188 L 85.347656 77.589844 L 85.660156 77.128906 L 86.019531 78.042969 L 85.953125 78.503906 L 85.722656 78.980469 L 85.625 78.785156 L 85.140625 78.984375 L 85.078125 79.488281 L 85.90625 79.6875 L 86.042969 79.390625 L 86.316406 79.367188 L 87.246094 80.164062 L 87.667969 80.289062 L 88.144531 79.953125 L 88.285156 80.066406 L 88.4375 79.46875 L 89.035156 79.371094 L 89.109375 78.742188 L 89.445312 78.367188 L 89.507812 78.003906 L 90.035156 78.289062 L 90.628906 78.011719 L 90.800781 78.25 L 91.140625 78.207031 L 91.648438 77.96875 L 91.765625 77.414062 L 91.933594 77.316406 L 92.636719 77.269531 L 93.171875 76.914062 L 94.433594 76.644531 L 93.875 74.953125 L 93.488281 72.902344 L 90.644531 65.863281 Z M 75.242188 64.226562 L 75.054688 64.160156 L 75.007812 64.144531 L 75.089844 63.96875 L 75.234375 64.054688 L 75.257812 64.1875 Z M 75.242188 64.226562 "/>
<path style=" stroke:none;fill-rule:nonzero;fill-opacity:1;" d="M 105.796875 91.128906 L 107.171875 91.859375 L 108.429688 92.09375 L 109.433594 93.1875 L 110.230469 93.5 L 110.285156 94.324219 L 109.746094 95.097656 L 109.953125 95.835938 L 109.710938 96.238281 L 109.964844 96.542969 L 109.773438 96.675781 L 110.027344 97.050781 L 110.496094 97.265625 L 109.980469 97.523438 L 109.808594 97.902344 L 109.613281 97.707031 L 109.605469 97.914062 L 109.078125 98.144531 L 108.746094 98.753906 L 107.925781 98.375 L 107.609375 98.757812 L 107.839844 98.960938 L 107.660156 100.367188 L 108.054688 100.539062 L 108.558594 101.117188 L 107.804688 101.648438 L 107.136719 101.699219 L 106.738281 102.105469 L 105.726562 101.671875 L 105.289062 102.402344 L 104.816406 102.550781 L 104.578125 102.363281 L 104.082031 102.421875 L 104.089844 102.660156 L 103.828125 102.675781 L 103.273438 103.167969 L 102.964844 102.722656 L 102.121094 102.855469 L 101.820312 102.625 L 101.726562 102.222656 L 99.703125 101.632812 L 99.191406 101.359375 L 99.125 101.105469 L 98.675781 101.101562 L 98.625 100.890625 L 97.753906 100.871094 L 97.65625 101.222656 L 97.078125 100.738281 L 96.523438 101.753906 L 96.871094 102.175781 L 96.9375 102.785156 L 96.609375 102.570312 L 96.066406 102.691406 L 95.546875 102.074219 L 95.617188 101.691406 L 95.234375 101.496094 L 95.425781 101.171875 L 95.171875 100.957031 L 95.894531 100.4375 L 95.585938 100.167969 L 95.800781 100.125 L 95.855469 99.882812 L 95.507812 99.503906 L 95.679688 99.34375 L 95.652344 99 L 95.300781 98.09375 L 94.796875 97.660156 L 95.328125 97.527344 L 95.800781 97.777344 L 95.871094 97.40625 L 96.207031 97.394531 L 96.425781 96.789062 L 96.71875 96.765625 L 96.917969 97.289062 L 97.078125 96.625 L 97.582031 96.609375 L 97.75 96.296875 L 97.8125 96.550781 L 98.027344 96.585938 L 98.132812 96.324219 L 97.75 96.101562 L 97.433594 95.207031 L 97.539062 94.980469 L 98.101562 94.941406 L 98.460938 94.382812 L 99.195312 93.78125 L 99.433594 94.097656 L 99.746094 94.066406 L 99.992188 94.617188 L 100.136719 94.671875 L 100.402344 94.339844 L 101.019531 94.75 L 101.296875 95.019531 L 101.566406 96.101562 L 101.367188 96.261719 L 101.882812 96.355469 L 103.085938 95.0625 L 103.519531 94.121094 L 104.113281 93.703125 L 104.320312 92.921875 L 104.902344 92.203125 L 105.617188 91.710938 L 105.390625 91.5 L 105.683594 91.03125 Z M 105.796875 91.128906 "/>
<path style=" stroke:none;fill-rule:nonzero;fill-opacity:1;" d="M 23.542969 11.890625 L 23.933594 12.285156 L 23.777344 12.667969 L 23.964844 13.164062 L 23.871094 14.359375 L 23.378906 15.003906 L 23.757812 15.632812 L 23.59375 15.929688 L 23.949219 16.25 L 24.722656 16.503906 L 25.277344 17.507812 L 25.648438 17.667969 L 25.570312 17.933594 L 25.761719 18.28125 L 26.21875 18.265625 L 26.730469 18.660156 L 27.144531 18.625 L 26.984375 19.03125 L 27.242188 20.179688 L 25.207031 22.386719 L 25.53125 23.640625 L 25.007812 24.230469 L 24.992188 24.609375 L 25.5 25.574219 L 26.269531 25.804688 L 26.132812 26.472656 L 26.644531 26.574219 L 26.550781 26.824219 L 26.753906 27.292969 L 26.371094 27.210938 L 26.449219 27.53125 L 26.9375 27.941406 L 26.828125 28.375 L 27.152344 29.613281 L 28.039062 30.070312 L 28.328125 31.054688 L 28.554688 31.039062 L 28.789062 31.742188 L 28.25 32.015625 L 27.851562 31.90625 L 27.554688 32.109375 L 27.175781 32.035156 L 27.722656 32.621094 L 27.246094 32.921875 L 27.105469 33.453125 L 26.828125 33.601562 L 26.457031 33.628906 L 26.335938 32.984375 L 26.046875 32.800781 L 26.050781 32.570312 L 25.347656 32.597656 L 25.050781 32.34375 L 24.671875 32.695312 L 24.824219 33.144531 L 24.480469 33.261719 L 24.300781 33.636719 L 24.808594 33.898438 L 24.886719 34.34375 L 24.636719 34.3125 L 24.640625 34.433594 L 25.050781 34.566406 L 24.734375 34.609375 L 24.878906 34.714844 L 24.636719 34.929688 L 24.953125 35.222656 L 24.652344 35.332031 L 24.777344 35.429688 L 25.328125 35.1875 L 24.875 35.835938 L 25.015625 36.082031 L 25.375 36.195312 L 25.523438 36.570312 L 25.804688 36.648438 L 25.714844 36.976562 L 26.078125 37.300781 L 26.148438 38.191406 L 26.984375 38.671875 L 27.101562 38.230469 L 27.203125 38.523438 L 27.484375 38.480469 L 27.53125 38.738281 L 27.855469 38.777344 L 27.917969 38.519531 L 28.332031 38.472656 L 28.738281 38.066406 L 29.476562 38.007812 L 29.546875 38.816406 L 29.875 39.257812 L 30.207031 39.101562 L 30.324219 39.214844 L 30.507812 39.539062 L 30.445312 39.976562 L 30.839844 40.617188 L 31.261719 40.992188 L 31.519531 40.964844 L 31.703125 41.464844 L 31.464844 41.71875 L 31.757812 42.015625 L 31.726562 42.253906 L 32.09375 42.285156 L 32.207031 42.480469 L 32.894531 42.292969 L 33.011719 43.03125 L 33.585938 43.457031 L 33.429688 43.960938 L 33.523438 44.679688 L 33.394531 44.628906 L 33.402344 45.910156 L 33.417969 46.277344 L 32.53125 46.648438 L 32.121094 46.34375 L 32.132812 45.96875 L 31.765625 45.753906 L 31.402344 45.828125 L 30.996094 44.964844 L 30.421875 45.027344 L 30.238281 44.769531 L 29.832031 44.828125 L 29.675781 45.25 L 29.277344 45.566406 L 29.640625 45.960938 L 29.71875 46.898438 L 29.351562 47.09375 L 29.132812 46.792969 L 28.558594 46.871094 L 28.566406 47.242188 L 28.125 47.609375 L 28.21875 47.984375 L 27.898438 48.101562 L 27.796875 47.546875 L 27.582031 47.554688 L 27.65625 47.328125 L 27.203125 46.585938 L 26.796875 46.527344 L 25.898438 46.472656 L 25.589844 46.960938 L 25.789062 47.191406 L 25.097656 47.957031 L 24.84375 47.769531 L 24.035156 47.796875 L 23.949219 47.582031 L 23.660156 48.011719 L 23.289062 47.75 L 23.085938 47.847656 L 22.945312 48.402344 L 22.617188 48.582031 L 21.835938 47.921875 L 21.371094 47.875 L 21.125 47.492188 L 20.730469 47.804688 L 20.742188 48.28125 L 20.394531 48.394531 L 20.738281 49.222656 L 20.550781 49.707031 L 19.746094 50.152344 L 19.804688 50.65625 L 19.558594 51.0625 L 19.230469 51.023438 L 19.15625 51.570312 L 18.789062 51.40625 L 18.683594 51.542969 L 18.683594 51.796875 L 19.003906 52.125 L 18.6875 52.4375 L 18.902344 52.714844 L 18.71875 53.144531 L 19.085938 53.464844 L 19.097656 53.953125 L 18.800781 54.34375 L 18.441406 54.46875 L 18.054688 54.210938 L 17.589844 54.59375 L 17.921875 54.75 L 18.0625 54.96875 L 17.953125 55.152344 L 17.457031 54.980469 L 17.046875 55.199219 L 14.773438 54.472656 L 14.285156 54.746094 L 14.164062 55.136719 L 14.394531 55.5 L 14.726562 55.492188 L 14.335938 55.914062 L 14.132812 55.847656 L 14.148438 55.46875 L 13.53125 54.640625 L 13.757812 53.855469 L 13.132812 53.832031 L 12.910156 54.3125 L 12.179688 54.191406 L 10.871094 54.742188 L 10.480469 54.65625 L 10.398438 54.984375 L 9.984375 54.75 L 9.523438 54.921875 L 9.339844 54.375 L 8.519531 54.46875 L 8.058594 53.910156 L 7.722656 53.96875 L 7.332031 53.382812 L 7 53.269531 L 6.757812 53.402344 L 5.992188 52.882812 L 5.3125 52.980469 L 4.996094 52.765625 L 4.839844 51.964844 L 4.347656 51.679688 L 4.394531 51.421875 L 3.96875 51.03125 L 3.910156 50.695312 L 3.449219 50.484375 L 3.523438 49.417969 L 4.242188 49.277344 L 3.332031 48.359375 L 3.050781 47.445312 L 3.335938 47.015625 L 3.738281 46.972656 L 4.035156 46.679688 L 4.257812 45.878906 L 4.492188 45.859375 L 4.246094 45.253906 L 4.425781 44.816406 L 4.75 44.570312 L 5.90625 44.644531 L 5.785156 44.167969 L 5.320312 43.894531 L 5.179688 43.082031 L 4.914062 42.789062 L 5.207031 42.167969 L 4.988281 41.878906 L 4.085938 41.464844 L 3.757812 41.789062 L 3.152344 41.675781 L 2.375 41.148438 L 2.332031 40.921875 L 1.695312 40.671875 L 1.746094 40.148438 L 1.597656 40.0625 L 1.871094 39.671875 L 1.515625 39.121094 L 1.691406 38.984375 L 1.605469 38.691406 L 0.6875 38.585938 L 0.53125 37.640625 L 0.300781 37.578125 L 0.078125 37.023438 L 0.679688 36.652344 L 0.78125 36.378906 L 1.582031 36.425781 L 1.910156 36.03125 L 2.941406 36.460938 L 2.964844 36.625 L 3.535156 36.449219 L 3.535156 35.867188 L 4.214844 35.84375 L 4.320312 35.464844 L 4.929688 34.929688 L 5.257812 34.980469 L 5.566406 34.792969 L 5.8125 35.078125 L 6.351562 34.417969 L 6.535156 34.445312 L 6.671875 33.78125 L 6.347656 32.953125 L 6.597656 32.90625 L 6.699219 32.519531 L 7.035156 32.34375 L 7.035156 31.976562 L 7.347656 31.519531 L 6.40625 31.015625 L 6.25 30.394531 L 6.695312 29.5 L 6.785156 30.21875 L 7.011719 30.046875 L 7.789062 30.316406 L 8.390625 29.554688 L 9.097656 29.539062 L 9.574219 29.3125 L 9.816406 29.484375 L 10.710938 28.765625 L 10.945312 28.371094 L 11.253906 28.273438 L 11.722656 28.390625 L 12.246094 28.105469 L 12.753906 28.421875 L 12.785156 28.640625 L 13.144531 28.472656 L 13.640625 28.800781 L 14.226562 28.707031 L 14.398438 28.859375 L 15.632812 27.984375 L 16.296875 27.933594 L 16.554688 28.097656 L 16.738281 27.332031 L 17.042969 27.269531 L 16.582031 26.332031 L 17 25.617188 L 16.910156 25.3125 L 16.5 25.164062 L 16.070312 24.382812 L 16.246094 23.105469 L 16.070312 22.082031 L 16.25 21.910156 L 16.277344 20.996094 L 16.648438 20.597656 L 17.695312 20.628906 L 17.976562 20.332031 L 18.003906 19.949219 L 18.296875 19.742188 L 18.128906 19.207031 L 18.265625 18.707031 L 19.203125 18.488281 L 19.347656 18.125 L 19.828125 17.875 L 19.796875 17.5 L 19.996094 17.210938 L 19.652344 16.382812 L 19.28125 15.925781 L 18.847656 15.726562 L 19.652344 14.925781 L 20.019531 15.035156 L 20.574219 14.816406 L 20.757812 14.332031 L 21.246094 14.117188 L 21.253906 13.777344 L 21.851562 13.527344 L 21.972656 13.148438 L 21.605469 12.972656 L 21.800781 12.660156 L 22.054688 12.636719 L 22.558594 12.152344 Z M 23.542969 11.890625 "/>
<path style=" stroke:none;fill-rule:nonzero;fill-opacity:1;" d="M 121.621094 93.109375 L 122.589844 93.300781 L 123.832031 94.242188 L 123.660156 94.628906 L 123.980469 95.234375 L 123.960938 95.636719 L 123.863281 96.132812 L 123.519531 96.476562 L 122.324219 97.273438 L 122.25 97.546875 L 120.132812 98.871094 L 120.171875 100.304688 L 120.800781 101.5 L 121.675781 102.132812 L 124.039062 103.226562 L 124.792969 103.816406 L 126.839844 104.585938 L 128.964844 105.867188 L 131.472656 106.664062 L 131.890625 107.027344 L 132.347656 107.039062 L 132.460938 107.226562 L 132.699219 107.125 L 132.761719 107.308594 L 133.820312 107.769531 L 135.546875 108.332031 L 137.980469 109.925781 L 138.898438 111.042969 L 139.402344 111.269531 L 140.554688 112.351562 L 143.535156 113.546875 L 145.101562 114.632812 L 146.515625 114.800781 L 146.800781 115.269531 L 146.675781 115.484375 L 147.582031 115.511719 L 147.5 115.789062 L 147.894531 116.273438 L 147.757812 116.789062 L 148.324219 117.492188 L 148.925781 118.039062 L 150.410156 118.863281 L 152.777344 121.402344 L 153.28125 122.527344 L 153.226562 122.972656 L 153.617188 123.882812 L 153.976562 124.105469 L 153.847656 124.222656 L 153.996094 124.640625 L 153.5625 125.039062 L 153.4375 125.640625 L 152.933594 125.988281 L 152.570312 126.785156 L 152.347656 127.9375 L 152.355469 129.449219 L 152.078125 129.84375 L 151.769531 129.925781 L 150.804688 129.179688 L 149.515625 128.90625 L 147.894531 127.589844 L 147.207031 126.394531 L 147.511719 126.265625 L 147.464844 125.777344 L 146.941406 125.492188 L 147.324219 125.214844 L 147.425781 124.582031 L 146.261719 123.136719 L 146.34375 122.65625 L 146.089844 122.105469 L 145.453125 121.578125 L 143.160156 121.242188 L 140.945312 121.414062 L 140.148438 120.835938 L 139.46875 120.765625 L 137.277344 119.5 L 136.996094 119.503906 L 137.070312 119.277344 L 137.554688 119.0625 L 137.609375 118.691406 L 137.269531 118.277344 L 136.691406 118.304688 L 136.546875 117.898438 L 135.824219 117.625 L 134.859375 117.769531 L 133.976562 118.25 L 133.078125 119.046875 L 132.539062 119.933594 L 132.339844 119.464844 L 131.898438 119.09375 L 131.808594 118.683594 L 131.363281 118.414062 L 130.933594 118.523438 L 130.714844 118.285156 L 130.957031 117.761719 L 130.664062 117.539062 L 130.777344 117.335938 L 130.535156 117.078125 L 130.640625 116.351562 L 130.800781 116.234375 L 130.570312 115.714844 L 130.796875 114.804688 L 130.488281 114.449219 L 130.746094 114.320312 L 130.007812 113.761719 L 129.875 113.949219 L 129.578125 113.773438 L 129.535156 113.523438 L 129.285156 113.683594 L 128.859375 113.5 L 128.828125 113.941406 L 128.617188 113.605469 L 128.371094 113.667969 L 128.386719 114.144531 L 127.875 113.523438 L 126.992188 114.542969 L 126.605469 114.4375 L 126.410156 113.996094 L 124.753906 112.472656 L 124.011719 110.84375 L 123.503906 110.679688 L 122.96875 111.175781 L 122.566406 110.792969 L 121.15625 110.195312 L 121.003906 109.910156 L 121.386719 109.976562 L 121.839844 109.460938 L 121.761719 109.070312 L 121.921875 108.808594 L 121.457031 108.429688 L 121.304688 108.535156 L 121.148438 107.941406 L 120.832031 107.867188 L 120.769531 107.609375 L 120.332031 107.535156 L 119.75 107.117188 L 119.394531 107.332031 L 119.1875 107.257812 L 119.234375 107.449219 L 118.8125 107.558594 L 118.851562 107.796875 L 118.425781 108.03125 L 118.058594 107.761719 L 117.421875 107.988281 L 116.25 107.792969 L 115.761719 107.890625 L 115.417969 108.199219 L 115.503906 108.507812 L 114.59375 108.054688 L 114.199219 108.089844 L 113.667969 107.636719 L 113.238281 107.960938 L 112.523438 107.664062 L 112.246094 107.890625 L 111.738281 107.527344 L 111.554688 107.050781 L 111.15625 106.855469 L 111.363281 106.351562 L 111.875 106.050781 L 111.660156 105.449219 L 112.066406 105.191406 L 111.75 104.832031 L 111.339844 104.914062 L 111.078125 104.539062 L 110.214844 104.574219 L 110.160156 104.027344 L 109.410156 103.761719 L 109.253906 103.101562 L 109.464844 102.804688 L 109.734375 102.757812 L 109.597656 102.457031 L 109.804688 102.261719 L 109.757812 102.058594 L 109.039062 101.855469 L 108.582031 101.140625 L 108.082031 100.558594 L 107.6875 100.390625 L 107.867188 98.984375 L 107.636719 98.78125 L 107.953125 98.394531 L 108.769531 98.773438 L 109.101562 98.167969 L 109.628906 97.9375 L 109.636719 97.726562 L 109.832031 97.921875 L 110.003906 97.542969 L 110.523438 97.285156 L 110.054688 97.074219 L 109.800781 96.695312 L 109.988281 96.566406 L 109.738281 96.257812 L 109.980469 95.855469 L 109.773438 95.117188 L 110.3125 94.34375 L 110.257812 93.519531 L 112.890625 93.683594 L 113.207031 93.941406 L 114.011719 93.96875 L 116.519531 93.503906 L 117.371094 93.742188 L 118.414062 93.691406 Z M 121.621094 93.109375 "/>
<path style=" stroke:none;fill-rule:nonzero;fill-opacity:1;" d="M 22.664062 141.171875 L 22.800781 141.414062 L 23.371094 141.25 L 23.90625 142.148438 L 23.621094 143.566406 L 23.226562 143.789062 L 22.519531 142.441406 L 22.378906 141.722656 Z M 21.859375 140.027344 L 21.824219 141.40625 L 21.417969 141.5 L 21.074219 141.261719 L 21.089844 140.835938 L 20.699219 140.605469 L 21.316406 140.039062 Z M 40.289062 110.816406 L 40.425781 110.945312 L 39.796875 111.34375 L 39.664062 111.242188 L 40.359375 110.667969 Z M 20.816406 109.832031 L 20.675781 109.976562 L 20.660156 109.726562 Z M 22.03125 107.398438 L 22.101562 107.683594 L 22.414062 107.894531 L 22.230469 108.082031 L 22.1875 108.574219 L 21.496094 108.253906 L 20.945312 109.019531 L 21.113281 108.972656 L 21.320312 109.378906 L 21.203125 109.726562 L 20.621094 109.652344 L 20.871094 109.027344 L 20.710938 109.007812 L 20.753906 108.722656 L 21.125 108.566406 L 21.34375 108.164062 L 21.585938 108.136719 L 21.453125 107.644531 Z M 36.9375 105.300781 L 37.15625 105.683594 L 36.839844 106.210938 L 37.058594 106.265625 L 36.476562 106.355469 L 36.753906 105.265625 Z M 35.238281 105.136719 L 35.484375 105.289062 L 35.214844 105.527344 Z M 33.808594 105.019531 L 34.441406 105.542969 L 34.253906 106.015625 L 34.519531 106.296875 L 35.140625 106.253906 L 35.207031 105.929688 L 35.523438 105.894531 L 35.660156 106.351562 L 35.804688 106.390625 L 36.304688 106.394531 L 36.054688 106.714844 L 36.375 106.773438 L 36.601562 107.121094 L 36.558594 107.855469 L 36.933594 107.285156 L 36.863281 106.996094 L 37.492188 107.03125 L 37.570312 106.742188 L 37.804688 107.054688 L 37.660156 107.136719 L 37.910156 107.152344 L 37.839844 107.464844 L 38.175781 107.449219 L 38.242188 107.730469 L 37.988281 108.113281 L 37.851562 107.945312 L 37.753906 108.039062 L 37.824219 108.402344 L 37.617188 108.53125 L 37.421875 109.285156 L 37.617188 109.273438 L 37.660156 108.933594 L 38.105469 108.800781 L 37.96875 109.367188 L 38.304688 109.382812 L 38.292969 109.175781 L 38.410156 109.25 L 38.53125 109.050781 L 39.429688 109.511719 L 39.253906 109.699219 L 38.703125 109.421875 L 38.355469 109.71875 L 38.503906 109.984375 L 38.175781 110.417969 L 38.261719 110.652344 L 37.574219 110.550781 L 37.34375 110.65625 L 37.570312 110.773438 L 38.105469 110.785156 L 38.324219 110.875 L 38.226562 110.980469 L 38.472656 111.265625 L 38.847656 110.75 L 39.164062 110.808594 L 38.789062 111.285156 L 39.355469 111.5625 L 39.222656 111.90625 L 39.644531 111.8125 L 40.175781 112.179688 L 39.988281 112.320312 L 39.738281 112.230469 L 39.632812 112.472656 L 39.777344 112.667969 L 39.554688 112.785156 L 39.519531 113.101562 L 40.117188 113.691406 L 40.074219 114.378906 L 40.582031 115.011719 L 40.425781 115.65625 L 40.585938 116.300781 L 41.050781 116.734375 L 41.125 117.191406 L 41.542969 117.453125 L 40.75 119.765625 L 39.753906 120.613281 L 38.9375 122.011719 L 38.9375 122.875 L 39.28125 123.898438 L 39.792969 124.582031 L 40.3125 124.882812 L 40.308594 125.300781 L 39.710938 126.769531 L 39.75 127.304688 L 40.058594 127.382812 L 40.113281 127.570312 L 39.652344 128.039062 L 39.839844 128.835938 L 39.492188 130.015625 L 39.605469 131.191406 L 39.191406 132.207031 L 39.324219 133.597656 L 39.011719 134.714844 L 39.191406 135.390625 L 38.566406 137.285156 L 38.644531 137.816406 L 39.019531 138.121094 L 38.625 138.253906 L 38.355469 138.664062 L 38.105469 139.832031 L 38.316406 140.15625 L 38.046875 140.90625 L 37.789062 140.90625 L 37.554688 141.191406 L 37.589844 141.519531 L 37.335938 141.308594 L 37.335938 140.945312 L 37.097656 140.851562 L 36.484375 141.058594 L 34.65625 139.554688 L 33.535156 139.320312 L 33 139.644531 L 32.878906 140.074219 L 32.230469 139.554688 L 31.695312 139.792969 L 31.050781 140.589844 L 31.039062 141.636719 L 31.410156 142.152344 L 31.09375 143.347656 L 30.957031 143.207031 L 30.773438 143.300781 L 28.980469 145.101562 L 28.664062 145.089844 L 28.410156 144.757812 L 28.246094 144.972656 L 27.925781 144.460938 L 27.222656 144.058594 L 27.179688 144.320312 L 26.484375 144.492188 L 26.554688 144.753906 L 26.28125 144.894531 L 26.40625 145.226562 L 26.191406 145.300781 L 26.261719 144.792969 L 25.746094 144.824219 L 25.929688 143.988281 L 25.289062 143.40625 L 25.179688 142.332031 L 24.761719 142.089844 L 24.023438 142.074219 L 24.140625 141.609375 L 23.960938 141.21875 L 23.800781 141.066406 L 23.523438 141.214844 L 23.511719 140.480469 L 22.632812 139.542969 L 22.609375 139.292969 L 23.363281 138.585938 L 23.496094 138.238281 L 23.300781 137.554688 L 22.953125 137.433594 L 22.902344 137 L 22.695312 136.828125 L 23.195312 136.039062 L 23.183594 135.742188 L 22.808594 135.496094 L 22.859375 135.242188 L 23.722656 133.972656 L 23.949219 133.042969 L 23.671875 132.503906 L 23.785156 131.992188 L 23.628906 131.707031 L 23.757812 131.304688 L 23.628906 130.464844 L 23.800781 130.253906 L 24.25 131.027344 L 24.449219 131.011719 L 24.535156 130.488281 L 24.941406 129.792969 L 25.042969 128.714844 L 24.660156 128.015625 L 24.050781 127.976562 L 23.570312 128.472656 L 23.015625 127.949219 L 22.953125 126.816406 L 23.214844 126.074219 L 22.753906 125.804688 L 23.082031 125.535156 L 23.207031 125.710938 L 23.75 125.542969 L 24.214844 125.050781 L 24.234375 124.667969 L 23.785156 123.425781 L 24.121094 121.578125 L 23.824219 121.007812 L 23.324219 120.714844 L 22.832031 120.6875 L 22.785156 120.324219 L 23.074219 119.476562 L 22.714844 118.121094 L 22.257812 117.960938 L 21.765625 116.4375 L 21.082031 116.574219 L 21.046875 116.804688 L 20.53125 116.816406 L 20.527344 116.375 L 20.71875 116.242188 L 20.441406 115.953125 L 19.984375 116.671875 L 19.84375 116.628906 L 19.769531 115.875 L 20.289062 115.636719 L 20.558594 114.835938 L 20.167969 114.664062 L 19.621094 114.046875 L 20.0625 113.453125 L 19.992188 112.964844 L 20.335938 112.664062 L 20.800781 111.390625 L 20.195312 110.546875 L 20.546875 109.941406 L 20.980469 110.253906 L 20.917969 110.976562 L 21.960938 112.09375 L 22.730469 112.246094 L 23.308594 112.152344 L 23.796875 112.507812 L 25.171875 112.308594 L 26.894531 110.914062 L 28.160156 110.730469 L 29.203125 109.542969 L 29.175781 109.210938 L 29.953125 108.742188 L 30.992188 107.335938 L 31.410156 107.113281 L 31.574219 107.296875 L 32.226562 107.171875 L 32.378906 106.820312 L 32.804688 106.800781 L 33.011719 106.570312 L 32.820312 106.089844 L 32.988281 105.539062 L 32.664062 105.484375 L 32.699219 105.246094 L 32.964844 105.425781 L 33.328125 105.230469 L 33.34375 105.464844 Z M 36.25 104.851562 L 36.621094 105.449219 L 36.511719 105.738281 L 35.761719 105.855469 L 35.648438 105.535156 L 36.023438 105.253906 L 35.992188 104.976562 L 36.164062 105.164062 Z M 36.25 104.851562 "/>
<path style=" stroke:none;fill-rule:nonzero;fill-opacity:1;" d="M 76.492188 199.257812 L 77.730469 199.386719 L 77.8125 199.808594 L 76.304688 199.402344 Z M 69.066406 178.332031 L 69.65625 178.632812 L 69.808594 178.539062 L 70.316406 178.96875 L 70.34375 179.5625 L 69.988281 179.984375 L 69.515625 179.949219 L 68.675781 178.921875 L 68.699219 178.53125 Z M 75.425781 162.066406 L 75.191406 161.242188 L 75.523438 161.0625 Z M 73.636719 160.261719 L 73.835938 160.636719 L 74.121094 160.535156 L 74.394531 160.730469 L 74.390625 161.023438 L 74.207031 161.066406 L 73.96875 160.808594 L 73.347656 160.878906 L 73.140625 160.527344 Z M 70.476562 159.648438 L 70.8125 160.367188 L 70.183594 160.179688 L 70.007812 159.632812 Z M 115.691406 154.601562 L 116.304688 155.011719 L 116.996094 155.179688 L 116.296875 155.371094 L 115.917969 155.683594 L 115.722656 156.414062 L 115.933594 156.371094 L 114.894531 158.285156 L 112.429688 161.496094 L 112.421875 161.910156 L 112.003906 162.195312 L 112.054688 162.429688 L 111.222656 163.503906 L 111.125 163.785156 L 111.308594 164.21875 L 111.050781 165.121094 L 110.742188 165.515625 L 110.761719 166.402344 L 109.972656 167.148438 L 109.585938 167.871094 L 109.734375 170.542969 L 110.578125 171.066406 L 110.957031 171.164062 L 111.128906 170.992188 L 111.796875 171.808594 L 111.65625 172 L 111.417969 171.832031 L 111.371094 172.253906 L 111.253906 171.785156 L 110.964844 171.882812 L 110.878906 172.695312 L 111.132812 173.285156 L 111.476562 173.171875 L 111.621094 173.378906 L 111.421875 173.296875 L 111.328125 173.4375 L 111.496094 173.847656 L 111.855469 174.054688 L 112.296875 174.03125 L 112.320312 174.804688 L 112.050781 174.703125 L 112.027344 175.101562 L 112.203125 175.214844 L 112.449219 175.070312 L 112.8125 175.699219 L 112.359375 175.496094 L 112.035156 175.625 L 111.847656 176.171875 L 111.171875 176.332031 L 110.441406 177.136719 L 109.695312 178.980469 L 110.277344 180.816406 L 110.164062 181.105469 L 109.957031 180.980469 L 109.507812 181.40625 L 108.703125 180.550781 L 107.921875 180.695312 L 107.351562 180.210938 L 106.882812 180.089844 L 105.632812 180.519531 L 105.148438 180.253906 L 104.457031 180.25 L 103.777344 179.605469 L 103.140625 179.355469 L 101.914062 179.195312 L 101.464844 178.714844 L 101.257812 177.835938 L 100.449219 176.382812 L 98.929688 174.84375 L 97.667969 174.253906 L 96.429688 173.976562 L 95.101562 174.007812 L 94.292969 174.222656 L 93.914062 174.113281 L 93.230469 173.421875 L 92.300781 173.335938 L 91.132812 172.617188 L 90.894531 172.082031 L 89.765625 171.15625 L 89.378906 171.253906 L 89.1875 171.042969 L 88.40625 171.019531 L 87.796875 170.382812 L 86.769531 169.875 L 86.433594 169.476562 L 86.109375 169.457031 L 85.84375 168.851562 L 84.726562 167.769531 L 83.574219 167.574219 L 82.839844 167.746094 L 82.09375 166.625 L 81.511719 166.425781 L 79.730469 166.363281 L 78.375 166.699219 L 77.511719 165.386719 L 76.960938 165.039062 L 76.375 165.078125 L 75.816406 164.429688 L 75.769531 163.699219 L 75.152344 162.773438 L 75.644531 162.492188 L 75.933594 161.582031 L 75.574219 161.039062 L 76.097656 160.308594 L 76.046875 159.800781 L 76.359375 159.664062 L 75.984375 159.257812 L 76.367188 159.164062 L 77.039062 158.402344 L 77.464844 158.480469 L 77.917969 158.300781 L 78.222656 157.996094 L 78.191406 157.710938 L 78.84375 157.738281 L 79.183594 157.246094 L 78.902344 156.695312 L 79.109375 156.425781 L 79.195312 156.640625 L 79.59375 156.59375 L 79.605469 157.050781 L 79.878906 157.320312 L 79.867188 157.722656 L 80.152344 158.230469 L 81.304688 159.121094 L 82.441406 158.808594 L 83.597656 158.089844 L 83.273438 157.257812 L 83.519531 157.199219 L 83.6875 156.882812 L 83.585938 156.710938 L 83.996094 156.367188 L 85.070312 156.746094 L 85.605469 156.53125 L 85.714844 156.1875 L 86.15625 156.253906 L 86.707031 155.847656 L 86.875 156.273438 L 87.347656 156.554688 L 87.472656 157.097656 L 87.289062 157.382812 L 87.554688 157.753906 L 88.382812 157.988281 L 88.953125 157.847656 L 89.175781 157.566406 L 89.550781 157.671875 L 89.558594 158.429688 L 89.953125 158.878906 L 91.828125 159.890625 L 92.53125 160 L 93.777344 159.664062 L 94.867188 159.019531 L 95.839844 158.828125 L 96.40625 159.199219 L 96.953125 159.257812 L 97.429688 159.015625 L 99.25 159.378906 L 100.359375 159.234375 L 101.054688 158.84375 L 101.742188 158.949219 L 103.816406 158.285156 L 105.230469 156.777344 L 105.773438 157.007812 L 107.066406 156.664062 L 107.378906 156.34375 L 108.109375 156.988281 L 109.066406 156.992188 L 109.277344 157.390625 L 109.773438 157.492188 L 110.753906 156.949219 L 111.320312 156.308594 L 111.609375 155.503906 L 111.390625 155.042969 L 111.601562 155.027344 L 111.777344 155.414062 L 111.640625 155.945312 L 112.210938 156.105469 L 113.660156 155.710938 L 115.25 154.636719 Z M 107.945312 152.648438 L 108.421875 153.015625 L 108.5 153.445312 L 108.238281 153.492188 L 107.808594 153.214844 L 107.664062 152.753906 L 107.929688 152.414062 L 108.058594 152.539062 Z M 107.972656 150.953125 L 107.980469 151.441406 L 108.210938 151.605469 L 107.886719 151.710938 L 107.859375 152.304688 L 107.132812 151.535156 L 107.339844 150.984375 Z M 100.203125 150.414062 L 100.1875 150.773438 L 99.96875 150.785156 L 99.9375 150.496094 Z M 106.148438 149.941406 L 106.796875 149.972656 L 106.789062 150.695312 L 106.589844 150.742188 L 105.816406 150.296875 L 105.953125 149.941406 Z M 102.617188 149.90625 L 102.976562 149.976562 L 103.199219 150.394531 L 102.683594 150.34375 L 102.5 150.046875 Z M 109.449219 148.925781 L 109.425781 149.183594 L 109.191406 149.265625 L 109.226562 148.960938 Z M 85.089844 147.796875 L 85.199219 147.871094 L 85.011719 148.089844 L 84.582031 148.125 L 84.667969 147.820312 L 84.929688 147.683594 Z M 111.386719 146.195312 L 111.609375 146.363281 L 111.222656 146.84375 L 110.894531 146.515625 Z M 111.386719 146.195312 "/>
<path style=" stroke:none;fill-rule:nonzero;fill-opacity:1;" d="M 47.824219 86.128906 L 48.042969 86.582031 L 47.851562 86.765625 L 47.597656 86.722656 L 47.554688 86.183594 Z M 55.230469 85.433594 L 55.726562 85.945312 L 55.671875 86.707031 L 55.175781 86.09375 L 54.96875 86.0625 Z M 44.800781 81.429688 L 45.074219 81.960938 L 44.910156 82.335938 L 44.347656 82.089844 L 44.710938 81.917969 Z M 49.175781 77.074219 L 49.511719 77.425781 L 49.316406 77.964844 L 49.398438 78.636719 L 48.761719 78.980469 L 49.382812 79.410156 L 49.242188 79.882812 L 48.617188 79.683594 L 48.386719 78.992188 L 48.191406 78.902344 L 47.882812 78.960938 L 47.902344 79.382812 L 47.675781 78.980469 L 47.464844 79.398438 L 46.902344 79.148438 L 46.847656 79.5625 L 46.160156 79.378906 L 45.742188 79.441406 L 45.792969 79.578125 L 45.335938 79.296875 L 45.074219 78.855469 L 45.097656 78.457031 L 45.5625 78.101562 L 46.285156 78.082031 L 46.925781 78.472656 L 46.96875 78.273438 L 47.238281 78.203125 L 47.148438 78.0625 L 47.3125 77.941406 L 47.15625 77.730469 L 48.074219 77.949219 L 47.882812 78.195312 L 48.359375 78.28125 L 49.035156 77.015625 Z M 41.582031 73.605469 L 41.757812 74.105469 L 41.292969 74.714844 L 41.0625 74.382812 L 41.191406 73.800781 L 41.5 73.472656 Z M 72.65625 60.484375 L 72.679688 60.523438 L 72.753906 60.800781 L 72.203125 61.085938 L 71.859375 60.6875 L 71.925781 60.402344 L 72.625 60.410156 Z M 39.648438 50.484375 L 40.558594 49.957031 L 41.417969 48.605469 L 42.769531 48.457031 L 43.386719 48.675781 L 43.511719 48.988281 L 43.777344 49.042969 L 43.640625 49.707031 L 43.925781 50.023438 L 45.007812 50.765625 L 45.621094 50.636719 L 47.042969 52.140625 L 47.644531 51.839844 L 48.195312 52.152344 L 48.601562 52.160156 L 49.34375 52.925781 L 49.765625 52.851562 L 50.074219 53.023438 L 50.0625 53.371094 L 50.503906 53.773438 L 50.5625 54.164062 L 51.425781 54.933594 L 51.847656 54.828125 L 51.828125 54.488281 L 52.082031 54.179688 L 53.488281 54.210938 L 54.742188 55.226562 L 55.320312 55.355469 L 55.492188 55.585938 L 55.410156 55.824219 L 55.578125 55.902344 L 56.804688 54.523438 L 56.90625 54.753906 L 56.75 55.015625 L 57.140625 55.304688 L 57.839844 55.386719 L 58.679688 55.023438 L 59.460938 55.246094 L 60.101562 55.207031 L 60.039062 54.933594 L 59.300781 54.503906 L 59.328125 54.265625 L 60.335938 54.230469 L 60.910156 53.710938 L 60.960938 53.441406 L 61.589844 53.375 L 62.210938 52.773438 L 62.546875 53.078125 L 62.632812 53.621094 L 62.984375 53.714844 L 63.421875 54.210938 L 63.726562 54.277344 L 63.988281 54.023438 L 64.644531 54.160156 L 64.695312 54.421875 L 64.328125 54.949219 L 65 55.042969 L 66.382812 54.765625 L 66.296875 55.441406 L 65.785156 55.996094 L 65.675781 56.496094 L 65.25 56.660156 L 65.300781 56.933594 L 65.132812 56.910156 L 65.070312 57.199219 L 65.617188 57.726562 L 65.535156 58.136719 L 65.992188 58.445312 L 65.925781 59.214844 L 66.828125 59.71875 L 67.332031 60.328125 L 68.511719 60.382812 L 68.644531 60.707031 L 68.984375 60.753906 L 69.039062 61 L 69.453125 61.265625 L 69.71875 61.15625 L 70.085938 61.382812 L 70.320312 61.320312 L 70.601562 61.640625 L 71.035156 61.414062 L 71.394531 61.457031 L 71.757812 61.253906 L 72.148438 61.835938 L 72.355469 61.339844 L 72.871094 61.433594 L 73.285156 61.210938 L 73.328125 61.242188 L 73.871094 61.460938 L 74.449219 62.238281 L 73.921875 62.242188 L 73.996094 62.792969 L 73.761719 62.777344 L 73.609375 61.839844 L 73.5 62.625 L 73.1875 62.792969 L 72.820312 62.722656 L 72.871094 62.925781 L 72.632812 63.191406 L 72.050781 63.398438 L 72.414062 63.960938 L 71.789062 64.75 L 71.59375 65.40625 L 71.042969 65.359375 L 70.902344 65.5 L 70.859375 65.945312 L 71.519531 66.316406 L 71.492188 66.460938 L 70.957031 66.6875 L 70.703125 67.113281 L 70.425781 67.027344 L 69.996094 67.46875 L 70.078125 67.71875 L 70.617188 67.664062 L 70.644531 68.335938 L 71.007812 68.199219 L 71.171875 68.351562 L 71.425781 68.929688 L 71.277344 69.359375 L 71.378906 69.585938 L 71.941406 69.796875 L 72.167969 69.234375 L 72.558594 69.554688 L 70.871094 70.609375 L 70.316406 70.296875 L 70.109375 70.390625 L 70.238281 70.726562 L 69.988281 71.414062 L 68.679688 72.183594 L 68.554688 72.515625 L 68.777344 73.132812 L 68.695312 73.441406 L 68.894531 73.835938 L 69.105469 73.570312 L 69.425781 73.914062 L 68.816406 76.398438 L 69.089844 76.585938 L 69.128906 77.042969 L 68.804688 77.0625 L 68.3125 77.65625 L 67.6875 77.621094 L 67.277344 77.890625 L 67.148438 78.394531 L 66.972656 78.0625 L 66.667969 77.945312 L 66.375 78.558594 L 67.332031 79.304688 L 67.066406 79.902344 L 66.757812 79.898438 L 66.859375 80.558594 L 67.125 80.679688 L 67.148438 80.953125 L 66.792969 81.183594 L 66.449219 81.136719 L 66.21875 81.675781 L 65.890625 81.613281 L 65.511719 81.894531 L 65.460938 82.167969 L 65.023438 82.386719 L 64.820312 82.332031 L 64.648438 82.554688 L 64.363281 82.289062 L 64.207031 82.375 L 64.320312 82.816406 L 63.972656 83.304688 L 64.675781 83.789062 L 64.699219 84.652344 L 62.984375 84.671875 L 62.515625 85.71875 L 60.402344 85.226562 L 60.109375 84.988281 L 59.417969 85.171875 L 59.453125 85.542969 L 59.203125 85.664062 L 59.144531 85.972656 L 58.683594 86.011719 L 58.339844 85.582031 L 57.933594 85.453125 L 57.820312 84.800781 L 58.066406 84.492188 L 58.28125 84.710938 L 58.847656 84.664062 L 59.101562 84.144531 L 59.179688 83.355469 L 58.746094 82.457031 L 58.300781 82.546875 L 58.054688 81.820312 L 57.773438 81.550781 L 57.828125 81.304688 L 56.78125 80.859375 L 56.546875 79.917969 L 55.992188 79.34375 L 54.871094 78.894531 L 54.015625 78.792969 L 53.238281 78.28125 L 53.703125 77.996094 L 53.738281 77.078125 L 53.964844 76.75 L 53.796875 76.382812 L 53.34375 76.042969 L 52.535156 75.667969 L 51.816406 75.589844 L 50.875 75.734375 L 50.773438 76.183594 L 50.191406 75.984375 L 50.042969 74.992188 L 50.46875 74.789062 L 50.75 73.222656 L 50.585938 70.417969 L 50.289062 69.6875 L 49.746094 69.117188 L 49.28125 67.742188 L 49.011719 67.71875 L 48.71875 66.921875 L 48.058594 66.421875 L 47.648438 65.328125 L 47.730469 64.734375 L 47.261719 62.785156 L 47.410156 62.566406 L 47.347656 61.554688 L 46.882812 59.351562 L 45.613281 57.414062 L 44.570312 56.492188 L 44.027344 56.230469 L 44.589844 55.589844 L 44.65625 55.242188 L 44.058594 54.871094 L 43.609375 55.25 L 43.734375 54.9375 L 43.496094 54.585938 L 43.449219 53.992188 L 42.457031 54.027344 L 42.769531 53.527344 L 42.957031 53.511719 L 42.585938 53.257812 L 42.0625 53.699219 L 42.171875 53.007812 L 41.964844 52.832031 L 41.945312 52.183594 L 41.289062 51.917969 L 40.273438 51.128906 L 40.015625 50.476562 Z M 39.648438 50.484375 "/>
<path style=" stroke:none;fill-rule:nonzero;fill-opacity:1;" d="M 72.261719 0.179688 L 72.699219 0.523438 L 72.40625 0.730469 L 72.269531 1.277344 L 71.519531 1.355469 L 71.1875 1.675781 L 71.402344 2.632812 L 71.804688 3.015625 L 71.476562 3.5 L 72.050781 3.609375 L 72.414062 4.195312 L 72.757812 3.925781 L 73.203125 4.027344 L 73.601562 4.839844 L 73.316406 5.304688 L 73.300781 5.890625 L 74.214844 6.054688 L 74.5625 7.128906 L 75.832031 7.863281 L 75.210938 8.097656 L 74.792969 8.566406 L 74.570312 8.515625 L 74.664062 8.851562 L 74.535156 8.96875 L 74.21875 8.984375 L 74.03125 8.757812 L 73.277344 8.996094 L 72.972656 8.804688 L 72.128906 9.472656 L 72.101562 8.902344 L 71.707031 8.65625 L 71.5 8.730469 L 70.507812 7.953125 L 70.582031 8.542969 L 70.203125 9.21875 L 70.246094 9.59375 L 69.625 10.582031 L 69.476562 10.386719 L 69.183594 10.402344 L 68.886719 10.703125 L 68.488281 10.621094 L 67.261719 11.242188 L 67.230469 11.65625 L 68.003906 11.761719 L 68.15625 12.109375 L 67.574219 12.796875 L 67.507812 13.71875 L 67.304688 13.535156 L 66.707031 13.894531 L 67.441406 14.507812 L 67.589844 14.863281 L 67.417969 15.34375 L 67.617188 15.519531 L 68.164062 15.390625 L 68.273438 15.882812 L 68.4375 15.777344 L 68.742188 15.925781 L 68.542969 16.425781 L 69.15625 16.984375 L 69.003906 17.386719 L 68.722656 17.277344 L 68.292969 18.273438 L 67.234375 18.640625 L 66.671875 18.582031 L 66.484375 18.777344 L 66.316406 18.582031 L 65.625 18.800781 L 65.621094 19.3125 L 65.855469 19.699219 L 65.335938 19.851562 L 65.523438 20.023438 L 65.339844 20.226562 L 65.625 20.738281 L 65.398438 21.207031 L 64.335938 21.132812 L 64.199219 20.425781 L 63.722656 20.273438 L 63.179688 20.34375 L 62.484375 20.917969 L 61.574219 20.859375 L 61.667969 21.578125 L 61.34375 21.621094 L 61.171875 22.007812 L 61.257812 22.257812 L 60.632812 21.917969 L 60.617188 21.722656 L 60.621094 22.066406 L 60.007812 22.019531 L 59.792969 23.257812 L 59.199219 23.972656 L 59.351562 24.566406 L 58.960938 24.53125 L 58.992188 25.4375 L 58.359375 26.289062 L 57.957031 26.234375 L 57.46875 25.769531 L 57.054688 25.992188 L 56.945312 25.699219 L 56.480469 26.367188 L 56.355469 26.105469 L 55.976562 26.53125 L 55.601562 26.296875 L 55.765625 26.007812 L 55.25 25.753906 L 54.695312 25.75 L 55.25 24.734375 L 55.050781 24.351562 L 55.375 24.074219 L 54.699219 23.65625 L 53.699219 23.464844 L 53.601562 23.683594 L 53.277344 23.433594 L 52.265625 23.636719 L 52.144531 24.179688 L 51.648438 24.195312 L 51.105469 24.53125 L 50.773438 24.5 L 50.667969 24.28125 L 50.84375 23.929688 L 50.273438 23.6875 L 50.144531 22.601562 L 50.375 22.070312 L 50.046875 21.570312 L 50.085938 21.058594 L 49.644531 20.976562 L 49.632812 20.722656 L 49.777344 20.261719 L 50.082031 20.023438 L 49.988281 19.542969 L 50.832031 18.515625 L 51.066406 17.402344 L 50.796875 17 L 51.371094 15.953125 L 51.242188 15.414062 L 51.039062 15.296875 L 51.257812 14.976562 L 51.109375 14.464844 L 50.441406 14.144531 L 51.09375 13.503906 L 51.59375 13.476562 L 51.96875 13.082031 L 51.757812 12.734375 L 51.816406 12.179688 L 51.554688 11.835938 L 50.886719 11.390625 L 49.9375 11.3125 L 49.648438 10.636719 L 49.902344 10.410156 L 50.125 9.132812 L 49.550781 8.609375 L 48.972656 8.6875 L 48.761719 7.765625 L 49.148438 7.285156 L 48.960938 6.84375 L 49.511719 6.402344 L 49.203125 5.753906 L 49.566406 5.554688 L 49.9375 4.507812 L 50.21875 4.738281 L 50.925781 4.6875 L 50.832031 4.90625 L 52.371094 4.191406 L 52.714844 4.386719 L 52.710938 4.640625 L 53.511719 4.964844 L 53.625 5.171875 L 53.183594 5.835938 L 53.519531 5.894531 L 53.933594 5.6875 L 54.285156 6.070312 L 54.585938 5.945312 L 55.210938 6.3125 L 55.628906 6.09375 L 56.953125 6.234375 L 57.191406 5.511719 L 57.769531 5.210938 L 57.613281 4.59375 L 57.976562 3.933594 L 57.9375 3.480469 L 58.167969 3.152344 L 58.496094 3.199219 L 58.796875 2.976562 L 58.832031 2.484375 L 59.144531 2.390625 L 59.378906 2.542969 L 60.835938 1.984375 L 61.050781 2.128906 L 61.320312 2.011719 L 61.921875 2.503906 L 62.394531 2.304688 L 62.898438 1.617188 L 63.640625 2.152344 L 64.699219 1.585938 L 65.277344 1.96875 L 65.882812 1.984375 L 66.101562 2.34375 L 66.363281 2.417969 L 66.8125 2 L 67.515625 1.96875 L 68.53125 1.183594 L 68.9375 1.164062 L 69.296875 0.875 L 69.859375 0.921875 L 70.113281 0.644531 L 70.574219 0.695312 L 70.863281 0.332031 L 71.132812 0.429688 L 71.984375 0.0664062 Z M 72.261719 0.179688 "/>
<path style=" stroke:none;fill-rule:nonzero;fill-opacity:1;" d="M 75.1875 64.308594 L 75.054688 64.160156 L 75.007812 64.144531 L 75.070312 63.976562 L 75.234375 64.054688 L 75.261719 64.1875 Z M 72.402344 63.933594 L 72.582031 64.230469 L 73.363281 64.21875 L 73.449219 64.359375 L 73.976562 63.9375 L 74.449219 63.90625 L 74.320312 64.105469 L 74.441406 64.464844 L 73.707031 65.148438 L 74.046875 65.503906 L 74.410156 65.320312 L 74.730469 65.757812 L 75.089844 65.230469 L 75.339844 65.265625 L 75.546875 65.621094 L 75.78125 65.632812 L 75.855469 65.417969 L 76.082031 65.523438 L 77.6875 67.363281 L 78.226562 67.035156 L 78.789062 67.242188 L 79.125 66.566406 L 79.648438 66.707031 L 79.554688 67.214844 L 79.78125 67.425781 L 79.328125 67.851562 L 79.339844 68.0625 L 79.914062 68.808594 L 80.007812 69.542969 L 79.851562 69.71875 L 80.328125 70.058594 L 80.496094 70.921875 L 80.847656 71.09375 L 80.8125 71.824219 L 80.402344 72.21875 L 80.574219 72.605469 L 81.09375 72.710938 L 81.238281 73.144531 L 81.179688 73.839844 L 81.367188 74.375 L 81.148438 74.539062 L 81.386719 75.03125 L 81.242188 75.40625 L 81.921875 75.8125 L 81.972656 76.03125 L 82.253906 76.066406 L 82.285156 77.085938 L 82.589844 76.742188 L 82.59375 76.308594 L 82.921875 76.503906 L 83.277344 76.152344 L 84.035156 76.734375 L 84.667969 77.726562 L 85.339844 77.574219 L 85.65625 77.113281 L 86.011719 78.027344 L 85.949219 78.488281 L 85.71875 78.964844 L 85.621094 78.773438 L 85.136719 78.96875 L 85.074219 79.472656 L 84.882812 80.597656 L 84.546875 80.921875 L 84.140625 80.757812 L 84.128906 80.957031 L 83.421875 81.390625 L 82.898438 81.117188 L 82.722656 81.503906 L 81.898438 81.492188 L 81.699219 81.738281 L 81.195312 81.488281 L 81.046875 81.785156 L 81.203125 82.425781 L 80.675781 82.59375 L 80.207031 83.007812 L 79.691406 82.980469 L 79.648438 83.316406 L 78.875 83.539062 L 79.222656 84.054688 L 78.46875 84.550781 L 78.164062 84.5625 L 77.9375 84.097656 L 77.640625 84.117188 L 77.582031 85.09375 L 76.488281 85.941406 L 76.269531 85.691406 L 76.28125 85.265625 L 75.363281 85.398438 L 75.609375 85.042969 L 75.03125 84.84375 L 75.035156 84.324219 L 75.207031 84.265625 L 75.019531 84.09375 L 75.082031 83.625 L 74.710938 83.585938 L 74.207031 83.992188 L 73.898438 83.675781 L 73.425781 83.730469 L 73.597656 83.613281 L 73.214844 83.414062 L 73.40625 83.242188 L 73.140625 83.027344 L 73.195312 82.539062 L 72.773438 82.339844 L 72.636719 81.214844 L 72.214844 80.695312 L 71.804688 80.523438 L 71.457031 80.824219 L 71.285156 80.769531 L 71.257812 80.957031 L 71 80.6875 L 70.074219 81.019531 L 69.027344 80.375 L 68.703125 79.839844 L 69.167969 79.578125 L 69.421875 79.078125 L 68.722656 78.628906 L 68.3125 77.648438 L 68.804688 77.058594 L 69.128906 77.039062 L 69.089844 76.582031 L 68.816406 76.394531 L 69.425781 73.910156 L 69.105469 73.566406 L 68.894531 73.832031 L 68.695312 73.433594 L 68.78125 73.128906 L 68.558594 72.515625 L 68.679688 72.183594 L 69.988281 71.414062 L 70.242188 70.722656 L 70.117188 70.390625 L 70.324219 70.300781 L 70.878906 70.609375 L 72.5625 69.554688 L 72.175781 69.238281 L 71.949219 69.800781 L 71.386719 69.589844 L 71.285156 69.363281 L 71.4375 68.929688 L 71.179688 68.351562 L 71.015625 68.203125 L 70.660156 68.339844 L 70.628906 67.667969 L 70.089844 67.722656 L 70.007812 67.46875 L 70.4375 67.03125 L 70.714844 67.117188 L 70.96875 66.6875 L 71.507812 66.460938 L 71.53125 66.320312 L 70.871094 65.945312 L 70.914062 65.503906 L 71.054688 65.363281 L 71.609375 65.40625 L 71.800781 64.753906 Z M 72.402344 63.933594 "/>
<path style=" stroke:none;fill-rule:nonzero;fill-opacity:1;" d="M 12.386719 20.792969 L 12.535156 21.089844 L 13.5 20.953125 L 13.730469 21.328125 L 14.0625 21.464844 L 14.222656 21.949219 L 14.628906 21.660156 L 15.25 22.066406 L 15.546875 21.898438 L 16.070312 22.082031 L 16.246094 23.105469 L 16.070312 24.382812 L 16.5 25.164062 L 16.910156 25.3125 L 17 25.617188 L 16.582031 26.332031 L 17.042969 27.269531 L 16.738281 27.332031 L 16.554688 28.097656 L 16.296875 27.933594 L 15.632812 27.984375 L 14.398438 28.859375 L 14.226562 28.707031 L 13.640625 28.800781 L 13.144531 28.472656 L 12.785156 28.640625 L 12.753906 28.421875 L 12.246094 28.105469 L 11.722656 28.390625 L 11.253906 28.273438 L 10.945312 28.371094 L 10.710938 28.765625 L 9.816406 29.484375 L 9.574219 29.3125 L 9.097656 29.539062 L 8.390625 29.554688 L 7.789062 30.316406 L 7.011719 30.046875 L 6.785156 30.21875 L 6.695312 29.5 L 6.25 30.394531 L 5.5625 30.296875 L 5.628906 29.886719 L 4.925781 29.695312 L 4.867188 28.417969 L 4.628906 28.167969 L 4.921875 27.210938 L 4.484375 26.945312 L 3.828125 26.992188 L 3.695312 26.625 L 3.078125 26.394531 L 2.441406 25.660156 L 2.535156 25.355469 L 2.34375 24.613281 L 2.597656 23.570312 L 2.898438 23.484375 L 3.148438 23.644531 L 3.332031 23.34375 L 3.785156 23.5 L 4.160156 23.382812 L 4.292969 23.121094 L 4.878906 22.917969 L 4.957031 22.398438 L 5.476562 21.960938 L 6.277344 23.171875 L 6.925781 22.78125 L 7.394531 23.15625 L 7.707031 22.625 L 8.246094 22.609375 L 8.707031 22 L 9.898438 22.464844 L 11.023438 21.757812 L 11.011719 21.507812 L 11.351562 21.242188 L 11.914062 21.347656 L 11.988281 20.8125 Z M 12.386719 20.792969 "/>
<path style=" stroke:none;fill-rule:nonzero;fill-opacity:1;" d="M 76.722656 39.710938 L 76.382812 39.902344 L 76.617188 39.640625 L 76.390625 39.546875 L 76.796875 39.5 Z M 76.308594 39.179688 L 76.609375 39.40625 L 76.011719 39.542969 L 76.167969 39.101562 Z M 76.214844 7.886719 L 76.933594 8.378906 L 78.332031 8.238281 L 78.851562 8.425781 L 79.078125 8.699219 L 79.03125 9.152344 L 79.273438 9.570312 L 79.097656 10.144531 L 79.320312 10.4375 L 78.675781 10.453125 L 77.804688 11 L 77.773438 11.238281 L 78.082031 11.441406 L 78.183594 11.878906 L 77.726562 11.683594 L 77.460938 11.882812 L 76.996094 11.683594 L 76.597656 11.996094 L 76.496094 11.890625 L 76.121094 12.402344 L 76.050781 12.84375 L 75.546875 13.289062 L 75.625 13.640625 L 75.476562 13.570312 L 75.519531 13.722656 L 75.058594 13.957031 L 74.976562 14.464844 L 74.492188 14.398438 L 74.230469 14.609375 L 74.242188 15.113281 L 73.785156 15.589844 L 74.320312 16.308594 L 74.847656 16.304688 L 74.914062 16.703125 L 75.375 16.679688 L 75.453125 17.214844 L 76.0625 17.707031 L 75.949219 18.609375 L 75.21875 19.105469 L 74.769531 19.8125 L 75.003906 20.015625 L 75.183594 20.671875 L 75.1875 21.546875 L 75.546875 21.554688 L 75.8125 21.9375 L 76.1875 21.941406 L 76.503906 23.082031 L 76.855469 23.398438 L 76.804688 23.703125 L 77.308594 23.96875 L 77.480469 23.5625 L 77.792969 23.730469 L 77.824219 23.957031 L 78.105469 24.089844 L 78.117188 24.496094 L 79.097656 23.589844 L 79.265625 23.761719 L 79.765625 23.234375 L 80.050781 23.445312 L 79.945312 23.699219 L 80.101562 23.882812 L 80.242188 23.621094 L 80.789062 23.347656 L 80.949219 23.363281 L 80.851562 23.640625 L 81.164062 23.929688 L 81.550781 23.691406 L 81.671875 23.96875 L 82.0625 23.839844 L 81.949219 23.484375 L 82.101562 23.425781 L 82.246094 23.824219 L 82.234375 23.902344 L 82.335938 23.996094 L 82.292969 24.203125 L 82.5 24.289062 L 82.226562 24.453125 L 82.738281 24.9375 L 82.613281 25.003906 L 82.777344 25.332031 L 82.691406 25.625 L 82.933594 25.449219 L 83.078125 26.121094 L 83.277344 26.171875 L 83.183594 26.375 L 83.441406 26.578125 L 83.398438 26.910156 L 83.644531 26.878906 L 83.613281 27.035156 L 83.882812 27.183594 L 83.742188 27.378906 L 82.5 27.464844 L 82.523438 27.277344 L 82.292969 27.1875 L 82.171875 27.53125 L 81.414062 27.628906 L 81.175781 27.953125 L 79.59375 28.941406 L 75.578125 30.808594 L 75.191406 31.304688 L 74.769531 31.09375 L 74.285156 31.746094 L 73.921875 32.453125 L 73.894531 32.726562 L 74.105469 32.824219 L 73.832031 32.925781 L 73.4375 34.5625 L 73.78125 34.667969 L 73.507812 34.9375 L 73.652344 35.574219 L 73.976562 35.941406 L 73.902344 37.277344 L 74.265625 37.585938 L 74.664062 38.367188 L 74.535156 38.28125 L 74.335938 38.519531 L 74.5625 38.660156 L 74.78125 38.503906 L 74.71875 38.78125 L 74.847656 38.816406 L 74.988281 38.738281 L 74.875 38.296875 L 75 38.304688 L 76.085938 39.65625 L 75.917969 40.785156 L 75.648438 41.03125 L 75.660156 41.75 L 75.253906 41.613281 L 75.339844 40.890625 L 75.082031 40.78125 L 74.851562 40.875 L 74.664062 41.308594 L 74.882812 41.585938 L 74.785156 42.105469 L 74.984375 42.273438 L 75.148438 42.160156 L 75.164062 42.339844 L 74.828125 42.308594 L 74.800781 42.671875 L 74.191406 42.1875 L 74.042969 41.636719 L 73.539062 41.507812 L 73.378906 41.269531 L 73.292969 40.539062 L 73.453125 40.226562 L 73.242188 39.953125 L 72.972656 39.957031 L 72.601562 40.28125 L 72.058594 40.238281 L 71.855469 39.976562 L 71.480469 40.21875 L 70.902344 39.441406 L 69.210938 39.171875 L 68.65625 39.371094 L 67.074219 39.347656 L 66.335938 39.691406 L 66.148438 40.253906 L 65.34375 40.480469 L 64.835938 40.957031 L 64.523438 40.988281 L 64.34375 40.929688 L 64.234375 40.519531 L 63.707031 40.164062 L 62.265625 40.261719 L 62.226562 39.882812 L 62.167969 39.625 L 60.152344 38.542969 L 60.152344 37.925781 L 59.796875 38.140625 L 59.003906 37.847656 L 59.152344 37.4375 L 59.050781 37.183594 L 59.371094 36.925781 L 58.613281 36.644531 L 58.378906 37.066406 L 58.035156 36.882812 L 57.976562 37.203125 L 57.671875 37.148438 L 57.085938 36.65625 L 57.328125 36.183594 L 57.109375 36.042969 L 56.703125 36.125 L 56.796875 35.691406 L 56.597656 35.382812 L 55.875 35.058594 L 55.898438 34.730469 L 55.441406 34.609375 L 55.414062 34.4375 L 54.746094 34.289062 L 54.464844 33.695312 L 53.96875 33.210938 L 53.359375 33.71875 L 53.230469 33.46875 L 52.855469 33.371094 L 53.027344 32.890625 L 52.777344 32.515625 L 53.105469 32.269531 L 52.863281 32.082031 L 53.105469 31.433594 L 52.484375 31.148438 L 52.308594 31.351562 L 52.097656 31.304688 L 52.199219 30.808594 L 51.914062 27.84375 L 54.714844 23.683594 L 55.390625 24.101562 L 55.070312 24.378906 L 55.261719 24.761719 L 54.714844 25.777344 L 55.261719 25.78125 L 55.78125 26.039062 L 55.617188 26.324219 L 55.992188 26.558594 L 56.367188 26.132812 L 56.492188 26.394531 L 56.960938 25.726562 L 57.070312 26.019531 L 57.484375 25.796875 L 57.972656 26.261719 L 58.375 26.316406 L 59.007812 25.464844 L 58.972656 24.558594 L 59.367188 24.59375 L 59.214844 23.996094 L 59.808594 23.285156 L 60.027344 22.046875 L 60.636719 22.09375 L 60.632812 21.75 L 60.652344 21.945312 L 61.277344 22.285156 L 61.1875 22.039062 L 61.359375 21.648438 L 61.6875 21.609375 L 61.59375 20.894531 L 62.507812 20.949219 L 63.199219 20.382812 L 63.742188 20.308594 L 64.21875 20.460938 L 64.355469 21.167969 L 65.417969 21.242188 L 65.648438 20.773438 L 65.359375 20.261719 L 65.542969 20.0625 L 65.359375 19.890625 L 65.878906 19.738281 L 65.644531 19.347656 L 65.648438 18.839844 L 66.339844 18.621094 L 66.507812 18.816406 L 66.695312 18.621094 L 67.261719 18.679688 L 68.316406 18.3125 L 68.746094 17.316406 L 69.023438 17.425781 L 69.175781 17.023438 L 68.566406 16.464844 L 68.765625 15.96875 L 68.460938 15.820312 L 68.296875 15.925781 L 68.1875 15.433594 L 67.640625 15.5625 L 67.441406 15.382812 L 67.613281 14.90625 L 67.46875 14.550781 L 66.730469 13.941406 L 67.324219 13.578125 L 67.53125 13.761719 L 67.597656 12.839844 L 68.179688 12.15625 L 68.03125 11.804688 L 67.253906 11.699219 L 67.28125 11.285156 L 68.511719 10.664062 L 68.910156 10.746094 L 69.203125 10.449219 L 69.496094 10.429688 L 69.644531 10.625 L 70.265625 9.636719 L 70.222656 9.265625 L 70.609375 8.585938 L 70.53125 7.996094 L 71.523438 8.773438 L 71.734375 8.703125 L 72.125 8.949219 L 72.152344 9.519531 L 72.996094 8.851562 L 73.300781 9.042969 L 74.054688 8.804688 L 74.242188 9.027344 L 74.5625 9.015625 L 74.691406 8.898438 L 74.59375 8.566406 L 74.8125 8.617188 L 75.234375 8.140625 L 75.859375 7.910156 Z M 76.214844 7.886719 "/>
</g>
</svg>
