<svg xmlns="http://www.w3.org/2000/svg" xmlns:xlink="http://www.w3.org/1999/xlink" width="231px" height="200px" viewBox="0 0 231 200" version="1.1">
<g id="surface1">
<path style=" stroke:none;fill-rule:nonzero;fill-opacity:1;" d="M 132.136719 82.976562 L 132.136719 83.980469 L 129.203125 84.386719 L 128.0625 85.789062 L 126.761719 85.992188 L 126.4375 85.589844 L 126.601562 84.585938 L 127.253906 83.984375 L 128.554688 83.984375 L 130.183594 82.980469 L 132.136719 82.980469 Z M 108.355469 60.308594 L 109.171875 61.710938 L 109.984375 62.109375 L 110.308594 63.316406 L 111.125 63.917969 L 111.125 65.925781 L 112.265625 66.128906 L 113.40625 67.328125 L 113.570312 68.933594 L 111.125 70.542969 L 108.027344 70.542969 L 107.214844 71.546875 L 106.5625 71.546875 L 106.238281 72.144531 L 106.5625 72.949219 L 104.285156 74.554688 L 103.304688 75.960938 L 98.582031 78.566406 L 98.09375 79.367188 L 98.257812 80.972656 L 99.234375 83.179688 L 100.050781 83.78125 L 108.03125 82.777344 L 110.800781 81.972656 L 111.289062 81.375 L 113.894531 80.570312 L 115.039062 79.769531 L 115.6875 80.371094 L 115.523438 81.171875 L 116.339844 82.375 L 117.476562 82.375 L 117.640625 81.773438 L 119.109375 80.96875 L 120.246094 82.375 L 121.875 82.171875 L 123.019531 82.976562 L 123.671875 82.976562 L 124.160156 82.171875 L 124.484375 82.578125 L 125.949219 82.578125 L 125.949219 83.378906 L 124.808594 84.382812 L 126.109375 85.789062 L 124.808594 87.792969 L 125.457031 88.195312 L 125.621094 89.398438 L 125.132812 90 L 123.667969 90 L 122.691406 89.199219 L 121.710938 89.398438 L 121.710938 90.203125 L 122.691406 90.601562 L 122.367188 92.003906 L 121.386719 93.207031 L 120.734375 95.210938 L 119.433594 95.617188 L 119.109375 96.621094 L 117.96875 97.21875 L 117.804688 98.828125 L 119.109375 99.027344 L 120.574219 98.222656 L 121.550781 98.222656 L 121.875 97.421875 L 122.855469 97.21875 L 123.34375 96.621094 L 125.949219 96.015625 L 126.4375 95.011719 L 127.578125 95.417969 L 127.417969 96.015625 L 129.371094 96.015625 L 129.535156 95.417969 L 130.511719 96.015625 L 130.835938 95.214844 L 132.140625 95.617188 L 132.46875 95.417969 L 132.46875 93.808594 L 133.445312 93.410156 L 135.5625 93.410156 L 135.886719 92.808594 L 137.027344 92.609375 L 137.355469 90.804688 L 139.148438 89.398438 L 140.613281 89 L 141.914062 87.996094 L 145.007812 87.996094 L 145.171875 89 L 142.894531 88.800781 L 142.894531 90.601562 L 141.753906 92.609375 L 142.078125 94.816406 L 140.613281 97.023438 L 139.960938 99.628906 L 140.449219 99.628906 L 140.773438 98.222656 L 141.753906 96.820312 L 142.242188 96.421875 L 143.542969 96.421875 L 144.84375 94.816406 L 145.5 94.613281 L 146.476562 92.207031 L 147.292969 92.007812 L 147.78125 92.609375 L 149.085938 92.40625 L 151.367188 94.210938 L 153.484375 94.210938 L 154.136719 95.414062 L 155.109375 96.015625 L 154.621094 97.21875 L 155.925781 98.023438 L 156.578125 100.027344 L 158.046875 99.625 L 157.558594 99.226562 L 157.71875 97.421875 L 159.023438 97.21875 L 160 99.226562 L 160 102.4375 L 160.652344 102.636719 L 160.976562 101.632812 L 161.628906 101.433594 L 161.957031 103.238281 L 162.933594 104.441406 L 168.800781 105.644531 L 168.960938 105.042969 L 171.566406 103.839844 L 173.03125 104.84375 L 175.476562 105.445312 L 175.800781 105.84375 L 175.640625 107.246094 L 177.269531 107.851562 L 177.59375 108.652344 L 178.894531 108.652344 L 179.710938 109.253906 L 179.261719 111.097656 L 177.476562 112.195312 L 176.675781 113.730469 L 178.011719 114.167969 L 178.457031 118.671875 L 177.746094 119.660156 L 174 119.660156 L 172.035156 122.183594 L 169.09375 122.292969 L 167.488281 121.085938 L 165.886719 120.535156 L 164.546875 120.648438 L 164.101562 122.183594 L 163.65625 122.183594 L 161.160156 119.441406 L 157.949219 119.109375 L 156.078125 120.316406 L 156.34375 124.269531 L 155.988281 127.011719 L 155.453125 128.109375 L 152.691406 128.441406 L 150.101562 127.453125 L 149.570312 127.671875 L 147.519531 130.304688 L 147.429688 132.9375 L 146.804688 133.046875 L 143.238281 129.976562 L 136.636719 130.523438 L 135.746094 131.074219 L 132.445312 136.890625 L 132.359375 138.425781 L 132.984375 139.085938 L 133.339844 140.730469 L 135.214844 143.035156 L 134.679688 148.082031 L 135.664062 150.167969 L 135.75 153.566406 L 136.910156 155.105469 L 136.910156 155.875 L 133.34375 159.054688 L 131.917969 159.820312 L 130.757812 160.039062 L 129.332031 159.054688 L 126.746094 159.164062 L 126.03125 161.6875 L 124.875 163.332031 L 124.25 165.964844 L 121.574219 168.925781 L 121.484375 170.679688 L 120.917969 171.390625 L 118.96875 171.1875 L 118.152344 170.386719 L 116.199219 170.589844 L 113.753906 168.585938 L 112.9375 166.984375 L 110.496094 166.378906 L 108.703125 164.175781 L 105.121094 161.773438 L 103.976562 159.167969 L 103 158.371094 L 102.675781 157.167969 L 102.027344 156.566406 L 100.394531 156.367188 L 99.253906 155.5625 L 99.582031 155.164062 L 99.089844 155.164062 L 99.089844 154.765625 L 100.234375 153.5625 L 96.324219 153.359375 L 93.066406 151.15625 L 92.578125 149.554688 L 91.109375 148.351562 L 89.480469 146.144531 L 90.132812 142.136719 L 88.5 137.128906 L 86.710938 135.925781 L 85.242188 133.71875 L 85.242188 132.316406 L 86.222656 131.316406 L 86.386719 130.113281 L 85.082031 128.109375 L 85.082031 126.707031 L 88.503906 127.511719 L 92.414062 127.308594 L 92.25 126.507812 L 91.273438 126.304688 L 90.785156 125.101562 L 91.109375 124.699219 L 90.945312 123.898438 L 89.480469 123.097656 L 89.316406 122.09375 L 88.011719 121.894531 L 87.523438 119.285156 L 88.011719 115.679688 L 88.664062 114.875 L 90.292969 114.875 L 91.429688 115.078125 L 92.898438 117.082031 L 93.550781 117.082031 L 93.714844 116.480469 L 94.203125 116.683594 L 93.878906 115.277344 L 94.203125 113.074219 L 91.757812 113.277344 L 91.269531 111.46875 L 91.433594 110.871094 L 94.855469 111.070312 L 95.179688 110.46875 L 94.039062 110.46875 L 93.714844 109.667969 L 93.714844 108.464844 L 94.855469 107.863281 L 94.53125 107.058594 L 91.925781 107.460938 L 90.785156 106.257812 L 91.109375 105.855469 L 90.785156 105.457031 L 89.316406 104.855469 L 86.222656 104.457031 L 85.242188 102.25 L 85.570312 100.246094 L 87.195312 99.242188 L 89.640625 99.242188 L 89.640625 97.035156 L 90.777344 96.230469 L 90.777344 94.628906 L 92.734375 93.425781 L 92.734375 92.820312 L 91.59375 92.820312 L 90.945312 92.222656 L 91.269531 90.613281 L 90.457031 89.210938 L 91.433594 89.210938 L 91.597656 88.609375 L 89.480469 87.605469 L 89.15625 86.601562 L 89.480469 86.003906 L 90.457031 86.003906 L 90.785156 84.996094 L 90.132812 83.992188 L 89.804688 81.988281 L 85.570312 81.785156 L 84.105469 82.789062 L 82.3125 82.789062 L 80.359375 81.785156 L 79.542969 80.179688 L 80.519531 79.175781 L 80.847656 77.367188 L 81.660156 75.765625 L 82.800781 74.761719 L 84.59375 74.761719 L 86.222656 71.75 L 87.039062 71.75 L 87.199219 72.152344 L 87.851562 71.953125 L 88.175781 70.550781 L 84.59375 69.347656 L 85.082031 66.734375 L 86.058594 66.535156 L 85.898438 67.539062 L 85.40625 67.941406 L 86.058594 68.742188 L 88.988281 68.34375 L 90.945312 69.347656 L 91.921875 69.347656 L 92.410156 68.746094 L 93.550781 68.542969 L 95.832031 69.546875 L 95.34375 68.542969 L 95.667969 67.945312 L 97.621094 67.945312 L 98.761719 68.949219 L 99.25 65.535156 L 101.042969 65.535156 L 101.53125 65.738281 L 101.859375 66.941406 L 103.320312 66.941406 L 103.972656 65.132812 L 106.582031 65.335938 L 106.746094 64.9375 L 105.117188 64.132812 L 104.953125 62.128906 L 105.769531 61.328125 L 107.886719 62.128906 L 107.722656 60.722656 Z M 108.355469 60.308594 "/>
<path style=" stroke:none;fill-rule:nonzero;fill-opacity:1;" d="M 179.699219 109.253906 L 180.839844 109.453125 L 181.816406 110.855469 L 180.515625 112.0625 L 180.679688 112.664062 L 181.492188 112.460938 L 182.144531 112.863281 L 182.957031 112.261719 L 183.609375 112.863281 L 182.632812 113.664062 L 182.632812 115.070312 L 183.285156 115.070312 L 183.121094 118.074219 L 181.65625 118.277344 L 181.65625 118.878906 L 182.308594 119.078125 L 182.308594 119.882812 L 183.285156 120.683594 L 184.097656 120.683594 L 184.75 120.28125 L 184.75 118.476562 L 185.238281 118.277344 L 187.847656 119.277344 L 189.472656 120.683594 L 190.613281 121.085938 L 190.449219 123.089844 L 191.917969 123.6875 L 192.570312 125.496094 L 194.847656 126.292969 L 195.011719 127.097656 L 193.871094 127.898438 L 192.730469 127.898438 L 190.289062 126.699219 L 190.125 126.09375 L 188.984375 125.496094 L 187.359375 125.496094 L 184.75 126.894531 L 184.425781 128.097656 L 187.847656 127.699219 L 189.960938 128.5 L 189.796875 130.304688 L 188.496094 131.105469 L 187.03125 130.90625 L 186.707031 130.304688 L 185.398438 129.703125 L 183.773438 129.703125 L 184.914062 131.304688 L 185.726562 131.304688 L 186.214844 131.910156 L 186.214844 133.710938 L 184.75 134.511719 L 184.75 135.917969 L 184.246094 138.421875 L 181.746094 139.847656 L 180.234375 139.082031 L 179.789062 137.984375 L 177.378906 137.546875 L 176.042969 140.179688 L 175.328125 140.289062 L 173.453125 142.8125 L 172.921875 142.921875 L 170.957031 141.386719 L 166.765625 140.289062 L 164.625 140.289062 L 161.238281 138.53125 L 160.523438 139.082031 L 159.898438 141.824219 L 159.097656 142.261719 L 156.421875 141.824219 L 154.101562 142.261719 L 152.675781 141.933594 L 149.199219 142.152344 L 144.292969 145.117188 L 143.042969 145.007812 L 139.746094 143.6875 L 138.050781 144.019531 L 135.199219 143.03125 L 133.324219 140.726562 L 132.96875 139.082031 L 132.34375 138.421875 L 132.429688 136.886719 L 135.730469 131.070312 L 136.625 130.523438 L 143.222656 129.972656 L 146.789062 133.046875 L 147.414062 132.9375 L 147.503906 130.300781 L 149.554688 127.667969 L 150.089844 127.449219 L 152.675781 128.4375 L 155.441406 128.109375 L 155.976562 127.011719 L 156.332031 124.265625 L 156.066406 120.316406 L 157.9375 119.109375 L 161.148438 119.4375 L 163.644531 122.179688 L 164.089844 122.179688 L 164.539062 120.644531 L 165.875 120.535156 L 167.480469 121.085938 L 169.085938 122.292969 L 172.027344 122.179688 L 173.992188 119.65625 L 177.734375 119.65625 L 178.449219 118.671875 L 178.003906 114.167969 L 176.667969 113.730469 L 177.46875 112.195312 L 179.25 111.09375 Z M 179.699219 109.253906 "/>
<path style=" stroke:none;fill-rule:nonzero;fill-opacity:1;" d="M 210.8125 182.796875 L 210.910156 180.648438 L 209.660156 179.226562 L 209.035156 177.140625 L 206.007812 173.960938 L 202.617188 172.757812 L 202.167969 171.113281 L 201.636719 170.890625 L 201.367188 169.246094 L 198.246094 164.859375 L 195.660156 159.703125 L 192.183594 158.390625 L 190.042969 156.742188 L 188.347656 156.964844 L 185.671875 158.28125 L 185.046875 159.15625 L 183.800781 159.269531 L 183.085938 156.523438 L 181.035156 156.085938 L 179.964844 154.660156 L 177.824219 153.890625 L 176.488281 152.6875 L 176.488281 152.027344 L 177.734375 151.480469 L 175.238281 149.175781 L 175.597656 147.96875 L 177.914062 144.566406 L 179.964844 143.25 L 182.015625 143.03125 L 183.355469 141.496094 L 184.335938 141.496094 L 184.78125 141.054688 L 185.40625 139.300781 L 184.246094 138.421875 L 184.75 135.917969 L 185.890625 135.714844 L 186.867188 134.316406 L 187.679688 134.316406 L 188.171875 133.511719 L 188.824219 133.511719 L 189.472656 132.308594 L 190.125 132.308594 L 190.613281 131.503906 L 192.078125 131.304688 L 193.21875 130.101562 L 195.011719 130.503906 L 196.640625 129.300781 L 197.617188 129.300781 L 196.96875 133.511719 L 196.316406 134.113281 L 194.847656 134.113281 L 194.359375 134.511719 L 193.21875 135.917969 L 193.21875 136.714844 L 192.078125 137.320312 L 190.941406 140.125 L 189.960938 140.929688 L 188.496094 141.328125 L 187.519531 142.933594 L 186.054688 143.332031 L 186.542969 144.535156 L 187.519531 144.535156 L 188.496094 143.53125 L 188.984375 143.53125 L 189.472656 142.328125 L 191.917969 141.929688 L 193.21875 141.128906 L 194.199219 141.730469 L 194.6875 143.132812 L 195.175781 143.132812 L 195.664062 144.933594 L 195.828125 143.730469 L 193.871094 138.722656 L 195.992188 139.324219 L 197.453125 141.527344 L 198.105469 141.527344 L 197.453125 138.921875 L 196.640625 138.121094 L 196.96875 137.519531 L 198.429688 139.324219 L 201.527344 140.125 L 201.527344 139.726562 L 200.714844 139.726562 L 199.410156 137.722656 L 200.226562 136.519531 L 201.363281 136.316406 L 199.734375 134.714844 L 199.898438 133.910156 L 199.410156 132.507812 L 199.898438 132.109375 L 201.363281 132.910156 L 201.851562 134.113281 L 202.34375 133.511719 L 203.644531 133.511719 L 204.789062 134.316406 L 205.601562 134.316406 L 206.578125 135.316406 L 208.207031 135.113281 L 209.019531 135.714844 L 209.996094 135.714844 L 213.417969 139.527344 L 215.859375 140.125 L 217.328125 142.527344 L 218.144531 142.527344 L 218.957031 143.332031 L 219.121094 144.933594 L 221.074219 145.136719 L 223.027344 146.335938 L 226.613281 150.945312 L 227.589844 151.347656 L 228.566406 153.753906 L 230.359375 155.15625 L 230.195312 155.753906 L 228.402344 155.753906 L 227.753906 156.359375 L 225.796875 155.957031 L 224.820312 157.15625 L 222.867188 157.15625 L 222.214844 157.757812 L 222.214844 158.359375 L 222.867188 158.359375 L 223.027344 157.960938 L 225.308594 157.757812 L 225.472656 157.15625 L 226.773438 156.957031 L 228.730469 158.160156 L 229.542969 159.363281 L 230.847656 159.5625 L 230.847656 159.960938 L 228.890625 161.363281 L 227.914062 162.96875 L 226.613281 163.167969 L 225.144531 164.167969 L 225.308594 164.570312 L 224.167969 164.570312 L 223.355469 165.367188 L 223.191406 166.570312 L 224.007812 167.375 L 224.65625 167.773438 L 227.589844 167.972656 L 227.265625 169.378906 L 226.773438 169.378906 L 226.613281 169.976562 L 225.960938 169.976562 L 225.636719 171.582031 L 226.125 171.582031 L 226.613281 172.582031 L 227.914062 173.183594 L 228.730469 174.386719 L 228.730469 175.183594 L 226.773438 176.1875 L 225.308594 173.984375 L 223.191406 173.582031 L 222.214844 174.585938 L 222.867188 176.1875 L 221.402344 176.1875 L 220.910156 176.988281 L 221.238281 178.394531 L 223.355469 178.992188 L 223.515625 179.390625 L 222.378906 181.195312 L 222.539062 182.394531 L 223.515625 183.597656 L 223.355469 185.199219 L 222.867188 185.398438 L 222.703125 187.003906 L 221.402344 186.800781 L 222.703125 187.804688 L 222.703125 188.601562 L 221.5625 188.601562 L 221.890625 190.605469 L 220.585938 190.605469 L 220.09375 189.804688 L 219.933594 188.003906 L 218.792969 186.601562 L 219.121094 183.996094 L 218.304688 183.398438 L 216.023438 177.191406 L 215.046875 176.1875 L 211.953125 175.386719 L 211.789062 175.988281 L 212.441406 177.988281 L 213.09375 177.988281 L 212.769531 178.992188 L 213.417969 180.59375 L 212.441406 182.394531 Z M 210.8125 182.796875 "/>
<path style=" stroke:none;fill-rule:nonzero;fill-opacity:1;" d="M 184.246094 138.421875 L 185.40625 139.300781 L 184.78125 141.054688 L 184.335938 141.496094 L 183.355469 141.496094 L 182.015625 143.03125 L 179.964844 143.25 L 177.914062 144.566406 L 175.597656 147.96875 L 175.238281 149.175781 L 177.734375 151.480469 L 176.488281 152.027344 L 176.488281 152.6875 L 177.824219 153.890625 L 179.964844 154.660156 L 181.035156 156.085938 L 183.085938 156.523438 L 183.800781 159.269531 L 185.046875 159.15625 L 185.671875 158.28125 L 188.347656 156.964844 L 190.042969 156.742188 L 192.183594 158.390625 L 195.660156 159.703125 L 198.246094 164.859375 L 201.367188 169.246094 L 201.636719 170.890625 L 202.167969 171.113281 L 202.617188 172.757812 L 206.007812 173.960938 L 209.035156 177.140625 L 209.660156 179.226562 L 210.910156 180.648438 L 210.8125 182.796875 L 210.160156 182.597656 L 208.371094 180.195312 L 205.925781 180.792969 L 203.972656 180.792969 L 204.460938 181.394531 L 203.808594 182.394531 L 205.109375 182.394531 L 205.601562 184.800781 L 205.109375 185.398438 L 202.503906 185.601562 L 203.320312 188.003906 L 203.808594 188.203125 L 203.808594 189.40625 L 204.460938 189.40625 L 204.789062 188.601562 L 206.25 188.003906 L 209.34375 191.40625 L 210.8125 191.605469 L 210.324219 190.40625 L 209.34375 189.605469 L 208.859375 188.203125 L 211.300781 188.203125 L 213.257812 190.003906 L 213.417969 191.605469 L 214.882812 190.804688 L 215.210938 190.804688 L 215.210938 191.40625 L 214.558594 191.609375 L 212.769531 193.808594 L 211.625 192.40625 L 211.136719 195.609375 L 209.019531 197.011719 L 209.019531 197.613281 L 207.71875 198.015625 L 206.902344 198.8125 L 205.601562 198.8125 L 204.460938 199.816406 L 199.085938 199.414062 L 198.429688 199.015625 L 195.339844 199.613281 L 192.570312 199.015625 L 191.753906 198.214844 L 190.289062 198.015625 L 187.519531 196.210938 L 186.867188 196.210938 L 186.707031 195.609375 L 185.5625 195.609375 L 185.074219 195.007812 L 183.449219 194.8125 L 182.46875 194.207031 L 179.214844 194.007812 L 178.886719 194.410156 L 177.417969 194.410156 L 176.117188 193.808594 L 175.628906 193.007812 L 174.652344 193.207031 L 174.488281 193.808594 L 173.023438 193.410156 L 172.859375 194.007812 L 171.066406 194.007812 L 171.066406 193.410156 L 170.417969 193.410156 L 170.253906 193.007812 L 169.113281 193.207031 L 169.113281 192.808594 L 167.972656 192.808594 L 165.855469 190.605469 L 162.757812 190.40625 L 160.96875 189.804688 L 160.804688 189.40625 L 160.644531 189.804688 L 159.992188 189.605469 L 159.992188 190.207031 L 159.5 190.605469 L 157.710938 190.605469 L 151.195312 187.402344 L 150.378906 187.402344 L 149.730469 188.003906 L 147.121094 185.398438 L 142.722656 185 L 140.933594 184.398438 L 138.652344 184.398438 L 136.695312 183.398438 L 135.722656 181.195312 L 135.722656 179.792969 L 132.300781 179.191406 L 129.53125 177.988281 L 128.878906 178.792969 L 128.066406 177.589844 L 127.253906 177.191406 L 127.414062 176.789062 L 125.457031 176.988281 L 124.480469 176.386719 L 123.667969 173.582031 L 122.199219 173.382812 L 120.898438 171.382812 L 121.464844 170.671875 L 121.554688 168.917969 L 124.230469 165.957031 L 124.851562 163.324219 L 126.011719 161.679688 L 126.726562 159.15625 L 129.308594 159.046875 L 130.738281 160.035156 L 131.898438 159.816406 L 133.324219 159.046875 L 136.894531 155.867188 L 136.894531 155.097656 L 135.730469 153.5625 L 135.644531 150.164062 L 134.664062 148.078125 L 135.199219 143.03125 L 138.050781 144.019531 L 139.746094 143.6875 L 143.042969 145.007812 L 144.292969 145.117188 L 149.199219 142.152344 L 152.675781 141.933594 L 154.101562 142.261719 L 156.421875 141.824219 L 159.097656 142.261719 L 159.898438 141.824219 L 160.523438 139.082031 L 161.238281 138.53125 L 164.625 140.289062 L 166.765625 140.289062 L 170.957031 141.386719 L 172.921875 142.921875 L 173.453125 142.8125 L 175.328125 140.289062 L 176.042969 140.179688 L 177.378906 137.546875 L 179.789062 137.984375 L 180.234375 139.082031 L 181.746094 139.847656 Z M 184.246094 138.421875 "/>
<path style=" stroke:none;fill-rule:nonzero;fill-opacity:1;" d="M 80.988281 48.664062 L 81.964844 49.667969 L 81.964844 50.472656 L 82.457031 50.671875 L 82.457031 51.878906 L 81.316406 50.671875 L 79.6875 51.070312 L 78.546875 49.867188 L 78.546875 49.0625 Z M 91.90625 44.851562 L 92.71875 45.855469 L 92.394531 46.859375 L 93.535156 48.265625 L 95.324219 48.265625 L 98.417969 51.675781 L 98.90625 52.882812 L 97.929688 54.285156 L 97.769531 55.289062 L 95.8125 55.089844 L 93.046875 55.6875 L 92.882812 56.09375 L 91.742188 55.890625 L 91.414062 56.292969 L 89.136719 55.890625 L 88.484375 56.292969 L 88.972656 56.492188 L 88.808594 56.898438 L 85.0625 56.695312 L 83.757812 57.296875 L 82.457031 57.296875 L 84.085938 55.089844 L 85.550781 54.089844 L 85.714844 53.285156 L 85.550781 52.480469 L 84.574219 52.886719 L 84.085938 52.480469 L 83.921875 51.476562 L 82.945312 51.074219 L 82.128906 49.066406 L 82.621094 48.265625 L 81.480469 47.261719 L 81.96875 45.855469 L 84.085938 46.257812 L 84.738281 45.253906 L 85.878906 45.253906 L 86.367188 46.65625 L 86.855469 45.253906 L 87.832031 45.253906 L 88.976562 46.058594 L 90.113281 46.257812 L 90.601562 47.261719 L 90.601562 45.054688 Z M 31.960938 0.0664062 L 32.9375 0.871094 L 34.566406 0.871094 L 36.035156 1.46875 L 38.964844 1.269531 L 39.289062 1.671875 L 40.921875 1.671875 L 40.921875 2.476562 L 40.269531 2.679688 L 40.269531 3.285156 L 41.085938 3.882812 L 44.339844 4.289062 L 44.667969 5.691406 L 44.179688 6.699219 L 44.339844 7.5 L 45.320312 7.5 L 45.808594 5.890625 L 46.136719 6.09375 L 46.300781 5.6875 L 48.09375 5.6875 L 48.90625 6.492188 L 49.882812 6.492188 L 52.492188 9.304688 L 52.65625 10.914062 L 53.472656 11.917969 L 55.585938 12.519531 L 55.910156 13.726562 L 57.863281 14.328125 L 58.351562 15.332031 L 59.980469 15.132812 L 61.773438 11.917969 L 63.402344 11.71875 L 63.890625 12.722656 L 64.542969 12.722656 L 65.195312 14.726562 L 65.847656 15.332031 L 67.3125 15.53125 L 69.105469 17.945312 L 70.40625 17.742188 L 72.363281 16.539062 L 75.457031 16.941406 L 75.945312 17.945312 L 76.273438 21.761719 L 77.414062 22.164062 L 77.578125 23.773438 L 78.554688 23.773438 L 79.371094 22.96875 L 81.652344 23.773438 L 82.953125 26.183594 L 89.144531 32.40625 L 90.121094 34.214844 L 90.445312 36.425781 L 89.144531 37.628906 L 86.539062 38.03125 L 85.398438 39.441406 L 82.628906 39.640625 L 81.164062 41.449219 L 78.394531 41.449219 L 77.582031 40.644531 L 76.277344 40.445312 L 74.8125 40.445312 L 74.8125 40.847656 L 73.511719 41.046875 L 72.367188 41.046875 L 71.390625 40.246094 L 70.742188 40.246094 L 70.089844 41.046875 L 68.785156 40.648438 L 68.460938 41.851562 L 69.761719 42.050781 L 64.714844 45.867188 L 63.246094 45.867188 L 62.757812 45.464844 L 61.945312 45.867188 L 61.78125 46.871094 L 60.640625 47.277344 L 57.222656 47.074219 L 56.734375 48.28125 L 52.660156 47.476562 L 51.195312 48.878906 L 47.773438 50.085938 L 46.472656 51.289062 L 46.472656 51.894531 L 45.984375 51.894531 L 44.355469 49.882812 L 42.238281 49.882812 L 40.773438 47.074219 L 37.191406 47.074219 L 36.375 46.472656 L 32.464844 46.472656 L 31.816406 45.871094 L 29.699219 45.871094 L 29.046875 45.070312 L 28.070312 45.269531 L 27.09375 44.867188 L 27.09375 44.464844 L 24.976562 44.867188 L 24.976562 45.269531 L 24 45.269531 L 23.675781 45.871094 L 22.046875 45.070312 L 22.210938 44.464844 L 20.90625 44.871094 L 19.929688 43.261719 L 19.277344 43.261719 L 18.953125 42.257812 L 16.835938 40.050781 L 16.835938 38.246094 L 14.882812 36.4375 L 12.925781 36.636719 L 13.414062 36.238281 L 11.949219 35.433594 L 9.179688 35.433594 L 8.527344 36.238281 L 7.714844 36.039062 L 6.25 36.441406 L 6.25 36.039062 L 5.757812 36.238281 L 3.644531 34.832031 L 2.828125 35.035156 L 1.6875 33.625 L 1.6875 32.421875 L 3.480469 30.414062 L 3.15625 29.410156 L 3.480469 27.605469 L 2.664062 25.191406 L 2.828125 24.589844 L 3.808594 24.386719 L 3.972656 23.585938 L 3.480469 22.984375 L 2.832031 22.984375 L 2.507812 20.777344 L 4.625 18.566406 L 4.785156 17.5625 L 4.132812 14.550781 L 2.019531 13.546875 L 0.714844 13.546875 L 0.550781 13.144531 L 0.0625 7.519531 L 0.714844 5.3125 L 2.511719 5.710938 L 5.765625 5.710938 L 6.253906 5.3125 L 9.023438 5.511719 L 10.328125 4.507812 L 11.304688 2.699219 L 13.257812 2.699219 L 15.375 1.695312 L 17.65625 1.695312 L 20.425781 1.09375 L 21.238281 1.894531 L 22.378906 1.894531 L 23.195312 0.289062 L 24.171875 0.289062 L 25.800781 1.289062 L 27.265625 1.289062 L 27.757812 0.0898438 L 29.386719 0.0898438 L 29.875 0.488281 Z M 31.960938 0.0664062 "/>
</g>
</svg>
