<?xml version="1.0" encoding="UTF-8"?>
<svg xmlns="http://www.w3.org/2000/svg" xmlns:xlink="http://www.w3.org/1999/xlink" width="319px" height="200px" viewBox="0 0 318 200" version="1.1">
<g id="surface1">
<path style="fill:none;stroke-width:1;stroke-linecap:butt;stroke-linejoin:miter;stroke:rgb(80%,80%,80%);stroke-opacity:1;stroke-miterlimit:4;" d="M 757.958038 76.876378 L 699.057263 76.913785 L 697.797176 294.485505 L 696.582685 294.464723 L 697.863497 76.868065 L 559.403152 76.768313 L 559.382427 75.587914 L 757.949748 75.712604 Z M 757.866848 76.427494 " transform="matrix(0,0.942395,-0.93983,0,276.766365,-516.424984)"/>
<path style=" stroke:none;fill-rule:nonzero;fill-opacity:1;" d="M 245.117188 45.246094 L 246.269531 44.859375 L 246.402344 45.539062 L 247.71875 45.265625 L 248.574219 44.285156 L 248.96875 45.257812 L 249.578125 45.464844 L 249.664062 44.992188 L 250.40625 44.679688 L 249.636719 44.3125 L 249.824219 43.796875 L 250.699219 44.199219 L 250.933594 43.765625 L 251.488281 44.984375 L 252.699219 45.8125 L 252.878906 44.964844 L 252.363281 44.605469 L 252.417969 43.8125 L 253.941406 44.277344 L 255.519531 42.722656 L 256.410156 43.285156 L 257.210938 43.605469 L 257.398438 44.792969 L 257.097656 44.878906 L 257.285156 45.40625 L 258.1875 45.472656 L 257.925781 46.105469 L 258.480469 45.945312 L 260.285156 46.71875 L 261.308594 45.351562 L 261.542969 45.53125 L 261.601562 46.367188 L 260.3125 47.921875 L 260.453125 49.875 L 261.195312 51.097656 L 260.40625 51.804688 L 259.289062 51.128906 L 258.601562 51.910156 L 257.398438 51.183594 L 256.683594 51.53125 L 257.21875 52.730469 L 256.160156 55.414062 L 254.390625 56.085938 L 254.570312 57.207031 L 255.433594 57.914062 L 255.511719 60.183594 L 256.964844 60.917969 L 255.097656 61.699219 L 255.792969 63.945312 L 256.824219 65.035156 L 254.289062 66.015625 L 254.824219 67.761719 L 253.714844 69.023438 L 253.675781 70.644531 L 253.628906 71.417969 L 253.113281 71.652344 L 252.230469 71.238281 L 252.097656 72.332031 L 250.933594 72.578125 L 250.761719 74.066406 L 249.757812 73.554688 L 248.707031 73.621094 L 248.515625 72.640625 L 249.851562 72.652344 L 249.964844 69.917969 L 249.269531 69.363281 L 249.269531 68.496094 L 247.257812 69.351562 L 247.191406 66.835938 L 246.917969 66.28125 L 246 66.027344 L 245.5 66.800781 L 245.398438 68.335938 L 244.570312 68.25 L 243.414062 67.054688 L 240.96875 64.667969 L 241.917969 60.691406 L 241.984375 59.996094 L 241.570312 59.863281 L 243.996094 51.769531 Z M 245.117188 45.246094 "/>
<path style=" stroke:none;fill-rule:nonzero;fill-opacity:1;" d="M 259.371094 149.089844 L 259.738281 148.730469 L 260.359375 149.351562 L 262.613281 148.769531 L 263.96875 149.863281 L 264.804688 149.15625 L 269.035156 151.660156 L 271.402344 151.859375 L 274.0625 153.601562 L 275.085938 153.253906 L 276.441406 153.472656 L 277.097656 154.035156 L 279.15625 154.046875 L 279.210938 153.359375 L 280.160156 152.972656 L 280.933594 151.992188 L 281.101562 151.332031 L 281.789062 151.078125 L 282.152344 150.210938 L 281.863281 149.898438 L 283.375 149.863281 L 283.929688 149.050781 L 285.40625 148.664062 L 286.683594 151.226562 L 288.292969 151.859375 L 288.027344 152.707031 L 289.191406 155.128906 L 289.476562 155.242188 L 289.417969 154.613281 L 290.066406 154.6875 L 290.734375 154.066406 L 291.429688 154.773438 L 291.964844 154.121094 L 292.171875 154.453125 L 293.085938 154.273438 L 293.601562 153.441406 L 294.511719 153.1875 L 294.765625 153.539062 L 295.839844 152.859375 L 295.894531 153.546875 L 294.851562 154.886719 L 295.347656 155.402344 L 294.804688 156.988281 L 294.296875 157.308594 L 293.875 160.304688 L 292.546875 160.613281 L 291.007812 159.503906 L 290.125 160.039062 L 290.347656 160.972656 L 288.789062 161.414062 L 287.933594 161.019531 L 286.140625 161.90625 L 286.5625 162.847656 L 286.363281 164.054688 L 285.554688 164.996094 L 285.519531 166.070312 L 284.304688 168.070312 L 282.164062 170.011719 L 281.429688 170.199219 L 280.640625 172.507812 L 280.773438 173.734375 L 280.40625 173.828125 L 280.445312 174.410156 L 280.066406 174.296875 L 279.429688 176.003906 L 278.976562 175.964844 L 278.894531 177.765625 L 278.421875 177.804688 L 278.722656 178.90625 L 276.890625 178.804688 L 275.585938 180.1875 L 273.882812 179.671875 L 271.5625 180.640625 L 271.222656 180.347656 L 271.28125 180.667969 L 269.824219 181.535156 L 269.511719 181.300781 L 269.210938 181.820312 L 268.621094 181.789062 L 268.527344 182.222656 L 267.472656 182.328125 L 267.492188 183.054688 L 267.152344 182.96875 L 266.996094 183.457031 L 266.496094 183.109375 L 266.046875 183.488281 L 264.785156 183.363281 L 264.054688 184.464844 L 264.53125 185.003906 L 263.441406 185.304688 L 262.304688 186.644531 L 258.660156 185.796875 L 256.871094 184.183594 L 256.09375 184.109375 L 256.394531 183.335938 L 256.015625 182.6875 L 254.757812 182.175781 L 254.484375 182.75 L 254.261719 182.394531 L 251.84375 182.902344 L 251.730469 183.84375 L 250.867188 184.496094 L 248.96875 184.417969 L 247.332031 183.203125 L 245.96875 183.550781 L 245.273438 184.53125 L 244.542969 183.589844 L 242.484375 183.796875 L 242.003906 182.429688 L 240.621094 182.015625 L 240.933594 178.660156 L 239.925781 176.171875 L 240.921875 171.886719 L 240.132812 170.574219 L 240.71875 167.929688 L 241.214844 168.472656 L 242.425781 168.105469 L 243.96875 170.40625 L 244.636719 169.839844 L 245.933594 170.558594 L 246.242188 170.152344 L 246.824219 170.273438 L 246.929688 168.683594 L 247.445312 167.957031 L 247.953125 168.058594 L 247.886719 166.882812 L 248.300781 166.65625 L 251.175781 166.402344 L 251.355469 165.996094 L 254.4375 166.890625 L 254.308594 166.164062 L 255.367188 164.941406 L 255.078125 164.46875 L 255.539062 161.398438 L 254.785156 160.164062 L 253.453125 160.324219 L 252.097656 158.410156 L 252.71875 156.816406 L 253.46875 157.242188 L 253.695312 155.929688 L 254.210938 155.835938 L 254.355469 155.300781 L 255.03125 155.949219 L 255.613281 155.914062 L 255.808594 154.121094 L 257.136719 154.394531 L 257.707031 153.519531 L 260.398438 152.707031 L 260.40625 151.117188 Z M 259.371094 149.089844 "/>
<path style=" stroke:none;fill-rule:nonzero;fill-opacity:1;" d="M 262.738281 13.480469 L 262.417969 15.816406 L 261.636719 17.71875 L 260.707031 18.652344 L 263.152344 18.191406 L 264.578125 18.820312 L 264.335938 22.054688 L 267.773438 22.667969 L 268.675781 21.59375 L 269.871094 23.25 L 269.578125 23.929688 L 269.023438 24.042969 L 269.089844 24.710938 L 268.292969 25.183594 L 268.367188 25.683594 L 267.417969 25.617188 L 267.144531 26.578125 L 266.09375 27.03125 L 266 28.894531 L 264.8125 30.308594 L 265.21875 30.421875 L 265.019531 31.09375 L 264.589844 32.195312 L 263.339844 33.316406 L 262.3125 32.355469 L 261.683594 32.902344 L 260.699219 32.355469 L 259.90625 31.675781 L 260.105469 30.988281 L 259.542969 30.855469 L 259.335938 30.09375 L 257.914062 29.640625 L 257.652344 30.367188 L 256.949219 30.339844 L 256.007812 31.316406 L 255.726562 32.441406 L 254.859375 32.035156 L 254.578125 31.027344 L 252.558594 31.621094 L 252.851562 30.867188 L 252.398438 30.734375 L 251.449219 31.574219 L 250.726562 31.074219 L 249.371094 31.355469 L 248.863281 32.25 L 246.128906 32.441406 L 245.753906 30.789062 L 246.140625 30.449219 L 246.722656 30.101562 L 246.289062 29.613281 L 244.957031 29.328125 L 244.371094 28.320312 L 243.453125 28.445312 L 242.117188 27.398438 L 241.242188 27.292969 L 240.21875 21.707031 L 241.789062 21.621094 L 243.574219 20.574219 L 244.542969 20.507812 L 244.925781 20.953125 L 245.164062 20.027344 L 246.316406 20.828125 L 247.117188 20.488281 L 247.550781 21.253906 L 248.207031 20.953125 L 248.011719 19.679688 L 248.769531 19.039062 L 248.863281 17.191406 L 249.363281 16.691406 L 249.796875 16.644531 L 249.832031 17.144531 L 250.558594 16.9375 L 251.65625 15.949219 L 253.121094 15.429688 L 253.847656 15.84375 L 255.152344 15.789062 L 255.519531 15.003906 L 256.1875 15.390625 L 258.433594 13.75 L 259.289062 13.949219 L 259.355469 13.527344 L 261.46875 13.929688 Z M 262.738281 13.480469 "/>
<path style=" stroke:none;fill-rule:nonzero;fill-opacity:1;" d="M 270.714844 75.949219 L 272.152344 75.675781 L 272.867188 74.742188 L 274.464844 74.246094 L 275.566406 73.234375 L 275.867188 72.304688 L 276.683594 72.785156 L 277.992188 72.527344 L 278.648438 70.550781 L 279.476562 69.53125 L 280.226562 69.257812 L 280.660156 69.84375 L 281.296875 69.644531 L 282.230469 70.078125 L 283.261719 69.625 L 283.695312 70.042969 L 284.210938 68.910156 L 284.832031 69.203125 L 285.238281 68.703125 L 285.902344 69.023438 L 285.808594 71.378906 L 284.832031 73.066406 L 284.0625 73.460938 L 284.464844 73.972656 L 286.804688 74.839844 L 287.625 73.761719 L 289.144531 74.441406 L 289.898438 73.886719 L 290.058594 72.746094 L 290.613281 72.265625 L 291.449219 74.054688 L 293.019531 74.066406 L 293.515625 73.601562 L 295.378906 74.875 L 295.019531 75.621094 L 293.554688 76.121094 L 293.046875 77.636719 L 293.441406 78.023438 L 293.300781 79.285156 L 294.136719 80.5 L 295.6875 80.5 L 296.390625 82.300781 L 297.125 82.527344 L 297.972656 84.394531 L 297.292969 85.65625 L 297.351562 87.15625 L 296.703125 87.804688 L 296.796875 89.859375 L 295.460938 91.527344 L 294.316406 92.195312 L 294.625 93.648438 L 293.46875 97.578125 L 289.4375 98.246094 L 286.46875 97.71875 L 284.035156 98.71875 L 280.414062 97.890625 L 277.859375 97.84375 L 276.648438 98.078125 L 275.011719 99.414062 L 273.996094 98.40625 L 273.054688 98.886719 L 272.492188 100.554688 L 271.523438 100.746094 L 271.082031 101.667969 L 269.449219 102.703125 L 269.878906 101.433594 L 269.523438 100.714844 L 268.273438 98.820312 L 267.453125 98.625 L 266.789062 97.652344 L 265.507812 97.925781 L 265.632812 95.796875 L 265.144531 94.695312 L 264.542969 95.34375 L 264.0625 94.761719 L 263.152344 94.601562 L 262.632812 95.0625 L 262.53125 97.519531 L 261.964844 98.03125 L 262.613281 99.621094 L 260.257812 99.859375 L 257.238281 98.558594 L 257.457031 94.394531 L 257.042969 93.402344 L 256.375 93.789062 L 255.792969 92.78125 L 255.792969 92.753906 L 255.558594 92.253906 L 256.175781 91.839844 L 256.082031 90.953125 L 257.503906 90.425781 L 258.019531 90.625 L 258.722656 89.445312 L 259.25 89.679688 L 259.824219 89.292969 L 260.726562 87.410156 L 260.839844 86.84375 L 261.796875 86.910156 L 261.695312 86.203125 L 262.296875 86.617188 L 262.578125 86.035156 L 263.273438 86.382812 L 263.320312 85.449219 L 263.742188 85.976562 L 264.101562 85.921875 L 263.847656 85.269531 L 264.324219 85.703125 L 264.925781 85.28125 L 265.339844 85.742188 L 265.652344 84.761719 L 267.164062 84.75 L 266.75 83.59375 L 268.28125 82.613281 L 269.449219 82.894531 L 269.945312 83.480469 L 270.003906 82.140625 L 270.292969 81.867188 L 269.671875 81.894531 L 270.574219 81.539062 L 270.980469 82.378906 L 271.882812 81.292969 L 271.628906 80.992188 L 272.210938 80.757812 L 272.078125 80.039062 L 270.292969 78.609375 L 269.917969 77.816406 Z M 270.714844 75.949219 "/>
<path style=" stroke:none;fill-rule:nonzero;fill-opacity:1;" d="M 240.980469 64.640625 L 243.421875 67.027344 L 244.578125 68.222656 L 245.40625 68.308594 L 245.511719 66.769531 L 246.007812 66 L 246.917969 66.253906 L 247.191406 66.808594 L 247.265625 69.324219 L 249.269531 68.46875 L 249.269531 69.335938 L 249.964844 69.890625 L 249.863281 72.625 L 248.527344 72.613281 L 248.714844 73.59375 L 249.765625 73.527344 L 250.761719 74.035156 L 250.933594 72.546875 L 252.097656 72.292969 L 252.230469 71.199219 L 253.113281 71.613281 L 253.628906 71.378906 L 253.675781 70.605469 L 254.070312 70.503906 L 254.484375 71.097656 L 255.359375 70.964844 L 256.808594 72.320312 L 258.527344 71.539062 L 258.761719 71.917969 L 259.183594 71.472656 L 260.273438 71.933594 L 262.992188 69.898438 L 265.03125 69.136719 L 267.691406 66.488281 L 269.34375 65.5 L 269.382812 66.148438 L 270.285156 67.101562 L 269.871094 67.796875 L 268.761719 68.214844 L 268.847656 68.789062 L 269.390625 69.210938 L 270.273438 69.136719 L 270.039062 71.304688 L 271.429688 71.992188 L 271.214844 72.585938 L 270.058594 72.925781 L 269.417969 74.554688 L 270.714844 75.949219 L 269.917969 77.816406 L 270.292969 78.609375 L 272.078125 80.039062 L 272.210938 80.757812 L 271.628906 80.992188 L 271.882812 81.292969 L 270.980469 82.378906 L 270.574219 81.539062 L 269.671875 81.894531 L 270.292969 81.867188 L 270.003906 82.140625 L 269.945312 83.480469 L 269.449219 82.894531 L 268.28125 82.613281 L 266.75 83.59375 L 267.164062 84.75 L 265.652344 84.761719 L 265.339844 85.742188 L 264.925781 85.28125 L 264.324219 85.703125 L 263.847656 85.269531 L 264.101562 85.921875 L 263.742188 85.976562 L 263.320312 85.449219 L 263.273438 86.382812 L 262.578125 86.035156 L 262.296875 86.617188 L 261.695312 86.203125 L 261.796875 86.910156 L 260.839844 86.84375 L 260.726562 87.410156 L 260.320312 87.183594 L 260.988281 85.957031 L 259.625 84.007812 L 259.984375 82.039062 L 258.941406 81.386719 L 258.027344 82.839844 L 257.058594 82.253906 L 256.0625 83.101562 L 255.40625 84.496094 L 256.222656 85.28125 L 255.960938 86.429688 L 254.9375 85.296875 L 253.160156 87.804688 L 252.117188 87.496094 L 252.980469 86.582031 L 251.609375 83.828125 L 251.289062 84.242188 L 251.582031 84.949219 L 250.679688 84.167969 L 249.691406 85.394531 L 248.753906 85.457031 L 248.265625 86.835938 L 247.578125 83.773438 L 246.695312 83.789062 L 246 85.15625 L 245.171875 85.234375 L 245.226562 84.429688 L 244.203125 83.695312 L 241.507812 83.273438 L 240.492188 84.375 L 239.335938 83.753906 L 238.46875 83.949219 L 237.71875 83.140625 L 238.675781 79.53125 L 237.257812 77.589844 L 239.183594 72.03125 Z M 240.980469 64.640625 "/>
<path style=" stroke:none;fill-rule:nonzero;fill-opacity:1;" d="M 299.871094 6.710938 L 300.800781 6.917969 L 301.335938 8.53125 L 302.050781 8.792969 L 305.171875 8.683594 L 306.15625 7.578125 L 307.304688 8.492188 L 306.664062 10.925781 L 308.308594 11.394531 L 307.480469 15.109375 L 306.730469 16.496094 L 307.117188 16.738281 L 307.539062 19 L 308.789062 19.925781 L 310.039062 19.546875 L 310.425781 18.820312 L 314.644531 19.734375 L 316.0625 20.886719 L 316.617188 21.914062 L 317.632812 22.402344 L 318 23.195312 L 316.578125 25.304688 L 315.960938 25.597656 L 316.167969 26.144531 L 315.726562 26.21875 L 315.847656 26.679688 L 315.179688 26.984375 L 314.550781 28.140625 L 314.710938 28.972656 L 313.722656 29.695312 L 314.183594 30.675781 L 313.148438 30.96875 L 312.734375 30.367188 L 312.050781 30.714844 L 311.9375 31.300781 L 312.425781 31.714844 L 311.289062 32.167969 L 310.621094 33.851562 L 309.164062 34.398438 L 309.417969 35.011719 L 308.882812 35.398438 L 308.101562 35.023438 L 306.65625 36.464844 L 306.054688 35.824219 L 305.808594 36.285156 L 304.371094 36.125 L 303.09375 37.621094 L 302.566406 39.082031 L 300.820312 40.574219 L 301.234375 41.777344 L 299.605469 44.4375 L 297.839844 44.8125 L 296.421875 44.359375 L 295.96875 44.71875 L 294.851562 44.445312 L 294.175781 44.886719 L 293.996094 44.425781 L 292.640625 44.132812 L 292.199219 43.398438 L 290.914062 42.710938 L 290.894531 41.761719 L 291.449219 40.921875 L 290.066406 40.460938 L 290.527344 39.941406 L 290.453125 38.820312 L 289.070312 40.910156 L 286.523438 40.167969 L 284.898438 40.382812 L 283.320312 40.054688 L 282.34375 38.1875 L 281.109375 37.574219 L 281.636719 36.097656 L 282.4375 36.246094 L 282.3125 34.617188 L 283.1875 33.898438 L 282.792969 33.484375 L 283.367188 32.824219 L 284.597656 32.542969 L 283.207031 31.496094 L 283.46875 31.035156 L 283.046875 29.507812 L 283.09375 28.511719 L 285.078125 27.558594 L 284.984375 26.644531 L 285.507812 25.53125 L 287.136719 25.25 L 286.261719 23.648438 L 286.25 22.535156 L 287.738281 17.738281 L 288.828125 16.445312 L 288.855469 15.449219 L 288.179688 14.957031 L 287.691406 13.695312 L 287.980469 11.085938 L 288.789062 9.511719 L 288.308594 8.617188 L 288.433594 7.390625 L 289.738281 6.65625 L 291.335938 7.34375 L 291.796875 8.285156 L 293.75 8.257812 L 294.550781 7.324219 L 295.1875 7.523438 L 295.585938 8.492188 L 297.136719 8.683594 L 299.230469 8.4375 L 299.53125 6.582031 Z M 299.871094 6.710938 "/>
<path style=" stroke:none;fill-rule:nonzero;fill-opacity:1;" d="M 257.492188 123.757812 L 257.765625 124.105469 L 259.0625 122.484375 L 259.402344 122.703125 L 259.738281 122.25 L 260.3125 122.816406 L 260.367188 122.402344 L 261.167969 122.410156 L 261.328125 122.785156 L 260.679688 123.125 L 261.195312 124.453125 L 261.664062 124.183594 L 261.695312 123.042969 L 262.164062 122.675781 L 263.847656 123.984375 L 263.59375 125.53125 L 264.644531 125.398438 L 266.488281 124.238281 L 267.371094 125.886719 L 267.90625 126.085938 L 267.933594 126.765625 L 270.492188 127.246094 L 270.621094 126.8125 L 271.609375 126.773438 L 272.183594 125.59375 L 273.214844 126.613281 L 273.648438 125.960938 L 275.011719 126.652344 L 276 125.039062 L 277.171875 125.085938 L 277.839844 124.492188 L 277.519531 123.558594 L 278.101562 122.957031 L 278.714844 123.8125 L 279.53125 123.738281 L 279.445312 124.210938 L 280.492188 124.632812 L 280.097656 126.09375 L 281.382812 126.953125 L 281.242188 127.960938 L 281.929688 129.035156 L 281.347656 129.0625 L 281.910156 129.488281 L 282.3125 130.835938 L 283 130.457031 L 283.394531 130.976562 L 284.195312 130.742188 L 284.269531 129.929688 L 284.832031 129.734375 L 285.191406 129.347656 L 285.632812 129.835938 L 286.664062 129.074219 L 287.210938 129.796875 L 287.773438 129.703125 L 287.03125 131.550781 L 287.886719 132.738281 L 286.222656 133.792969 L 285.847656 137.027344 L 286.703125 137.574219 L 284.597656 141.746094 L 284.390625 143.09375 L 285.019531 142.925781 L 285.066406 143.425781 L 283.96875 144.707031 L 284.523438 144.539062 L 285.632812 145.320312 L 285.875 146.261719 L 288.890625 150.625 L 289.464844 150.757812 L 290.734375 154.066406 L 290.066406 154.6875 L 289.417969 154.613281 L 289.476562 155.242188 L 289.191406 155.128906 L 288.027344 152.707031 L 288.292969 151.859375 L 286.683594 151.226562 L 285.40625 148.664062 L 283.929688 149.050781 L 283.375 149.863281 L 281.863281 149.898438 L 282.152344 150.210938 L 281.789062 151.078125 L 281.101562 151.332031 L 280.933594 151.992188 L 280.160156 152.972656 L 279.210938 153.359375 L 279.15625 154.046875 L 277.097656 154.035156 L 276.441406 153.472656 L 275.085938 153.253906 L 274.0625 153.601562 L 271.402344 151.859375 L 269.035156 151.660156 L 264.804688 149.15625 L 263.96875 149.863281 L 262.613281 148.769531 L 260.359375 149.351562 L 259.738281 148.730469 L 259.371094 149.089844 L 258.386719 148.230469 L 256.261719 147.816406 L 256.027344 147.136719 L 254.683594 147.109375 L 255.828125 145.601562 L 255.292969 145.140625 L 255.828125 145.085938 L 255.605469 144.585938 L 254.664062 144.667969 L 255.039062 143.847656 L 253.300781 140.542969 L 251.695312 141.484375 L 251.027344 141.238281 L 250.125 141.644531 L 249.277344 140.476562 L 248.816406 140.65625 L 249.230469 141.550781 L 248.5625 141.851562 L 248.453125 141.210938 L 247.257812 141.078125 L 247.183594 140.457031 L 245.285156 140.398438 L 244.863281 138.027344 L 249.382812 134.105469 L 249.089844 133.332031 L 249.683594 132.363281 L 248.027344 132.277344 L 249.402344 130.609375 L 250.292969 131.082031 L 251.488281 129.589844 L 251.816406 129.460938 L 252.117188 130.015625 L 253.046875 128.742188 L 254.117188 129.410156 L 254.71875 128.640625 L 255.050781 129.1875 L 255.320312 128.308594 L 256.523438 129.242188 L 256.328125 129.554688 L 256.808594 130.183594 L 257.652344 129.769531 L 258.394531 130.589844 L 258.167969 130.917969 L 259.101562 130.855469 L 258.976562 131.335938 L 260.050781 131.917969 L 260.527344 130.757812 L 259.785156 130.136719 L 259.503906 130.636719 L 259.316406 129.816406 L 258.6875 129.46875 L 259.542969 128.367188 L 258.855469 127.867188 L 258.085938 128.054688 L 258.007812 127.667969 L 256.175781 126.800781 L 257.050781 125.632812 L 257.050781 124.285156 Z M 257.492188 123.757812 "/>
<path style=" stroke:none;fill-rule:nonzero;fill-opacity:1;" d="M 269.4375 198.339844 L 269.953125 198.433594 L 268.121094 199.882812 L 268.546875 198.921875 Z M 265.960938 198.273438 L 268.09375 199.855469 L 266.46875 199.640625 L 264.890625 198.472656 Z M 269.644531 197.679688 L 269.992188 198.019531 L 268.480469 198.460938 Z M 257.378906 195.417969 L 255.40625 195.824219 L 253.40625 194.730469 L 251.289062 195.332031 L 248.359375 194.125 L 245.960938 193.9375 L 244.523438 194.539062 L 244.4375 195.578125 L 242.679688 195.292969 L 240.867188 196.171875 L 239.324219 196.257812 L 238.621094 196.945312 L 237.71875 196.925781 L 236.128906 198.742188 L 235.660156 197.566406 L 234.671875 197.667969 L 237.445312 192.355469 L 237.003906 191.195312 L 237.671875 190.820312 L 238.722656 188.492188 L 238.199219 186.550781 L 239.183594 185.390625 L 240.621094 181.996094 L 242.003906 182.414062 L 242.484375 183.777344 L 244.542969 183.570312 L 245.273438 184.515625 L 245.96875 183.535156 L 247.332031 183.183594 L 248.960938 184.402344 L 250.859375 184.484375 L 251.722656 183.835938 L 251.835938 182.894531 L 254.25 182.382812 L 254.476562 182.742188 L 254.75 182.167969 L 256 182.675781 L 256.382812 183.328125 L 256.082031 184.097656 L 256.863281 184.175781 L 258.660156 185.785156 L 262.296875 186.625 L 263.433594 185.296875 L 264.523438 184.984375 L 264.042969 184.449219 L 264.777344 183.34375 L 266.046875 183.46875 L 266.488281 183.089844 L 266.984375 183.449219 L 267.144531 182.957031 L 267.492188 183.042969 L 267.472656 182.316406 L 268.535156 182.214844 L 268.621094 181.78125 L 269.222656 181.808594 L 269.523438 181.289062 L 269.832031 181.535156 L 271.289062 180.667969 L 271.234375 180.347656 L 271.570312 180.640625 L 273.902344 179.671875 L 275.59375 180.199219 L 276.910156 178.804688 L 278.742188 178.90625 L 279.34375 179.058594 L 279.578125 179.953125 L 280.179688 180.367188 L 280.03125 181.066406 L 280.726562 182.902344 L 280.21875 183.289062 L 280.875 183.957031 L 280.828125 186.925781 L 281.441406 188.320312 L 281.082031 189.207031 L 281.683594 190.128906 L 281.863281 192.128906 L 280.320312 191.921875 L 277.3125 192.871094 L 270.386719 197.953125 L 269.429688 197.5 L 268.121094 198.273438 L 268.132812 199.066406 L 267.699219 199.207031 L 266.027344 198.140625 L 264.777344 198.375 L 260.980469 195.90625 L 258.847656 195.152344 Z M 257.378906 195.417969 "/>
<path style=" stroke:none;fill-rule:nonzero;fill-opacity:1;" d="M 281.535156 48.941406 L 282.691406 49.742188 L 282.105469 50.570312 L 281.15625 50.015625 Z M 284.898438 40.382812 L 286.535156 40.167969 L 289.070312 40.910156 L 290.453125 38.820312 L 290.539062 39.941406 L 290.078125 40.460938 L 291.449219 40.921875 L 290.894531 41.761719 L 290.914062 42.722656 L 292.199219 43.398438 L 292.640625 44.132812 L 293.996094 44.4375 L 294.175781 44.898438 L 294.859375 44.457031 L 295.980469 44.726562 L 296.269531 45.785156 L 298.121094 47.855469 L 298.421875 49.703125 L 299.617188 50.503906 L 299.832031 51.351562 L 299.832031 51.945312 L 299.089844 52.15625 L 299.390625 53.851562 L 298.96875 55.585938 L 300.066406 59.164062 L 298.542969 62.886719 L 299.871094 63.5 L 300.039062 65.019531 L 298.421875 67.355469 L 298.875 69.0625 L 300.460938 70.738281 L 300.078125 72.144531 L 298.085938 73.265625 L 297.800781 74.707031 L 295.414062 74.894531 L 293.554688 73.632812 L 293.066406 74.09375 L 291.488281 74.085938 L 290.648438 72.292969 L 290.085938 72.773438 L 289.925781 73.914062 L 289.175781 74.46875 L 287.660156 73.792969 L 286.84375 74.867188 L 284.503906 74 L 284.097656 73.480469 L 284.871094 73.085938 L 285.847656 71.398438 L 285.941406 69.042969 L 285.273438 68.730469 L 284.859375 69.222656 L 284.242188 68.9375 L 283.722656 70.058594 L 283.292969 69.65625 L 282.257812 70.105469 L 281.335938 69.664062 L 280.695312 69.863281 L 280.273438 69.277344 L 279.523438 69.550781 L 278.695312 70.558594 L 278.039062 72.539062 L 276.730469 72.792969 L 275.914062 72.3125 L 275.621094 73.234375 L 274.511719 74.253906 L 272.914062 74.753906 L 272.199219 75.6875 L 270.753906 75.960938 L 269.464844 74.566406 L 270.105469 72.945312 L 271.261719 72.605469 L 271.476562 72.011719 L 270.085938 71.332031 L 270.320312 69.164062 L 269.4375 69.238281 L 268.894531 68.816406 L 268.800781 68.242188 L 269.90625 67.835938 L 270.320312 67.128906 L 269.417969 66.175781 L 269.390625 65.527344 L 274.222656 63.144531 L 276.730469 62.605469 L 276.488281 62.132812 L 277.171875 59.796875 L 277.878906 59.25 L 277.605469 58.5625 L 278.085938 58.042969 L 276.429688 57.121094 L 276.261719 56.535156 L 277.03125 55.734375 L 275.332031 54.472656 L 276.582031 51.683594 L 277.324219 50.910156 L 278.722656 51.023438 L 280.519531 53.257812 L 282.011719 50.664062 L 282.707031 51.050781 L 282.878906 49.335938 L 284.003906 48.488281 L 284.335938 47 L 282.746094 46.246094 L 282.738281 45.378906 L 283.96875 45.339844 L 283.722656 44.078125 Z M 284.898438 40.382812 "/>
<path style=" stroke:none;fill-rule:nonzero;fill-opacity:1;" d="M 243.882812 101.101562 L 244.335938 101.695312 L 243.613281 102.894531 L 243.046875 103.335938 L 242.472656 102.742188 L 242.097656 103.023438 L 242.617188 104.898438 L 240.445312 104.789062 L 237.445312 105.4375 L 236.195312 108.3125 L 235.519531 108.1875 L 234.863281 108.867188 L 234.757812 111.929688 L 233.808594 112.0625 L 233.421875 111.414062 L 232.625 111.429688 L 232.457031 111.828125 L 231.375 112.722656 L 230.359375 114.511719 L 229.316406 115.191406 L 228.59375 113.804688 L 229.054688 112.996094 L 228.660156 111.714844 L 227.324219 111.621094 L 227.023438 111.128906 L 225.800781 112.441406 L 224.484375 112.117188 L 223.773438 109.933594 L 222.464844 109.519531 L 222.832031 109.101562 L 224.328125 109.375 L 227.457031 106.992188 L 228.328125 107.707031 L 227.992188 107.953125 L 229.167969 107.914062 L 228.648438 107.851562 L 227.871094 106.597656 L 229.53125 104.109375 L 230.546875 103.96875 L 230.304688 103.308594 L 232.363281 100.761719 L 232.410156 100.207031 L 232.042969 100.132812 L 233.113281 95.675781 L 237.765625 83.148438 L 238.519531 83.960938 L 239.382812 83.761719 L 240.546875 84.382812 L 241.554688 83.292969 L 244.25 83.707031 L 245.273438 84.441406 L 245.226562 85.242188 L 246.054688 85.167969 L 246.75 83.800781 L 247.632812 83.789062 L 248.3125 86.851562 L 248.800781 85.476562 L 249.738281 85.421875 L 250.726562 84.195312 L 251.628906 84.976562 L 251.335938 84.269531 L 251.65625 83.855469 L 253.027344 86.609375 L 252.171875 87.523438 L 253.214844 87.832031 L 254.992188 85.328125 L 256.015625 86.457031 L 256.28125 85.316406 L 255.472656 84.535156 L 256.128906 83.140625 L 257.125 82.292969 L 258.09375 82.886719 L 259.007812 81.425781 L 260.058594 82.085938 L 259.691406 84.054688 L 261.054688 86.003906 L 260.386719 87.230469 L 260.800781 87.457031 L 259.898438 89.339844 L 259.324219 89.738281 L 258.800781 89.5 L 258.09375 90.679688 L 257.578125 90.480469 L 256.160156 91.007812 L 256.253906 91.894531 L 255.632812 92.308594 L 255.867188 92.808594 L 254.464844 92.546875 L 254.570312 94.121094 L 254.101562 93.640625 L 253.066406 94.503906 L 252.351562 94.183594 L 250.90625 95.316406 L 250.179688 91.179688 L 249.324219 92.066406 L 248.921875 91.566406 L 248.273438 92.582031 L 246.75 93.542969 L 245.5 93.046875 L 244.269531 93.667969 L 244.148438 94.714844 L 244.636719 95.550781 L 244.195312 96.171875 L 245.539062 96.738281 L 245.078125 98.03125 L 243.507812 98.898438 Z M 243.882812 101.101562 "/>
<path style=" stroke:none;fill-rule:nonzero;fill-opacity:1;" d="M 230.273438 134.5 L 228.171875 135.019531 L 226.242188 134.746094 L 224.976562 135.714844 L 222.945312 134.625 L 221.921875 135.105469 L 220.152344 134.386719 L 220.578125 132.804688 L 219.730469 131.636719 L 222.175781 125.472656 L 222.410156 125.640625 L 221.890625 123.203125 L 222.0625 120.441406 L 224.328125 115.53125 L 224.457031 112.136719 L 225.773438 112.457031 L 227.003906 111.148438 L 227.304688 111.636719 L 228.640625 111.742188 L 229.042969 113.023438 L 228.59375 113.835938 L 229.316406 115.21875 L 230.359375 114.542969 L 231.375 112.75 L 232.457031 111.855469 L 232.632812 111.460938 L 233.433594 111.441406 L 233.820312 112.089844 L 234.769531 111.957031 L 235.339844 112.328125 L 235.164062 113.757812 L 235.71875 113.542969 L 237.230469 114.324219 L 238.3125 113.722656 L 238.707031 114.503906 L 239.578125 114.777344 L 239.769531 116.199219 L 238.167969 116.179688 L 237.203125 116.738281 L 238.554688 118.40625 L 240.613281 119.628906 L 241.09375 121.082031 L 239.851562 122.242188 L 238.761719 122.210938 L 239.324219 122.664062 L 238.265625 124.453125 L 239.054688 124.726562 L 237.851562 125.425781 L 237.257812 127.566406 L 235.546875 129.921875 L 234.925781 128.949219 L 235.265625 128.367188 L 234.777344 127.742188 L 234.757812 125.546875 L 234.035156 127.574219 L 232.109375 130.175781 L 231.574219 133.503906 Z M 230.273438 134.5 "/>
<path style=" stroke:none;fill-rule:nonzero;fill-opacity:1;" d="M 277.992188 97.925781 L 279.109375 100.6875 L 280.246094 101.339844 L 281.167969 102.808594 L 282.34375 102.996094 L 282.59375 104.476562 L 283.179688 104.851562 L 283.609375 104.597656 L 285.199219 105.796875 L 284.351562 108.6875 L 284.804688 110.421875 L 287.058594 112.636719 L 286.570312 113.589844 L 286.769531 115.324219 L 287.765625 116.125 L 289.9375 116.738281 L 289.664062 119.128906 L 290.808594 119.488281 L 292.960938 118.800781 L 294.503906 119.921875 L 295.132812 121.195312 L 294.886719 121.769531 L 295.386719 122.371094 L 292.390625 126.820312 L 292.953125 127.894531 L 292.765625 128.433594 L 291.898438 128.828125 L 291.074219 130.289062 L 289.765625 130.664062 L 287.886719 132.738281 L 287.03125 131.550781 L 287.773438 129.703125 L 287.210938 129.796875 L 286.664062 129.074219 L 285.632812 129.835938 L 285.191406 129.347656 L 284.832031 129.734375 L 284.269531 129.929688 L 284.195312 130.742188 L 283.394531 130.976562 L 283 130.457031 L 282.3125 130.835938 L 281.910156 129.488281 L 281.347656 129.0625 L 281.929688 129.035156 L 281.242188 127.960938 L 281.382812 126.953125 L 280.097656 126.09375 L 280.492188 124.632812 L 279.445312 124.210938 L 279.53125 123.738281 L 278.714844 123.8125 L 278.101562 122.957031 L 277.519531 123.558594 L 277.839844 124.492188 L 277.171875 125.085938 L 276 125.039062 L 275.011719 126.652344 L 273.648438 125.960938 L 273.214844 126.613281 L 272.183594 125.59375 L 271.609375 126.773438 L 270.621094 126.8125 L 270.492188 127.246094 L 267.933594 126.765625 L 267.90625 126.085938 L 267.371094 125.886719 L 266.488281 124.238281 L 264.644531 125.398438 L 263.59375 125.53125 L 263.847656 123.984375 L 262.164062 122.675781 L 261.695312 123.042969 L 261.664062 124.183594 L 261.195312 124.453125 L 260.679688 123.125 L 261.328125 122.785156 L 261.167969 122.410156 L 260.367188 122.402344 L 260.3125 122.816406 L 259.738281 122.25 L 259.402344 122.703125 L 259.0625 122.484375 L 257.765625 124.105469 L 257.492188 123.757812 L 257.519531 123.097656 L 256.855469 123.144531 L 256.308594 121.335938 L 255.621094 121.035156 L 255.621094 120.203125 L 254.324219 119.648438 L 254.0625 119.082031 L 255.398438 117.046875 L 257.183594 116.351562 L 258.734375 114.9375 L 259.765625 113.722656 L 259.636719 113.0625 L 260.238281 112.328125 L 261.917969 112.65625 L 263.46875 110.214844 L 263.367188 109.359375 L 265.191406 108.640625 L 266.054688 107.59375 L 264.449219 106.144531 L 263.988281 105.164062 L 265.574219 101.660156 L 268.667969 103.722656 L 269.449219 102.703125 L 271.082031 101.667969 L 271.523438 100.746094 L 272.492188 100.554688 L 273.054688 98.886719 L 273.996094 98.40625 L 275.011719 99.414062 L 276.648438 98.078125 L 277.859375 97.84375 Z M 277.992188 97.925781 "/>
<path style=" stroke:none;fill-rule:nonzero;fill-opacity:1;" d="M 243.761719 39.214844 L 242.972656 37.839844 L 242.316406 32.777344 L 240.90625 29.507812 L 241.253906 27.292969 L 242.125 27.398438 L 243.460938 28.445312 L 244.371094 28.320312 L 244.964844 29.339844 L 246.300781 29.613281 L 246.730469 30.113281 L 246.148438 30.460938 L 245.765625 30.800781 L 246.140625 32.449219 L 248.875 32.269531 L 249.382812 31.375 L 250.746094 31.09375 L 251.460938 31.589844 L 252.410156 30.753906 L 252.859375 30.882812 L 252.566406 31.636719 L 254.589844 31.042969 L 254.871094 32.054688 L 255.734375 32.457031 L 256.015625 31.335938 L 256.957031 30.355469 L 257.660156 30.386719 L 257.925781 29.660156 L 259.335938 30.113281 L 259.542969 30.867188 L 260.113281 31.007812 L 259.90625 31.695312 L 260.707031 32.375 L 261.695312 32.921875 L 262.324219 32.375 L 263.347656 33.335938 L 264.605469 32.214844 L 265.039062 31.109375 L 265.085938 31.695312 L 265.839844 31.996094 L 265.351562 32.910156 L 267.023438 33.976562 L 266.617188 34.445312 L 266.769531 35.152344 L 267.972656 36.359375 L 266.890625 41.175781 L 265.707031 41.0625 L 262.707031 42.363281 L 261.429688 41.929688 L 260.257812 42.597656 L 258.207031 42.195312 L 256.441406 43.304688 L 255.546875 42.75 L 253.96875 44.304688 L 252.445312 43.84375 L 252.390625 44.632812 L 252.90625 45 L 252.726562 45.851562 L 251.515625 45.019531 L 250.960938 43.804688 L 250.726562 44.238281 L 249.851562 43.832031 L 249.664062 44.351562 L 250.433594 44.71875 L 249.691406 45.03125 L 249.609375 45.5 L 248.996094 45.292969 L 248.613281 44.324219 L 247.757812 45.304688 L 246.441406 45.578125 L 246.308594 44.898438 L 245.152344 45.285156 L 244.464844 40.421875 Z M 243.761719 39.214844 "/>
<path style=" stroke:none;fill-rule:nonzero;fill-opacity:1;" d="M 234.738281 111.929688 L 234.84375 108.867188 L 235.5 108.1875 L 236.175781 108.3125 L 237.4375 105.4375 L 240.433594 104.789062 L 242.605469 104.898438 L 242.097656 103.015625 L 242.472656 102.742188 L 243.046875 103.335938 L 244.324219 101.722656 L 243.414062 98.820312 L 244.984375 97.953125 L 245.445312 96.664062 L 244.101562 96.097656 L 244.542969 95.476562 L 244.054688 94.636719 L 244.175781 93.589844 L 245.40625 92.980469 L 246.664062 93.476562 L 248.1875 92.515625 L 248.835938 91.5 L 249.242188 92 L 250.097656 91.113281 L 250.820312 95.25 L 252.265625 94.121094 L 252.980469 94.441406 L 254.015625 93.574219 L 254.484375 94.054688 L 254.390625 92.480469 L 255.800781 92.742188 L 255.808594 92.78125 L 256.382812 93.789062 L 257.058594 93.394531 L 257.472656 94.394531 L 257.257812 98.558594 L 260.273438 99.859375 L 262.632812 99.632812 L 261.984375 98.03125 L 262.550781 97.53125 L 262.644531 95.070312 L 263.160156 94.609375 L 264.082031 94.769531 L 264.550781 95.355469 L 265.152344 94.703125 L 265.652344 95.804688 L 265.527344 97.945312 L 266.804688 97.671875 L 267.472656 98.632812 L 268.292969 98.832031 L 269.542969 100.726562 L 269.898438 101.433594 L 269.464844 102.703125 L 268.6875 103.722656 L 265.59375 101.660156 L 264.003906 105.164062 L 264.464844 106.144531 L 266.074219 107.585938 L 265.207031 108.632812 L 263.386719 109.347656 L 263.488281 110.214844 L 261.9375 112.648438 L 260.257812 112.328125 L 259.664062 113.0625 L 259.796875 113.722656 L 258.761719 114.925781 L 257.210938 116.351562 L 255.433594 117.039062 L 254.089844 119.074219 L 254.363281 119.648438 L 255.652344 120.203125 L 255.660156 121.035156 L 256.347656 121.335938 L 256.890625 123.144531 L 257.558594 123.097656 L 257.53125 123.757812 L 257.097656 124.285156 L 257.089844 125.625 L 256.214844 126.800781 L 258.058594 127.667969 L 258.132812 128.0625 L 258.910156 127.875 L 259.597656 128.375 L 258.742188 129.476562 L 259.371094 129.828125 L 259.558594 130.65625 L 259.84375 130.148438 L 260.585938 130.769531 L 260.105469 131.929688 L 259.023438 131.34375 L 259.15625 130.863281 L 258.226562 130.929688 L 258.453125 130.597656 L 257.699219 129.78125 L 256.855469 130.203125 L 256.375 129.570312 L 256.570312 129.261719 L 255.367188 128.328125 L 255.097656 129.203125 L 254.765625 128.65625 L 254.164062 129.429688 L 253.09375 128.761719 L 252.15625 130.035156 L 251.855469 129.476562 L 251.523438 129.609375 L 250.332031 131.109375 L 249.4375 130.636719 L 248.058594 132.316406 L 246.09375 131.570312 L 246.589844 129.375 L 245.613281 129.761719 L 245.320312 130.570312 L 243.28125 129.203125 L 241.929688 133.105469 L 240.800781 133.4375 L 239.390625 132.390625 L 237.804688 133.171875 L 237.457031 132.964844 L 237.351562 133.371094 L 236.808594 132.476562 L 236.242188 131.777344 L 236.667969 131.523438 L 236.535156 130.796875 L 235.539062 129.941406 L 237.25 127.582031 L 237.839844 125.445312 L 239.042969 124.757812 L 238.253906 124.484375 L 239.324219 122.691406 L 238.761719 122.242188 L 239.851562 122.269531 L 241.09375 121.109375 L 240.613281 119.660156 L 238.554688 118.433594 L 237.203125 116.765625 L 238.167969 116.210938 L 239.777344 116.226562 L 239.589844 114.804688 L 238.714844 114.53125 L 238.320312 113.75 L 237.238281 114.351562 L 235.734375 113.570312 L 235.179688 113.789062 L 235.371094 112.355469 Z M 234.738281 111.929688 "/>
<path style=" stroke:none;fill-rule:nonzero;fill-opacity:1;" d="M 241.113281 145.246094 L 244.308594 145.347656 L 243.46875 144.453125 L 242.839844 144.5 L 242.839844 141.699219 L 242.304688 141.410156 L 242.21875 140.015625 L 241.601562 141.257812 L 240.839844 140.65625 L 241.046875 141.71875 L 240.179688 141.925781 L 241.777344 142.078125 L 241.835938 142.785156 L 241.113281 143.332031 L 240.558594 143.464844 L 240.667969 142.8125 L 237.578125 141.511719 L 236.675781 141.957031 L 236.523438 142.71875 L 235.132812 143.066406 L 233.714844 144.320312 L 232.664062 144.746094 L 231.355469 144.433594 L 230.585938 144.953125 L 229.550781 144.933594 L 228.742188 145.695312 L 227.945312 145.527344 L 229.167969 142.050781 L 230.285156 141.351562 L 229.15625 141.644531 L 228.28125 138.269531 L 226.761719 136.085938 L 230.226562 135.113281 L 230.21875 135.972656 L 231.589844 136.613281 L 230.792969 136.488281 L 231.421875 137.6875 L 231.382812 136.855469 L 232.109375 136.78125 L 233.066406 138.316406 L 232.625 136.621094 L 231.855469 136.207031 L 233.328125 135.472656 L 233.433594 136.140625 L 233.949219 135.800781 L 234.722656 136.527344 L 234.289062 135.332031 L 235.492188 134.679688 L 233.628906 134.660156 L 233.121094 135.074219 L 233.253906 134.097656 L 235.699219 132.523438 L 236.789062 132.417969 L 237.332031 133.3125 L 237.4375 132.910156 L 237.785156 133.125 L 239.371094 132.351562 L 240.78125 133.398438 L 241.910156 133.070312 L 243.265625 129.167969 L 245.304688 130.542969 L 245.59375 129.734375 L 246.570312 129.347656 L 246.074219 131.542969 L 248.039062 132.285156 L 249.691406 132.371094 L 249.101562 133.34375 L 249.390625 134.113281 L 244.871094 138.035156 L 245.292969 140.417969 L 247.191406 140.476562 L 247.265625 141.097656 L 248.460938 141.230469 L 248.574219 141.871094 L 249.242188 141.570312 L 248.828125 140.671875 L 249.289062 140.503906 L 250.132812 141.671875 L 251.035156 141.265625 L 251.703125 141.511719 L 253.3125 140.570312 L 255.058594 143.878906 L 254.683594 144.699219 L 255.621094 144.613281 L 255.847656 145.113281 L 255.3125 145.167969 L 255.847656 145.628906 L 254.691406 147.136719 L 256.035156 147.167969 L 256.28125 147.84375 L 258.40625 148.261719 L 259.390625 149.117188 L 260.425781 151.144531 L 260.425781 152.746094 L 257.738281 153.554688 L 257.164062 154.421875 L 255.847656 154.148438 L 255.640625 155.941406 L 255.03125 155.949219 L 254.355469 155.308594 L 254.222656 155.835938 L 253.707031 155.941406 L 253.46875 157.242188 L 252.71875 156.816406 L 252.097656 158.410156 L 253.460938 160.324219 L 254.796875 160.164062 L 255.546875 161.398438 L 255.085938 164.46875 L 255.378906 164.941406 L 254.316406 166.164062 L 254.449219 166.902344 L 251.363281 166.003906 L 251.1875 166.410156 L 248.3125 166.65625 L 247.898438 166.882812 L 247.964844 168.058594 L 247.457031 167.957031 L 246.929688 168.683594 L 246.835938 170.273438 L 246.253906 170.152344 L 245.941406 170.558594 L 244.644531 169.851562 L 243.976562 170.414062 L 242.4375 168.105469 L 241.222656 168.472656 L 240.726562 167.929688 L 240.273438 163.867188 L 238.949219 163.5625 L 238.527344 162.875 L 237.90625 162.953125 L 239.390625 160.351562 L 240.859375 155.648438 L 241.269531 152.144531 L 240.96875 148.429688 L 239.738281 145.253906 L 237.34375 142.558594 L 239.777344 144.367188 L 240.546875 146.46875 L 240.304688 144.460938 Z M 241.113281 145.246094 "/>
<path style=" stroke:none;fill-rule:nonzero;fill-opacity:1;" d="M 258.574219 0.585938 L 258.847656 3.6875 L 260.734375 3 L 261.382812 3.394531 L 261.796875 5.15625 L 261.488281 5.816406 L 260.460938 6.0625 L 259.417969 6.976562 L 257.820312 9.738281 L 258.320312 11.3125 L 259.230469 11.207031 L 259.355469 13.527344 L 259.289062 13.949219 L 258.433594 13.75 L 256.1875 15.390625 L 255.519531 15.003906 L 255.152344 15.789062 L 253.847656 15.84375 L 253.121094 15.429688 L 251.65625 15.949219 L 250.558594 16.9375 L 249.832031 17.144531 L 249.796875 16.644531 L 249.363281 16.691406 L 248.863281 17.191406 L 248.769531 19.039062 L 248.011719 19.679688 L 248.207031 20.953125 L 247.550781 21.253906 L 247.117188 20.488281 L 246.316406 20.828125 L 245.164062 20.027344 L 244.925781 20.953125 L 244.542969 20.507812 L 243.574219 20.574219 L 241.789062 21.621094 L 240.21875 21.707031 L 239.738281 19.378906 L 239.324219 18.867188 L 239.183594 19.273438 L 238.121094 16.238281 L 238.292969 14.34375 L 238.722656 13.835938 L 238.300781 13.414062 L 238.339844 11.453125 L 239.964844 9.820312 L 241.808594 8.945312 L 242.164062 7.644531 L 244.597656 6.183594 L 244.738281 5.082031 L 245.378906 4.375 L 248.046875 4.121094 L 248.828125 3.101562 L 251.101562 2.988281 L 251.523438 3.394531 L 252.925781 3.234375 L 253.480469 2.667969 L 254.402344 2.933594 L 254.84375 2.113281 L 256.582031 1.425781 L 256.722656 0.820312 L 257.605469 0.953125 L 258.359375 0.117188 Z M 258.574219 0.585938 "/>
<path style=" stroke:none;fill-rule:nonzero;fill-opacity:1;" d="M 267.050781 9.191406 L 267.679688 9.304688 L 267.453125 11.886719 L 268.027344 12.460938 L 268.957031 11.601562 L 268.847656 11.019531 L 270.425781 10.945312 L 271.269531 10.3125 L 272.164062 10.574219 L 273.132812 9.964844 L 274.523438 11.019531 L 276.542969 10.992188 L 275.78125 13.09375 L 278.460938 12.582031 L 279.023438 11.488281 L 280.5 11.660156 L 280.761719 12.6875 L 281.296875 13.046875 L 281.222656 13.960938 L 283.074219 12.148438 L 283.355469 12.640625 L 284.578125 12.554688 L 287.980469 11.085938 L 287.691406 13.695312 L 288.179688 14.957031 L 288.855469 15.449219 L 288.828125 16.445312 L 287.738281 17.738281 L 286.25 22.535156 L 286.261719 23.648438 L 287.136719 25.25 L 285.507812 25.53125 L 284.984375 26.644531 L 285.078125 27.558594 L 283.09375 28.511719 L 283.046875 29.507812 L 283.46875 31.035156 L 283.207031 31.496094 L 284.597656 32.542969 L 283.367188 32.824219 L 282.792969 33.484375 L 283.1875 33.898438 L 282.3125 34.617188 L 282.4375 36.246094 L 281.636719 36.097656 L 281.109375 37.574219 L 279.003906 38.027344 L 278.394531 38.800781 L 277.671875 38.460938 L 276.421875 39.722656 L 274.203125 39.46875 L 273.214844 40.308594 L 270.273438 39.507812 L 269.777344 40.140625 L 267.992188 39.695312 L 266.871094 41.15625 L 267.945312 36.339844 L 266.742188 35.136719 L 266.589844 34.429688 L 266.996094 33.957031 L 265.320312 32.890625 L 265.820312 31.976562 L 265.066406 31.675781 L 265.019531 31.09375 L 265.21875 30.421875 L 264.8125 30.308594 L 266 28.894531 L 266.09375 27.03125 L 267.144531 26.578125 L 267.417969 25.617188 L 268.367188 25.683594 L 268.292969 25.183594 L 269.089844 24.710938 L 269.023438 24.042969 L 269.578125 23.929688 L 269.871094 23.25 L 268.675781 21.59375 L 267.773438 22.667969 L 264.335938 22.054688 L 264.578125 18.820312 L 263.152344 18.191406 L 260.707031 18.652344 L 261.636719 17.71875 L 262.417969 15.816406 L 262.738281 13.480469 L 263.863281 13.074219 L 265.011719 11.253906 L 266.589844 11.152344 Z M 267.050781 9.191406 "/>
<path style=" stroke:none;fill-rule:nonzero;fill-opacity:1;" d="M 281.109375 37.574219 L 282.34375 38.1875 L 283.320312 40.054688 L 284.890625 40.382812 L 283.667969 44.050781 L 283.910156 45.3125 L 282.679688 45.351562 L 282.691406 46.21875 L 284.277344 46.972656 L 283.957031 48.460938 L 282.832031 49.308594 L 282.660156 51.023438 L 281.976562 50.636719 L 280.480469 53.230469 L 278.6875 50.996094 L 277.285156 50.882812 L 276.542969 51.65625 L 275.292969 54.445312 L 276.996094 55.707031 L 276.222656 56.507812 L 276.394531 57.09375 L 278.054688 58.015625 L 277.578125 58.535156 L 277.847656 59.222656 L 277.144531 59.769531 L 276.457031 62.105469 L 276.703125 62.578125 L 274.195312 63.113281 L 269.363281 65.5 L 267.699219 66.488281 L 265.039062 69.136719 L 263 69.898438 L 260.285156 71.933594 L 259.195312 71.472656 L 258.769531 71.917969 L 258.535156 71.539062 L 256.816406 72.320312 L 255.367188 70.964844 L 254.496094 71.097656 L 254.082031 70.511719 L 253.6875 70.617188 L 253.722656 68.996094 L 254.832031 67.730469 L 254.296875 65.988281 L 256.835938 65.007812 L 255.800781 63.914062 L 255.105469 61.683594 L 256.976562 60.898438 L 255.519531 60.164062 L 255.445312 57.894531 L 254.578125 57.1875 L 254.402344 56.066406 L 256.167969 55.394531 L 257.230469 52.710938 L 256.695312 51.511719 L 257.410156 51.164062 L 258.609375 51.890625 L 259.296875 51.109375 L 260.414062 51.785156 L 261.207031 51.082031 L 260.460938 49.855469 L 260.320312 47.902344 L 261.609375 46.347656 L 261.554688 45.511719 L 261.316406 45.332031 L 260.304688 46.699219 L 258.5 45.925781 L 257.945312 46.085938 L 258.207031 45.453125 L 257.304688 45.386719 L 257.117188 44.859375 L 257.417969 44.777344 L 257.230469 43.589844 L 256.429688 43.269531 L 258.199219 42.15625 L 260.246094 42.5625 L 261.421875 41.890625 L 262.699219 42.335938 L 265.699219 41.035156 L 266.882812 41.148438 L 268.007812 39.6875 L 269.796875 40.128906 L 270.292969 39.5 L 273.234375 40.300781 L 274.222656 39.460938 L 276.429688 39.714844 L 277.679688 38.453125 L 278.402344 38.792969 L 279.015625 38.007812 Z M 281.15625 50.015625 L 282.105469 50.570312 L 282.691406 49.742188 L 281.535156 48.941406 Z M 281.15625 50.015625 "/>
<path style=" stroke:none;fill-rule:nonzero;fill-opacity:1;" d="M 192.878906 117.3125 L 192.992188 117.339844 L 193.085938 117.519531 L 193.3125 117.578125 L 193.585938 117.539062 L 193.585938 117.351562 L 193.648438 117.320312 L 193.980469 117.519531 L 193.921875 117.832031 L 194.015625 118 L 193.867188 118.21875 L 193.914062 118.40625 L 193.996094 118.480469 L 194.15625 118.539062 L 194.363281 118.632812 L 194.34375 118.765625 L 194.710938 118.972656 L 194.597656 119.039062 L 194.644531 119.214844 L 194.882812 119.179688 L 194.957031 119.386719 L 195.078125 119.441406 L 195.003906 119.695312 L 194.964844 119.855469 L 195.136719 120.148438 L 195.011719 120.414062 L 195.097656 120.574219 L 195.011719 120.628906 L 194.976562 120.554688 L 194.777344 120.574219 L 194.597656 120.5625 L 194.167969 120.582031 L 193.847656 120.496094 L 193.472656 120.574219 L 193.113281 120.207031 L 193.078125 120.007812 L 192.824219 119.820312 L 192.492188 119.734375 L 192.203125 119.726562 L 191.921875 119.980469 L 191.78125 119.921875 L 191.367188 120.195312 L 191.179688 119.941406 L 191.046875 120.082031 L 190.886719 120.175781 L 190.578125 119.988281 L 190.445312 119.753906 L 190.390625 119.113281 L 190.058594 118.507812 L 190.183594 118.046875 L 190.40625 118.027344 L 190.511719 117.804688 L 190.691406 117.71875 L 190.894531 117.773438 L 191.246094 117.492188 L 191.226562 117.679688 L 191.535156 117.878906 L 191.734375 117.644531 L 192.070312 117.8125 L 192.289062 117.707031 L 192.324219 117.453125 L 192.503906 117.558594 L 192.652344 117.417969 L 192.738281 117.480469 Z M 182.503906 87.097656 L 182.605469 87.042969 L 182.625 86.875 L 182.757812 86.875 L 182.824219 86.957031 L 182.777344 87.164062 L 182.851562 87.25 L 183.058594 87.164062 L 183.539062 87.082031 L 183.847656 86.777344 L 184.09375 86.875 L 184.523438 86.628906 L 184.816406 86.582031 L 185.050781 86.363281 L 185.324219 86.34375 L 185.746094 86.101562 L 185.886719 85.761719 L 186.113281 85.601562 L 186.167969 85.808594 L 186.695312 86.042969 L 186.902344 86.042969 L 187.269531 85.847656 L 187.53125 85.894531 L 187.71875 85.761719 L 187.878906 85.941406 L 188.386719 86.109375 L 188.695312 86.121094 L 189.769531 85.894531 L 190.152344 85.988281 L 190.359375 85.941406 L 191.101562 86.234375 L 191.386719 87.117188 L 191.441406 87.402344 L 191.542969 87.84375 L 191.320312 88.117188 L 191.261719 88.363281 L 191.402344 88.824219 L 191.308594 89.238281 L 191.085938 89.699219 L 190.738281 90.113281 L 190.464844 90.304688 L 189.890625 90.3125 L 189.609375 90.539062 L 189.421875 90.578125 L 189.074219 90.519531 L 188.332031 90.179688 L 187.589844 90.179688 L 186.988281 90.453125 L 186.875 90.546875 L 186.515625 90.660156 L 186.246094 90.765625 L 186.074219 90.980469 L 185.859375 90.90625 L 185.105469 90.992188 L 184.617188 91.398438 L 183.949219 91.285156 L 183.621094 91.351562 L 183.359375 91.285156 L 183.152344 91.386719 L 182.890625 91.273438 L 182.757812 91.398438 L 182.390625 91.460938 L 182.003906 91.285156 L 181.816406 91.3125 L 181.554688 91.300781 L 181.234375 91.207031 L 181.113281 91.320312 L 180.839844 91.367188 L 180.699219 91.585938 L 180.425781 91.660156 L 180.191406 91.398438 L 179.824219 91.3125 L 179.582031 90.992188 L 178.867188 90.484375 L 178.734375 90.265625 L 178.207031 90.398438 L 177.859375 90.191406 L 177.523438 90.265625 L 177.230469 90.019531 L 176.828125 90.03125 L 176.628906 90.292969 L 176.300781 90.359375 L 175.632812 90.519531 L 175.210938 90.691406 L 174.917969 90.605469 L 174.441406 90.285156 L 174.222656 89.992188 L 173.914062 89.878906 L 173.6875 89.550781 L 173.019531 89.125 L 172.542969 88.804688 L 172.390625 88.457031 L 172.210938 88.371094 L 171.882812 88.136719 L 171.347656 87.789062 L 171.207031 87.523438 L 170.625 87.117188 L 170.578125 86.828125 L 170.25 86.195312 L 170.203125 85.941406 L 170.4375 85.742188 L 170.53125 85.496094 L 170.644531 85.253906 L 170.886719 85.242188 L 171.105469 84.960938 L 171.054688 84.734375 L 171.132812 84.621094 L 171.199219 84.40625 L 171.734375 84.554688 L 172.128906 84.261719 L 172.210938 84.074219 L 172.382812 84.027344 L 172.917969 84.214844 L 173.292969 84.460938 L 173.699219 84.660156 L 173.800781 84.789062 L 174.253906 84.902344 L 174.554688 85.28125 L 174.683594 85.734375 L 174.855469 85.789062 L 175.023438 86.515625 L 175.152344 86.628906 L 175.34375 86.582031 L 175.425781 86.808594 L 175.898438 86.988281 L 176.28125 86.988281 L 176.601562 87.128906 L 176.976562 87.042969 L 177.210938 87.136719 L 177.242188 87.089844 L 177.4375 87.308594 L 177.652344 87.402344 L 178.199219 87.675781 L 178.519531 87.609375 L 178.746094 87.523438 L 178.921875 87.636719 L 179.175781 87.617188 L 179.984375 87.316406 L 180.171875 87.082031 L 180.699219 86.75 L 180.960938 86.589844 L 181.039062 86.429688 L 181.113281 86.421875 L 181.273438 86.742188 L 181.375 86.9375 L 181.449219 87.0625 L 181.601562 87.277344 L 181.808594 87.222656 L 182.089844 87.363281 L 182.136719 87.183594 L 182.242188 87.164062 L 182.324219 87.316406 L 182.511719 87.371094 Z M 94.148438 59.335938 L 94.882812 59.449219 L 95.148438 59.65625 L 95.511719 59.722656 L 96.253906 60.175781 L 96.472656 60.214844 L 96.6875 60.296875 L 96.902344 60.476562 L 96.886719 60.597656 L 97.035156 60.742188 L 97.234375 60.742188 L 97.382812 60.910156 L 97.46875 61.203125 L 97.703125 61.449219 L 98.070312 61.402344 L 98.4375 61.703125 L 98.800781 61.785156 L 99.226562 61.691406 L 99.554688 62.15625 L 99.875 62.277344 L 99.949219 62.398438 L 100.289062 62.417969 L 100.484375 62.585938 L 100.757812 63.085938 L 101.039062 63.058594 L 101.347656 63.3125 L 102.128906 63.324219 L 102.242188 63.453125 L 102.503906 63.53125 L 104.046875 63.726562 L 104.253906 63.679688 L 104.734375 63.824219 L 104.769531 64.011719 L 105.398438 64.386719 L 105.550781 64.632812 L 105.570312 65.011719 L 105.136719 65.152344 L 104.835938 65.152344 L 104.714844 65.28125 L 104.574219 65.253906 L 104.441406 65.378906 L 104.132812 65.292969 L 104 65.460938 L 103.632812 65.460938 L 102.917969 65.21875 L 101.96875 65.132812 L 101.78125 65.199219 L 101.152344 65.085938 L 100.871094 65.1875 L 100.851562 65.332031 L 100.71875 65.394531 L 100.578125 65.632812 L 100.257812 65.667969 L 99.648438 66.027344 L 99.308594 66.121094 L 98.980469 65.925781 L 98.832031 65.828125 L 98.832031 65.539062 L 98.8125 65.292969 L 98.332031 64.980469 L 97.402344 65.058594 L 96.59375 64.90625 L 96.273438 64.960938 L 95.972656 64.847656 L 95.503906 64.980469 L 94.460938 64.464844 L 94.101562 64.386719 L 93.925781 64.433594 L 93.773438 64.632812 L 93.21875 64.679688 L 92.636719 64.207031 L 92.175781 64.105469 L 91.085938 63.472656 L 90.953125 62.984375 L 90.71875 62.785156 L 90.390625 62.171875 L 90.34375 61.964844 L 90.417969 61.730469 L 90.34375 61.296875 L 90.398438 60.949219 L 90.550781 60.375 L 90.738281 60.363281 L 90.71875 60.25 L 90.964844 60.175781 L 91 59.96875 L 91.398438 59.683594 L 91.460938 59.722656 L 92.28125 59.382812 L 93.136719 59.589844 L 93.3125 59.441406 L 93.625 59.507812 Z M 85.257812 56.21875 L 85.558594 56.21875 L 86.480469 56.554688 L 86.792969 56.726562 L 86.839844 56.867188 L 87.269531 57.253906 L 88.03125 57.441406 L 88.699219 58.09375 L 88.539062 58.273438 L 88.398438 58.648438 L 88.539062 59.027344 L 88.304688 59.328125 L 88.578125 59.882812 L 88.492188 59.996094 L 88.058594 60.035156 L 87.890625 60.242188 L 87.890625 60.597656 L 87.976562 60.617188 L 88.023438 60.730469 L 87.9375 60.796875 L 88.070312 60.9375 L 87.964844 61.078125 L 87.851562 60.917969 L 87.796875 60.96875 L 87.695312 60.996094 L 87.730469 60.871094 L 87.890625 60.777344 L 87.816406 60.664062 L 87.730469 60.742188 L 87.488281 60.703125 L 87.15625 60.824219 L 86.519531 60.777344 L 86.285156 60.890625 L 85.625 60.902344 L 85.296875 61.015625 L 84.929688 60.996094 L 84.414062 60.757812 L 84.121094 60.84375 L 84.105469 60.742188 L 84.261719 60.742188 L 84.292969 60.628906 L 84.214844 60.5625 L 84.140625 59.875 L 83.90625 59.308594 L 83.699219 59.15625 L 83.519531 59.269531 L 83.425781 59.203125 L 83.296875 59.242188 L 82.855469 58.96875 L 82.28125 58.609375 L 81.988281 58.234375 L 81.886719 58.261719 L 81.886719 58.007812 L 81.707031 57.941406 L 81.753906 57.773438 L 82.15625 57.78125 L 82.347656 57.59375 L 82.648438 57.507812 L 83.40625 57.527344 L 83.679688 57.421875 L 84.085938 57.507812 L 84.441406 57.246094 L 84.882812 56.527344 Z M 97.046875 51.949219 L 97.898438 52.097656 L 98.660156 52.371094 L 99.554688 52.910156 L 99.6875 52.882812 L 101.21875 53.558594 L 102.167969 53.84375 L 102.449219 54.117188 L 102.683594 54.199219 L 102.863281 54.144531 L 102.964844 54.351562 L 103.671875 54.492188 L 104.121094 54.804688 L 104.6875 54.984375 L 104.957031 54.792969 L 104.921875 54.972656 L 105.089844 55.132812 L 105.417969 55.207031 L 105.730469 55.152344 L 106.292969 55.59375 L 106.6875 55.707031 L 107.121094 56.21875 L 107.503906 56.253906 L 107.609375 56.480469 L 108.144531 56.6875 L 108.371094 56.886719 L 108.566406 56.828125 L 108.894531 57.28125 L 109.320312 57.339844 L 109.84375 57.554688 L 111.359375 58.402344 L 111.632812 58.535156 L 111.808594 58.65625 L 112.363281 58.875 L 112.457031 58.835938 L 112.542969 59.035156 L 113.039062 59.214844 L 113.800781 59.875 L 113.640625 59.949219 L 113.53125 60.089844 L 113.191406 60.34375 L 112.9375 60.269531 L 111.527344 60.410156 L 110.597656 59.941406 L 110.363281 59.65625 L 110.089844 59.570312 L 109.75 59.316406 L 109.101562 59.0625 L 108.152344 58.300781 L 107.777344 58.28125 L 107.316406 58.027344 L 106.988281 58.140625 L 106.179688 57.839844 L 106 57.914062 L 105.730469 57.855469 L 105.445312 57.679688 L 105.070312 57.261719 L 104.507812 56.894531 L 103.351562 56.699219 L 103.089844 56.480469 L 102.84375 56.460938 L 102.824219 56.347656 L 102.644531 56.207031 L 102.503906 56.234375 L 102.027344 56.019531 L 101.453125 55.625 L 100.785156 55.359375 L 100.496094 54.859375 L 100.222656 54.992188 L 100.117188 54.839844 L 99.855469 54.878906 L 99.796875 54.785156 L 99.910156 54.691406 L 99.957031 54.484375 L 99.65625 54.445312 L 99.75 54.292969 L 99.628906 54.078125 L 98.464844 53.503906 L 97.730469 52.816406 L 97.429688 52.382812 L 97.074219 52.117188 Z M 128.472656 50.15625 L 128.671875 50.242188 L 128.792969 50.203125 L 128.953125 50.382812 L 129.195312 50.328125 L 129.441406 50.535156 L 129.722656 50.523438 L 129.695312 50.375 L 129.777344 50.25 L 129.9375 50.347656 L 130.191406 50.242188 L 130.363281 50.363281 L 130.523438 50.496094 L 130.710938 50.402344 L 130.871094 50.535156 L 131.253906 50.601562 L 131.675781 50.816406 L 132.089844 50.75 L 132.375 50.910156 L 132.4375 50.976562 L 133.070312 50.828125 L 134.289062 51.769531 L 134.375 52.382812 L 134.535156 52.570312 L 134.835938 52.710938 L 134.609375 52.910156 L 134.347656 52.957031 L 134.300781 53.503906 L 134.628906 53.738281 L 134.863281 53.957031 L 134.816406 54.105469 L 134.902344 54.238281 L 134.695312 54.550781 L 134.429688 54.671875 L 134.488281 54.9375 L 134.140625 54.992188 L 133.886719 55.179688 L 133.933594 55.5 L 133.914062 55.691406 L 133.800781 56 L 133.847656 56.21875 L 133.492188 56.265625 L 133.246094 56.039062 L 133.039062 56.207031 L 132.664062 56.046875 L 132.222656 56.21875 L 131.921875 56.1875 L 131.125 55.800781 L 130.792969 55.886719 L 130.605469 55.800781 L 130.363281 55.925781 L 130.023438 55.792969 L 129.84375 55.945312 L 129.601562 55.839844 L 129.554688 55.953125 L 129.703125 56.253906 L 129.429688 56.394531 L 129.214844 56.21875 L 129.402344 55.972656 L 129.347656 55.753906 L 129 55.738281 L 128.773438 55.71875 L 128.578125 55.8125 L 128.21875 55.8125 L 127.945312 55.898438 L 127.65625 55.792969 L 127.035156 55.3125 L 126.488281 55.019531 L 126.28125 54.886719 L 125.738281 54.585938 L 125.191406 53.796875 L 125.0625 53.117188 L 124.929688 52.917969 L 124.902344 52.296875 L 125.136719 51.808594 L 124.957031 51.523438 L 125.175781 51.582031 L 125.304688 51.316406 L 125.269531 51.195312 L 125.410156 50.988281 L 125.550781 50.988281 L 126.292969 50.496094 L 127.628906 50.222656 L 128.132812 50.175781 Z M 105.578125 38.980469 L 106.066406 39.140625 L 106.292969 39.367188 L 106.453125 39.273438 L 106.632812 39.367188 L 106.507812 39.453125 L 106.792969 39.613281 L 107.109375 40.175781 L 107.167969 40.421875 L 107.328125 40.449219 L 107.34375 40.59375 L 107.34375 40.761719 L 107.757812 41.140625 L 107.882812 41.582031 L 107.835938 41.675781 L 108.003906 41.828125 L 108.003906 41.988281 L 107.882812 42.0625 L 107.964844 42.183594 L 107.703125 42.183594 L 107.355469 42.34375 L 106.734375 42.148438 L 106.621094 42.214844 L 106.507812 42.128906 L 106.492188 41.996094 L 106.253906 41.910156 L 106.246094 41.761719 L 105.429688 41.816406 L 105.089844 41.402344 L 104.78125 40.601562 L 104.488281 40.339844 L 104.480469 40.160156 L 104.320312 40.140625 L 104.367188 39.980469 L 104.882812 39.5 L 104.84375 39.3125 L 104.929688 39.121094 L 104.996094 39.066406 L 105.15625 39.027344 L 105.34375 39.046875 L 105.429688 38.972656 Z M 11.238281 22.621094 L 11.351562 22.660156 L 11.285156 22.847656 L 11.445312 23.234375 L 12 23.621094 L 12.140625 23.46875 L 12.273438 23.515625 L 12.242188 23.601562 L 12.339844 23.648438 L 12.59375 23.582031 L 12.722656 23.402344 L 12.78125 23.460938 L 12.910156 23.667969 L 12.863281 23.875 L 13.050781 24.082031 L 12.996094 24.136719 L 13.0625 24.542969 L 13.324219 24.722656 L 13.429688 24.976562 L 13.691406 24.9375 L 13.777344 25.308594 L 13.691406 25.53125 L 13.363281 25.722656 L 13.183594 25.996094 L 13.175781 26.125 L 13.398438 26.4375 L 13.242188 26.398438 L 13.050781 26.492188 L 12.996094 26.703125 L 13.070312 27.078125 L 12.941406 27.425781 L 12.742188 27.632812 L 12.714844 27.945312 L 12.394531 28.144531 L 12.449219 28.246094 L 11.753906 28.425781 L 10.917969 28.3125 L 10.796875 28.453125 L 10.570312 28.492188 L 10.375 28.351562 L 10.101562 28.339844 L 10.027344 28.125 L 9.855469 28.019531 L 9.933594 27.945312 L 9.820312 27.851562 L 9.78125 27.652344 L 9.867188 27.578125 L 9.761719 27.425781 L 9.980469 27.277344 L 9.988281 27.171875 L 9.839844 27.070312 L 9.847656 26.910156 L 9.648438 26.671875 L 9.601562 26.316406 L 9.746094 25.957031 L 9.632812 25.578125 L 9.480469 25.410156 L 9.601562 25.257812 L 9.566406 25.128906 L 9.734375 25.128906 L 9.820312 24.949219 L 9.808594 23.976562 L 10.074219 23.75 L 10.101562 23.609375 L 10.289062 23.535156 L 10.542969 23.101562 L 10.441406 22.753906 L 11.136719 22.773438 Z M 14.265625 14.855469 L 14.855469 15.121094 L 15.035156 15.589844 L 15.027344 15.902344 L 14.886719 16.390625 L 14.40625 16.824219 L 14.207031 16.910156 L 14.132812 17.03125 L 13.953125 17.042969 L 13.84375 16.996094 L 13.792969 16.84375 L 13.992188 16.644531 L 13.945312 16.449219 L 13.710938 16.136719 L 13.644531 15.789062 L 13.925781 15.15625 L 13.871094 14.894531 L 14.046875 14.941406 Z M 14.265625 14.855469 "/>
<path style=" stroke:none;fill-rule:nonzero;fill-opacity:1;" d="M 179.453125 181.828125 L 179.761719 182.726562 L 180.222656 183.507812 L 179.746094 183.273438 L 179.585938 182.980469 L 179.320312 182.1875 Z M 178.871094 179.050781 L 179.332031 180.039062 L 179.386719 180.972656 L 178.664062 179.191406 L 178.035156 178.683594 L 177.949219 177.570312 L 178.503906 178.230469 Z M 159.378906 167.15625 L 159.847656 167.902344 L 160.570312 168.597656 L 161.144531 168.628906 L 161.511719 169.03125 L 162.753906 169.277344 L 163.804688 169.03125 L 164.585938 168.503906 L 165.355469 168.636719 L 167.132812 168.25 L 167.722656 168.628906 L 168.324219 169.316406 L 169.144531 170.023438 L 169.546875 170.691406 L 170.269531 170.890625 L 170.863281 171.058594 L 171.851562 171.132812 L 172.367188 171.273438 L 172.929688 171.257812 L 173.210938 171.386719 L 173.082031 171.71875 L 172.292969 171.757812 L 171.820312 171.867188 L 171.519531 172.398438 L 171.277344 172.5 L 171.359375 172.832031 L 171.003906 173.414062 L 170.421875 173.613281 L 170.121094 174.394531 L 169.292969 175.1875 L 168.738281 175.328125 L 167.894531 175.007812 L 167.074219 174.960938 L 166.746094 175.140625 L 165.882812 175.441406 L 165.628906 175.140625 L 164.707031 174.800781 L 163.804688 174.761719 L 161.746094 173.808594 L 161.191406 173.855469 L 160.175781 172.972656 L 157.976562 171.785156 L 157.011719 170.511719 L 157.066406 170.210938 L 156.820312 169.503906 L 156.390625 169.042969 L 158.355469 167.148438 Z M 185.007812 159.070312 L 185.269531 159.035156 L 185.109375 159.417969 L 185.402344 159.804688 L 185.148438 160.03125 L 185.296875 160.371094 L 184.714844 160.238281 L 184.273438 160.34375 L 182.734375 161.644531 L 182.59375 161.398438 L 182.328125 161.351562 L 182.1875 161.050781 L 182.46875 161.03125 L 182.761719 160.558594 L 182.902344 160.011719 L 182.800781 159.863281 L 183.015625 159.582031 L 183.316406 159.5625 L 183.503906 159.210938 L 184.066406 159.042969 L 184.445312 158.703125 Z M 185.007812 159.070312 "/>
</g>
</svg>
