<svg
xmlns="http://www.w3.org/2000/svg"
height="250px"
viewBox="0 0 99 199"
version="1.1"
>
<g id="surface1">
<path d="M 25.464844 44.953125 L 26.625 44.570312 L 26.757812 45.246094 L 28.078125 44.972656 L 28.9375 43.996094 L 29.332031 44.960938 L 29.945312 45.167969 L 30.03125 44.699219 L 30.773438 44.390625 L 30 44.023438 L 30.191406 43.507812 L 31.066406 43.910156 L 31.304688 43.480469 L 31.859375 44.691406 L 33.074219 45.515625 L 33.253906 44.671875 L 32.734375 44.316406 L 32.792969 43.527344 L 34.320312 43.988281 L 35.902344 42.4375 L 36.800781 43 L 37.601562 43.320312 L 37.789062 44.503906 L 37.488281 44.585938 L 37.675781 45.113281 L 38.582031 45.179688 L 38.316406 45.808594 L 38.875 45.648438 L 40.683594 46.417969 L 41.710938 45.054688 L 41.949219 45.234375 L 42.003906 46.070312 L 40.710938 47.621094 L 40.855469 49.5625 L 41.597656 50.78125 L 40.808594 51.488281 L 39.683594 50.8125 L 38.996094 51.589844 L 37.789062 50.867188 L 37.074219 51.214844 L 37.609375 52.40625 L 36.546875 55.082031 L 34.773438 55.75 L 34.953125 56.863281 L 35.820312 57.570312 L 35.894531 59.832031 L 37.355469 60.5625 L 35.480469 61.34375 L 36.175781 63.578125 L 37.214844 64.664062 L 34.667969 65.640625 L 35.207031 67.378906 L 34.09375 68.636719 L 34.054688 70.25 L 34.007812 71.019531 L 33.492188 71.253906 L 32.605469 70.84375 L 32.472656 71.929688 L 31.304688 72.175781 L 31.132812 73.65625 L 30.125 73.152344 L 29.066406 73.21875 L 28.878906 72.242188 L 30.21875 72.25 L 30.332031 69.527344 L 29.632812 68.972656 L 29.632812 68.109375 L 27.617188 68.964844 L 27.550781 66.457031 L 27.277344 65.90625 L 26.351562 65.652344 L 25.851562 66.421875 L 25.75 67.949219 L 24.917969 67.867188 L 23.761719 66.675781 L 21.308594 64.300781 L 22.261719 60.339844 L 22.328125 59.644531 L 21.910156 59.511719 L 24.34375 51.449219 Z M 25.464844 44.953125 " />
<path d="M 39.769531 148.386719 L 40.136719 148.03125 L 40.757812 148.648438 L 43.023438 148.066406 L 44.378906 149.15625 L 45.21875 148.453125 L 49.460938 150.949219 L 51.839844 151.144531 L 54.507812 152.882812 L 55.535156 152.535156 L 56.890625 152.75 L 57.550781 153.316406 L 59.617188 153.324219 L 59.671875 152.636719 L 60.625 152.253906 L 61.398438 151.277344 L 61.570312 150.621094 L 62.257812 150.367188 L 62.625 149.503906 L 62.332031 149.195312 L 63.851562 149.15625 L 64.40625 148.347656 L 65.886719 147.964844 L 67.167969 150.515625 L 68.78125 151.144531 L 68.515625 151.992188 L 69.6875 154.402344 L 69.96875 154.515625 L 69.914062 153.886719 L 70.5625 153.960938 L 71.234375 153.34375 L 71.929688 154.046875 L 72.46875 153.398438 L 72.675781 153.726562 L 73.589844 153.550781 L 74.109375 152.722656 L 75.023438 152.46875 L 75.277344 152.816406 L 76.351562 152.140625 L 76.410156 152.828125 L 75.363281 154.160156 L 75.863281 154.675781 L 75.316406 156.253906 L 74.804688 156.570312 L 74.382812 159.558594 L 73.050781 159.867188 L 71.507812 158.757812 L 70.621094 159.292969 L 70.847656 160.222656 L 69.28125 160.664062 L 68.421875 160.269531 L 66.621094 161.152344 L 67.046875 162.089844 L 66.847656 163.292969 L 66.039062 164.230469 L 66 165.300781 L 64.785156 167.292969 L 62.632812 169.226562 L 61.898438 169.414062 L 61.105469 171.710938 L 61.238281 172.933594 L 60.871094 173.027344 L 60.910156 173.609375 L 60.53125 173.496094 L 59.890625 175.195312 L 59.4375 175.15625 L 59.351562 176.949219 L 58.882812 176.988281 L 59.183594 178.085938 L 57.34375 177.984375 L 56.035156 179.363281 L 54.328125 178.847656 L 52 179.8125 L 51.660156 179.523438 L 51.714844 179.839844 L 50.253906 180.707031 L 49.941406 180.46875 L 49.640625 180.988281 L 49.046875 180.957031 L 48.953125 181.390625 L 47.898438 181.492188 L 47.917969 182.214844 L 47.578125 182.132812 L 47.417969 182.621094 L 46.917969 182.273438 L 46.464844 182.648438 L 45.199219 182.527344 L 44.464844 183.625 L 44.945312 184.160156 L 43.851562 184.460938 L 42.710938 185.792969 L 39.054688 184.949219 L 37.261719 183.34375 L 36.480469 183.269531 L 36.78125 182.496094 L 36.402344 181.851562 L 35.140625 181.34375 L 34.867188 181.917969 L 34.640625 181.558594 L 32.21875 182.066406 L 32.105469 183.003906 L 31.238281 183.652344 L 29.332031 183.578125 L 27.691406 182.367188 L 26.324219 182.714844 L 25.625 183.691406 L 24.890625 182.75 L 22.828125 182.957031 L 22.347656 181.597656 L 20.960938 181.183594 L 21.269531 177.84375 L 20.261719 175.363281 L 21.261719 171.09375 L 20.46875 169.789062 L 21.054688 167.152344 L 21.554688 167.695312 L 22.769531 167.328125 L 24.316406 169.621094 L 24.984375 169.054688 L 26.285156 169.769531 L 26.597656 169.367188 L 27.183594 169.488281 L 27.285156 167.902344 L 27.804688 167.179688 L 28.3125 167.28125 L 28.246094 166.109375 L 28.664062 165.882812 L 31.546875 165.628906 L 31.726562 165.226562 L 34.820312 166.117188 L 34.6875 165.394531 L 35.753906 164.175781 L 35.460938 163.707031 L 35.921875 160.644531 L 35.167969 159.414062 L 33.828125 159.574219 L 32.472656 157.671875 L 33.09375 156.082031 L 33.847656 156.507812 L 34.074219 155.203125 L 34.59375 155.105469 L 34.734375 154.574219 L 35.414062 155.21875 L 36 155.183594 L 36.195312 153.398438 L 37.527344 153.671875 L 38.101562 152.796875 L 40.796875 151.992188 L 40.808594 150.40625 Z M 39.769531 148.386719 " />
<path d="M 43.144531 13.308594 L 42.824219 15.636719 L 42.042969 17.535156 L 41.109375 18.464844 L 43.558594 18.003906 L 44.992188 18.632812 L 44.746094 21.851562 L 48.199219 22.460938 L 49.105469 21.390625 L 50.300781 23.042969 L 50.007812 23.71875 L 49.453125 23.832031 L 49.519531 24.5 L 48.71875 24.96875 L 48.792969 25.464844 L 47.839844 25.402344 L 47.566406 26.359375 L 46.511719 26.808594 L 46.417969 28.667969 L 45.230469 30.074219 L 45.632812 30.1875 L 45.4375 30.855469 L 45.003906 31.953125 L 43.75 33.070312 L 42.722656 32.113281 L 42.089844 32.65625 L 41.097656 32.113281 L 40.308594 31.4375 L 40.503906 30.75 L 39.9375 30.621094 L 39.730469 29.859375 L 38.308594 29.410156 L 38.042969 30.132812 L 37.335938 30.101562 L 36.394531 31.078125 L 36.113281 32.195312 L 35.242188 31.792969 L 34.960938 30.789062 L 32.933594 31.378906 L 33.226562 30.628906 L 32.773438 30.496094 L 31.820312 31.332031 L 31.09375 30.835938 L 29.738281 31.117188 L 29.230469 32.007812 L 26.484375 32.195312 L 26.109375 30.554688 L 26.496094 30.214844 L 27.078125 29.867188 L 26.644531 29.378906 L 25.304688 29.097656 L 24.722656 28.09375 L 23.796875 28.214844 L 22.457031 27.175781 L 21.582031 27.070312 L 20.554688 21.503906 L 22.128906 21.421875 L 23.921875 20.378906 L 24.890625 20.3125 L 25.277344 20.753906 L 25.515625 19.835938 L 26.671875 20.632812 L 27.476562 20.292969 L 27.910156 21.054688 L 28.570312 20.753906 L 28.371094 19.488281 L 29.132812 18.847656 L 29.230469 17.007812 L 29.726562 16.511719 L 30.160156 16.464844 L 30.199219 16.960938 L 30.925781 16.753906 L 32.027344 15.769531 L 33.5 15.253906 L 34.226562 15.667969 L 35.535156 15.609375 L 35.902344 14.832031 L 36.574219 15.214844 L 38.828125 13.582031 L 39.683594 13.78125 L 39.75 13.355469 L 41.871094 13.761719 Z M 43.144531 13.308594 " />
<path d="M 80.398438 6.570312 L 81.332031 6.777344 L 81.867188 8.382812 L 82.585938 8.644531 L 85.714844 8.53125 L 86.707031 7.433594 L 87.855469 8.34375 L 87.214844 10.765625 L 88.863281 11.234375 L 88.035156 14.933594 L 87.28125 16.3125 L 87.667969 16.558594 L 88.089844 18.8125 L 89.34375 19.730469 L 90.597656 19.355469 L 90.984375 18.632812 L 95.21875 19.542969 L 96.644531 20.6875 L 97.199219 21.710938 L 98.21875 22.199219 L 98.585938 22.988281 L 97.160156 25.089844 L 96.539062 25.382812 L 96.746094 25.925781 L 96.304688 26 L 96.425781 26.460938 L 95.757812 26.761719 L 95.125 27.917969 L 95.285156 28.742188 L 94.296875 29.464844 L 94.757812 30.441406 L 93.71875 30.730469 L 93.304688 30.132812 L 92.617188 30.480469 L 92.503906 31.0625 L 92.992188 31.472656 L 91.851562 31.925781 L 91.183594 33.605469 L 89.722656 34.148438 L 89.976562 34.757812 L 89.4375 35.144531 L 88.65625 34.769531 L 87.203125 36.203125 L 86.601562 35.566406 L 86.355469 36.027344 L 84.914062 35.867188 L 83.632812 37.359375 L 83.101562 38.8125 L 81.351562 40.296875 L 81.765625 41.5 L 80.132812 44.144531 L 78.359375 44.523438 L 76.9375 44.070312 L 76.484375 44.425781 L 75.363281 44.15625 L 74.683594 44.597656 L 74.503906 44.136719 L 73.148438 43.847656 L 72.703125 43.113281 L 71.410156 42.429688 L 71.394531 41.480469 L 71.949219 40.644531 L 70.5625 40.183594 L 71.027344 39.667969 L 70.949219 38.550781 L 69.5625 40.636719 L 67.007812 39.894531 L 65.378906 40.109375 L 63.792969 39.78125 L 62.8125 37.921875 L 61.578125 37.3125 L 62.105469 35.839844 L 62.90625 35.988281 L 62.785156 34.363281 L 63.660156 33.652344 L 63.265625 33.238281 L 63.839844 32.582031 L 65.074219 32.300781 L 63.679688 31.257812 L 63.945312 30.796875 L 63.519531 29.277344 L 63.566406 28.28125 L 65.558594 27.335938 L 65.460938 26.421875 L 65.992188 25.316406 L 67.621094 25.035156 L 66.746094 23.4375 L 66.734375 22.332031 L 68.226562 17.554688 L 69.320312 16.265625 L 69.347656 15.273438 L 68.667969 14.785156 L 68.179688 13.527344 L 68.46875 10.925781 L 69.28125 9.359375 L 68.800781 8.46875 L 68.921875 7.246094 L 70.234375 6.515625 L 71.835938 7.199219 L 72.296875 8.136719 L 74.257812 8.109375 L 75.0625 7.179688 L 75.703125 7.378906 L 76.097656 8.34375 L 77.652344 8.53125 L 79.757812 8.289062 L 80.058594 6.4375 Z M 80.398438 6.570312 " />
<path d="M 51.148438 75.535156 L 52.59375 75.261719 L 53.308594 74.335938 L 54.910156 73.835938 L 56.015625 72.832031 L 56.316406 71.902344 L 57.136719 72.382812 L 58.449219 72.128906 L 59.109375 70.15625 L 59.9375 69.144531 L 60.691406 68.871094 L 61.125 69.453125 L 61.765625 69.253906 L 62.699219 69.6875 L 63.738281 69.238281 L 64.171875 69.648438 L 64.6875 68.523438 L 65.3125 68.816406 L 65.71875 68.316406 L 66.386719 68.636719 L 66.292969 70.984375 L 65.3125 72.664062 L 64.539062 73.058594 L 64.945312 73.5625 L 67.292969 74.429688 L 68.113281 73.359375 L 69.640625 74.035156 L 70.394531 73.480469 L 70.554688 72.34375 L 71.109375 71.867188 L 71.949219 73.648438 L 73.523438 73.65625 L 74.023438 73.199219 L 75.890625 74.464844 L 75.53125 75.207031 L 74.0625 75.703125 L 73.550781 77.214844 L 73.949219 77.601562 L 73.808594 78.859375 L 74.644531 80.070312 L 76.203125 80.070312 L 76.910156 81.863281 L 77.644531 82.085938 L 78.492188 83.945312 L 77.8125 85.203125 L 77.871094 86.695312 L 77.21875 87.34375 L 77.3125 89.390625 L 75.976562 91.050781 L 74.824219 91.71875 L 75.136719 93.164062 L 73.976562 97.078125 L 69.933594 97.746094 L 66.953125 97.21875 L 64.511719 98.214844 L 60.878906 97.386719 L 58.316406 97.339844 L 57.097656 97.574219 L 55.457031 98.910156 L 54.441406 97.902344 L 53.496094 98.382812 L 52.933594 100.042969 L 51.960938 100.230469 L 51.519531 101.152344 L 49.878906 102.183594 L 50.3125 100.917969 L 49.953125 100.203125 L 48.699219 98.316406 L 47.878906 98.121094 L 47.207031 97.152344 L 45.925781 97.425781 L 46.050781 95.304688 L 45.558594 94.207031 L 44.957031 94.855469 L 44.472656 94.273438 L 43.558594 94.113281 L 43.042969 94.570312 L 42.9375 97.023438 L 42.371094 97.527344 L 43.023438 99.113281 L 40.65625 99.351562 L 37.628906 98.054688 L 37.847656 93.90625 L 37.429688 92.917969 L 36.761719 93.304688 L 36.175781 92.300781 L 36.175781 92.273438 L 35.941406 91.773438 L 36.5625 91.363281 L 36.46875 90.480469 L 37.894531 89.953125 L 38.410156 90.152344 L 39.121094 88.976562 L 39.648438 89.210938 L 40.222656 88.828125 L 41.128906 86.949219 L 41.242188 86.386719 L 42.203125 86.453125 L 42.097656 85.75 L 42.703125 86.160156 L 42.984375 85.578125 L 43.683594 85.925781 L 43.730469 84.996094 L 44.152344 85.523438 L 44.511719 85.464844 L 44.257812 84.820312 L 44.738281 85.25 L 45.34375 84.828125 L 45.757812 85.289062 L 46.066406 84.3125 L 47.585938 84.304688 L 47.171875 83.148438 L 48.707031 82.171875 L 49.878906 82.453125 L 50.375 83.035156 L 50.433594 81.703125 L 50.726562 81.429688 L 50.101562 81.457031 L 51.007812 81.101562 L 51.414062 81.9375 L 52.320312 80.859375 L 52.066406 80.558594 L 52.648438 80.324219 L 52.515625 79.609375 L 50.726562 78.183594 L 50.347656 77.394531 Z M 51.148438 75.535156 " />
<path d="M 21.316406 64.269531 L 23.769531 66.644531 L 24.929688 67.839844 L 25.757812 67.921875 L 25.863281 66.394531 L 26.363281 65.625 L 27.277344 65.875 L 27.550781 66.429688 L 27.625 68.9375 L 29.632812 68.082031 L 29.632812 68.945312 L 30.332031 69.5 L 30.226562 72.222656 L 28.890625 72.210938 L 29.078125 73.1875 L 30.132812 73.125 L 31.132812 73.628906 L 31.304688 72.148438 L 32.472656 71.894531 L 32.605469 70.804688 L 33.492188 71.21875 L 34.007812 70.984375 L 34.054688 70.214844 L 34.453125 70.109375 L 34.867188 70.703125 L 35.742188 70.570312 L 37.195312 71.921875 L 38.921875 71.140625 L 39.15625 71.519531 L 39.582031 71.078125 L 40.675781 71.535156 L 43.398438 69.507812 L 45.445312 68.75 L 48.113281 66.109375 L 49.773438 65.125 L 49.8125 65.773438 L 50.714844 66.722656 L 50.300781 67.414062 L 49.1875 67.828125 L 49.273438 68.402344 L 49.820312 68.824219 L 50.707031 68.75 L 50.472656 70.90625 L 51.867188 71.59375 L 51.648438 72.183594 L 50.488281 72.523438 L 49.847656 74.144531 L 51.148438 75.535156 L 50.347656 77.394531 L 50.726562 78.183594 L 52.515625 79.609375 L 52.648438 80.324219 L 52.066406 80.558594 L 52.320312 80.859375 L 51.414062 81.9375 L 51.007812 81.101562 L 50.101562 81.457031 L 50.726562 81.429688 L 50.433594 81.703125 L 50.375 83.035156 L 49.878906 82.453125 L 48.707031 82.171875 L 47.171875 83.148438 L 47.585938 84.304688 L 46.066406 84.3125 L 45.757812 85.289062 L 45.34375 84.828125 L 44.738281 85.25 L 44.257812 84.820312 L 44.511719 85.464844 L 44.152344 85.523438 L 43.730469 84.996094 L 43.683594 85.925781 L 42.984375 85.578125 L 42.703125 86.160156 L 42.097656 85.75 L 42.203125 86.453125 L 41.242188 86.386719 L 41.128906 86.949219 L 40.722656 86.722656 L 41.390625 85.503906 L 40.023438 83.5625 L 40.382812 81.597656 L 39.335938 80.953125 L 38.421875 82.398438 L 37.449219 81.816406 L 36.449219 82.660156 L 35.789062 84.050781 L 36.609375 84.828125 L 36.347656 85.972656 L 35.320312 84.847656 L 33.539062 87.34375 L 32.492188 87.035156 L 33.359375 86.125 L 31.980469 83.382812 L 31.660156 83.796875 L 31.953125 84.5 L 31.046875 83.722656 L 30.058594 84.941406 L 29.117188 85.007812 L 28.625 86.378906 L 27.9375 83.328125 L 27.050781 83.34375 L 26.351562 84.707031 L 25.523438 84.78125 L 25.578125 83.984375 L 24.550781 83.25 L 21.847656 82.828125 L 20.828125 83.925781 L 19.667969 83.308594 L 18.800781 83.503906 L 18.046875 82.699219 L 19.007812 79.101562 L 17.585938 77.167969 L 19.515625 71.628906 Z M 21.316406 64.269531 " />
<path d="M 37.882812 123.15625 L 38.15625 123.503906 L 39.457031 121.886719 L 39.796875 122.101562 L 40.136719 121.652344 L 40.710938 122.214844 L 40.769531 121.804688 L 41.570312 121.8125 L 41.730469 122.1875 L 41.082031 122.527344 L 41.597656 123.847656 L 42.070312 123.578125 L 42.097656 122.441406 L 42.570312 122.074219 L 44.257812 123.378906 L 44.003906 124.917969 L 45.058594 124.789062 L 46.90625 123.632812 L 47.792969 125.277344 L 48.332031 125.472656 L 48.359375 126.148438 L 50.921875 126.628906 L 51.054688 126.195312 L 52.046875 126.160156 L 52.621094 124.984375 L 53.65625 126 L 54.089844 125.351562 L 55.457031 126.035156 L 56.449219 124.429688 L 57.628906 124.476562 L 58.296875 123.886719 L 57.976562 122.957031 L 58.5625 122.355469 L 59.171875 123.210938 L 59.992188 123.136719 L 59.910156 123.605469 L 60.957031 124.027344 L 60.558594 125.484375 L 61.851562 126.335938 L 61.710938 127.339844 L 62.398438 128.410156 L 61.8125 128.441406 L 62.378906 128.863281 L 62.785156 130.203125 L 63.472656 129.828125 L 63.871094 130.34375 L 64.671875 130.109375 L 64.746094 129.304688 L 65.3125 129.105469 L 65.671875 128.722656 L 66.113281 129.210938 L 67.148438 128.449219 L 67.695312 129.171875 L 68.261719 129.078125 L 67.519531 130.917969 L 68.375 132.101562 L 66.707031 133.152344 L 66.328125 136.371094 L 67.1875 136.914062 L 65.074219 141.074219 L 64.867188 142.417969 L 65.5 142.246094 L 65.546875 142.746094 L 64.445312 144.023438 L 65 143.851562 L 66.113281 144.632812 L 66.359375 145.570312 L 69.386719 149.917969 L 69.960938 150.046875 L 71.234375 153.34375 L 70.5625 153.960938 L 69.914062 153.886719 L 69.96875 154.515625 L 69.6875 154.402344 L 68.515625 151.992188 L 68.78125 151.144531 L 67.167969 150.515625 L 65.886719 147.964844 L 64.40625 148.347656 L 63.851562 149.15625 L 62.332031 149.195312 L 62.625 149.503906 L 62.257812 150.367188 L 61.570312 150.621094 L 61.398438 151.277344 L 60.625 152.253906 L 59.671875 152.636719 L 59.617188 153.324219 L 57.550781 153.316406 L 56.890625 152.75 L 55.535156 152.535156 L 54.507812 152.882812 L 51.839844 151.144531 L 49.460938 150.949219 L 45.21875 148.453125 L 44.378906 149.15625 L 43.023438 148.066406 L 40.757812 148.648438 L 40.136719 148.03125 L 39.769531 148.386719 L 38.78125 147.53125 L 36.648438 147.121094 L 36.414062 146.441406 L 35.066406 146.414062 L 36.214844 144.914062 L 35.675781 144.453125 L 36.214844 144.398438 L 35.988281 143.898438 L 35.046875 143.984375 L 35.421875 143.167969 L 33.679688 139.871094 L 32.066406 140.8125 L 31.398438 140.566406 L 30.492188 140.972656 L 29.644531 139.808594 L 29.179688 139.984375 L 29.597656 140.878906 L 28.925781 141.175781 L 28.8125 140.539062 L 27.617188 140.40625 L 27.539062 139.789062 L 25.636719 139.730469 L 25.210938 137.367188 L 29.746094 133.460938 L 29.453125 132.691406 L 30.050781 131.726562 L 28.390625 131.640625 L 29.765625 129.980469 L 30.660156 130.449219 L 31.859375 128.964844 L 32.1875 128.832031 L 32.492188 129.386719 L 33.425781 128.121094 L 34.5 128.785156 L 35.101562 128.015625 L 35.433594 128.5625 L 35.707031 127.6875 L 36.914062 128.617188 L 36.714844 128.925781 L 37.195312 129.554688 L 38.042969 129.144531 L 38.789062 129.960938 L 38.5625 130.289062 L 39.496094 130.222656 L 39.375 130.703125 L 40.449219 131.285156 L 40.929688 130.128906 L 40.183594 129.507812 L 39.902344 130.007812 L 39.714844 129.191406 L 39.082031 128.84375 L 39.9375 127.746094 L 39.25 127.246094 L 38.476562 127.433594 L 38.402344 127.050781 L 36.5625 126.1875 L 37.441406 125.023438 L 37.441406 123.679688 Z M 37.882812 123.15625 " />
<path d="M 49.867188 197.441406 L 50.386719 197.535156 L 48.546875 198.980469 L 48.972656 198.023438 Z M 46.378906 197.375 L 48.519531 198.953125 L 46.886719 198.738281 L 45.304688 197.574219 Z M 50.074219 196.785156 L 50.425781 197.121094 L 48.90625 197.5625 Z M 37.769531 194.53125 L 35.789062 194.933594 L 33.78125 193.847656 L 31.660156 194.449219 L 28.71875 193.246094 L 26.316406 193.058594 L 24.871094 193.660156 L 24.789062 194.691406 L 23.023438 194.410156 L 21.203125 195.28125 L 19.660156 195.367188 L 18.953125 196.050781 L 18.046875 196.035156 L 16.453125 197.84375 L 15.980469 196.671875 L 14.992188 196.773438 L 17.773438 191.480469 L 17.328125 190.328125 L 18 189.949219 L 19.054688 187.632812 L 18.527344 185.699219 L 19.515625 184.542969 L 20.960938 181.164062 L 22.347656 181.578125 L 22.828125 182.9375 L 24.890625 182.734375 L 25.625 183.671875 L 26.324219 182.695312 L 27.691406 182.347656 L 29.324219 183.558594 L 31.226562 183.644531 L 32.09375 182.996094 L 32.207031 182.058594 L 34.632812 181.550781 L 34.859375 181.90625 L 35.132812 181.335938 L 36.386719 181.839844 L 36.769531 182.488281 L 36.46875 183.257812 L 37.253906 183.332031 L 39.054688 184.9375 L 42.703125 185.773438 L 43.84375 184.449219 L 44.9375 184.140625 L 44.457031 183.605469 L 45.191406 182.507812 L 46.464844 182.628906 L 46.90625 182.253906 L 47.40625 182.609375 L 47.566406 182.121094 L 47.917969 182.207031 L 47.898438 181.484375 L 48.960938 181.382812 L 49.046875 180.949219 L 49.652344 180.976562 L 49.953125 180.460938 L 50.265625 180.707031 L 51.726562 179.839844 L 51.667969 179.523438 L 52.007812 179.8125 L 54.347656 178.847656 L 56.042969 179.371094 L 57.363281 177.984375 L 59.203125 178.085938 L 59.804688 178.238281 L 60.042969 179.128906 L 60.644531 179.542969 L 60.492188 180.234375 L 61.191406 182.066406 L 60.683594 182.449219 L 61.34375 183.117188 L 61.296875 186.074219 L 61.90625 187.464844 L 61.550781 188.347656 L 62.152344 189.265625 L 62.332031 191.257812 L 60.785156 191.050781 L 57.769531 191.996094 L 50.820312 197.058594 L 49.859375 196.605469 L 48.546875 197.375 L 48.558594 198.164062 L 48.125 198.304688 L 46.445312 197.246094 L 45.191406 197.480469 L 41.382812 195.019531 L 39.242188 194.269531 Z M 37.769531 194.53125 " />
<path d="M 62.003906 48.632812 L 63.160156 49.429688 L 62.578125 50.257812 L 61.625 49.703125 Z M 65.378906 40.109375 L 67.019531 39.894531 L 69.5625 40.636719 L 70.949219 38.550781 L 71.035156 39.667969 L 70.574219 40.183594 L 71.949219 40.644531 L 71.394531 41.480469 L 71.410156 42.4375 L 72.703125 43.113281 L 73.148438 43.847656 L 74.503906 44.144531 L 74.683594 44.605469 L 75.371094 44.164062 L 76.492188 44.4375 L 76.785156 45.488281 L 78.644531 47.554688 L 78.945312 49.394531 L 80.144531 50.191406 L 80.359375 51.035156 L 80.359375 51.628906 L 79.613281 51.832031 L 79.917969 53.523438 L 79.492188 55.25 L 80.59375 58.816406 L 79.066406 62.527344 L 80.398438 63.136719 L 80.566406 64.648438 L 78.945312 66.976562 L 79.398438 68.671875 L 80.992188 70.34375 L 80.605469 71.742188 L 78.605469 72.859375 L 78.324219 74.296875 L 75.929688 74.484375 L 74.0625 73.226562 L 73.570312 73.6875 L 71.988281 73.675781 L 71.148438 71.894531 L 70.582031 72.371094 L 70.421875 73.507812 L 69.667969 74.0625 L 68.148438 73.386719 L 67.328125 74.457031 L 64.980469 73.59375 L 64.578125 73.078125 L 65.347656 72.683594 L 66.328125 71 L 66.425781 68.65625 L 65.753906 68.34375 L 65.339844 68.832031 L 64.71875 68.550781 L 64.199219 69.667969 L 63.765625 69.265625 L 62.726562 69.714844 L 61.804688 69.273438 L 61.164062 69.472656 L 60.738281 68.890625 L 59.984375 69.160156 L 59.15625 70.167969 L 58.496094 72.136719 L 57.183594 72.390625 L 56.363281 71.914062 L 56.070312 72.832031 L 54.960938 73.847656 L 53.355469 74.34375 L 52.640625 75.273438 L 51.1875 75.542969 L 49.894531 74.15625 L 50.539062 72.542969 L 51.695312 72.203125 L 51.914062 71.613281 L 50.519531 70.9375 L 50.753906 68.777344 L 49.867188 68.851562 L 49.320312 68.429688 L 49.226562 67.855469 L 50.339844 67.453125 L 50.753906 66.75 L 49.847656 65.800781 L 49.820312 65.152344 L 54.667969 62.777344 L 57.183594 62.242188 L 56.9375 61.773438 L 57.628906 59.445312 L 58.335938 58.902344 L 58.0625 58.21875 L 58.542969 57.699219 L 56.882812 56.78125 L 56.710938 56.199219 L 57.484375 55.402344 L 55.78125 54.144531 L 57.035156 51.363281 L 57.777344 50.59375 L 59.183594 50.707031 L 60.984375 52.933594 L 62.484375 50.351562 L 63.179688 50.734375 L 63.351562 49.027344 L 64.480469 48.183594 L 64.8125 46.699219 L 63.21875 45.949219 L 63.210938 45.085938 L 64.445312 45.046875 L 64.199219 43.789062 Z M 65.378906 40.109375 " />
<path d="M 24.230469 100.589844 L 24.683594 101.179688 L 23.957031 102.371094 L 23.390625 102.8125 L 22.816406 102.222656 L 22.441406 102.503906 L 22.957031 104.371094 L 20.78125 104.257812 L 17.773438 104.90625 L 16.519531 107.769531 L 15.839844 107.648438 L 15.179688 108.324219 L 15.078125 111.375 L 14.125 111.503906 L 13.738281 110.859375 L 12.9375 110.875 L 12.765625 111.269531 L 11.683594 112.164062 L 10.664062 113.945312 L 9.617188 114.621094 L 8.890625 113.242188 L 9.351562 112.433594 L 8.957031 111.160156 L 7.617188 111.066406 L 7.316406 110.578125 L 6.089844 111.882812 L 4.769531 111.5625 L 4.054688 109.382812 L 2.742188 108.972656 L 3.113281 108.558594 L 4.609375 108.832031 L 7.75 106.457031 L 8.628906 107.167969 L 8.289062 107.414062 L 9.464844 107.375 L 8.949219 107.308594 L 8.164062 106.0625 L 9.835938 103.582031 L 10.851562 103.441406 L 10.605469 102.785156 L 12.671875 100.25 L 12.71875 99.695312 L 12.351562 99.621094 L 13.425781 95.183594 L 18.09375 82.707031 L 18.847656 83.515625 L 19.714844 83.316406 L 20.882812 83.9375 L 21.894531 82.847656 L 24.597656 83.261719 L 25.625 83.992188 L 25.578125 84.789062 L 26.410156 84.714844 L 27.105469 83.355469 L 27.992188 83.34375 L 28.671875 86.394531 L 29.164062 85.027344 L 30.105469 84.96875 L 31.09375 83.75 L 32 84.527344 L 31.707031 83.824219 L 32.027344 83.410156 L 33.40625 86.152344 L 32.546875 87.0625 L 33.59375 87.371094 L 35.375 84.875 L 36.402344 86 L 36.667969 84.867188 L 35.855469 84.085938 L 36.515625 82.699219 L 37.515625 81.851562 L 38.488281 82.445312 L 39.402344 80.988281 L 40.457031 81.644531 L 40.089844 83.609375 L 41.457031 85.550781 L 40.789062 86.773438 L 41.203125 86.996094 L 40.296875 88.875 L 39.722656 89.269531 L 39.195312 89.035156 L 38.488281 90.207031 L 37.96875 90.011719 L 36.546875 90.535156 L 36.640625 91.417969 L 36.015625 91.832031 L 36.253906 92.328125 L 34.847656 92.066406 L 34.953125 93.632812 L 34.480469 93.15625 L 33.441406 94.019531 L 32.726562 93.699219 L 31.273438 94.824219 L 30.546875 90.703125 L 29.691406 91.585938 L 29.285156 91.089844 L 28.632812 92.101562 L 27.105469 93.0625 L 25.851562 92.5625 L 24.617188 93.183594 L 24.496094 94.226562 L 24.984375 95.058594 L 24.542969 95.679688 L 25.890625 96.242188 L 25.429688 97.527344 L 23.855469 98.390625 Z M 24.230469 100.589844 " />
<path d="M 10.578125 133.855469 L 8.46875 134.371094 L 6.535156 134.101562 L 5.261719 135.066406 L 3.222656 133.976562 L 2.195312 134.457031 L 0.425781 133.742188 L 0.847656 132.167969 L 0 131.003906 L 2.453125 124.863281 L 2.6875 125.03125 L 2.167969 122.601562 L 2.339844 119.851562 L 4.609375 114.960938 L 4.742188 111.582031 L 6.0625 111.898438 L 7.296875 110.59375 L 7.597656 111.082031 L 8.9375 111.1875 L 9.34375 112.464844 L 8.890625 113.269531 L 9.617188 114.648438 L 10.664062 113.972656 L 11.683594 112.191406 L 12.765625 111.300781 L 12.945312 110.90625 L 13.746094 110.886719 L 14.132812 111.535156 L 15.085938 111.402344 L 15.660156 111.769531 L 15.480469 113.195312 L 16.039062 112.980469 L 17.554688 113.757812 L 18.640625 113.15625 L 19.035156 113.9375 L 19.914062 114.210938 L 20.101562 115.625 L 18.5 115.609375 L 17.527344 116.160156 L 18.886719 117.824219 L 20.949219 119.042969 L 21.429688 120.488281 L 20.1875 121.644531 L 19.09375 121.617188 L 19.660156 122.066406 L 18.59375 123.847656 L 19.386719 124.121094 L 18.179688 124.816406 L 17.585938 126.945312 L 15.867188 129.292969 L 15.246094 128.328125 L 15.585938 127.746094 L 15.09375 127.125 L 15.078125 124.9375 L 14.351562 126.957031 L 12.417969 129.546875 L 11.878906 132.859375 Z M 10.578125 133.855469 " />
<path d="M 58.449219 97.425781 L 59.570312 100.175781 L 60.710938 100.824219 L 61.632812 102.289062 L 62.8125 102.476562 L 63.066406 103.949219 L 63.652344 104.324219 L 64.085938 104.070312 L 65.679688 105.261719 L 64.832031 108.144531 L 65.285156 109.871094 L 67.546875 112.078125 L 67.054688 113.027344 L 67.253906 114.753906 L 68.253906 115.550781 L 70.429688 116.160156 L 70.15625 118.546875 L 71.308594 118.902344 L 73.46875 118.21875 L 75.015625 119.335938 L 75.644531 120.601562 L 75.398438 121.175781 L 75.898438 121.773438 L 72.890625 126.207031 L 73.457031 127.277344 L 73.269531 127.8125 L 72.402344 128.203125 L 71.574219 129.660156 L 70.261719 130.035156 L 68.375 132.101562 L 67.519531 130.917969 L 68.261719 129.078125 L 67.695312 129.171875 L 67.148438 128.449219 L 66.113281 129.210938 L 65.671875 128.722656 L 65.3125 129.105469 L 64.746094 129.304688 L 64.671875 130.109375 L 63.871094 130.34375 L 63.472656 129.828125 L 62.785156 130.203125 L 62.378906 128.863281 L 61.8125 128.441406 L 62.398438 128.410156 L 61.710938 127.339844 L 61.851562 126.335938 L 60.558594 125.484375 L 60.957031 124.027344 L 59.910156 123.605469 L 59.992188 123.136719 L 59.171875 123.210938 L 58.5625 122.355469 L 57.976562 122.957031 L 58.296875 123.886719 L 57.628906 124.476562 L 56.449219 124.429688 L 55.457031 126.035156 L 54.089844 125.351562 L 53.65625 126 L 52.621094 124.984375 L 52.046875 126.160156 L 51.054688 126.195312 L 50.921875 126.628906 L 48.359375 126.148438 L 48.332031 125.472656 L 47.792969 125.277344 L 46.90625 123.632812 L 45.058594 124.789062 L 44.003906 124.917969 L 44.257812 123.378906 L 42.570312 122.074219 L 42.097656 122.441406 L 42.070312 123.578125 L 41.597656 123.847656 L 41.082031 122.527344 L 41.730469 122.1875 L 41.570312 121.8125 L 40.769531 121.804688 L 40.710938 122.214844 L 40.136719 121.652344 L 39.796875 122.101562 L 39.457031 121.886719 L 38.15625 123.503906 L 37.882812 123.15625 L 37.914062 122.496094 L 37.242188 122.542969 L 36.695312 120.742188 L 36.007812 120.441406 L 36.007812 119.617188 L 34.707031 119.0625 L 34.441406 118.5 L 35.78125 116.472656 L 37.574219 115.777344 L 39.128906 114.367188 L 40.164062 113.15625 L 40.035156 112.5 L 40.636719 111.769531 L 42.324219 112.097656 L 43.878906 109.664062 L 43.777344 108.8125 L 45.605469 108.097656 L 46.472656 107.054688 L 44.859375 105.609375 L 44.398438 104.632812 L 45.992188 101.144531 L 49.09375 103.199219 L 49.878906 102.183594 L 51.519531 101.152344 L 51.960938 100.230469 L 52.933594 100.042969 L 53.496094 98.382812 L 54.441406 97.902344 L 55.457031 98.910156 L 57.097656 97.574219 L 58.316406 97.339844 Z M 58.449219 97.425781 " />
<path d="M 24.109375 38.945312 L 23.316406 37.574219 L 22.65625 32.535156 L 21.242188 29.277344 L 21.589844 27.070312 L 22.46875 27.175781 L 23.808594 28.214844 L 24.722656 28.09375 L 25.316406 29.109375 L 26.65625 29.378906 L 27.089844 29.878906 L 26.503906 30.226562 L 26.117188 30.5625 L 26.496094 32.207031 L 29.238281 32.027344 L 29.746094 31.136719 L 31.113281 30.855469 L 31.832031 31.351562 L 32.78125 30.515625 L 33.234375 30.648438 L 32.945312 31.398438 L 34.96875 30.808594 L 35.253906 31.8125 L 36.121094 32.214844 L 36.402344 31.097656 L 37.347656 30.121094 L 38.054688 30.148438 L 38.316406 29.425781 L 39.730469 29.878906 L 39.9375 30.628906 L 40.515625 30.769531 L 40.308594 31.457031 L 41.109375 32.132812 L 42.097656 32.675781 L 42.730469 32.132812 L 43.757812 33.089844 L 45.019531 31.972656 L 45.457031 30.875 L 45.503906 31.457031 L 46.257812 31.753906 L 45.765625 32.667969 L 47.445312 33.726562 L 47.039062 34.195312 L 47.191406 34.898438 L 48.398438 36.101562 L 47.3125 40.898438 L 46.125 40.785156 L 43.117188 42.082031 L 41.835938 41.648438 L 40.65625 42.316406 L 38.601562 41.910156 L 36.828125 43.019531 L 35.933594 42.464844 L 34.347656 44.015625 L 32.820312 43.554688 L 32.765625 44.34375 L 33.28125 44.710938 L 33.105469 45.554688 L 31.886719 44.726562 L 31.332031 43.515625 L 31.09375 43.949219 L 30.21875 43.546875 L 30.03125 44.0625 L 30.804688 44.425781 L 30.058594 44.738281 L 29.972656 45.207031 L 29.359375 45 L 28.972656 44.035156 L 28.117188 45.007812 L 26.796875 45.28125 L 26.664062 44.605469 L 25.503906 44.992188 L 24.816406 40.148438 Z M 24.109375 38.945312 " />
<path d="M 15.058594 111.375 L 15.160156 108.324219 L 15.820312 107.648438 L 16.5 107.769531 L 17.761719 104.90625 L 20.769531 104.257812 L 22.949219 104.371094 L 22.441406 102.496094 L 22.816406 102.222656 L 23.390625 102.8125 L 24.675781 101.207031 L 23.761719 98.316406 L 25.335938 97.453125 L 25.796875 96.167969 L 24.449219 95.605469 L 24.890625 94.984375 L 24.402344 94.148438 L 24.523438 93.109375 L 25.757812 92.496094 L 27.023438 92.996094 L 28.550781 92.039062 L 29.199219 91.023438 L 29.605469 91.519531 L 30.464844 90.640625 L 31.191406 94.757812 L 32.640625 93.632812 L 33.359375 93.953125 L 34.394531 93.089844 L 34.867188 93.566406 L 34.773438 92 L 36.1875 92.261719 L 36.195312 92.300781 L 36.769531 93.304688 L 37.449219 92.910156 L 37.863281 93.90625 L 37.648438 98.054688 L 40.675781 99.351562 L 43.042969 99.125 L 42.390625 97.527344 L 42.957031 97.03125 L 43.050781 94.582031 L 43.570312 94.121094 L 44.492188 94.28125 L 44.964844 94.863281 L 45.566406 94.214844 L 46.066406 95.3125 L 45.945312 97.445312 L 47.226562 97.171875 L 47.898438 98.128906 L 48.71875 98.328125 L 49.972656 100.214844 L 50.328125 100.917969 L 49.894531 102.183594 L 49.113281 103.199219 L 46.011719 101.144531 L 44.417969 104.632812 L 44.878906 105.609375 L 46.492188 107.046875 L 45.625 108.089844 L 43.796875 108.800781 L 43.898438 109.664062 L 42.34375 112.085938 L 40.65625 111.769531 L 40.0625 112.5 L 40.195312 113.15625 L 39.15625 114.359375 L 37.601562 115.777344 L 35.820312 116.460938 L 34.472656 118.488281 L 34.746094 119.0625 L 36.035156 119.617188 L 36.046875 120.441406 L 36.734375 120.742188 L 37.28125 122.542969 L 37.949219 122.496094 L 37.921875 123.15625 L 37.488281 123.679688 L 37.480469 125.011719 L 36.601562 126.1875 L 38.449219 127.050781 L 38.523438 127.445312 L 39.308594 127.257812 L 39.996094 127.753906 L 39.136719 128.851562 L 39.769531 129.199219 L 39.957031 130.027344 L 40.242188 129.519531 L 40.984375 130.136719 L 40.503906 131.292969 L 39.421875 130.710938 L 39.554688 130.230469 L 38.621094 130.296875 L 38.847656 129.96875 L 38.089844 129.152344 L 37.242188 129.574219 L 36.761719 128.945312 L 36.960938 128.636719 L 35.753906 127.707031 L 35.480469 128.582031 L 35.148438 128.035156 L 34.546875 128.804688 L 33.472656 128.140625 L 32.527344 129.40625 L 32.226562 128.851562 L 31.898438 128.984375 L 30.699219 130.476562 L 29.804688 130.007812 L 28.417969 131.679688 L 26.445312 130.9375 L 26.945312 128.75 L 25.964844 129.132812 L 25.675781 129.941406 L 23.628906 128.582031 L 22.269531 132.464844 L 21.140625 132.796875 L 19.722656 131.753906 L 18.132812 132.53125 L 17.78125 132.324219 L 17.679688 132.730469 L 17.132812 131.835938 L 16.566406 131.144531 L 16.992188 130.890625 L 16.859375 130.167969 L 15.859375 129.3125 L 17.574219 126.964844 L 18.167969 124.835938 L 19.375 124.148438 L 18.582031 123.878906 L 19.660156 122.09375 L 19.09375 121.644531 L 20.1875 121.671875 L 21.429688 120.515625 L 20.949219 119.070312 L 18.886719 117.851562 L 17.527344 116.191406 L 18.5 115.636719 L 20.109375 115.65625 L 19.921875 114.238281 L 19.046875 113.964844 L 18.648438 113.1875 L 17.566406 113.785156 L 16.058594 113.007812 L 15.5 113.222656 L 15.6875 111.796875 Z M 15.058594 111.375 " />
<path d="M 21.449219 144.554688 L 24.65625 144.660156 L 23.816406 143.769531 L 23.183594 143.816406 L 23.183594 141.027344 L 22.648438 140.734375 L 22.5625 139.347656 L 21.941406 140.585938 L 21.175781 139.984375 L 21.382812 141.046875 L 20.515625 141.253906 L 22.121094 141.402344 L 22.175781 142.105469 L 21.449219 142.652344 L 20.894531 142.78125 L 21.007812 142.136719 L 17.90625 140.839844 L 17 141.28125 L 16.847656 142.039062 L 15.453125 142.386719 L 14.03125 143.636719 L 12.972656 144.058594 L 11.664062 143.75 L 10.890625 144.265625 L 9.851562 144.246094 L 9.042969 145.007812 L 8.242188 144.839844 L 9.464844 141.375 L 10.589844 140.679688 L 9.457031 140.972656 L 8.578125 137.609375 L 7.050781 135.433594 L 10.53125 134.464844 L 10.523438 135.320312 L 11.898438 135.957031 L 11.097656 135.835938 L 11.730469 137.027344 L 11.691406 136.203125 L 12.417969 136.128906 L 13.378906 137.65625 L 12.9375 135.96875 L 12.164062 135.554688 L 13.644531 134.824219 L 13.746094 135.488281 L 14.265625 135.152344 L 15.039062 135.875 L 14.605469 134.683594 L 15.8125 134.035156 L 13.945312 134.015625 L 13.4375 134.429688 L 13.566406 133.453125 L 16.019531 131.882812 L 17.113281 131.78125 L 17.660156 132.671875 L 17.761719 132.269531 L 18.113281 132.484375 L 19.707031 131.714844 L 21.121094 132.757812 L 22.25 132.429688 L 23.609375 128.542969 L 25.65625 129.914062 L 25.949219 129.105469 L 26.929688 128.722656 L 26.429688 130.910156 L 28.398438 131.648438 L 30.058594 131.734375 L 29.464844 132.699219 L 29.757812 133.472656 L 25.222656 137.375 L 25.644531 139.75 L 27.550781 139.808594 L 27.625 140.425781 L 28.824219 140.558594 L 28.9375 141.195312 L 29.605469 140.894531 L 29.191406 140.003906 L 29.652344 139.835938 L 30.5 141 L 31.40625 140.59375 L 32.074219 140.839844 L 33.6875 139.902344 L 35.441406 143.195312 L 35.066406 144.011719 L 36.007812 143.925781 L 36.234375 144.425781 L 35.695312 144.480469 L 36.234375 144.941406 L 35.074219 146.441406 L 36.421875 146.472656 L 36.667969 147.148438 L 38.796875 147.558594 L 39.789062 148.414062 L 40.824219 150.433594 L 40.824219 152.027344 L 38.128906 152.835938 L 37.554688 153.699219 L 36.234375 153.425781 L 36.027344 155.210938 L 35.414062 155.21875 L 34.734375 154.582031 L 34.601562 155.105469 L 34.085938 155.210938 L 33.847656 156.507812 L 33.09375 156.082031 L 32.472656 157.671875 L 33.839844 159.574219 L 35.179688 159.414062 L 35.933594 160.644531 L 35.46875 163.707031 L 35.761719 164.175781 L 34.695312 165.394531 L 34.828125 166.128906 L 31.738281 165.234375 L 31.558594 165.640625 L 28.671875 165.882812 L 28.257812 166.109375 L 28.324219 167.28125 L 27.8125 167.179688 L 27.285156 167.902344 L 27.191406 169.488281 L 26.609375 169.367188 L 26.296875 169.769531 L 24.996094 169.066406 L 24.324219 169.628906 L 22.78125 167.328125 L 21.5625 167.695312 L 21.0625 167.152344 L 20.609375 163.105469 L 19.28125 162.804688 L 18.855469 162.121094 L 18.234375 162.195312 L 19.722656 159.605469 L 21.195312 154.917969 L 21.609375 151.429688 L 21.308594 147.730469 L 20.074219 144.566406 L 17.667969 141.882812 L 20.109375 143.683594 L 20.882812 145.777344 L 20.640625 143.777344 Z M 21.449219 144.554688 " />
<path d="M 38.96875 0.46875 L 39.242188 3.558594 L 41.136719 2.871094 L 41.789062 3.265625 L 42.203125 5.023438 L 41.890625 5.679688 L 40.863281 5.921875 L 39.816406 6.832031 L 38.214844 9.582031 L 38.714844 11.152344 L 39.628906 11.046875 L 39.75 13.355469 L 39.683594 13.78125 L 38.828125 13.582031 L 36.574219 15.214844 L 35.902344 14.832031 L 35.535156 15.609375 L 34.226562 15.667969 L 33.5 15.253906 L 32.027344 15.769531 L 30.925781 16.753906 L 30.199219 16.960938 L 30.160156 16.464844 L 29.726562 16.511719 L 29.230469 17.007812 L 29.132812 18.847656 L 28.371094 19.488281 L 28.570312 20.753906 L 27.910156 21.054688 L 27.476562 20.292969 L 26.671875 20.632812 L 25.515625 19.835938 L 25.277344 20.753906 L 24.890625 20.3125 L 23.921875 20.378906 L 22.128906 21.421875 L 20.554688 21.503906 L 20.074219 19.1875 L 19.660156 18.679688 L 19.515625 19.082031 L 18.453125 16.0625 L 18.621094 14.175781 L 19.054688 13.667969 L 18.632812 13.246094 L 18.667969 11.292969 L 20.300781 9.667969 L 22.148438 8.796875 L 22.507812 7.5 L 24.949219 6.046875 L 25.089844 4.945312 L 25.730469 4.242188 L 28.410156 3.988281 L 29.191406 2.976562 L 31.472656 2.863281 L 31.898438 3.265625 L 33.300781 3.105469 L 33.859375 2.542969 L 34.78125 2.808594 L 35.226562 1.988281 L 36.96875 1.304688 L 37.109375 0.703125 L 37.996094 0.835938 L 38.75 0 Z M 38.96875 0.46875 " />
<path d="M 47.472656 9.039062 L 48.105469 9.152344 L 47.878906 11.722656 L 48.453125 12.296875 L 49.386719 11.441406 L 49.273438 10.859375 L 50.859375 10.785156 L 51.707031 10.15625 L 52.601562 10.417969 L 53.574219 9.808594 L 54.96875 10.859375 L 56.996094 10.832031 L 56.230469 12.925781 L 58.917969 12.417969 L 59.484375 11.328125 L 60.964844 11.5 L 61.230469 12.523438 L 61.765625 12.878906 L 61.691406 13.789062 L 63.546875 11.988281 L 63.832031 12.476562 L 65.058594 12.390625 L 68.46875 10.925781 L 68.179688 13.527344 L 68.667969 14.785156 L 69.347656 15.273438 L 69.320312 16.265625 L 68.226562 17.554688 L 66.734375 22.332031 L 66.746094 23.4375 L 67.621094 25.035156 L 65.992188 25.316406 L 65.460938 26.421875 L 65.558594 27.335938 L 63.566406 28.28125 L 63.519531 29.277344 L 63.945312 30.796875 L 63.679688 31.257812 L 65.074219 32.300781 L 63.839844 32.582031 L 63.265625 33.238281 L 63.660156 33.652344 L 62.785156 34.363281 L 62.90625 35.988281 L 62.105469 35.839844 L 61.578125 37.3125 L 59.464844 37.761719 L 58.851562 38.53125 L 58.128906 38.195312 L 56.875 39.453125 L 54.648438 39.199219 L 53.65625 40.035156 L 50.707031 39.238281 L 50.207031 39.867188 L 48.414062 39.425781 L 47.292969 40.878906 L 48.367188 36.082031 L 47.160156 34.882812 L 47.011719 34.175781 L 47.417969 33.707031 L 45.738281 32.648438 L 46.238281 31.738281 L 45.484375 31.4375 L 45.4375 30.855469 L 45.632812 30.1875 L 45.230469 30.074219 L 46.417969 28.667969 L 46.511719 26.808594 L 47.566406 26.359375 L 47.839844 25.402344 L 48.792969 25.464844 L 48.71875 24.96875 L 49.519531 24.5 L 49.453125 23.832031 L 50.007812 23.71875 L 50.300781 23.042969 L 49.105469 21.390625 L 48.199219 22.460938 L 44.746094 21.851562 L 44.992188 18.632812 L 43.558594 18.003906 L 41.109375 18.464844 L 42.042969 17.535156 L 42.824219 15.636719 L 43.144531 13.308594 L 44.277344 12.90625 L 45.425781 11.09375 L 47.011719 10.992188 Z M 47.472656 9.039062 " />
<path d="M 61.578125 37.3125 L 62.8125 37.921875 L 63.792969 39.78125 L 65.367188 40.109375 L 64.144531 43.761719 L 64.386719 45.019531 L 63.152344 45.054688 L 63.160156 45.921875 L 64.753906 46.671875 L 64.433594 48.152344 L 63.304688 49 L 63.132812 50.707031 L 62.445312 50.324219 L 60.945312 52.902344 L 59.144531 50.679688 L 57.742188 50.566406 L 56.996094 51.335938 L 55.742188 54.113281 L 57.449219 55.371094 L 56.675781 56.171875 L 56.84375 56.753906 L 58.515625 57.671875 L 58.03125 58.1875 L 58.304688 58.875 L 57.597656 59.417969 L 56.910156 61.746094 L 57.15625 62.214844 L 54.636719 62.75 L 49.792969 65.125 L 48.125 66.109375 L 45.457031 68.75 L 43.410156 69.507812 L 40.683594 71.535156 L 39.589844 71.078125 L 39.167969 71.519531 L 38.929688 71.140625 L 37.207031 71.921875 L 35.753906 70.570312 L 34.875 70.703125 L 34.460938 70.121094 L 34.066406 70.222656 L 34.101562 68.609375 L 35.214844 67.351562 L 34.679688 65.613281 L 37.222656 64.636719 L 36.1875 63.546875 L 35.488281 61.324219 L 37.367188 60.542969 L 35.902344 59.8125 L 35.828125 57.550781 L 34.960938 56.847656 L 34.78125 55.730469 L 36.554688 55.0625 L 37.621094 52.386719 L 37.082031 51.195312 L 37.800781 50.847656 L 39.007812 51.570312 L 39.695312 50.792969 L 40.816406 51.46875 L 41.609375 50.765625 L 40.863281 49.542969 L 40.722656 47.601562 L 42.015625 46.050781 L 41.957031 45.214844 L 41.722656 45.039062 L 40.703125 46.398438 L 38.894531 45.628906 L 38.335938 45.789062 L 38.601562 45.160156 L 37.695312 45.09375 L 37.507812 44.570312 L 37.808594 44.484375 L 37.621094 43.300781 L 36.820312 42.980469 L 38.589844 41.875 L 40.648438 42.277344 L 41.824219 41.613281 L 43.109375 42.054688 L 46.113281 40.757812 L 47.304688 40.871094 L 48.433594 39.414062 L 50.226562 39.855469 L 50.726562 39.226562 L 53.675781 40.023438 L 54.667969 39.191406 L 56.882812 39.441406 L 58.136719 38.183594 L 58.863281 38.523438 L 59.476562 37.746094 Z M 61.625 49.703125 L 62.578125 50.257812 L 63.160156 49.429688 L 62.003906 48.632812 Z M 61.625 49.703125 " />
</g>
</svg> 